<svg width="20.000000" height="20.000000" viewBox="0 0 20 20" fill="none" xmlns="http://www.w3.org/2000/svg" xmlns:xlink="http://www.w3.org/1999/xlink">
	<desc>
			Created with Pixso.
	</desc>
	<defs/>
	<path id="Ellipse 2 (Stroke)" d="M10 19C14.96 19 19 14.97 19 10C19 5.02 14.96 1 10 1C5.03 1 1 5.02 1 10C1 14.97 5.03 19 10 19ZM10 20C15.52 20 20 15.52 20 10C20 4.47 15.52 0 10 0C4.47 0 0 4.47 0 10C0 15.52 4.47 20 10 20Z" fill="#000000" fill-opacity="1.000000" fill-rule="evenodd"/>
	<path id="Arrow 1 (Stroke)" d="M13.27 8.38L10.32 11.32C10.14 11.5 9.85 11.5 9.67 11.32L6.72 8.38C6.54 8.2 6.54 7.9 6.72 7.72C6.91 7.54 7.2 7.54 7.38 7.72L9.53 9.88L9.53 5L10.46 5L10.46 9.88L12.62 7.72C12.8 7.54 13.09 7.54 13.27 7.72C13.45 7.9 13.45 8.2 13.27 8.38Z" fill="#000000" fill-opacity="1.000000" fill-rule="evenodd"/>
	<path id="Vector 1 (Stroke)" d="M6.5 10.5C6.77 10.5 7 10.72 7 11L7 12.5L13 12.5L13 11C13 10.72 13.22 10.5 13.5 10.5C13.77 10.5 14 10.72 14 11L14 13.5L6 13.5L6 11C6 10.72 6.22 10.5 6.5 10.5Z" fill="#000000" fill-opacity="1.000000" fill-rule="evenodd"/>
</svg>
