<svg width="20" height="25" viewBox="0 0 20 25" fill="none" xmlns="http://www.w3.org/2000/svg">
<path d="M8.63691 17.0092C9.12739 17.9479 10.565 18.7428 12.0915 18.7428C16.6369 18.7428 19.9096 14.561 19.9096 9.36859C19.9096 4.39185 15.8462 0.666687 10.62 0.666687C4.11682 0.666687 0.666504 5.03032 0.666504 9.7872C0.666504 11.9986 1.84198 14.747 3.72359 15.6223C4.01111 15.7576 4.16333 15.6984 4.22676 15.4236C4.2775 15.2121 4.5312 14.1931 4.64536 13.7153C4.68765 13.5631 4.64959 13.3982 4.53965 13.284C3.91809 12.5272 3.41915 11.1403 3.41915 9.84639C3.41915 6.52292 5.935 3.30516 10.2225 3.30516C13.9265 3.30516 16.5185 5.82525 16.5185 9.43624C16.5185 13.5124 14.4593 16.3369 11.7786 16.3369C10.2986 16.3369 9.19082 15.1149 9.546 13.6138C9.97306 11.821 10.7934 9.88867 10.7934 8.59481C10.7934 7.43624 10.1718 6.47218 8.88638 6.47218C7.37263 6.47218 6.1591 8.03667 6.1591 10.1297C6.1591 11.4658 6.61154 12.3665 6.61154 12.3665C6.61154 12.3665 5.11894 18.6794 4.84409 19.8548C4.5312 21.2079 4.67496 23.1487 4.81027 24.3327C5.11894 24.451 5.42338 24.5694 5.7405 24.6667C6.35361 23.6815 7.34304 21.9479 7.69399 20.5863C7.88004 19.8887 8.63691 17.0092 8.63691 17.0092Z" fill="white"/>
</svg>
