<svg width="18" height="18" viewBox="0 0 18 18" fill="none" xmlns="http://www.w3.org/2000/svg">
<path fill-rule="evenodd" clip-rule="evenodd" d="M3.35152 8.0562C1.46256 9.8991 1.46256 12.8871 3.35152 14.7301C5.24048 16.5731 8.3031 16.5731 10.1921 14.7301L16.3485 8.7236C16.7263 8.355 17.3389 8.355 17.7167 8.7236C18.0944 9.0921 18.0944 9.6898 17.7167 10.0583L11.5602 16.0649C8.9156 18.645 4.62796 18.645 1.98341 16.0649C-0.661138 13.4848 -0.661138 9.3015 1.98341 6.72137L7.4558 1.38222C9.3448 -0.46074 12.4074 -0.46074 14.2964 1.38222C16.1853 3.22518 16.1853 6.2132 14.2964 8.0562L8.824 13.3953C7.6906 14.5011 5.85301 14.5011 4.71963 13.3953C3.58625 12.2895 3.58625 10.4967 4.71963 9.391L10.1921 4.0518C10.5699 3.6832 11.1824 3.6832 11.5602 4.0518C11.938 4.42039 11.938 5.01799 11.5602 5.38658L6.08774 10.7257C5.70994 11.0943 5.70994 11.6919 6.08774 12.0605C6.46553 12.4291 7.0781 12.4291 7.4558 12.0605L12.9283 6.72137C14.0617 5.6156 14.0617 3.82278 12.9283 2.71701C11.7949 1.61123 9.9573 1.61123 8.824 2.71701L3.35152 8.0562Z" fill="white"/>
</svg>
