<svg width="15" height="20" viewBox="0 0 15 20" fill="none" xmlns="http://www.w3.org/2000/svg">
<path fill-rule="evenodd" clip-rule="evenodd" d="M8.5 1C8.5 0.44772 8.0523 0 7.5 0C6.9477 0 6.5 0.44772 6.5 1V2H5C3.80653 2 2.66193 2.47411 1.81802 3.31802C0.97411 4.16193 0.5 5.30653 0.5 6.5C0.5 7.69347 0.97411 8.8381 1.81802 9.682C2.66193 10.5259 3.80653 11 5 11H6.5V16H1.5C0.94772 16 0.5 16.4477 0.5 17C0.5 17.5523 0.94772 18 1.5 18H6.5V19C6.5 19.5523 6.9477 20 7.5 20C8.0523 20 8.5 19.5523 8.5 19V18H10C11.1935 18 12.3381 17.5259 13.182 16.682C14.0259 15.8381 14.5 14.6935 14.5 13.5C14.5 12.3065 14.0259 11.1619 13.182 10.318C12.3381 9.4741 11.1935 9 10 9H8.5V4H12.5C13.0523 4 13.5 3.55228 13.5 3C13.5 2.44772 13.0523 2 12.5 2H8.5V1ZM6.5 4H5C4.33696 4 3.70107 4.26339 3.23223 4.73223C2.76339 5.20107 2.5 5.83696 2.5 6.5C2.5 7.16304 2.76339 7.79893 3.23223 8.2678C3.70107 8.7366 4.33696 9 5 9H6.5V4ZM8.5 11V16H10C10.663 16 11.2989 15.7366 11.7678 15.2678C12.2366 14.7989 12.5 14.163 12.5 13.5C12.5 12.837 12.2366 12.2011 11.7678 11.7322C11.2989 11.2634 10.663 11 10 11H8.5Z" fill="white"/>
</svg>
