<svg width="187" height="32" viewBox="0 0 187 32" fill="none" xmlns="http://www.w3.org/2000/svg">
<path d="M0 4C0 1.79086 1.79086 0 4 0H73V32H4C1.79086 32 0 30.2091 0 28V4Z" fill="#00C471"/>
<path d="M73 0H183C185.209 0 187 1.79086 187 4V28C187 30.2091 185.209 32 183 32H73V0Z" fill="black"/>
<path d="M13.2812 21.3906V10.1875H17.25C21.2292 10.1875 23.2188 12.0078 23.2188 15.6484C23.2188 17.3932 22.6745 18.7865 21.5859 19.8281C20.5026 20.8698 19.0573 21.3906 17.25 21.3906H13.2812ZM15.8047 12.2422V19.3438H17.0547C18.1484 19.3438 19.0052 19.0156 19.625 18.3594C20.25 17.7031 20.5625 16.8099 20.5625 15.6797C20.5625 14.612 20.2526 13.7734 19.6328 13.1641C19.0182 12.5495 18.1536 12.2422 17.0391 12.2422H15.8047Z" fill="white"/>
<path d="M37.8438 21.3906H35.3516V14.6875C35.3516 13.9635 35.3828 13.1641 35.4453 12.2891H35.3828C35.2526 12.9766 35.1354 13.4714 35.0312 13.7734L32.4062 21.3906H30.3438L27.6719 13.8516C27.599 13.6484 27.4818 13.1276 27.3203 12.2891H27.25C27.3177 13.3932 27.3516 14.362 27.3516 15.1953V21.3906H25.0781V10.1875H28.7734L31.0625 16.8281C31.2448 17.3594 31.3776 17.8932 31.4609 18.4297H31.5078C31.6484 17.8099 31.7969 17.2708 31.9531 16.8125L34.2422 10.1875H37.8438V21.3906Z" fill="white"/>
<path d="M48.4219 20.9922C47.6042 21.388 46.5365 21.5859 45.2188 21.5859C43.5 21.5859 42.1484 21.0807 41.1641 20.0703C40.1797 19.0599 39.6875 17.7135 39.6875 16.0312C39.6875 14.2396 40.2396 12.7865 41.3438 11.6719C42.4531 10.5573 43.8906 10 45.6562 10C46.75 10 47.6719 10.138 48.4219 10.4141V12.8438C47.6719 12.3958 46.8177 12.1719 45.8594 12.1719C44.8073 12.1719 43.9583 12.5026 43.3125 13.1641C42.6667 13.8255 42.3438 14.7214 42.3438 15.8516C42.3438 16.9349 42.6484 17.7995 43.2578 18.4453C43.8672 19.0859 44.6875 19.4062 45.7188 19.4062C46.7031 19.4062 47.6042 19.1667 48.4219 18.6875V20.9922Z" fill="white"/>
<path d="M60.2266 21.3906H57.4766L56.6797 18.8984H52.6953L51.9062 21.3906H49.1719L53.25 10.1875H56.2422L60.2266 21.3906ZM56.1016 16.9609L54.8984 13.1953C54.8099 12.9141 54.7474 12.5781 54.7109 12.1875H54.6484C54.6224 12.5156 54.5573 12.8411 54.4531 13.1641L53.2344 16.9609H56.1016Z" fill="white"/>
<path d="M88.8047 17.5312V21.3906H86.2812V10.1875H90.2344C93.0573 10.1875 94.4688 11.3776 94.4688 13.7578C94.4688 14.8828 94.0625 15.7943 93.25 16.4922C92.4427 17.1849 91.362 17.5312 90.0078 17.5312H88.8047ZM88.8047 12.125V15.6172H89.7969C91.1406 15.6172 91.8125 15.0286 91.8125 13.8516C91.8125 12.7005 91.1406 12.125 89.7969 12.125H88.8047Z" fill="white"/>
<path d="M105.508 21.3906H102.609L100.867 18.5078C100.737 18.2891 100.612 18.0938 100.492 17.9219C100.372 17.75 100.25 17.6042 100.125 17.4844C100.005 17.3594 99.8776 17.2656 99.7422 17.2031C99.612 17.1354 99.4688 17.1016 99.3125 17.1016H98.6328V21.3906H96.1094V10.1875H100.109C102.828 10.1875 104.188 11.2031 104.188 13.2344C104.188 13.625 104.128 13.987 104.008 14.3203C103.888 14.6484 103.719 14.9453 103.5 15.2109C103.281 15.4766 103.016 15.7057 102.703 15.8984C102.396 16.0911 102.052 16.2422 101.672 16.3516V16.3828C101.839 16.4349 102 16.5208 102.156 16.6406C102.312 16.7552 102.464 16.8906 102.609 17.0469C102.755 17.2031 102.893 17.3724 103.023 17.5547C103.159 17.7318 103.281 17.9062 103.391 18.0781L105.508 21.3906ZM98.6328 12.0781V15.1953H99.7266C100.268 15.1953 100.703 15.0391 101.031 14.7266C101.365 14.4089 101.531 14.0156 101.531 13.5469C101.531 12.5677 100.945 12.0781 99.7734 12.0781H98.6328Z" fill="white"/>
<path d="M111.141 21.5859C109.536 21.5859 108.229 21.0651 107.219 20.0234C106.208 18.9766 105.703 17.6146 105.703 15.9375C105.703 14.1667 106.216 12.7344 107.242 11.6406C108.268 10.5469 109.628 10 111.32 10C112.919 10 114.211 10.5234 115.195 11.5703C116.185 12.6172 116.68 13.9974 116.68 15.7109C116.68 17.4714 116.167 18.8906 115.141 19.9688C114.12 21.0469 112.786 21.5859 111.141 21.5859ZM111.25 12.1719C110.365 12.1719 109.661 12.5052 109.141 13.1719C108.62 13.8333 108.359 14.7109 108.359 15.8047C108.359 16.9141 108.62 17.7917 109.141 18.4375C109.661 19.0833 110.344 19.4062 111.188 19.4062C112.057 19.4062 112.747 19.0938 113.258 18.4688C113.768 17.8385 114.023 16.9661 114.023 15.8516C114.023 14.6901 113.776 13.7865 113.281 13.1406C112.786 12.4948 112.109 12.1719 111.25 12.1719Z" fill="white"/>
<path d="M125.773 12.2422H122.578V21.3906H120.047V12.2422H116.867V10.1875H125.773V12.2422Z" fill="white"/>
<path d="M134 21.3906H127.281V10.1875H133.742V12.2422H129.805V14.7344H133.469V16.7812H129.805V19.3438H134V21.3906Z" fill="white"/>
<path d="M143.828 20.9922C143.01 21.388 141.943 21.5859 140.625 21.5859C138.906 21.5859 137.555 21.0807 136.57 20.0703C135.586 19.0599 135.094 17.7135 135.094 16.0312C135.094 14.2396 135.646 12.7865 136.75 11.6719C137.859 10.5573 139.297 10 141.062 10C142.156 10 143.078 10.138 143.828 10.4141V12.8438C143.078 12.3958 142.224 12.1719 141.266 12.1719C140.214 12.1719 139.365 12.5026 138.719 13.1641C138.073 13.8255 137.75 14.7214 137.75 15.8516C137.75 16.9349 138.055 17.7995 138.664 18.4453C139.273 19.0859 140.094 19.4062 141.125 19.4062C142.109 19.4062 143.01 19.1667 143.828 18.6875V20.9922Z" fill="white"/>
<path d="M153.648 12.2422H150.453V21.3906H147.922V12.2422H144.742V10.1875H153.648V12.2422Z" fill="white"/>
<path d="M161.875 21.3906H155.156V10.1875H161.617V12.2422H157.68V14.7344H161.344V16.7812H157.68V19.3438H161.875V21.3906Z" fill="white"/>
<path d="M163.672 21.3906V10.1875H167.641C171.62 10.1875 173.609 12.0078 173.609 15.6484C173.609 17.3932 173.065 18.7865 171.977 19.8281C170.893 20.8698 169.448 21.3906 167.641 21.3906H163.672ZM166.195 12.2422V19.3438H167.445C168.539 19.3438 169.396 19.0156 170.016 18.3594C170.641 17.7031 170.953 16.8099 170.953 15.6797C170.953 14.612 170.643 13.7734 170.023 13.1641C169.409 12.5495 168.544 12.2422 167.43 12.2422H166.195Z" fill="white"/>
</svg>
