<svg width="15" height="9" viewBox="0 0 15 9" fill="none" xmlns="http://www.w3.org/2000/svg">
<path d="M7.33903 8.94886H8.2356C8.2356 8.94886 8.50635 8.92096 8.64479 8.78171C8.77201 8.65372 8.76799 8.41354 8.76799 8.41354C8.76799 8.41354 8.75043 7.28886 9.30871 7.12326C9.85924 6.96002 10.566 8.2102 11.3151 8.69095C11.8816 9.05464 12.3122 8.97504 12.3122 8.97504L14.3153 8.94886C14.3153 8.94886 15.3632 8.88843 14.8663 8.11823C14.8256 8.05531 14.5768 7.54849 13.3768 6.50717C12.1207 5.4173 12.2891 5.59363 13.8021 3.70842C14.7235 2.56033 15.0918 1.85945 14.9767 1.55928C14.8671 1.27331 14.1893 1.34882 14.1893 1.34882L11.9339 1.36185C11.9339 1.36185 11.7665 1.34053 11.6426 1.40986C11.5214 1.47769 11.4436 1.63606 11.4436 1.63606C11.4436 1.63606 11.0865 2.52442 10.6106 3.28004C9.60628 4.87424 9.20459 4.95865 9.04044 4.8595C8.65849 4.62876 8.75393 3.93269 8.75393 3.43808C8.75393 1.89303 9.00458 1.24883 8.26579 1.08206C8.02069 1.02677 7.84006 0.990204 7.21306 0.984182C6.40827 0.976559 5.72726 0.986503 5.34153 1.1631C5.0849 1.2806 4.88695 1.54232 5.00761 1.55734C5.15669 1.5759 5.49422 1.64253 5.6732 1.87011C5.90441 2.16415 5.89631 2.82426 5.89631 2.82426C5.89631 2.82426 6.02914 4.64301 5.58615 4.86889C5.2822 5.02383 4.86509 4.70753 3.96971 3.26114C3.511 2.52028 3.16456 1.70124 3.16456 1.70124C3.16456 1.70124 3.09785 1.54823 2.97867 1.46631C2.83414 1.36705 2.63223 1.33561 2.63223 1.33561L0.488945 1.34871C0.488945 1.34871 0.16726 1.3571 0.0490226 1.48791C-0.0561561 1.60436 0.0406411 1.84487 0.0406411 1.84487C0.0406411 1.84487 1.71854 5.51474 3.61855 7.36421C5.36085 9.06017 7.33903 8.94886 7.33903 8.94886Z" fill="#767676"/>
</svg>
