<svg width="16" height="16" viewBox="0 0 16 16" fill="none" xmlns="http://www.w3.org/2000/svg">
<path d="M15.2554 4.32462C14.8756 3.47855 14.3325 2.71922 13.641 2.06784C12.9515 1.41825 12.149 0.908414 11.2559 0.552454C10.3328 0.184595 9.35264 -0.00195314 8.34274 -0.00195314C7.33284 -0.00195313 6.3527 0.184595 5.42957 0.552454C4.53644 0.908352 3.73399 1.41819 3.04451 2.06784C2.35308 2.71929 1.80989 3.47855 1.43007 4.32462C1.03586 5.20281 0.835938 6.13574 0.835938 7.09746C0.835938 8.77863 1.46283 10.3962 2.60567 11.6759L1.99322 15.0331L5.2531 13.5695C6.22571 13.9859 7.26408 14.1969 8.34268 14.1969C9.35258 14.1969 10.3327 14.0103 11.2559 13.6425C12.1489 13.2866 12.9514 12.7767 13.6409 12.1271C14.3323 11.4757 14.8755 10.7164 15.2554 9.8703C15.6496 8.99211 15.8495 8.05919 15.8495 7.09746C15.8496 6.13574 15.6497 5.20281 15.2554 4.32462ZM8.34281 13.3627C7.31913 13.3627 6.33678 13.1511 5.42314 12.7336L5.25341 12.656L3.09234 13.6263L3.49629 11.4119L3.35037 11.2579C2.26319 10.1106 1.66447 8.63307 1.66447 7.09746C1.66447 3.64285 4.66031 0.832278 8.34268 0.832278C12.0251 0.832278 15.0209 3.64285 15.0209 7.09746C15.021 10.5521 12.0252 13.3627 8.34281 13.3627Z" fill="#767676"/>
<path d="M11.0963 8.64552C10.7759 8.48752 10.5443 8.38635 10.3769 8.32255C10.2701 8.28321 10.0272 8.17409 9.94054 8.24394C9.67038 8.46767 9.38413 9.09285 9.07907 9.2114C8.3204 9.06073 7.61801 8.53647 7.06735 8.0016C6.82052 7.76425 6.3723 7.10356 6.27207 6.9225C6.25608 6.73743 6.58355 6.49152 6.65575 6.35182C7.03661 5.91886 6.74728 5.65186 6.69799 5.46975C6.61355 5.28332 6.46421 4.95436 6.33679 4.67904C6.22816 4.49902 6.20397 4.23702 6.00368 4.13567C5.16799 3.70246 4.69191 4.56733 4.49499 5.01842C3.31462 7.88206 10.4177 13.3403 11.8626 9.58308C11.9357 9.25474 11.9074 9.13428 11.7931 8.98299C11.5822 8.83485 11.3247 8.76636 11.0963 8.64552Z" fill="#767676"/>
</svg>
