<svg width="16" height="16" viewBox="0 0 16 16" fill="none" xmlns="http://www.w3.org/2000/svg">
<path fill-rule="evenodd" clip-rule="evenodd" d="M4.70749 0.0502569C6.18082 -0.0150753 9.82682 -0.0184086 11.2988 0.0502569C14.3102 0.188921 15.8175 1.89222 15.9495 4.70084C16.0148 6.17415 16.0188 9.81942 15.9495 11.2921C15.8402 13.6714 14.7215 14.996 13.2395 15.5713C12.1495 15.9933 11.0855 15.9913 8.00282 15.9913L7.57968 15.9925C4.7991 16.0066 2.82126 16.1198 1.35015 14.6493C-0.165182 13.134 0.0081515 11.1087 0.0081515 7.99678C0.0081515 4.95617 -0.188515 2.88287 1.35015 1.34423C2.27082 0.423584 3.41282 0.110922 4.70749 0.0502569ZM7.97415 1.4209C5.83615 1.4209 5.58615 1.4309 4.73682 1.4609C1.04015 1.65023 1.41815 4.30285 1.41815 7.98612C1.41815 10.7081 1.21482 12.5034 2.33815 13.6214C3.19157 14.4771 4.32163 14.5463 6.82389 14.5502L8.39544 14.5504C11.3418 14.5558 12.664 14.5961 13.6288 13.6314C14.6202 12.6354 14.5575 11.2907 14.5582 7.99612L14.5573 7.07414C14.5545 5.76066 14.5432 5.46761 14.5115 4.76484C14.3442 1.06891 11.5568 1.4409 8.00415 1.4409L7.97415 1.4209ZM8 4.17391C10.4093 4.17391 12.3636 6.04126 12.3636 8.34783C12.3636 10.6524 10.4114 12.5217 8 12.5217C5.59072 12.5217 3.63636 10.6544 3.63636 8.34783C3.63636 6.04329 5.58859 4.17391 8 4.17391ZM8 5.63865C6.43538 5.63865 5.16768 6.85124 5.16768 8.34783C5.16768 9.84442 6.43467 11.057 8 11.057C9.56532 11.057 10.833 9.84442 10.8323 8.34783C10.8323 6.85124 9.56462 5.63865 8 5.63865ZM12 2.78261C12.6025 2.78261 13.0909 3.24979 13.0909 3.82609C13.0909 4.40238 12.6025 4.86957 12 4.86957C11.3975 4.86957 10.9091 4.40238 10.9091 3.82609C10.9091 3.24979 11.3975 2.78261 12 2.78261Z" fill="white"/>
</svg>
