<svg width="16" height="17" viewBox="0 0 16 17" fill="none" xmlns="http://www.w3.org/2000/svg">
<path d="M12.026 5.71602C15.382 5.71602 16 7.92735 16 10.798V16.666H15.996V16.6667H12.686L12.6857 11.3094C12.681 10.097 12.5899 8.63735 10.9613 8.63735C9.23667 8.63735 8.97267 9.98402 8.97267 11.3767V16.666H5.65933V5.98402H8.84133V7.44069H8.888C9.33 6.60135 10.4127 5.71602 12.026 5.71602ZM3.58133 5.98469V16.6667H0.264V5.98469H3.58133ZM1.92133 0.666687C2.98133 0.666687 3.842 1.52735 3.84267 2.58802C3.84267 3.64869 2.982 4.52735 1.92133 4.52735C0.860667 4.52735 0 3.64869 0 2.58802C0 1.52735 0.860667 0.666687 1.92133 0.666687Z" fill="white"/>
</svg>
