<svg width="20" height="20" viewBox="0 0 20 20" fill="none" xmlns="http://www.w3.org/2000/svg">
<path fill-rule="evenodd" clip-rule="evenodd" d="M15 7.48989C15 8.03988 14.55 8.48988 14 8.48988H5.00004C4.45004 8.48988 4.00004 8.03988 4.00004 7.48989C4.00004 6.93989 4.45004 6.48989 5.00004 6.48989H14C14.55 6.48989 15 6.93989 15 7.48989ZM11 10.4899H5.00004C4.45004 10.4899 4.00004 10.9399 4.00004 11.4899C4.00004 12.0399 4.45004 12.4899 5.00004 12.4899H11C11.55 12.4899 12 12.0399 12 11.4899C12 10.9399 11.55 10.4899 11 10.4899ZM19.71 19.6999C19.44 19.9699 19.05 20.0599 18.69 19.9399L13.37 18.1699C7.23004 20.9299 -0.0199587 16.1499 4.12873e-05 9.48988C4.12873e-05 2.60989 7.47004 -2.17011 13.75 0.999889C18.22 3.22989 20.22 8.78988 18.18 13.3599L19.95 18.6799C20.07 19.0399 19.97 19.4299 19.71 19.6999ZM17.42 17.4099L16.15 13.6099C16.07 13.3599 16.09 13.0799 16.21 12.8399C18.05 9.19988 16.47 4.58989 12.86 2.78989C7.93004 0.299888 2.00004 4.05989 2.00004 9.48988C1.99004 14.8299 7.99004 18.6499 12.85 16.1899C13.09 16.0699 13.36 16.0499 13.62 16.1299L17.42 17.4099Z" fill="white"/>
</svg>
