<svg width="21" height="20" viewBox="0 0 21 20" fill="none" xmlns="http://www.w3.org/2000/svg">
<path d="M8.6969 2.01935C10.4178 1.63052 12.2184 1.80841 13.83 2.5265C14.2886 2.73085 14.826 2.52472 15.0304 2.06611C15.2347 1.6075 15.0286 1.07007 14.57 0.865722C12.6003 -0.0119382 10.3996 -0.229368 8.29619 0.245872C6.19278 0.721112 4.29935 1.86354 2.89828 3.5028C1.49721 5.14205 0.663558 7.19029 0.521678 9.342C0.379788 11.4938 0.937268 13.6338 2.11096 15.4428C3.28465 17.2518 5.01168 18.633 7.03447 19.3803C9.0573 20.1276 11.2674 20.201 13.3354 19.5896C15.4033 18.9782 17.2182 17.7147 18.5093 15.9875C19.8005 14.2604 20.4988 12.1616 20.5 10.0052V9.1688C20.5 8.6668 20.093 8.2597 19.5909 8.2597C19.0888 8.2597 18.6818 8.6668 18.6818 9.1688V10.0047C18.6808 11.769 18.1095 13.4858 17.0531 14.8989C15.9967 16.312 14.5118 17.3458 12.8198 17.8461C11.1279 18.3463 9.3196 18.2862 7.66457 17.6748C6.00956 17.0634 4.59654 15.9333 3.63624 14.4532C2.67595 12.9731 2.21983 11.2222 2.33592 9.4617C2.45201 7.70114 3.13408 6.02531 4.28041 4.68411C5.42674 3.3429 6.97591 2.40818 8.6969 2.01935Z" fill="white"/>
<path d="M20.2339 3.37484C20.5888 3.01964 20.5885 2.44403 20.2333 2.08919C19.8781 1.73434 19.3025 1.73463 18.9476 2.08983L10.4996 10.5464L8.41544 8.4622C8.06042 8.1072 7.48481 8.1072 7.12979 8.4622C6.77477 8.8173 6.77477 9.3929 7.12979 9.7479L9.8571 12.4752C10.0276 12.6457 10.2589 12.7415 10.5001 12.7414C10.7413 12.7414 10.9726 12.6455 11.143 12.4748L20.2339 3.37484Z" fill="white"/>
</svg>
