<svg width="25" height="24" viewBox="0 0 25 24" fill="none" xmlns="http://www.w3.org/2000/svg">
<path fill-rule="evenodd" clip-rule="evenodd" d="M4.25 5C4.25 3.34315 5.59315 2 7.25 2H12.6642L20.25 9.58579V19C20.25 20.6569 18.9069 22 17.25 22H7.25C5.59315 22 4.25 20.6569 4.25 19V5ZM7.25 4C6.69772 4 6.25 4.44772 6.25 5V19C6.25 19.5523 6.69772 20 7.25 20H17.25C17.8023 20 18.25 19.5523 18.25 19V11H13.25C12.1454 11 11.25 10.1046 11.25 9V4H7.25ZM13.25 5.41421L16.8358 9H13.25V5.41421Z" fill="white"/>
</svg>
