<svg width="25" height="24" viewBox="0 0 25 24" fill="none" xmlns="http://www.w3.org/2000/svg">
<path d="M10.9469 4.01935C12.6678 3.63052 14.4684 3.80841 16.08 4.5265C16.5386 4.73085 17.076 4.52472 17.2804 4.06611C17.4847 3.6075 17.2786 3.07007 16.82 2.86572C14.8503 1.98806 12.6496 1.77063 10.5462 2.24587C8.44278 2.72111 6.54935 3.86354 5.14828 5.5028C3.74721 7.14205 2.91356 9.19029 2.77168 11.342C2.62979 13.4938 3.18727 15.6338 4.36096 17.4428C5.53465 19.2518 7.26168 20.633 9.28447 21.3803C11.3073 22.1276 13.5174 22.201 15.5854 21.5896C17.6533 20.9782 19.4682 19.7147 20.7593 17.9875C22.0505 16.2604 22.7488 14.1616 22.75 12.0052V11.1688C22.75 10.6668 22.343 10.2597 21.8409 10.2597C21.3388 10.2597 20.9318 10.6668 20.9318 11.1688V12.0047C20.9308 13.769 20.3595 15.4858 19.3031 16.8989C18.2467 18.312 16.7618 19.3458 15.0698 19.8461C13.3779 20.3463 11.5696 20.2862 9.91457 19.6748C8.25956 19.0634 6.84654 17.9333 5.88624 16.4532C4.92595 14.9731 4.46983 13.2222 4.58592 11.4617C4.70201 9.70114 5.38408 8.02531 6.53041 6.68411C7.67674 5.3429 9.22591 4.40818 10.9469 4.01935Z" fill="white"/>
<path d="M22.4839 5.37484C22.8388 5.01964 22.8385 4.44403 22.4833 4.08919C22.1281 3.73434 21.5525 3.73463 21.1976 4.08983L12.7496 12.5464L10.6654 10.4622C10.3104 10.1072 9.73481 10.1072 9.37979 10.4622C9.02477 10.8173 9.02477 11.3929 9.37979 11.7479L12.1071 14.4752C12.2776 14.6457 12.5089 14.7415 12.7501 14.7414C12.9913 14.7414 13.2226 14.6455 13.393 14.4748L22.4839 5.37484Z" fill="white"/>
</svg>
