<svg width="21" height="20" viewBox="0 0 21 20" fill="none" xmlns="http://www.w3.org/2000/svg">
<path fill-rule="evenodd" clip-rule="evenodd" d="M15.25 7.49001C15.25 8.04 14.8 8.49 14.25 8.49H5.25004C4.70004 8.49 4.25004 8.04 4.25004 7.49001C4.25004 6.94001 4.70004 6.49001 5.25004 6.49001H14.25C14.8 6.49001 15.25 6.94001 15.25 7.49001ZM11.25 10.49H5.25004C4.70004 10.49 4.25004 10.94 4.25004 11.49C4.25004 12.04 4.70004 12.49 5.25004 12.49H11.25C11.8 12.49 12.25 12.04 12.25 11.49C12.25 10.94 11.8 10.49 11.25 10.49ZM19.96 19.7C19.69 19.97 19.3 20.06 18.94 19.94L13.62 18.17C7.48004 20.93 0.230041 16.15 0.250041 9.49C0.250041 2.61001 7.72004 -2.16999 14 1.00001C18.47 3.23001 20.47 8.79 18.43 13.36L20.2 18.68C20.32 19.04 20.22 19.43 19.96 19.7ZM17.67 17.41L16.4 13.61C16.32 13.36 16.34 13.08 16.46 12.84C18.3 9.2 16.72 4.59001 13.11 2.79001C8.18004 0.30001 2.25004 4.06001 2.25004 9.49C2.24004 14.83 8.24004 18.65 13.1 16.19C13.34 16.07 13.61 16.05 13.87 16.13L17.67 17.41Z" fill="white"/>
</svg>
