<svg width="15" height="20" viewBox="0 0 15 20" fill="none" xmlns="http://www.w3.org/2000/svg">
<path fill-rule="evenodd" clip-rule="evenodd" d="M8.75 1C8.75 0.44772 8.3023 0 7.75 0C7.1977 0 6.75 0.44772 6.75 1V2H5.25C4.05653 2 2.91193 2.47411 2.06802 3.31802C1.22411 4.16193 0.75 5.30653 0.75 6.5C0.75 7.69347 1.22411 8.8381 2.06802 9.682C2.91193 10.5259 4.05653 11 5.25 11H6.75V16H1.75C1.19772 16 0.75 16.4477 0.75 17C0.75 17.5523 1.19772 18 1.75 18H6.75V19C6.75 19.5523 7.1977 20 7.75 20C8.3023 20 8.75 19.5523 8.75 19V18H10.25C11.4435 18 12.5881 17.5259 13.432 16.682C14.2759 15.8381 14.75 14.6935 14.75 13.5C14.75 12.3065 14.2759 11.1619 13.432 10.318C12.5881 9.4741 11.4435 9 10.25 9H8.75V4H12.75C13.3023 4 13.75 3.55228 13.75 3C13.75 2.44772 13.3023 2 12.75 2H8.75V1ZM6.75 4H5.25C4.58696 4 3.95107 4.26339 3.48223 4.73223C3.01339 5.20107 2.75 5.83696 2.75 6.5C2.75 7.16304 3.01339 7.79893 3.48223 8.2678C3.95107 8.7366 4.58696 9 5.25 9H6.75V4ZM8.75 11V16H10.25C10.913 16 11.5489 15.7366 12.0178 15.2678C12.4866 14.7989 12.75 14.163 12.75 13.5C12.75 12.837 12.4866 12.2011 12.0178 11.7322C11.5489 11.2634 10.913 11 10.25 11H8.75Z" fill="white"/>
</svg>
