<svg width="17.923828" height="17.828125" viewBox="0 0 17.9238 17.8281" fill="none" xmlns="http://www.w3.org/2000/svg" xmlns:xlink="http://www.w3.org/1999/xlink">
	<desc>
			Created with Pixso.
	</desc>
	<defs/>
	<path id="Vector" d="M17.21 5.12C16.76 4.12 16.11 3.22 15.28 2.45C14.46 1.68 13.5 1.07 12.43 0.65C11.33 0.22 10.16 0 8.96 0C7.75 0 6.58 0.22 5.48 0.65C4.41 1.07 3.45 1.68 2.63 2.45C1.81 3.22 1.16 4.12 0.7 5.12C0.23 6.17 0 7.27 0 8.41C0 10.41 0.74 12.33 2.11 13.84L1.38 17.82L5.27 16.09C6.43 16.58 7.67 16.83 8.96 16.83C10.16 16.83 11.33 16.61 12.43 16.17C13.5 15.75 14.46 15.15 15.28 14.38C16.11 13.6 16.76 12.71 17.21 11.7C17.68 10.66 17.92 9.55 17.92 8.41C17.92 7.27 17.68 6.17 17.21 5.12ZM8.96 15.84C7.74 15.84 6.56 15.59 5.47 15.1L5.27 15.01L2.69 16.16L3.17 13.53L3 13.35C1.7 11.99 0.98 10.23 0.98 8.41C0.98 4.32 4.56 0.98 8.96 0.98C13.35 0.98 16.93 4.32 16.93 8.41C16.93 12.51 13.35 15.84 8.96 15.84Z" fill="#FFFFFF" fill-opacity="1.000000" fill-rule="nonzero"/>
	<path id="Vector" d="M12.59 10.09C12.21 9.9 11.93 9.78 11.73 9.71C11.6 9.66 11.31 9.53 11.21 9.61C10.89 9.88 10.54 10.62 10.18 10.76C9.27 10.58 8.44 9.96 7.78 9.32C7.48 9.04 6.95 8.26 6.83 8.05C6.81 7.83 7.2 7.53 7.29 7.37C7.74 6.85 7.4 6.54 7.34 6.32C7.24 6.1 7.06 5.71 6.91 5.39C6.78 5.17 6.75 4.86 6.51 4.74C5.51 4.23 4.94 5.25 4.71 5.79C3.3 9.18 11.78 15.66 13.5 11.2C13.59 10.81 13.56 10.67 13.42 10.49C13.17 10.31 12.86 10.23 12.59 10.09Z" fill="#FFFFFF" fill-opacity="1.000000" fill-rule="nonzero"/>
</svg>
