<svg width="40" height="40" viewBox="0 0 40 40" fill="none" xmlns="http://www.w3.org/2000/svg">
<path d="M28.2151 16.1305C27.7616 15.1272 27.1132 14.2268 26.2876 13.4544C25.4645 12.6841 24.5065 12.0795 23.4402 11.6574C22.3381 11.2212 21.1679 11 19.9622 11C18.7565 11 17.5863 11.2212 16.4842 11.6574C15.4179 12.0794 14.4599 12.684 13.6368 13.4544C12.8113 14.2269 12.1628 15.1272 11.7093 16.1305C11.2387 17.1718 11 18.2781 11 19.4185C11 21.4121 11.7484 23.3302 13.1128 24.8477L12.3817 28.8286L16.2736 27.0931C17.4347 27.5869 18.6744 27.8371 19.9621 27.8371C21.1678 27.8371 22.338 27.6159 23.4401 27.1796C24.5063 26.7576 25.4643 26.1531 26.2876 25.3828C27.113 24.6103 27.7616 23.7099 28.215 22.7066C28.6857 21.6652 28.9243 20.559 28.9243 19.4185C28.9245 18.2781 28.6858 17.1718 28.2151 16.1305ZM19.9623 26.8479C18.7401 26.8479 17.5673 26.5969 16.4766 26.1019L16.2739 26.0099L13.6939 27.1604L14.1761 24.5346L14.0019 24.352C12.704 22.9915 11.9892 21.2395 11.9892 19.4185C11.9892 15.322 15.5658 11.9892 19.9621 11.9892C24.3584 11.9892 27.9351 15.322 27.9351 19.4185C27.9353 23.5151 24.3586 26.8479 19.9623 26.8479Z" fill="white"/>
<path d="M23.5931 21.0953C23.2106 20.9079 22.934 20.7879 22.7343 20.7123C22.6067 20.6656 22.3168 20.5362 22.2133 20.6191C21.8907 20.8844 21.549 21.6257 21.1848 21.7663C20.279 21.5876 19.4404 20.966 18.783 20.3317C18.4883 20.0503 17.9532 19.2668 17.8335 19.0521C17.8145 18.8326 18.2054 18.541 18.2916 18.3754C18.7463 17.862 18.4009 17.5454 18.342 17.3294C18.2412 17.1083 18.0629 16.7183 17.9108 16.3918C17.7811 16.1783 17.7522 15.8676 17.5131 15.7475C16.5154 15.2338 15.947 16.2593 15.7119 16.7942C14.3027 20.19 22.7829 26.6623 24.508 22.207C24.5953 21.8177 24.5615 21.6748 24.4249 21.4954C24.1732 21.3198 23.8658 21.2386 23.5931 21.0953Z" fill="white"/>
<rect x="0.5" y="0.5" width="39" height="39" stroke="white"/>
</svg>
