<svg width="95" height="40" viewBox="0 0 95 40" fill="none" xmlns="http://www.w3.org/2000/svg">
<rect width="94.5" height="40" rx="4" fill="black"/>
<path d="M18.1572 20.6185C18.1351 18.1614 20.1691 16.966 20.2621 16.9104C19.1102 15.2309 17.3247 15.0014 16.6973 14.9831C15.1978 14.8253 13.7432 15.8804 12.9793 15.8804C12.2002 15.8804 11.0238 14.9984 9.75604 15.0243C8.1246 15.0495 6.59836 15.994 5.76129 17.4608C4.03378 20.4515 5.32217 24.8465 6.97725 27.264C7.80517 28.4479 8.7726 29.7698 10.0389 29.7233C11.2777 29.6722 11.7405 28.9335 13.2354 28.9335C14.7167 28.9335 15.1512 29.7233 16.4427 29.6936C17.7722 29.6722 18.6093 28.5043 19.4083 27.3097C20.365 25.9527 20.7492 24.6163 20.7645 24.5477C20.7332 24.537 18.1824 23.5635 18.1572 20.6185Z" fill="white"/>
<path d="M15.7176 13.3928C16.3839 12.5595 16.8398 11.4259 16.7133 10.2755C15.7489 10.3182 14.5428 10.9426 13.8483 11.7575C13.2339 12.4757 12.685 13.6528 12.8268 14.7597C13.9101 14.8405 15.0224 14.2131 15.7176 13.3928Z" fill="white"/>
<path d="M37.3297 28.0192H35.5984L34.6501 25.0392H31.3536L30.4502 28.0192H28.7646L32.0306 17.8738H34.0478L37.3297 28.0192ZM34.3642 23.7889L33.5065 21.1397C33.4158 20.8691 33.2458 20.2318 32.995 19.2285H32.9645C32.8646 19.66 32.7038 20.2973 32.4827 21.1397L31.6403 23.7889H34.3642Z" fill="white"/>
<path d="M45.7285 24.2714C45.7285 25.5156 45.3923 26.499 44.7199 27.221C44.1177 27.8637 43.3698 28.1846 42.4771 28.1846C41.5135 28.1846 40.8212 27.8385 40.3997 27.1463H40.3692V31H38.7438V23.1119C38.7438 22.3297 38.7232 21.5269 38.6836 20.7036H40.113L40.2037 21.8631H40.2342C40.7763 20.9895 41.5989 20.5534 42.7027 20.5534C43.5657 20.5534 44.2862 20.8942 44.8625 21.5765C45.4404 22.2596 45.7285 23.1576 45.7285 24.2714ZM44.0727 24.3309C44.0727 23.6188 43.9126 23.0318 43.5909 22.5698C43.2394 22.088 42.7675 21.8471 42.176 21.8471C41.775 21.8471 41.4105 21.9813 41.085 22.2458C40.7587 22.5127 40.5453 22.8611 40.4454 23.2926C40.3951 23.4938 40.3699 23.6585 40.3699 23.7881V25.0079C40.3699 25.54 40.5331 25.989 40.8594 26.3557C41.1857 26.7224 41.6095 26.9054 42.131 26.9054C42.7431 26.9054 43.2196 26.669 43.5604 26.1979C43.9019 25.726 44.0727 25.1039 44.0727 24.3309Z" fill="white"/>
<path d="M54.1428 24.2714C54.1428 25.5156 53.8066 26.499 53.1335 27.221C52.532 27.8637 51.7841 28.1846 50.8914 28.1846C49.9277 28.1846 49.2355 27.8385 48.8147 27.1463H48.7842V31H47.1589V23.1119C47.1589 22.3297 47.1383 21.5269 47.0986 20.7036H48.5281L48.6188 21.8631H48.6493C49.1905 20.9895 50.0131 20.5534 51.1178 20.5534C51.98 20.5534 52.7004 20.8942 53.2783 21.5765C53.8539 22.2596 54.1428 23.1576 54.1428 24.2714ZM52.487 24.3309C52.487 23.6188 52.3261 23.0318 52.0044 22.5698C51.653 22.088 51.1826 21.8471 50.5902 21.8471C50.1885 21.8471 49.8248 21.9813 49.4985 22.2458C49.1722 22.5127 48.9595 22.8611 48.8597 23.2926C48.8101 23.4938 48.7842 23.6585 48.7842 23.7881V25.0079C48.7842 25.54 48.9473 25.989 49.2721 26.3557C49.5984 26.7216 50.0223 26.9054 50.5453 26.9054C51.1574 26.9054 51.6339 26.669 51.9747 26.1979C52.3162 25.726 52.487 25.1039 52.487 24.3309Z" fill="white"/>
<path d="M63.5504 25.1742C63.5504 26.0371 63.2508 26.7393 62.6493 27.2813C61.9883 27.8737 61.0681 28.1695 59.8857 28.1695C58.794 28.1695 57.9188 27.9591 57.2563 27.5375L57.633 26.1828C58.3465 26.6143 59.1295 26.8308 59.9825 26.8308C60.5947 26.8308 61.0712 26.692 61.4135 26.416C61.7543 26.1401 61.9243 25.7696 61.9243 25.3076C61.9243 24.8959 61.784 24.549 61.5027 24.2677C61.2229 23.9864 60.7556 23.7249 60.103 23.4832C58.3267 22.8208 57.4393 21.8503 57.4393 20.5741C57.4393 19.7401 57.7504 19.0562 58.3732 18.5241C58.9938 17.9912 59.8217 17.7252 60.857 17.7252C61.7802 17.7252 62.5471 17.886 63.1593 18.207L62.7529 19.5319C62.1812 19.2209 61.5347 19.0654 60.8112 19.0654C60.2395 19.0654 59.7927 19.2064 59.4725 19.487C59.2019 19.7378 59.0662 20.0435 59.0662 20.4056C59.0662 20.8066 59.2209 21.1382 59.532 21.399C59.8026 21.6399 60.2943 21.9006 61.0079 22.1819C61.8808 22.5333 62.522 22.9443 62.9344 23.4154C63.3453 23.885 63.5504 24.4728 63.5504 25.1742Z" fill="white"/>
<path d="M68.924 21.9235H67.1324V25.4753C67.1324 26.3787 67.448 26.83 68.0808 26.83C68.3713 26.83 68.6122 26.8049 68.8028 26.7546L68.8477 27.9888C68.5275 28.1085 68.106 28.1687 67.5837 28.1687C66.9418 28.1687 66.4402 27.9728 66.0781 27.5817C65.7175 27.1899 65.536 26.5327 65.536 25.6095V21.922H64.4688V20.7022H65.536V19.3627L67.1324 18.8809V20.7022H68.924V21.9235Z" fill="white"/>
<path d="M77.0072 24.3013C77.0072 25.4257 76.6855 26.3489 76.0436 27.0709C75.3704 27.8142 74.4769 28.1847 73.3631 28.1847C72.2897 28.1847 71.4351 27.8287 70.7978 27.1166C70.1605 26.4046 69.8418 25.5058 69.8418 24.4225C69.8418 23.2888 70.1696 22.3603 70.8275 21.6383C71.4839 20.9156 72.3698 20.5543 73.4836 20.5543C74.557 20.5543 75.4207 20.9103 76.0725 21.6231C76.6962 22.3145 77.0072 23.2073 77.0072 24.3013ZM75.3209 24.3539C75.3209 23.6792 75.1768 23.1005 74.8848 22.618C74.544 22.034 74.0569 21.7428 73.4256 21.7428C72.7723 21.7428 72.276 22.0348 71.9352 22.618C71.6433 23.1013 71.4992 23.6891 71.4992 24.3843C71.4992 25.059 71.6433 25.6377 71.9352 26.1195C72.2867 26.7034 72.7776 26.9947 73.4112 26.9947C74.0317 26.9947 74.5189 26.6973 74.8703 26.1042C75.1699 25.6125 75.3209 25.0278 75.3209 24.3539Z" fill="white"/>
<path d="M82.2904 22.133C82.1296 22.1033 81.958 22.088 81.7781 22.088C81.2063 22.088 80.7642 22.3038 80.4531 22.736C80.1825 23.1172 80.0468 23.599 80.0468 24.1807V28.0192H78.4222L78.4375 23.0074C78.4375 22.1643 78.4169 21.3966 78.3765 20.7044H79.7922L79.8516 22.104H79.8966C80.0681 21.623 80.3388 21.2357 80.7093 20.9453C81.0714 20.6838 81.4625 20.5534 81.8841 20.5534C82.0343 20.5534 82.17 20.5641 82.2904 20.5831V22.133Z" fill="white"/>
<path d="M89.5595 24.0153C89.5595 24.3065 89.5404 24.552 89.5 24.7525H84.624C84.643 25.4752 84.8786 26.0279 85.3315 26.4091C85.7424 26.7499 86.2737 26.9207 86.9263 26.9207C87.6483 26.9207 88.3069 26.8056 88.8993 26.5746L89.1539 27.7028C88.4617 28.0047 87.6445 28.1549 86.7014 28.1549C85.567 28.1549 84.6766 27.821 84.0286 27.1539C83.3821 26.4869 83.0581 25.5911 83.0581 24.4674C83.0581 23.3643 83.3592 22.4456 83.9623 21.713C84.5935 20.9308 85.4466 20.5397 86.52 20.5397C87.5743 20.5397 88.3725 20.9308 88.9145 21.713C89.3437 22.3343 89.5595 23.1028 89.5595 24.0153ZM88.0096 23.5937C88.0203 23.1119 87.9143 22.6957 87.694 22.3442C87.4127 21.8922 86.9804 21.6665 86.3988 21.6665C85.8674 21.6665 85.4351 21.8868 85.105 22.329C84.8344 22.6804 84.6735 23.102 84.624 23.593H88.0096V23.5937Z" fill="white"/>
<path d="M33.8264 11.6325C33.8264 12.5298 33.5573 13.2052 33.0198 13.6588C32.522 14.0773 31.8145 14.287 30.8982 14.287C30.4438 14.287 30.055 14.2672 29.7295 14.2275V9.32481C30.1541 9.2562 30.6115 9.22113 31.1055 9.22113C31.9784 9.22113 32.6364 9.41096 33.0801 9.79061C33.5771 10.2198 33.8264 10.8335 33.8264 11.6325ZM32.984 11.6546C32.984 11.0729 32.83 10.6269 32.522 10.3159C32.214 10.0056 31.7642 9.85008 31.1719 9.85008C30.9203 9.85008 30.7061 9.86685 30.5284 9.90192V13.6291C30.6268 13.6443 30.8067 13.6512 31.0682 13.6512C31.6796 13.6512 32.1515 13.4812 32.4839 13.1412C32.8163 12.8012 32.984 12.3056 32.984 11.6546Z" fill="white"/>
<path d="M38.2932 12.4161C38.2932 12.9688 38.1354 13.4217 37.8198 13.7769C37.489 14.1421 37.0506 14.3243 36.5032 14.3243C35.9757 14.3243 35.5556 14.1497 35.2423 13.7991C34.9297 13.4491 34.7734 13.0077 34.7734 12.4756C34.7734 11.9191 34.9343 11.4624 35.2575 11.1079C35.5808 10.7534 36.0153 10.5758 36.5627 10.5758C37.0902 10.5758 37.5141 10.7504 37.8351 11.1003C38.14 11.4403 38.2932 11.8794 38.2932 12.4161ZM37.4646 12.4421C37.4646 12.1104 37.3929 11.8261 37.2503 11.589C37.0826 11.3023 36.844 11.159 36.5337 11.159C36.2128 11.159 35.9688 11.3023 35.8011 11.589C35.6578 11.8261 35.5869 12.115 35.5869 12.4565C35.5869 12.7882 35.6585 13.0725 35.8011 13.3096C35.9742 13.5963 36.2151 13.7396 36.5261 13.7396C36.831 13.7396 37.0704 13.594 37.2427 13.302C37.3906 13.0603 37.4646 12.7737 37.4646 12.4421Z" fill="white"/>
<path d="M44.2826 10.649L43.1581 14.2427H42.4262L41.9604 12.6822C41.8423 12.2926 41.7462 11.9054 41.6715 11.5211H41.657C41.5877 11.916 41.4916 12.3025 41.3681 12.6822L40.8733 14.2427H40.1331L39.0757 10.649H39.8967L40.3031 12.3574C40.4014 12.7615 40.4822 13.1465 40.547 13.5109H40.5615C40.621 13.2105 40.7193 12.8278 40.8581 12.3651L41.3681 10.6497H42.0191L42.5078 12.3285C42.626 12.7378 42.722 13.132 42.796 13.5116H42.8181C42.8722 13.1419 42.9538 12.7478 43.0621 12.3285L43.4981 10.6497H44.2826V10.649Z" fill="white"/>
<path d="M48.4245 14.2427H47.6255V12.1843C47.6255 11.5501 47.3846 11.2329 46.9013 11.2329C46.6642 11.2329 46.4728 11.3198 46.3242 11.4944C46.177 11.669 46.1023 11.8748 46.1023 12.1104V14.242H45.3034V11.6759C45.3034 11.3602 45.2935 11.0179 45.2744 10.6474H45.9765L46.0139 11.2093H46.036C46.129 11.0347 46.2678 10.8906 46.45 10.7755C46.6665 10.6413 46.9089 10.5735 47.1742 10.5735C47.5096 10.5735 47.7887 10.6817 48.0105 10.899C48.2865 11.1651 48.4245 11.5623 48.4245 12.0898V14.2427Z" fill="white"/>
<path d="M50.6273 14.2427H49.8291V9H50.6273V14.2427Z" fill="white"/>
<path d="M55.3318 12.4161C55.3318 12.9688 55.174 13.4217 54.8584 13.7769C54.5275 14.1421 54.0884 14.3243 53.5418 14.3243C53.0135 14.3243 52.5934 14.1497 52.2809 13.7991C51.9683 13.4491 51.812 13.0077 51.812 12.4756C51.812 11.9191 51.9729 11.4624 52.2961 11.1079C52.6193 10.7534 53.0539 10.5758 53.6005 10.5758C54.1288 10.5758 54.5519 10.7504 54.8736 11.1003C55.1786 11.4403 55.3318 11.8794 55.3318 12.4161ZM54.5024 12.4421C54.5024 12.1104 54.4307 11.8261 54.2881 11.589C54.1212 11.3023 53.8818 11.159 53.5723 11.159C53.2506 11.159 53.0066 11.3023 52.8397 11.589C52.6963 11.8261 52.6254 12.115 52.6254 12.4565C52.6254 12.7882 52.6971 13.0725 52.8397 13.3096C53.0127 13.5963 53.2536 13.7396 53.5647 13.7396C53.8696 13.7396 54.1082 13.594 54.2805 13.302C54.4292 13.0603 54.5024 12.7737 54.5024 12.4421Z" fill="white"/>
<path d="M59.1979 14.2427H58.4805L58.421 13.8288H58.3989C58.1535 14.1589 57.8035 14.3243 57.3492 14.3243C57.0099 14.3243 56.7355 14.2153 56.5289 13.9988C56.3413 13.8021 56.2476 13.5574 56.2476 13.2669C56.2476 12.8278 56.4305 12.4931 56.7987 12.2614C57.1662 12.0296 57.6831 11.916 58.3486 11.9214V11.8543C58.3486 11.3809 58.1001 11.1445 57.6023 11.1445C57.2478 11.1445 56.9352 11.2337 56.6653 11.4106L56.5029 10.8861C56.8369 10.6795 57.2493 10.5758 57.7357 10.5758C58.6749 10.5758 59.146 11.0713 59.146 12.0624V13.3859C59.146 13.7449 59.1636 14.0308 59.1979 14.2427ZM58.3684 13.0077V12.4535C57.4872 12.4382 57.0465 12.6799 57.0465 13.1777C57.0465 13.3653 57.0968 13.5055 57.1997 13.5993C57.3027 13.6931 57.4338 13.7396 57.5901 13.7396C57.7654 13.7396 57.9293 13.6839 58.0787 13.5734C58.2289 13.4621 58.3212 13.3211 58.3555 13.148C58.3639 13.1091 58.3684 13.0619 58.3684 13.0077Z" fill="white"/>
<path d="M63.7377 14.2427H63.0287L62.9914 13.6656H62.9693C62.7429 14.1047 62.3571 14.3243 61.8151 14.3243C61.3821 14.3243 61.0215 14.1543 60.7356 13.8143C60.4497 13.4743 60.3071 13.0329 60.3071 12.4908C60.3071 11.9092 60.4619 11.438 60.7729 11.0782C61.0741 10.7428 61.443 10.575 61.8822 10.575C62.3647 10.575 62.7025 10.7374 62.8946 11.0629H62.9098V9H63.7095V13.2745C63.7095 13.6245 63.7187 13.9469 63.7377 14.2427ZM62.9098 12.7272V12.128C62.9098 12.0243 62.9022 11.9404 62.8877 11.8764C62.8427 11.6843 62.7459 11.5226 62.5988 11.3923C62.4501 11.2619 62.271 11.1964 62.0644 11.1964C61.7663 11.1964 61.533 11.3145 61.3615 11.5516C61.1915 11.7887 61.1053 12.0914 61.1053 12.4611C61.1053 12.8164 61.1869 13.1045 61.3508 13.3264C61.5238 13.5627 61.7571 13.6809 62.0491 13.6809C62.3114 13.6809 62.521 13.5825 62.6803 13.3851C62.8343 13.2029 62.9098 12.9833 62.9098 12.7272Z" fill="white"/>
<path d="M70.5706 12.4161C70.5706 12.9688 70.4128 13.4217 70.0972 13.7769C69.7663 14.1421 69.3287 14.3243 68.7806 14.3243C68.2538 14.3243 67.8337 14.1497 67.5196 13.7991C67.2071 13.4491 67.0508 13.0077 67.0508 12.4756C67.0508 11.9191 67.2116 11.4624 67.5349 11.1079C67.8581 10.7534 68.2927 10.5758 68.8408 10.5758C69.3676 10.5758 69.7922 10.7504 70.1124 11.1003C70.4174 11.4403 70.5706 11.8794 70.5706 12.4161ZM69.7427 12.4421C69.7427 12.1104 69.671 11.8261 69.5284 11.589C69.36 11.3023 69.1221 11.159 68.8111 11.159C68.4909 11.159 68.2469 11.3023 68.0784 11.589C67.9351 11.8261 67.8642 12.115 67.8642 12.4565C67.8642 12.7882 67.9359 13.0725 68.0784 13.3096C68.2515 13.5963 68.4924 13.7396 68.8034 13.7396C69.1084 13.7396 69.3485 13.594 69.5208 13.302C69.668 13.0603 69.7427 12.7737 69.7427 12.4421Z" fill="white"/>
<path d="M74.8666 14.2427H74.0684V12.1843C74.0684 11.5501 73.8275 11.2329 73.3434 11.2329C73.1063 11.2329 72.9149 11.3198 72.7671 11.4944C72.6192 11.669 72.5452 11.8748 72.5452 12.1104V14.242H71.7455V11.6759C71.7455 11.3602 71.7363 11.0179 71.7173 10.6474H72.4187L72.456 11.2093H72.4781C72.5719 11.0347 72.7106 10.8906 72.8921 10.7755C73.1093 10.6413 73.351 10.5735 73.6171 10.5735C73.9518 10.5735 74.2308 10.6817 74.4526 10.899C74.7294 11.1651 74.8666 11.5623 74.8666 12.0898V14.2427Z" fill="white"/>
<path d="M80.2434 11.2474H79.3637V12.9932C79.3637 13.4369 79.5199 13.6588 79.8295 13.6588C79.9728 13.6588 80.0917 13.6466 80.1855 13.6214L80.2061 14.2275C80.0483 14.2869 79.8409 14.3167 79.5855 14.3167C79.2699 14.3167 79.0244 14.2206 78.8468 14.0285C78.6684 13.8364 78.5799 13.5132 78.5799 13.0596V11.2474H78.0547V10.649H78.5799V9.9903L79.3629 9.75397V10.6482H80.2427V11.2474H80.2434Z" fill="white"/>
<path d="M84.4736 14.2427H83.6739V12.1996C83.6739 11.5554 83.433 11.2329 82.9504 11.2329C82.5799 11.2329 82.3268 11.4197 82.1881 11.7933C82.1645 11.8718 82.1507 11.9679 82.1507 12.0807V14.242H81.3525V9H82.1507V11.1659H82.166C82.4176 10.7717 82.7782 10.575 83.2455 10.575C83.5763 10.575 83.85 10.6833 84.0673 10.9006C84.3379 11.1712 84.4736 11.5737 84.4736 12.1058V14.2427Z" fill="white"/>
<path d="M88.8362 12.2758C88.8362 12.4192 88.8255 12.5396 88.8064 12.6379H86.4103C86.421 12.9932 86.5354 13.2638 86.7572 13.4514C86.96 13.6191 87.2215 13.703 87.5417 13.703C87.8962 13.703 88.2194 13.6465 88.5106 13.533L88.6357 14.088C88.2949 14.2358 87.8939 14.3098 87.4296 14.3098C86.8731 14.3098 86.4347 14.1459 86.1176 13.8181C85.7989 13.4903 85.6411 13.0504 85.6411 12.4984C85.6411 11.9564 85.7882 11.5051 86.0848 11.1453C86.3943 10.761 86.8129 10.5689 87.3412 10.5689C87.8581 10.5689 88.2507 10.761 88.516 11.1453C88.7302 11.4502 88.8362 11.8276 88.8362 12.2758ZM88.0738 12.0692C88.0799 11.8321 88.0273 11.6278 87.919 11.4555C87.7803 11.2337 87.5691 11.1224 87.2832 11.1224C87.0225 11.1224 86.8098 11.2306 86.6474 11.4479C86.5148 11.621 86.4363 11.8276 86.4103 12.0692H88.0738Z" fill="white"/>
</svg>
