<svg width="70" height="13" viewBox="0 0 70 13" fill="none" xmlns="http://www.w3.org/2000/svg">
<path d="M3.12581 1.46713H0V12.3841H3.10838C4.76095 12.3841 5.95398 11.9941 7.00264 11.1217C7.31138 10.8654 7.58847 10.5785 7.83429 10.2613C8.08002 9.94421 8.2885 9.60437 8.45965 9.24134C8.6309 8.87858 8.76078 8.5015 8.84929 8.11012C8.9378 7.71874 8.98293 7.3225 8.98449 6.92122C8.98449 3.70011 6.57806 1.45538 3.12581 1.45538V1.46713ZM5.61314 9.66564C4.94292 10.2695 4.0733 10.5322 2.70113 10.5322H2.12338V3.3101H2.70113C4.07624 3.3101 4.9111 3.5528 5.61314 4.19119C5.80099 4.36509 5.96875 4.55661 6.1167 4.76565C6.26455 4.97468 6.3892 5.19665 6.49074 5.43183C6.59219 5.66682 6.66831 5.90979 6.71904 6.16084C6.76976 6.4117 6.79407 6.66513 6.79177 6.92122C6.79306 7.17868 6.76802 7.4333 6.71702 7.68554C6.66584 7.93787 6.58953 8.18231 6.48817 8.41868C6.38682 8.65532 6.26244 8.87922 6.11505 9.09C5.96774 9.30105 5.80035 9.49477 5.61314 9.67142" fill="#211E1E"/>
<path d="M12.0954 1.46405H9.96631V12.3811H12.0954V1.46405Z" fill="#211E1E"/>
<path d="M17.3016 5.64998C16.0247 5.17624 15.6491 4.86429 15.6491 4.27488C15.6491 3.58733 16.3193 3.06157 17.2351 3.06157C17.8735 3.06157 18.3907 3.32436 18.9511 3.94844L20.0662 2.4895C19.8474 2.29468 19.6127 2.12142 19.3621 1.9698C19.1116 1.81809 18.8491 1.6906 18.5751 1.58713C18.301 1.48367 18.0198 1.40598 17.7314 1.35425C17.443 1.30252 17.1525 1.27748 16.8595 1.27913C14.9269 1.27913 13.4536 2.61956 13.4536 4.40485C13.4536 5.90993 14.1411 6.67847 16.1402 7.39776C16.6537 7.55983 17.1476 7.76776 17.6223 8.02174C17.7204 8.08008 17.8096 8.14988 17.8895 8.23142C17.9693 8.31287 18.0374 8.40331 18.0937 8.50255C18.1499 8.60198 18.1925 8.70691 18.2213 8.81735C18.2501 8.92778 18.2642 9.04014 18.2636 9.15433C18.2636 10.0384 17.5587 10.694 16.6083 10.694C16.488 10.6956 16.3684 10.6886 16.2492 10.673C16.13 10.6575 16.0126 10.6334 15.8968 10.6011C15.781 10.5686 15.6682 10.5282 15.5582 10.4797C15.4484 10.4312 15.3423 10.375 15.2405 10.3114C15.1386 10.2477 15.0417 10.177 14.9499 10.0994C14.8581 10.0218 14.7723 9.9381 14.6925 9.8484C14.6127 9.7586 14.5397 9.6633 14.4734 9.56305C14.4071 9.4628 14.3484 9.35842 14.2971 9.24963L12.8989 10.5613C13.8811 12.0057 15.0569 12.6413 16.6776 12.6413C18.8904 12.6413 20.4332 11.1709 20.4332 9.05601C20.4332 7.32273 19.7167 6.53694 17.293 5.65008" fill="#211E1E"/>
<path d="M21.1149 6.9211C21.1135 7.10931 21.1213 7.29697 21.1387 7.48436C21.1559 7.67175 21.1824 7.85777 21.2184 8.04231C21.2542 8.22722 21.2991 8.40957 21.3532 8.58971C21.4072 8.77004 21.4702 8.94706 21.542 9.12097C21.6137 9.29488 21.6939 9.46484 21.7827 9.63085C21.8714 9.79678 21.968 9.95766 22.0729 10.1141C22.1776 10.2703 22.29 10.421 22.4098 10.5661C22.5295 10.711 22.6563 10.8498 22.79 10.9823C22.9237 11.1146 23.0636 11.2401 23.2098 11.3585C23.3561 11.477 23.5078 11.5878 23.665 11.6911C23.8223 11.7943 23.9843 11.8894 24.151 11.9767C24.3178 12.0637 24.4885 12.1423 24.6631 12.2123C24.8377 12.2825 25.0154 12.3436 25.1961 12.3959C25.3769 12.4482 25.5597 12.4914 25.7448 12.5254C25.9298 12.5595 26.1161 12.5844 26.3035 12.5998C26.491 12.6154 26.6789 12.6214 26.867 12.6181C27.3307 12.6186 27.7881 12.5652 28.2391 12.4577C28.6901 12.3504 29.1225 12.1919 29.5363 11.9825V9.47502C28.6869 10.3416 27.93 10.671 26.9651 10.671C24.8187 10.671 23.2962 9.11675 23.2962 6.9155C23.2962 4.81808 24.8678 3.15993 26.864 3.15993C27.8809 3.15993 28.6493 3.52104 29.5333 4.38772V1.88021C29.1341 1.66054 28.7139 1.49379 28.2727 1.37978C27.8315 1.26586 27.3832 1.20826 26.9275 1.20706C26.7386 1.20468 26.5499 1.21156 26.3617 1.22788C26.1734 1.24421 25.9865 1.26962 25.8006 1.30438C25.6149 1.33905 25.4313 1.38281 25.2498 1.43573C25.0684 1.48856 24.89 1.5502 24.7147 1.62083C24.5394 1.69127 24.3679 1.77024 24.2003 1.85756C24.0328 1.94497 23.8701 2.04046 23.7118 2.14383C23.5537 2.24738 23.4011 2.35836 23.254 2.47696C23.1068 2.59547 22.9658 2.72104 22.8311 2.85348C22.6963 2.98593 22.5684 3.1248 22.4474 3.2699C22.3263 3.41501 22.2127 3.56571 22.1065 3.7221C22.0004 3.87839 21.9022 4.03955 21.8119 4.20556C21.7217 4.37167 21.6398 4.54173 21.5664 4.71581C21.4929 4.8899 21.4282 5.0673 21.3723 5.24781C21.3164 5.42832 21.2695 5.61121 21.2316 5.7963C21.1937 5.9814 21.165 6.16797 21.1456 6.3559C21.126 6.54366 21.1158 6.73215 21.1149 6.9211Z" fill="#211E1E"/>
<path d="M46.433 8.79897L43.521 1.46704H41.21L45.8321 12.6643H46.9877L51.688 1.46704H49.3767L46.433 8.79897Z" fill="#211E1E"/>
<path d="M52.6499 12.3812H58.6904V10.5294H54.7788V7.5857H58.5344V5.73676H54.7788V3.31299H58.6904V1.46405H52.6499V12.3812Z" fill="#211E1E"/>
<path d="M67.1229 4.68812C67.1229 2.64565 65.7132 1.46417 63.2575 1.46417H60.0884V12.3813H62.2147V7.99298H62.5035L65.453 12.3813H68.0704L64.6327 7.78789C66.2387 7.46145 67.1228 6.36371 67.1228 4.69097L67.1229 4.68812ZM62.8502 6.4879H62.2262V3.18305H62.8848C64.2108 3.18305 64.9302 3.7377 64.9302 4.80085C64.9302 5.86401 64.2108 6.49084 62.8502 6.49084" fill="#211E1E"/>
<path d="M68.8188 2.0246C68.8189 1.97993 68.8096 1.93728 68.791 1.89656C68.7725 1.85593 68.7462 1.82098 68.7123 1.79181C68.6786 1.76274 68.6402 1.74192 68.5971 1.72953C68.5541 1.71724 68.5107 1.7144 68.4664 1.72119H68.1484V2.69179H68.3768V2.31619L68.6455 2.68886H68.9343L68.6108 2.29885C68.6431 2.29225 68.6731 2.27996 68.7008 2.26198C68.7285 2.2441 68.7519 2.22181 68.7711 2.19511C68.7903 2.16824 68.8042 2.13898 68.8124 2.10697C68.8206 2.07505 68.8227 2.04276 68.8187 2.01002L68.8188 2.0246ZM68.4143 2.15457H68.3769V1.90325H68.4173C68.5329 1.90325 68.5907 1.9437 68.5907 2.02745C68.5906 2.11128 68.5298 2.15457 68.4143 2.15457Z" fill="#211E1E"/>
<path d="M68.4984 1.37735C68.4432 1.37698 68.3883 1.38203 68.3341 1.39248C68.2798 1.40285 68.2271 1.41853 68.1758 1.43935C68.1245 1.46027 68.0758 1.48586 68.0296 1.51631C67.9836 1.54676 67.9408 1.58134 67.9015 1.62032C67.8622 1.65912 67.827 1.7015 67.7961 1.74727C67.7651 1.79304 67.739 1.84147 67.7175 1.89246C67.6963 1.94337 67.6799 1.99593 67.6689 2.05013C67.6578 2.10425 67.6521 2.15901 67.6519 2.21423C67.6515 2.26963 67.6567 2.32429 67.6673 2.37859C67.6778 2.43289 67.6936 2.48563 67.7147 2.53681C67.7356 2.58799 67.7614 2.63651 67.7919 2.68265C67.8225 2.7287 67.8572 2.77135 67.8962 2.8106C67.9351 2.84986 67.9775 2.88499 68.0234 2.91572C68.0693 2.94654 68.1176 2.97258 68.1686 2.99405C68.2197 3.01524 68.2723 3.03138 68.3266 3.04229C68.3807 3.05321 68.4355 3.05871 68.4909 3.0589C68.5461 3.05899 68.6008 3.05367 68.6551 3.04303C68.7093 3.03239 68.762 3.01652 68.8131 2.99543C68.8643 2.97433 68.9129 2.94837 68.9588 2.91773C69.0048 2.8871 69.0474 2.85234 69.0865 2.81317C69.1258 2.77419 69.1607 2.73163 69.1915 2.68568C69.2221 2.63982 69.2481 2.5913 69.2693 2.54021C69.2905 2.48912 69.3065 2.43647 69.3172 2.38235C69.3281 2.32805 69.3335 2.27339 69.3335 2.21808C69.334 2.16323 69.3289 2.10893 69.3185 2.05509C69.3083 2.00124 69.2927 1.94896 69.2721 1.89815C69.2515 1.84733 69.2262 1.79909 69.196 1.75323C69.1659 1.70746 69.1315 1.66499 69.093 1.62601C69.0545 1.58694 69.0127 1.55199 68.9673 1.52126C68.9219 1.49044 68.8739 1.46439 68.8235 1.44311C68.773 1.42174 68.7209 1.4056 68.6672 1.3945C68.6136 1.3834 68.5593 1.37763 68.5045 1.37726L68.4984 1.37735ZM68.4984 2.90563C68.4538 2.90517 68.4095 2.9004 68.3659 2.89141C68.3222 2.88224 68.2799 2.86894 68.2388 2.85142C68.1977 2.8339 68.1589 2.81244 68.122 2.78731C68.0852 2.76208 68.0512 2.73346 68.0201 2.70145C67.9889 2.66953 67.9612 2.63477 67.9369 2.59726C67.9126 2.55983 67.8923 2.52039 67.8758 2.47884C67.8594 2.43748 67.8471 2.39473 67.8392 2.3508C67.8313 2.30686 67.8274 2.26256 67.8284 2.21798C67.8282 2.17414 67.8326 2.13076 67.8411 2.08774C67.8497 2.04472 67.8624 2.00308 67.8791 1.96263C67.8959 1.92218 67.9165 1.88375 67.9409 1.84724C67.9652 1.81083 67.9927 1.77698 68.0238 1.74607C68.0548 1.71507 68.0885 1.68737 68.1249 1.66307C68.1614 1.63867 68.1997 1.61821 68.2404 1.60143C68.2807 1.58464 68.3226 1.57208 68.3655 1.56345C68.4085 1.55483 68.4519 1.55061 68.4957 1.55061C68.5396 1.55061 68.583 1.55483 68.6259 1.56345C68.6689 1.57208 68.7105 1.58464 68.751 1.60143C68.7915 1.61821 68.8299 1.63867 68.8665 1.66307C68.9028 1.68746 68.9366 1.71507 68.9676 1.74607C68.9987 1.77698 69.0263 1.81074 69.0506 1.84724C69.0749 1.88375 69.0955 1.92209 69.1123 1.96263C69.1291 2.00317 69.1417 2.04481 69.1503 2.08774C69.1589 2.13076 69.1631 2.17414 69.1631 2.21798C69.1637 2.26229 69.1599 2.30622 69.1519 2.34988C69.1439 2.39354 69.1317 2.43592 69.1154 2.47719C69.0991 2.51847 69.079 2.55763 69.0548 2.59487C69.0308 2.63211 69.0033 2.66669 68.9726 2.69861C68.9417 2.73053 68.9081 2.75915 68.8716 2.78446C68.8353 2.80978 68.7968 2.83133 68.756 2.84904C68.7155 2.86674 68.6736 2.8805 68.6302 2.88985C68.5864 2.89948 68.5426 2.90462 68.4984 2.90563Z" fill="#211E1E"/>
<ellipse cx="36.1339" cy="6.53692" rx="5.87024" ry="5.87024" fill="url(#paint0_linear_196_1234)"/>
<defs>
<linearGradient id="paint0_linear_196_1234" x1="30.2637" y1="0.666687" x2="42.0041" y2="12.4072" gradientUnits="userSpaceOnUse">
<stop stop-color="#FD591C"/>
<stop offset="1" stop-color="#FF9824"/>
</linearGradient>
</defs>
</svg>
