<svg width="76" height="32" viewBox="0 0 76 32" fill="none" xmlns="http://www.w3.org/2000/svg">
<path d="M36.6147 16.4838V22.372H34.7153V7.80981H39.6538C40.8568 7.80981 41.9964 8.25301 42.8828 9.07609C43.7692 9.83585 44.2124 10.9755 44.2124 12.1785C44.2124 13.3814 43.7692 14.4578 42.8828 15.2808C41.9964 16.1039 40.9201 16.5471 39.6538 16.5471L36.6147 16.4838ZM36.6147 9.5826V14.6477H39.7804C40.4769 14.6477 41.1733 14.3944 41.6165 13.8879C42.6296 12.9382 42.6296 11.3554 41.6798 10.4057L41.6165 10.3424C41.11 9.83585 40.4769 9.51929 39.7804 9.5826H36.6147Z" fill="#5F6368"/>
<path d="M48.5815 12.1151C49.9744 12.1151 51.0508 12.495 51.8739 13.2548C52.6969 14.0145 53.0768 15.0275 53.0768 16.2938V22.3719H51.304V20.979H51.2407C50.481 22.1187 49.4046 22.6885 48.1383 22.6885C47.062 22.6885 46.1123 22.3719 45.3525 21.7388C44.6561 21.1057 44.2129 20.2193 44.2129 19.2696C44.2129 18.2565 44.5928 17.4335 45.3525 16.8003C46.1123 16.1672 47.1886 15.9139 48.4549 15.9139C49.5946 15.9139 50.4809 16.1039 51.1774 16.5471V16.1039C51.1774 15.4707 50.9241 14.8376 50.4176 14.4577C49.9111 14.0145 49.278 13.7613 48.5815 13.7613C47.5052 13.7613 46.6821 14.2045 46.1123 15.0909L44.4661 14.0778C45.4792 12.7482 46.8088 12.1151 48.5815 12.1151ZM46.1756 19.3329C46.1756 19.8394 46.4289 20.2826 46.8088 20.5358C47.252 20.8524 47.7585 21.0424 48.265 21.0424C49.0247 21.0424 49.7845 20.7258 50.3543 20.156C50.9875 19.5861 51.304 18.8897 51.304 18.1299C50.7342 17.6867 49.9111 17.4335 48.8348 17.4335C48.075 17.4335 47.4419 17.6234 46.9354 18.0033C46.4289 18.3199 46.1756 18.7631 46.1756 19.3329Z" fill="#5F6368"/>
<path d="M63.3333 12.4316L57.0653 26.8039H55.1658L57.5085 21.8021L53.3931 12.495H55.4191L58.3949 19.6494H58.4582L61.3706 12.495H63.3333V12.4316Z" fill="#5F6368"/>
<path d="M29.0804 15.2175C29.0804 14.6476 29.0171 14.0778 28.9538 13.508H21.0396V16.737H25.5348C25.3449 17.75 24.7751 18.6997 23.8887 19.2695V21.3589H26.6112C28.194 19.9027 29.0804 17.75 29.0804 15.2175Z" fill="#4285F4"/>
<path d="M21.0394 23.3849C23.3187 23.3849 25.2181 22.6252 26.611 21.3589L23.8885 19.2695C23.1287 19.776 22.179 20.0926 21.0394 20.0926C18.8867 20.0926 16.9873 18.6364 16.3542 16.6104H13.5684V18.763C15.0246 21.6121 17.8737 23.3849 21.0394 23.3849Z" fill="#34A853"/>
<path d="M16.3545 16.6104C15.9746 15.5973 15.9746 14.4577 16.3545 13.3814V11.2287H13.5687C12.3658 13.5713 12.3658 16.3571 13.5687 18.763L16.3545 16.6104Z" fill="#FBBC04"/>
<path d="M21.0395 9.96241C22.2425 9.96241 23.3822 10.4056 24.2685 11.2287L26.6745 8.82276C25.1549 7.42986 23.1289 6.60678 21.1029 6.67009C17.9372 6.67009 15.0247 8.44288 13.6318 11.292L16.4176 13.4447C16.9875 11.4186 18.8869 9.96241 21.0395 9.96241Z" fill="#EA4335"/>
</svg>
