<svg width="38" height="23" viewBox="0 0 38 23" fill="none" xmlns="http://www.w3.org/2000/svg">
<path d="M26.1403 22.6103L26.7171 22.5951L27.2859 22.5538L27.8439 22.4826L28.398 22.3849L28.9368 22.2609L29.4682 22.1106L29.9883 21.9339L30.4971 21.7349L30.9945 21.5095L31.477 21.2653L31.9443 20.9946L32.4003 20.7052L32.8375 20.3936L33.2595 20.0628L33.6665 19.7133L34.0548 19.3415L34.428 18.9545L34.7784 18.5487L35.1101 18.1278L35.4228 17.692L35.7129 17.2375L35.9844 16.7713L36.2294 16.2905L36.4555 15.7945L36.6551 15.2874L36.8323 14.7686L36.9832 14.239L37.1075 13.7016L37.2055 13.1493L37.277 12.5933L37.3185 12.026L37.3335 11.4512L37.3185 10.88L37.277 10.3165L37.2055 9.76037L37.1075 9.2155L36.9832 8.67834L36.8323 8.1522L36.6551 7.63366L36.4555 7.13016L36.2294 6.63805L35.9844 6.15708L35.7129 5.69497L35.4228 5.24032L35.1101 4.8044L34.7784 4.38733L34.428 3.98153L34.0548 3.59457L33.6665 3.22635L33.2595 2.87697L32.8375 2.54645L32.4003 2.23442L31.9443 1.94515L31.477 1.67841L30.9945 1.43419L30.4971 1.2087L29.9883 1.00965L29.4682 0.833012L28.9368 0.682687L28.398 0.558681L27.8439 0.460994L27.2859 0.389625L26.7171 0.348369L26.1403 0.333313L25.5675 0.348369L24.9984 0.389625L24.4407 0.460994L23.8903 0.558681L23.3516 0.682687L22.8201 0.833012L22.3038 1.00965L21.7951 1.2087L21.3012 1.43419L20.8227 1.67841L20.3554 1.94515L19.9031 2.23442L19.4659 2.54645L19.0438 2.87697L18.6407 3.22635L18.2525 3.59457L17.8831 3.98153L17.5327 4.38733L17.201 4.8044L16.8919 5.24032L16.6016 5.69497L16.3342 6.15708L16.0855 6.63805L15.8629 7.13016L15.6632 7.63366L15.4899 8.1522L15.3391 8.67834L15.2148 9.2155L15.1168 9.76037L15.0452 10.3165L15.0038 10.88L14.9888 11.4512L15.0038 12.026L15.0452 12.5933L15.1168 13.1493L15.2148 13.7016L15.3391 14.239L15.4899 14.7686L15.6632 15.2874L15.8629 15.7945L16.0855 16.2905L16.3342 16.7713L16.6016 17.2375L16.8919 17.692L17.201 18.1278L17.5327 18.5487L17.8831 18.9545L18.2525 19.3415L18.6407 19.7133L19.0438 20.0628L19.4659 20.3936L19.9031 20.7052L20.3554 20.9946L20.8227 21.2653L21.3012 21.5095L21.7951 21.7349L22.3038 21.9339L22.8201 22.1106L23.3516 22.2609L23.8903 22.3849L24.4407 22.4826L24.9984 22.5538L25.5675 22.5951L26.1403 22.6103Z" fill="#F7A826"/>
<path d="M11.1932 22.6103L11.7661 22.5951L12.3352 22.5538L12.8931 22.4826L13.4433 22.3849L13.9822 22.2609L14.5134 22.1106L15.0299 21.9339L15.5387 21.7349L16.0322 21.5095L16.5109 21.2653L16.9784 20.9946L17.4307 20.7052L17.8679 20.3936L18.2899 20.0628L18.6931 19.7133L19.0814 19.3415L19.4508 18.9545L19.8012 18.5487L20.1328 18.1278L20.4419 17.692L20.7321 17.2375L20.9997 16.7713L21.2484 16.2905L21.4707 15.7945L21.6706 15.2874L21.8438 14.7686L21.9945 14.239L22.1191 13.7016L22.2171 13.1493L22.2885 12.5933L22.3301 12.026L22.3451 11.4512L22.3301 10.88L22.2885 10.3165L22.2171 9.76037L22.1191 9.2155L21.9945 8.67834L21.8438 8.1522L21.6706 7.63366L21.4707 7.13016L21.2484 6.63805L20.9997 6.15708L20.7321 5.69497L20.4419 5.24032L20.1328 4.8044L19.8012 4.38733L19.4508 3.98153L19.0814 3.59457L18.6931 3.22635L18.2899 2.87697L17.8679 2.54645L17.4307 2.23442L16.9784 1.94515L16.5109 1.67841L16.0322 1.43419L15.5387 1.2087L15.0299 1.00965L14.5134 0.833012L13.9822 0.682687L13.4433 0.558681L12.8931 0.460994L12.3352 0.389625L11.7661 0.348369L11.1932 0.333313L10.6168 0.348369L10.0478 0.389625L9.48988 0.460994L8.93577 0.558681L8.39694 0.682687L7.86553 0.833012L7.34541 1.00965L6.83659 1.2087L6.3393 1.43419L5.85682 1.67841L5.38941 1.94515L4.93353 2.23442L4.49612 2.54645L4.07412 2.87697L3.66718 3.22635L3.27906 3.59457L2.90577 3.98153L2.55518 4.38733L2.22377 4.8044L1.91106 5.24032L1.62071 5.69497L1.34929 6.15708L1.10412 6.63805L0.878235 7.13016L0.678588 7.63366L0.501294 8.1522L0.350588 8.67834L0.226235 9.2155L0.128353 9.76037L0.0565882 10.3165L0.0152941 10.88L0 11.4512L0.0152941 12.026L0.0565882 12.5933L0.128353 13.1493L0.226235 13.7016L0.350588 14.239L0.501294 14.7686L0.678588 15.2874L0.878235 15.7945L1.10412 16.2905L1.34929 16.7713L1.62071 17.2375L1.91106 17.692L2.22377 18.1278L2.55518 18.5487L2.90577 18.9545L3.27906 19.3415L3.66718 19.7133L4.07412 20.0628L4.49612 20.3936L4.93353 20.7052L5.38941 20.9946L5.85682 21.2653L6.3393 21.5095L6.83659 21.7349L7.34541 21.9339L7.86553 22.1106L8.39694 22.2609L8.93577 22.3849L9.48988 22.4826L10.0478 22.5538L10.6168 22.5951L11.1932 22.6103Z" fill="#ED1C2E"/>
<path d="M17.3589 4.60534H23.2948V4.00037H17.8715L17.3589 4.60534Z" fill="#F7A826"/>
<path d="M16.4697 5.95043H23.2949V5.34546H16.8276L16.4697 5.95043Z" fill="#F7A826"/>
<path d="M15.8066 7.29186H23.2952V6.68689H16.0705L15.8066 7.29186Z" fill="#F7A826"/>
<path d="M15.3506 8.63672H23.2952V8.03186H15.5391L15.3506 8.63672Z" fill="#F7A826"/>
<path d="M15.6143 15.1371H23.3139V14.5321H15.4258L15.6143 15.1371Z" fill="#F7A826"/>
<path d="M16.183 16.4821H23.3136V15.8774H15.9004L16.183 16.4821Z" fill="#F7A826"/>
<path d="M16.9823 17.8236H23.3139V17.2186H16.6016L16.9823 17.8236Z" fill="#F7A826"/>
<path d="M18.0829 19.1685H23.3139V18.5599H17.5513L18.0829 19.1685Z" fill="#F7A826"/>
<path d="M15.0825 9.97832H23.2946V9.37323H15.1992L15.0825 9.97832Z" fill="#F7A826"/>
<path d="M20.0874 13.7958H23.2193V13.1909H20.2003L20.0874 13.7958Z" fill="#F7A826"/>
<path d="M20.3364 12.4543H23.2196V11.8456H20.4496L20.3364 12.4543Z" fill="#F7A826"/>
<path d="M14.8755 11.8456H15.6896V12.4543H14.9133L14.8755 11.8456Z" fill="#F7A826"/>
<path d="M13.3569 11.113L13.3039 11.1093L13.2513 11.1017L13.2022 11.0941L13.1533 11.0868L13.108 11.0793L13.0592 11.0717L13.01 11.0641L12.9574 11.0566L12.9046 11.0491L12.8443 11.0453L12.7766 11.0417L12.7049 11.0378H12.6257L12.539 11.0417L12.441 11.0491L12.3319 11.0566L12.2562 11.0679L12.1848 11.0793L12.1207 11.1017L12.0641 11.1243L12.0114 11.1505L11.9624 11.1806L11.9246 11.2182L11.8906 11.252L11.8681 11.2933L11.8494 11.3346L11.8417 11.3798V11.425L11.853 11.4737L11.8681 11.5224L11.8986 11.5714L11.9359 11.6202L12.0114 11.6915L12.1019 11.748L12.2073 11.7968L12.3203 11.8381L12.441 11.8756L12.5653 11.9171L12.6896 11.9621L12.8104 12.0111L12.9235 12.0748L13.0289 12.1537L13.123 12.2477L13.2022 12.3642L13.2627 12.5069L13.3003 12.6762L13.3154 12.8789L13.3003 13.1155L13.2739 13.2922L13.2287 13.4462L13.1682 13.589L13.093 13.7129L13.0063 13.822L12.9083 13.9158L12.8027 13.9986L12.686 14.07L12.5653 14.1262L12.441 14.1752L12.3128 14.2126L12.181 14.2427L12.0528 14.2653L11.9284 14.2766L11.8041 14.2841L11.6872 14.2879H11.525L11.3744 14.2841H11.2426L11.1182 14.2803L11.0052 14.2766L10.9035 14.2691L10.813 14.2616L10.7261 14.2503L10.647 14.2427L10.5754 14.2278L10.504 14.2165L10.4396 14.1977L10.3757 14.1828L10.3153 14.1602L10.2552 14.1377L10.1909 14.1149L10.3606 13.2848L10.3947 13.2922L10.4361 13.3034L10.4887 13.3186L10.5528 13.3336L10.6207 13.3485L10.6961 13.3637L10.7792 13.3823L10.8695 13.3975L10.9637 13.4124L11.0617 13.4273L11.1635 13.4388L11.269 13.4501L11.3782 13.4539L11.4875 13.4576H11.5968L11.7061 13.4539L11.8155 13.4312L11.902 13.4011L11.9699 13.3598L12.0226 13.3072L12.0602 13.2547L12.0906 13.1944L12.1094 13.1344L12.1246 13.0781L12.1319 12.9691L12.098 12.8752L12.0341 12.8001L11.9399 12.7362L11.8268 12.6797L11.6948 12.6234L11.5477 12.5708L11.4007 12.5108L11.2501 12.4431L11.1069 12.3642L10.9749 12.2664L10.8543 12.1499L10.76 12.0072L10.6922 11.8381L10.6583 11.6352L10.6622 11.3948L10.6809 11.2482L10.7075 11.1093L10.7453 10.9815L10.7902 10.8613L10.8504 10.7485L10.9184 10.6508L10.9976 10.5569L11.0917 10.4743L11.2013 10.4029L11.3217 10.3428L11.4573 10.2863L11.6081 10.245L11.7777 10.2112L11.9624 10.1849L12.1659 10.1699L12.3884 10.1661H12.5276L12.6557 10.1699L12.7727 10.1737L12.8783 10.1775L12.9724 10.1849L13.0592 10.1925L13.1343 10.2L13.2022 10.2075L13.2664 10.215L13.3192 10.2262L13.3682 10.2338L13.4134 10.2412L13.451 10.2488L13.4852 10.2525L13.5188 10.2601L13.549 10.2639L13.3569 11.113Z" fill="white"/>
<path fill-rule="evenodd" clip-rule="evenodd" d="M13.3569 11.113L13.3039 11.1093L13.2513 11.1017L13.2022 11.0941L13.1533 11.0868L13.108 11.0793L13.0592 11.0717L13.01 11.0641L12.9574 11.0566L12.9046 11.0491L12.8443 11.0453L12.7766 11.0417L12.7049 11.0378H12.6257L12.539 11.0417L12.441 11.0491L12.3319 11.0566L12.2562 11.0679L12.1848 11.0793L12.1207 11.1017L12.0641 11.1243L12.0114 11.1505L11.9624 11.1806L11.9246 11.2182L11.8906 11.252L11.8681 11.2933L11.8494 11.3346L11.8417 11.3798V11.425L11.853 11.4737L11.8681 11.5224L11.8986 11.5714L11.9359 11.6202L12.0114 11.6915L12.1019 11.748L12.2073 11.7968L12.3203 11.8381L12.441 11.8756L12.5653 11.9171L12.6896 11.9621L12.8104 12.0111L12.9235 12.0748L13.0289 12.1537L13.123 12.2477L13.2022 12.3642L13.2627 12.5069L13.3003 12.6762L13.3154 12.8789L13.3003 13.1155L13.2739 13.2922L13.2287 13.4462L13.1682 13.589L13.093 13.7129L13.0063 13.822L12.9083 13.9158L12.8027 13.9986L12.686 14.07L12.5653 14.1262L12.441 14.1752L12.3128 14.2126L12.181 14.2427L12.0528 14.2653L11.9284 14.2766L11.8041 14.2841L11.6872 14.2879H11.525L11.3744 14.2841H11.2426L11.1182 14.2803L11.0052 14.2766L10.9035 14.2691L10.813 14.2616L10.7261 14.2503L10.647 14.2427L10.5754 14.2278L10.504 14.2165L10.4396 14.1977L10.3757 14.1828L10.3153 14.1602L10.2552 14.1377L10.1909 14.1149L10.3606 13.2848L10.3947 13.2922L10.4361 13.3034L10.4887 13.3186L10.5528 13.3336L10.6207 13.3485L10.6961 13.3637L10.7792 13.3823L10.8695 13.3975L10.9637 13.4124L11.0617 13.4273L11.1635 13.4388L11.269 13.4501L11.3782 13.4539L11.4875 13.4576H11.5968L11.7061 13.4539L11.8155 13.4312L11.902 13.4011L11.9699 13.3598L12.0226 13.3072L12.0602 13.2547L12.0906 13.1944L12.1094 13.1344L12.1246 13.0781L12.1319 12.9691L12.098 12.8752L12.0341 12.8001L11.9399 12.7362L11.8268 12.6797L11.6948 12.6234L11.5477 12.5708L11.4007 12.5108L11.2501 12.4431L11.1069 12.3642L10.9749 12.2664L10.8543 12.1499L10.76 12.0072L10.6922 11.8381L10.6583 11.6352L10.6622 11.3948L10.6809 11.2482L10.7075 11.1093L10.7453 10.9815L10.7902 10.8613L10.8504 10.7485L10.9184 10.6508L10.9976 10.5569L11.0917 10.4743L11.2013 10.4029L11.3217 10.3428L11.4573 10.2863L11.6081 10.245L11.7777 10.2112L11.9624 10.1849L12.1659 10.1699L12.3884 10.1661H12.5276L12.6557 10.1699L12.7727 10.1737L12.8783 10.1775L12.9724 10.1849L13.0592 10.1925L13.1343 10.2L13.2022 10.2075L13.2664 10.215L13.3192 10.2262L13.3682 10.2338L13.4134 10.2412L13.451 10.2488L13.4852 10.2525L13.5188 10.2601L13.549 10.2639L13.3569 11.113Z" stroke="white" stroke-width="0.216"/>
<path d="M14.2499 9.33582H15.2938L15.1392 10.245H15.7687L15.6329 11.0941L14.9697 11.0755L14.6079 13.1719L14.6041 13.247L14.623 13.3109L14.6607 13.3597L14.7096 13.4011L14.7773 13.4273L14.8531 13.4501L14.9356 13.465L15.0261 13.4723L15.1091 13.4687L15.1844 13.4612L15.2525 13.4501L15.3125 13.435L15.3616 13.4199L15.3956 13.4087L15.4181 13.4011L15.4257 13.3974L15.2938 14.0963L15.2674 14.1149L15.241 14.1301L15.2146 14.145L15.1881 14.1602L15.1619 14.1715L15.1317 14.1827L15.0978 14.194L15.0638 14.2052L15.0261 14.2165L14.9886 14.2239L14.9434 14.2314L14.8981 14.239L14.8491 14.2465L14.7925 14.254L14.7321 14.2616L14.6681 14.269H14.3817L14.2309 14.2578L14.0992 14.2427L13.9784 14.2202L13.8766 14.194L13.79 14.1602L13.7184 14.1225L13.6543 14.0774L13.6053 14.0286L13.5678 13.9761L13.5412 13.9121L13.5224 13.8482L13.5111 13.7769L13.5073 13.6981V13.6152L13.5186 13.529L13.5299 13.435L14.2499 9.33582Z" fill="white"/>
<path fill-rule="evenodd" clip-rule="evenodd" d="M14.2499 9.33582H15.2938L15.1392 10.245H15.7687L15.6329 11.0941L14.9697 11.0755L14.6079 13.1719L14.6041 13.247L14.623 13.3109L14.6607 13.3597L14.7096 13.4011L14.7773 13.4273L14.8531 13.4501L14.9356 13.465L15.0261 13.4723L15.1091 13.4687L15.1844 13.4612L15.2525 13.4501L15.3125 13.435L15.3616 13.4199L15.3956 13.4087L15.4181 13.4011L15.4257 13.3974L15.2938 14.0963L15.2674 14.1149L15.241 14.1301L15.2146 14.145L15.1881 14.1602L15.1619 14.1715L15.1317 14.1827L15.0978 14.194L15.0638 14.2052L15.0261 14.2165L14.9886 14.2239L14.9434 14.2314L14.8981 14.239L14.8491 14.2465L14.7925 14.254L14.7321 14.2616L14.6681 14.269H14.3817L14.2309 14.2578L14.0992 14.2427L13.9784 14.2202L13.8766 14.194L13.79 14.1602L13.7184 14.1225L13.6543 14.0774L13.6053 14.0286L13.5678 13.9761L13.5412 13.9121L13.5224 13.8482L13.5111 13.7769L13.5073 13.6981V13.6152L13.5186 13.529L13.5299 13.435L14.2499 9.33582Z" stroke="white" stroke-width="0.216"/>
<path d="M16.6013 12.5108L16.5899 12.5745L16.5865 12.6422L16.5939 12.7137L16.609 12.7849L16.6353 12.8564L16.6656 12.9241L16.7069 12.9953L16.752 13.0592L16.8049 13.1231L16.8616 13.1794L16.9218 13.2359L16.9897 13.2809L17.0574 13.3223L17.1329 13.3561L17.2082 13.3823L17.2837 13.3975L17.3816 13.4124L17.4758 13.4237L17.5737 13.435L17.6717 13.4425L17.7697 13.4462H17.8714L17.9694 13.4425L18.0713 13.435L18.1732 13.42L18.2749 13.4011L18.3803 13.3786L18.4822 13.3448L18.5874 13.3034L18.6967 13.2584L18.8023 13.1983L18.9117 13.1344L18.7609 14.0586L18.7006 14.0887L18.6404 14.1187L18.58 14.1414L18.5234 14.1639L18.467 14.1828L18.4066 14.2014L18.3463 14.2165L18.2822 14.2278L18.2145 14.2391L18.1392 14.2465L18.06 14.254L17.9732 14.2616L17.8754 14.2653H17.7736L17.6566 14.2691H17.5324L17.3477 14.2653L17.1592 14.2465L16.9707 14.2202L16.7824 14.1752L16.5978 14.1187L16.4204 14.0474L16.251 13.9536L16.0927 13.8445L15.9457 13.7168L15.8174 13.5628L15.7084 13.3899L15.6178 13.1908L15.5536 12.9691L15.5123 12.7173L15.501 12.4392L15.5199 12.1311L15.5349 12.0111L15.5576 11.8719L15.5874 11.7254L15.6292 11.5675L15.6858 11.4061L15.7536 11.2444L15.84 11.0793L15.9457 10.9214L16.0662 10.771L16.2132 10.6283L16.3791 10.5005L16.5676 10.3879L16.7859 10.294L17.0311 10.2262L17.3024 10.1811L17.6076 10.1661L17.7545 10.1699L17.9093 10.1849L18.0636 10.2112L18.2184 10.2488L18.369 10.3051L18.516 10.3728L18.6517 10.4629L18.776 10.5682L18.8891 10.696L18.9832 10.8462L19.0586 11.0191L19.1114 11.2182L19.1416 11.4436L19.1453 11.6991L19.119 11.9847L19.0624 12.3004L19.0436 12.5294H16.296L16.4696 11.7892H18.1202L18.1279 11.6954L18.124 11.6052L18.1165 11.5224L18.1014 11.4475L18.0749 11.376L18.0486 11.3121L18.011 11.2557L17.9732 11.2032L17.928 11.1581L17.879 11.1204L17.8225 11.0868L17.766 11.0566L17.7058 11.034L17.6453 11.0191L17.5813 11.0078L17.5134 11.0002L17.4419 11.004L17.3742 11.0153L17.3098 11.0303L17.2459 11.0529L17.1818 11.0828L17.1252 11.1167L17.0687 11.1581L17.0198 11.2032L16.9707 11.2557L16.9256 11.3121L16.884 11.3721L16.8503 11.4362L16.8163 11.5038L16.7899 11.579L16.7673 11.654L16.752 11.7329L16.6013 12.5108Z" fill="white"/>
<path fill-rule="evenodd" clip-rule="evenodd" d="M16.6013 12.5108L16.5899 12.5745L16.5865 12.6422L16.5939 12.7137L16.609 12.7849L16.6353 12.8564L16.6656 12.9241L16.7069 12.9953L16.752 13.0592L16.8049 13.1231L16.8616 13.1794L16.9218 13.2359L16.9897 13.2809L17.0574 13.3223L17.1329 13.3561L17.2082 13.3823L17.2837 13.3975L17.3816 13.4124L17.4758 13.4237L17.5737 13.435L17.6717 13.4425L17.7697 13.4462H17.8714L17.9694 13.4425L18.0713 13.435L18.1732 13.42L18.2749 13.4011L18.3803 13.3786L18.4822 13.3448L18.5874 13.3034L18.6967 13.2584L18.8023 13.1983L18.9117 13.1344L18.7609 14.0586L18.7006 14.0887L18.6404 14.1187L18.58 14.1414L18.5234 14.1639L18.467 14.1828L18.4066 14.2014L18.3463 14.2165L18.2822 14.2278L18.2145 14.2391L18.1392 14.2465L18.06 14.254L17.9732 14.2616L17.8754 14.2653H17.7736L17.6566 14.2691H17.5324L17.3477 14.2653L17.1592 14.2465L16.9707 14.2202L16.7824 14.1752L16.5978 14.1187L16.4204 14.0474L16.251 13.9536L16.0927 13.8445L15.9457 13.7168L15.8174 13.5628L15.7084 13.3899L15.6178 13.1908L15.5536 12.9691L15.5123 12.7173L15.501 12.4392L15.5199 12.1311L15.5349 12.0111L15.5576 11.8719L15.5874 11.7254L15.6292 11.5675L15.6858 11.4061L15.7536 11.2444L15.84 11.0793L15.9457 10.9214L16.0662 10.771L16.2132 10.6283L16.3791 10.5005L16.5676 10.3879L16.7859 10.294L17.0311 10.2262L17.3024 10.1811L17.6076 10.1661L17.7545 10.1699L17.9093 10.1849L18.0636 10.2112L18.2184 10.2488L18.369 10.3051L18.516 10.3728L18.6517 10.4629L18.776 10.5682L18.8891 10.696L18.9832 10.8462L19.0586 11.0191L19.1114 11.2182L19.1416 11.4436L19.1453 11.6991L19.119 11.9847L19.0624 12.3004L19.0436 12.5294H16.296L16.4696 11.7892H18.1202L18.1279 11.6954L18.124 11.6052L18.1165 11.5224L18.1014 11.4475L18.0749 11.376L18.0486 11.3121L18.011 11.2557L17.9732 11.2032L17.928 11.1581L17.879 11.1204L17.8225 11.0868L17.766 11.0566L17.7058 11.034L17.6453 11.0191L17.5813 11.0078L17.5134 11.0002L17.4419 11.004L17.3742 11.0153L17.3098 11.0303L17.2459 11.0529L17.1818 11.0828L17.1252 11.1167L17.0687 11.1581L17.0198 11.2032L16.9707 11.2557L16.9256 11.3121L16.884 11.3721L16.8503 11.4362L16.8163 11.5038L16.7899 11.579L16.7673 11.654L16.752 11.7329L16.6013 12.5108Z" stroke="white" stroke-width="0.216"/>
<path d="M25.5896 10.4705L25.5407 10.4441L25.4917 10.4216L25.439 10.3953L25.3824 10.369L25.326 10.3465L25.2617 10.3239L25.1977 10.3014L25.1298 10.2788L25.0583 10.26L24.9867 10.245L24.9076 10.2299L24.8284 10.2188L24.7417 10.2112L24.6549 10.2037H24.5645H24.4704H24.3762L24.2781 10.2112L24.1763 10.2225L24.071 10.2412L23.9653 10.2713L23.86 10.3127L23.7543 10.3653L23.6487 10.4329L23.5471 10.5155L23.449 10.6132L23.3548 10.7334L23.2643 10.8725L23.1815 11.0377L23.1022 11.2256L23.0308 11.4362L22.9705 11.6765L22.9478 11.8116L22.9327 11.9432L22.9251 12.0747L22.929 12.2026L22.9403 12.3302L22.9667 12.4505L23.0005 12.5632L23.042 12.6761L23.0985 12.7775L23.1663 12.8752L23.2455 12.9615L23.3358 13.0403L23.4378 13.1079L23.5545 13.1645L23.6828 13.2133L23.8261 13.247L23.8749 13.2583L23.9314 13.2696L23.9991 13.2772L24.0747 13.2848L24.1575 13.2921H24.2442H24.3385L24.4327 13.2848L24.5307 13.2733L24.6287 13.2547L24.7228 13.2284L24.8171 13.1982L24.9113 13.1569L24.998 13.1079L25.0771 13.0479L25.1524 12.9803L24.983 13.9835L24.9603 14.0023L24.9377 14.0247L24.9076 14.0511L24.8737 14.0736L24.8321 14.1037L24.7793 14.1301L24.7191 14.1563L24.6513 14.1788L24.5645 14.2052L24.4665 14.2238L24.3536 14.239L24.2216 14.2539L24.0747 14.2615L23.9051 14.2652L23.7127 14.2615L23.5017 14.2503L23.3284 14.2314L23.155 14.194L22.9817 14.1376L22.8083 14.0625L22.6425 13.9723L22.4843 13.8594L22.3335 13.728L22.1941 13.5777L22.0697 13.4087L21.9642 13.2208L21.8737 13.0105L21.806 12.7812L21.7608 12.5294L21.7456 12.2626L21.7531 11.9696L21.7947 11.6579L21.8245 11.5038L21.8585 11.3534L21.8963 11.2069L21.934 11.0679L21.9755 10.9364L22.0243 10.8048L22.0735 10.6809L22.1261 10.5644L22.1829 10.4478L22.2394 10.339L22.3034 10.2337L22.371 10.136L22.4389 10.0421L22.5145 9.95192L22.5897 9.86929L22.6688 9.79045L22.7555 9.71529L22.8423 9.6438L22.9327 9.58002L23.027 9.51991L23.1288 9.46336L23.2304 9.41464L23.3358 9.36959L23.4453 9.32821L23.5622 9.29063L23.6789 9.26052L23.7995 9.23432L23.9277 9.21168L24.0557 9.19294L24.1916 9.17789L24.3273 9.17042L24.4704 9.16663L24.591 9.17042L24.7078 9.17789L24.8208 9.18903L24.934 9.20421L25.0395 9.21926L25.1413 9.24179L25.2393 9.26052L25.3296 9.28304L25.4163 9.30569L25.4917 9.32821L25.5633 9.35074L25.6237 9.37326L25.6763 9.39211L25.7216 9.40705L25.7556 9.42211L25.7781 9.42969L25.5896 10.4705Z" fill="white"/>
<path fill-rule="evenodd" clip-rule="evenodd" d="M25.5896 10.4705L25.5407 10.4441L25.4917 10.4216L25.439 10.3953L25.3824 10.369L25.326 10.3465L25.2617 10.3239L25.1977 10.3014L25.1298 10.2788L25.0583 10.26L24.9867 10.245L24.9076 10.2299L24.8284 10.2188L24.7417 10.2112L24.6549 10.2037H24.5645H24.4704H24.3762L24.2781 10.2112L24.1763 10.2225L24.071 10.2412L23.9653 10.2713L23.86 10.3127L23.7543 10.3653L23.6487 10.4329L23.5471 10.5155L23.449 10.6132L23.3548 10.7334L23.2643 10.8725L23.1815 11.0377L23.1022 11.2256L23.0308 11.4362L22.9705 11.6765L22.9478 11.8116L22.9327 11.9432L22.9251 12.0747L22.929 12.2026L22.9403 12.3302L22.9667 12.4505L23.0005 12.5632L23.042 12.6761L23.0985 12.7775L23.1663 12.8752L23.2455 12.9615L23.3358 13.0403L23.4378 13.1079L23.5545 13.1645L23.6828 13.2133L23.8261 13.247L23.8749 13.2583L23.9314 13.2696L23.9991 13.2772L24.0747 13.2848L24.1575 13.2921H24.2442H24.3385L24.4327 13.2848L24.5307 13.2733L24.6287 13.2547L24.7228 13.2284L24.8171 13.1982L24.9113 13.1569L24.998 13.1079L25.0771 13.0479L25.1524 12.9803L24.983 13.9835L24.9603 14.0023L24.9377 14.0247L24.9076 14.0511L24.8737 14.0736L24.8321 14.1037L24.7793 14.1301L24.7191 14.1563L24.6513 14.1788L24.5645 14.2052L24.4665 14.2238L24.3536 14.239L24.2216 14.2539L24.0747 14.2615L23.9051 14.2652L23.7127 14.2615L23.5017 14.2503L23.3284 14.2314L23.155 14.194L22.9817 14.1376L22.8083 14.0625L22.6425 13.9723L22.4843 13.8594L22.3335 13.728L22.1941 13.5777L22.0697 13.4087L21.9642 13.2208L21.8737 13.0105L21.806 12.7812L21.7608 12.5294L21.7456 12.2626L21.7531 11.9696L21.7947 11.6579L21.8245 11.5038L21.8585 11.3534L21.8963 11.2069L21.934 11.0679L21.9755 10.9364L22.0243 10.8048L22.0735 10.6809L22.1261 10.5644L22.1829 10.4478L22.2394 10.339L22.3034 10.2337L22.371 10.136L22.4389 10.0421L22.5145 9.95192L22.5897 9.86929L22.6688 9.79045L22.7555 9.71529L22.8423 9.6438L22.9327 9.58002L23.027 9.51991L23.1288 9.46336L23.2304 9.41464L23.3358 9.36959L23.4453 9.32821L23.5622 9.29063L23.6789 9.26052L23.7995 9.23432L23.9277 9.21168L24.0557 9.19294L24.1916 9.17789L24.3273 9.17042L24.4704 9.16663L24.591 9.17042L24.7078 9.17789L24.8208 9.18903L24.934 9.20421L25.0395 9.21926L25.1413 9.24179L25.2393 9.26052L25.3296 9.28304L25.4163 9.30569L25.4917 9.32821L25.5633 9.35074L25.6237 9.37326L25.6763 9.39211L25.7216 9.40705L25.7556 9.42211L25.7781 9.42969L25.5896 10.4705Z" stroke="white" stroke-width="0.216"/>
<path d="M34.8687 14.2691H33.8247L33.9002 13.8521V13.8144L33.8398 13.8896L33.7758 13.9572L33.7118 14.0175L33.644 14.07L33.5762 14.1188L33.5083 14.1603L33.4405 14.194L33.3687 14.2278L33.2973 14.254L33.2256 14.2729L33.154 14.2917L33.0786 14.303L33.0032 14.3143L32.9317 14.3217L32.8563 14.3256H32.7809L32.585 14.3105L32.404 14.2691L32.2382 14.2053L32.0876 14.1188L31.9517 14.0098L31.831 13.8823L31.7256 13.7432L31.6352 13.5854L31.5598 13.4161L31.4996 13.2398L31.458 13.0556L31.4278 12.864L31.4165 12.6723L31.4204 12.4768L31.4392 12.2852L31.4733 12.0937L31.5297 11.872L31.5977 11.6615L31.6767 11.4701L31.7709 11.2896L31.8689 11.1205L31.9818 10.9702L32.0989 10.8351L32.2231 10.711L32.3551 10.602L32.4944 10.508L32.6378 10.4255L32.7809 10.3616L32.9317 10.309L33.0823 10.2753L33.2332 10.2525L33.3877 10.2451L33.497 10.2489L33.6024 10.2601L33.7004 10.2788L33.7909 10.3052L33.8777 10.3353L33.953 10.3691L34.0285 10.4104L34.0963 10.4517L34.1565 10.4967L34.213 10.5456L34.2619 10.5944L34.3073 10.6434L34.3449 10.6922L34.3789 10.741L34.409 10.7861L34.4316 10.8313L34.6954 9.35461H35.7205L34.8687 14.2691Z" fill="white"/>
<path fill-rule="evenodd" clip-rule="evenodd" d="M34.8687 14.2691H33.8247L33.9002 13.8521V13.8144L33.8398 13.8896L33.7758 13.9572L33.7118 14.0175L33.644 14.07L33.5762 14.1188L33.5083 14.1603L33.4405 14.194L33.3687 14.2278L33.2973 14.254L33.2256 14.2729L33.154 14.2917L33.0786 14.303L33.0032 14.3143L32.9317 14.3217L32.8563 14.3256H32.7809L32.585 14.3105L32.404 14.2691L32.2382 14.2053L32.0876 14.1188L31.9517 14.0098L31.831 13.8823L31.7256 13.7432L31.6352 13.5854L31.5598 13.4161L31.4996 13.2398L31.458 13.0556L31.4278 12.864L31.4165 12.6723L31.4204 12.4768L31.4392 12.2852L31.4733 12.0937L31.5297 11.872L31.5977 11.6615L31.6767 11.4701L31.7709 11.2896L31.8689 11.1205L31.9818 10.9702L32.0989 10.8351L32.2231 10.711L32.3551 10.602L32.4944 10.508L32.6378 10.4255L32.7809 10.3616L32.9317 10.309L33.0823 10.2753L33.2332 10.2525L33.3877 10.2451L33.497 10.2489L33.6024 10.2601L33.7004 10.2788L33.7909 10.3052L33.8777 10.3353L33.953 10.3691L34.0285 10.4104L34.0963 10.4517L34.1565 10.4967L34.213 10.5456L34.2619 10.5944L34.3073 10.6434L34.3449 10.6922L34.3789 10.741L34.409 10.7861L34.4316 10.8313L34.6954 9.35461H35.7205L34.8687 14.2691Z" stroke="white" stroke-width="0.216"/>
<path d="M33.1613 13.3598L33.2667 13.3524L33.3647 13.3299L33.4552 13.3035L33.5418 13.2621L33.6209 13.2171L33.6964 13.1608L33.7679 13.097L33.832 13.0292L33.8885 12.9541L33.9414 12.8714L33.9902 12.7849L34.0318 12.6948L34.0694 12.6009L34.0995 12.5033L34.1259 12.4018L34.1448 12.3004L34.1637 12.195L34.1749 12.0861V11.9847L34.1711 11.8796L34.16 11.7819L34.1448 11.6879L34.1185 11.5978L34.0882 11.5113L34.0506 11.4363L34.0054 11.3647L33.9564 11.3046L33.8998 11.2521L33.8358 11.207L33.7679 11.1769L33.6964 11.1582L33.6173 11.1506L33.5154 11.1582L33.4213 11.1732L33.3345 11.2032L33.2478 11.2408L33.1724 11.2896L33.0972 11.3499L33.0331 11.4136L32.9689 11.485L32.9124 11.5675L32.8596 11.6541L32.8107 11.7442L32.7692 11.8419L32.7315 11.9433L32.7014 12.0447L32.6712 12.1538L32.6487 12.2627L32.6299 12.4281L32.6374 12.6084L32.6638 12.7925L32.7127 12.9692L32.788 13.1232L32.8861 13.2471L33.0105 13.3299L33.1613 13.3598Z" fill="#FCB331"/>
<path d="M10.0177 13.435L9.86706 14.269H8.91742L8.94377 14.1149L8.96271 13.9761L8.97765 13.8709L8.99259 13.8144L8.94 13.8746L8.87965 13.9346L8.80812 13.991L8.72906 14.0437L8.63847 14.0963L8.54424 14.1414L8.44624 14.1864L8.34447 14.2239L8.23518 14.2578L8.12589 14.2841L8.01671 14.3067L7.90365 14.3217L7.79424 14.3291L7.68506 14.3329L7.57941 14.3217L7.47777 14.3067L7.34577 14.2728L7.22518 14.2354L7.11977 14.1864L7.02565 14.1301L6.94259 14.07L6.86718 14.0023L6.80694 13.9309L6.75388 13.8558L6.70883 13.7769L6.6713 13.6941L6.64106 13.6115L6.61836 13.529L6.6033 13.4425L6.592 13.3561L6.58447 13.2733V13.1908L6.59565 13.0443L6.61836 12.9051L6.65612 12.7736L6.70506 12.6459L6.7653 12.5257L6.8333 12.4168L6.91236 12.3116L7.00306 12.2176L7.09706 12.1311L7.20247 12.0522L7.31188 11.981L7.42494 11.9207L7.54553 11.8683L7.66989 11.8269L7.79812 11.7931L7.92988 11.7705H7.93753L7.95636 11.7666L7.98283 11.763L8.02412 11.7593L8.0693 11.7517L8.12212 11.748L8.17859 11.7404L8.24283 11.7328L8.30694 11.7254L8.37094 11.7179L8.43883 11.7142L8.49906 11.7066L8.5593 11.703L8.61565 11.6991L8.66859 11.6954H8.71012H8.79683L8.88718 11.6991L8.97012 11.703H9.05306L9.12094 11.7066L9.17365 11.7103L9.2113 11.7142H9.22259L9.23024 11.6878L9.25283 11.6202L9.27165 11.5413L9.27918 11.47L9.26412 11.3871L9.23024 11.3121L9.18506 11.2444L9.12483 11.1881L9.05306 11.1393L8.97389 11.1055L8.88365 11.0828L8.7853 11.0755L8.68012 11.0717L8.56694 11.0679H8.45012L8.3293 11.0717L8.20494 11.0793L8.08459 11.0903L7.96389 11.1017L7.84694 11.1167L7.734 11.1318L7.62471 11.1505L7.52683 11.1694L7.43636 11.1881L7.35341 11.2107L7.28565 11.2331L7.23283 11.2595L7.1913 11.282L7.45906 10.3765L7.54165 10.3428L7.62471 10.3127L7.71506 10.2863L7.80553 10.2675L7.89588 10.2488L7.99412 10.2337L8.092 10.2188L8.19365 10.2112L8.29941 10.2038L8.40836 10.2L8.52165 10.1962H8.63847H8.7593H8.88365L9.0153 10.2L9.1473 10.2038L9.25283 10.2112L9.36589 10.23L9.48259 10.2563L9.6033 10.2901L9.72012 10.3352L9.83318 10.3879L9.94636 10.4516L10.0518 10.523L10.1459 10.6058L10.2289 10.696L10.3041 10.7973L10.3607 10.9101L10.3985 11.0303L10.4212 11.1581V11.3008L10.3985 11.4512L10.0177 13.435Z" fill="white"/>
<path fill-rule="evenodd" clip-rule="evenodd" d="M10.0177 13.435L9.86706 14.269H8.91742L8.94377 14.1149L8.96271 13.9761L8.97765 13.8709L8.99259 13.8144L8.94 13.8746L8.87965 13.9346L8.80812 13.991L8.72906 14.0437L8.63847 14.0963L8.54424 14.1414L8.44624 14.1864L8.34447 14.2239L8.23518 14.2578L8.12589 14.2841L8.01671 14.3067L7.90365 14.3217L7.79424 14.3291L7.68506 14.3329L7.57941 14.3217L7.47777 14.3067L7.34577 14.2728L7.22518 14.2354L7.11977 14.1864L7.02565 14.1301L6.94259 14.07L6.86718 14.0023L6.80694 13.9309L6.75388 13.8558L6.70883 13.7769L6.6713 13.6941L6.64106 13.6115L6.61836 13.529L6.6033 13.4425L6.592 13.3561L6.58447 13.2733V13.1908L6.59565 13.0443L6.61836 12.9051L6.65612 12.7736L6.70506 12.6459L6.7653 12.5257L6.8333 12.4168L6.91236 12.3116L7.00306 12.2176L7.09706 12.1311L7.20247 12.0522L7.31188 11.981L7.42494 11.9207L7.54553 11.8683L7.66989 11.8269L7.79812 11.7931L7.92988 11.7705H7.93753L7.95636 11.7666L7.98283 11.763L8.02412 11.7593L8.0693 11.7517L8.12212 11.748L8.17859 11.7404L8.24283 11.7328L8.30694 11.7254L8.37094 11.7179L8.43883 11.7142L8.49906 11.7066L8.5593 11.703L8.61565 11.6991L8.66859 11.6954H8.71012H8.79683L8.88718 11.6991L8.97012 11.703H9.05306L9.12095 11.7066L9.17365 11.7103L9.2113 11.7142H9.22259L9.23024 11.6878L9.25283 11.6202L9.27165 11.5413L9.27918 11.47L9.26412 11.3871L9.23024 11.3121L9.18506 11.2444L9.12483 11.1881L9.05306 11.1393L8.97389 11.1055L8.88365 11.0828L8.7853 11.0755L8.68012 11.0717L8.56694 11.0679H8.45012L8.3293 11.0717L8.20494 11.0793L8.08459 11.0903L7.96389 11.1017L7.84694 11.1167L7.734 11.1318L7.62471 11.1505L7.52683 11.1694L7.43636 11.1881L7.35341 11.2107L7.28565 11.2331L7.23283 11.2595L7.1913 11.282L7.45906 10.3765L7.54165 10.3428L7.62471 10.3127L7.71506 10.2863L7.80553 10.2675L7.89589 10.2488L7.99412 10.2337L8.092 10.2188L8.19365 10.2112L8.29941 10.2038L8.40836 10.2L8.52165 10.1962H8.63847H8.7593H8.88365L9.0153 10.2L9.1473 10.2038L9.25283 10.2112L9.36589 10.23L9.48259 10.2563L9.6033 10.2901L9.72012 10.3352L9.83318 10.3879L9.94636 10.4516L10.0518 10.523L10.1459 10.6058L10.2289 10.696L10.3041 10.7973L10.3607 10.9101L10.3985 11.0303L10.4212 11.1581V11.3008L10.3985 11.4512L10.0177 13.435Z" stroke="white" stroke-width="0.216"/>
<path d="M9.10929 12.4544L9.10541 12.4357L9.09047 12.4168L9.06788 12.4054L9.03023 12.398L8.98882 12.3905L8.93976 12.3866H8.88341H8.82682L8.76635 12.3905L8.70223 12.398L8.64199 12.4054L8.58164 12.413L8.52505 12.4205L8.47247 12.432L8.42729 12.4431L8.38576 12.4544L8.35929 12.4619L8.32905 12.4731L8.28776 12.4882L8.24647 12.5069L8.19729 12.5295L8.14823 12.5559L8.09564 12.5821L8.04647 12.6122L7.99388 12.6497L7.9447 12.6872L7.89952 12.7324L7.85811 12.7776L7.82035 12.8264L7.79399 12.8789L7.77129 12.9391L7.75999 12.9992L7.75635 13.1268L7.77529 13.2284L7.81305 13.3035L7.86176 13.3598L7.91823 13.3975L7.98258 13.42L8.04282 13.4313L8.10305 13.4351L8.21611 13.4313L8.31776 13.42L8.41599 13.4048L8.50247 13.3823L8.57799 13.3561L8.64941 13.3223L8.71352 13.2885L8.77023 13.2471L8.81917 13.2097L8.86447 13.1645L8.90188 13.1232L8.93223 13.0781L8.95847 13.0331L8.98117 12.9879L9 12.9465L9.01129 12.9051L9.04152 12.7963L9.06788 12.6723L9.09047 12.552L9.10929 12.4544Z" fill="#ED1C2E"/>
<path d="M2.08756 14.269H1.0625L1.91803 9.33582H3.70074L3.87015 12.2626L5.10262 9.33582H6.96438L6.09003 14.269H5.06485L5.71309 10.5832H5.67156L4.13779 14.269H2.98074L2.97321 14.1149L2.94685 13.7054L2.91309 13.1231L2.87521 12.4543L2.83768 11.7818L2.80368 11.1919L2.77744 10.7635L2.76979 10.5832H2.75827H2.73579H2.71332L2.08756 14.269Z" fill="white"/>
<path fill-rule="evenodd" clip-rule="evenodd" d="M2.08756 14.269H1.0625L1.91803 9.33582H3.70074L3.87015 12.2626L5.10262 9.33582H6.96438L6.09003 14.269H5.06485L5.71309 10.5832H5.67156L4.1378 14.269H2.98074L2.97321 14.1149L2.94685 13.7054L2.91309 13.1231L2.87521 12.4543L2.83768 11.7818L2.80368 11.1919L2.77744 10.7635L2.76979 10.5832H2.75827H2.73579H2.71332L2.08756 14.269Z" stroke="white" stroke-width="0.216"/>
<path d="M28.7217 13.435L28.5672 14.269H27.6212L27.6287 14.1149L27.6327 13.9797V13.8783L27.64 13.8332L27.591 13.8896L27.5345 13.9459L27.4668 13.9986L27.3912 14.0511L27.3122 14.0999L27.2216 14.145L27.1275 14.1901L27.0334 14.2278L26.9315 14.2578L26.8261 14.2879L26.7203 14.3067L26.6149 14.3217L26.5056 14.3291L26.4001 14.3329L26.2982 14.3217L26.1965 14.3067L26.0609 14.2728L25.9403 14.2354L25.8349 14.1864L25.7368 14.1301L25.6538 14.07L25.5823 14.0023L25.5218 13.9309L25.4692 13.8558L25.4241 13.7769L25.3901 13.6941L25.36 13.6115L25.341 13.529L25.3261 13.4425L25.3148 13.3561L25.3071 13.2733V13.1908L25.3148 13.0443L25.3374 12.9051L25.3712 12.7736L25.4202 12.6459L25.4767 12.5257L25.5484 12.4168L25.6275 12.3116L25.7142 12.2176L25.8123 12.1311L25.914 12.0522L26.0231 11.981L26.14 11.9207L26.2569 11.8683L26.3812 11.8269L26.5056 11.7931L26.6338 11.7705H26.6412L26.6602 11.7666L26.6864 11.763L26.7243 11.7593L26.7731 11.7517L26.8261 11.748L26.8825 11.7404L26.9427 11.7328L27.0068 11.7254L27.0747 11.7179L27.1388 11.7142L27.2029 11.7066L27.2631 11.703L27.316 11.6991L27.3687 11.6954H27.4102H27.5007L27.591 11.6991L27.6775 11.703H27.7605L27.8323 11.7066L27.8925 11.7103L27.9264 11.7142H27.9416L27.949 11.6878L27.9603 11.6202L27.9716 11.5413L27.9792 11.47L27.9641 11.3871L27.9341 11.3121L27.8849 11.2444L27.8284 11.1881L27.7605 11.1393L27.6815 11.1055L27.5985 11.0828L27.5081 11.0755L27.4025 11.0717L27.2896 11.0679H27.1727L27.052 11.0717L26.9277 11.0793L26.8071 11.0903L26.6864 11.1017L26.5697 11.1167L26.4565 11.1318L26.3474 11.1505L26.2494 11.1694L26.159 11.1881L26.076 11.2107L26.0082 11.2331L25.9554 11.2595L25.914 11.282L26.1778 10.3765L26.2607 10.3428L26.3474 10.3127L26.434 10.2863L26.5245 10.2675L26.6187 10.2488L26.7129 10.2337L26.8108 10.2188L26.9127 10.2112L27.0182 10.2038L27.1275 10.2L27.2368 10.1962H27.3535H27.4704H27.591L27.7191 10.2L27.8474 10.2038L27.9528 10.2112L28.066 10.23L28.1828 10.2563L28.3034 10.2901L28.4202 10.3352L28.5369 10.3879L28.65 10.4516L28.7556 10.523L28.8497 10.6058L28.9364 10.696L29.0118 10.7973L29.0683 10.9101L29.11 11.0303L29.1362 11.1581V11.3008L29.1172 11.4512L28.7217 13.435Z" fill="white"/>
<path d="M28.5671 14.2953L28.5897 14.2728L28.7442 13.4388L28.699 13.4312L28.5444 14.2652L28.5671 14.2427V14.2953L28.5858 14.2917L28.5897 14.2728L28.5671 14.2953Z" fill="white"/>
<path d="M27.5985 14.2869L27.6212 14.331H28.5672V14.2427H27.6212L27.6436 14.2869H27.5985L27.5947 14.331H27.6212L27.5985 14.2869Z" fill="white"/>
<path d="M27.7007 13.8482L27.6432 13.8183L27.6175 13.8783L27.6114 13.9796V14.1149L27.5986 14.269H27.6749L27.6878 14.1149L27.7007 13.9796L27.6942 13.8783V13.8482L27.637 13.8183L27.7007 13.8482Z" fill="white"/>
<path d="M26.1929 14.3291L26.2982 14.3441L26.4 14.3555L26.5056 14.3518L26.6149 14.3441L26.7243 14.3291L26.8296 14.3104L26.9353 14.2803L27.0408 14.2503L27.1351 14.2126L27.2329 14.1676L27.3233 14.1225L27.4025 14.07L27.4817 14.0175L27.5496 13.9647L27.6097 13.9045L27.6589 13.8482L27.6212 13.8183L27.5722 13.8746L27.5193 13.9272L27.4516 13.9796L27.3801 14.0324L27.301 14.0775L27.2102 14.1225L27.1198 14.1676L27.0257 14.2053L26.9277 14.2354L26.822 14.2652L26.7168 14.2841L26.6149 14.2991L26.5056 14.3067L26.4 14.3104L26.2982 14.2991L26.2005 14.2841L26.1929 14.3291Z" fill="white"/>
<path d="M25.2808 13.1909L25.2845 13.2734L25.2921 13.3561L25.3032 13.4462L25.3184 13.5328L25.3374 13.6153L25.3673 13.7017L25.4015 13.7882L25.4503 13.8671L25.5031 13.9459L25.5633 14.0175L25.6388 14.0888L25.7256 14.149L25.8236 14.209L25.9326 14.2578L26.0572 14.2954L26.1929 14.3292L26.2005 14.2841L26.0646 14.2504L25.9478 14.2127L25.8461 14.1639L25.7481 14.1113L25.6689 14.0512L25.601 13.9873L25.5408 13.9158L25.4879 13.8446L25.4466 13.7656L25.4128 13.6868L25.3825 13.6079L25.3637 13.5252L25.3486 13.4389L25.3374 13.3561L25.3297 13.2734L25.3335 13.1909H25.2808Z" fill="white"/>
<path d="M26.6338 11.748L26.5019 11.7705L26.3737 11.8043L26.2493 11.8456L26.1288 11.8982L26.0117 11.9584L25.8988 12.0333L25.797 12.1125L25.699 12.2026L25.6086 12.2964L25.5295 12.4017L25.4541 12.5143L25.3976 12.6383L25.3486 12.7662L25.3148 12.9014L25.2921 13.0442L25.2808 13.1908H25.3335L25.3374 13.0442L25.3599 12.9087L25.3939 12.7812L25.4428 12.6535L25.4993 12.537L25.5671 12.4319L25.6462 12.3265L25.7292 12.2327L25.8272 12.1499L25.929 12.071L26.0344 12.0035L26.1513 11.9432L26.2643 11.8907L26.3886 11.8493L26.5093 11.8156L26.6338 11.793V11.748Z" fill="white"/>
<path d="M27.4101 11.6693H27.3686L27.3159 11.6811L27.2631 11.6872L27.2028 11.6932L27.1387 11.7051L27.0746 11.7113L27.0067 11.7235L26.9426 11.7353L26.8825 11.7475L26.826 11.7595L26.7731 11.7656L26.7243 11.7778L26.6864 11.7837L26.6561 11.7896L26.6412 11.7959H26.6338V11.8682H26.6412L26.6638 11.862L26.6864 11.8561L26.7243 11.8502L26.7731 11.838L26.826 11.8321L26.8825 11.8199L26.9426 11.8077L27.0067 11.7959L27.0746 11.7837L27.1387 11.7778L27.2028 11.7656L27.2631 11.7595L27.3159 11.7534H27.3686H27.4101V11.6693Z" fill="white"/>
<path d="M27.9192 11.7383L27.9421 11.7067H27.9269L27.893 11.7005L27.8328 11.6943L27.761 11.6816H27.6779H27.5915L27.5011 11.6693H27.4106V11.7572H27.5011H27.5915L27.6779 11.7699H27.761H27.8328L27.893 11.7761L27.9269 11.7827H27.9421L27.9645 11.751L27.9421 11.7827L27.9608 11.7888L27.9645 11.751L27.9192 11.7383Z" fill="white"/>
<path d="M27.9828 11.47H27.9765L27.9701 11.5413L27.951 11.6164L27.9319 11.6841L27.9189 11.7103L27.9956 11.7179L28.0083 11.6915L28.0274 11.6239L28.0465 11.5413L28.0658 11.47H28.0594H27.9828Z" fill="white"/>
<path d="M27.5083 11.0979V11.1016L27.595 11.1054L27.6742 11.1281L27.7495 11.1618L27.8136 11.2069L27.8663 11.2594L27.9116 11.3233L27.9418 11.391L27.9568 11.47H28.0021L27.9869 11.3834L27.9568 11.3008L27.9041 11.2294L27.8438 11.1693L27.7722 11.1167L27.6892 11.0828L27.6025 11.0603L27.5083 11.049V11.0528V11.0979Z" fill="white"/>
<path d="M25.8916 11.2783L25.9292 11.3008L25.9668 11.2819L26.016 11.2556L26.08 11.2331L26.1629 11.2107L26.2532 11.1918L26.3514 11.1731L26.4607 11.1543L26.57 11.1392L26.6867 11.1243L26.8074 11.1129L26.928 11.1016L27.0522 11.094H27.1729H27.2898H27.4028L27.5083 11.0978V11.0528L27.4028 11.049L27.2898 11.0416H27.1729L27.0522 11.049L26.928 11.0566L26.8074 11.0678L26.6867 11.0792L26.57 11.094L26.453 11.1092L26.3437 11.1281L26.246 11.1468L26.1552 11.1655L26.0724 11.188L26.0008 11.2107L25.9442 11.2369L25.899 11.2632L25.9368 11.2857L25.8916 11.2783Z" fill="white"/>
<path d="M26.1704 10.3541L26.1552 10.3729L25.8916 11.2784L25.9368 11.2859L26.2008 10.3804L26.1855 10.3991L26.1704 10.3541L26.1592 10.3579L26.1552 10.3729L26.1704 10.3541Z" fill="white"/>
<path d="M27.8481 10.1811L27.7198 10.1736L27.5917 10.1698H27.4711H27.3542H27.2375L27.1282 10.1774L27.0189 10.1811L26.9134 10.1887L26.8115 10.1961L26.7097 10.2112L26.6156 10.2261L26.5214 10.245L26.4309 10.2638L26.3405 10.29L26.2537 10.3201L26.1709 10.3539L26.186 10.399L26.269 10.3653L26.3555 10.3352L26.4384 10.3089L26.5289 10.29L26.6233 10.2713L26.7175 10.2562L26.8115 10.2412L26.9134 10.2337L27.0189 10.2261L27.1282 10.2224H27.2375H27.3542H27.4711H27.5917L27.7198 10.2261H27.8481V10.1811Z" fill="white"/>
<path d="M29.1402 11.4549L29.1591 11.3009V11.1582L29.1328 11.0266L29.0913 10.9027L29.0311 10.7862L28.9554 10.681L28.8651 10.5871L28.7708 10.5044L28.6615 10.433L28.5486 10.3654L28.4279 10.3128L28.3112 10.2676L28.1868 10.2339L28.07 10.2075L27.9531 10.1888L27.8477 10.1812V10.2263L27.9531 10.2339L28.0624 10.2526L28.1793 10.2789L28.296 10.3128L28.4128 10.3579L28.526 10.4105L28.639 10.4706L28.7407 10.542L28.835 10.6246L28.9179 10.711L28.9932 10.8087L29.0461 10.9177L29.0874 11.0341L29.1139 11.1582V11.3009L29.095 11.4476L29.1402 11.4549Z" fill="white"/>
<path d="M28.7444 13.4389L29.14 11.4549L29.0947 11.4476L28.6992 13.4313L28.7444 13.4389Z" fill="white"/>
<path d="M27.8096 12.4544L27.8023 12.432L27.7871 12.4131L27.7607 12.4018L27.7231 12.3905L27.6816 12.3866L27.6328 12.3831H27.576L27.5195 12.3866L27.4593 12.3942L27.399 12.4018L27.3386 12.4093L27.2822 12.4168L27.2256 12.4281L27.1764 12.4357L27.1276 12.447L27.09 12.4544L27.0635 12.4582L27.0335 12.4694L26.9957 12.4807L26.9541 12.4957L26.9053 12.5182L26.8601 12.5407L26.8073 12.5672L26.7583 12.601L26.7091 12.6347L26.6603 12.6762L26.6188 12.7174L26.5773 12.7663L26.5435 12.8187L26.5171 12.8753L26.4944 12.9354L26.4831 12.9992L26.4795 13.1269L26.4981 13.2285L26.5283 13.3035L26.5736 13.3598L26.6301 13.3975L26.6942 13.42L26.7583 13.4313L26.8222 13.4351L26.9355 13.4313L27.0409 13.42L27.1389 13.4012L27.2256 13.375L27.3087 13.3449L27.3802 13.311L27.448 13.2734L27.5082 13.2285L27.5609 13.187L27.6062 13.1381L27.6477 13.0931L27.6816 13.0443L27.708 12.9992L27.7268 12.9541L27.7418 12.9088L27.7531 12.8677L27.7683 12.7624L27.7871 12.6536L27.8023 12.5483L27.8096 12.4544Z" fill="#FCB331"/>
<path d="M29.0049 14.269H30.0677L30.4485 12.131L30.4634 12.0485L30.4858 11.9657L30.5086 11.8831L30.5388 11.8006L30.5765 11.7178L30.6217 11.639L30.6706 11.5637L30.7311 11.4925L30.7989 11.4284L30.8741 11.3685L30.9608 11.312L31.0589 11.267L31.1682 11.2294L31.2888 11.1994L31.4206 11.1768L31.5676 11.1693H31.6204H31.6504H31.6617L31.8312 10.2037L31.7258 10.2111L31.6242 10.2224L31.5299 10.2411L31.4395 10.2675L31.3565 10.2976L31.2775 10.3351L31.2021 10.3764L31.1306 10.4216L31.0628 10.4742L30.9986 10.5267L30.9382 10.587L30.8779 10.6471L30.8215 10.7108L30.765 10.7823L30.7084 10.8498L30.6557 10.9251L30.7686 10.2449H29.7097L29.0049 14.269Z" fill="white"/>
<path fill-rule="evenodd" clip-rule="evenodd" d="M29.0049 14.269H30.0677L30.4485 12.131L30.4634 12.0485L30.4858 11.9657L30.5086 11.8831L30.5388 11.8006L30.5765 11.7178L30.6217 11.639L30.6706 11.5637L30.7311 11.4925L30.7989 11.4284L30.8741 11.3685L30.9608 11.312L31.0589 11.267L31.1682 11.2294L31.2888 11.1994L31.4206 11.1768L31.5676 11.1693H31.6204H31.6504H31.6617L31.8312 10.2037L31.7258 10.2111L31.6242 10.2224L31.5299 10.2411L31.4395 10.2675L31.3565 10.2976L31.2775 10.3351L31.2021 10.3764L31.1306 10.4216L31.0628 10.4742L30.9986 10.5267L30.9382 10.587L30.8779 10.6471L30.8215 10.7108L30.765 10.7823L30.7084 10.8498L30.6557 10.9251L30.7686 10.2449H29.7097L29.0049 14.269Z" stroke="white" stroke-width="0.216"/>
<path d="M19.0254 14.269H20.0882H20.1072L20.4688 12.131L20.4837 12.0485L20.5027 11.9695L20.5216 11.8907L20.548 11.8155L20.5781 11.7404L20.6156 11.6691L20.6609 11.6013L20.7137 11.5375L20.7742 11.481L20.842 11.4249L20.9248 11.3797L21.0153 11.3383L21.1208 11.3044L21.2376 11.2744L21.3659 11.2556L21.5127 11.2443H21.524L21.5393 11.2481L21.5579 11.2519H21.5768L21.5957 11.2556L21.6107 11.2594L21.6221 11.2632H21.6257L21.6296 11.2481L21.6409 11.2031L21.656 11.1355L21.6748 11.0527L21.7012 10.9551L21.7276 10.8498L21.7616 10.7446L21.7955 10.6395L21.8254 10.5681L21.8633 10.4966L21.9009 10.4254L21.9386 10.3615L21.9726 10.305L21.9989 10.26L22.0179 10.2337L22.0252 10.2224H22.0215L22.0063 10.2187L21.9876 10.2149L21.9613 10.2111H21.9348L21.9046 10.2073L21.8783 10.2037H21.852L21.735 10.2111L21.6296 10.2224L21.5316 10.2411L21.4412 10.2638L21.3544 10.2939L21.2754 10.3314L21.2036 10.3689L21.1357 10.414L21.0717 10.4628L21.0114 10.5191L20.955 10.5756L20.8986 10.6395L20.842 10.7034L20.7892 10.7747L20.7327 10.8498L20.6761 10.9251L20.8117 10.2449H19.7302L19.0254 14.269Z" fill="white"/>
<path fill-rule="evenodd" clip-rule="evenodd" d="M19.0254 14.269H20.0882H20.1072L20.4688 12.131L20.4837 12.0485L20.5027 11.9695L20.5216 11.8907L20.548 11.8155L20.5781 11.7404L20.6156 11.6691L20.6609 11.6013L20.7137 11.5375L20.7742 11.481L20.842 11.4249L20.9248 11.3797L21.0153 11.3383L21.1208 11.3044L21.2376 11.2744L21.3659 11.2556L21.5127 11.2443H21.524L21.5393 11.2481L21.5579 11.2519H21.5768L21.5957 11.2556L21.6107 11.2594L21.6221 11.2632H21.6257L21.6296 11.2481L21.6409 11.2031L21.656 11.1355L21.6748 11.0527L21.7012 10.9551L21.7276 10.8498L21.7616 10.7446L21.7955 10.6395L21.8254 10.5681L21.8633 10.4966L21.9009 10.4254L21.9386 10.3615L21.9726 10.305L21.9989 10.26L22.0179 10.2337L22.0252 10.2224H22.0215L22.0063 10.2187L21.9876 10.2149L21.9613 10.2111H21.9348L21.9046 10.2073L21.8783 10.2037H21.852L21.735 10.2111L21.6296 10.2224L21.5316 10.2411L21.4412 10.2638L21.3544 10.2939L21.2754 10.3314L21.2036 10.3689L21.1357 10.414L21.0717 10.4628L21.0114 10.5191L20.955 10.5756L20.8986 10.6395L20.842 10.7034L20.7892 10.7747L20.7327 10.8498L20.6761 10.9251L20.8117 10.2449H19.7302L19.0254 14.269Z" stroke="white" stroke-width="0.216"/>
</svg>
