<svg width="64" height="17" viewBox="0 0 64 17" fill="none" xmlns="http://www.w3.org/2000/svg">
<mask id="mask0_196_1217" style="mask-type:alpha" maskUnits="userSpaceOnUse" x="18" y="3" width="26" height="14">
<path d="M18.4058 3.88214H43.9758V16.616H18.4058V3.88214Z" fill="white"/>
</mask>
<g mask="url(#mask0_196_1217)">
<path fill-rule="evenodd" clip-rule="evenodd" d="M43.6784 7.32041H41.9612C41.7974 7.32041 41.6434 7.4052 41.5506 7.54705L39.1822 11.181L38.1784 7.68891C38.1152 7.46987 37.9222 7.32041 37.7025 7.32041H36.0151C35.8507 7.31986 35.7171 7.45792 35.7171 7.62912C35.7166 7.66337 35.7224 7.69761 35.7328 7.73022L37.6242 13.5121L35.846 16.127C35.7511 16.2666 35.7824 16.4596 35.9165 16.559C35.9671 16.596 36.0271 16.6161 36.0887 16.6161H37.8037C37.9665 16.6167 38.1189 16.5335 38.2112 16.3938L43.9231 7.80685C44.0159 7.66608 43.9831 7.47314 43.8479 7.37585C43.7978 7.33943 43.7389 7.32041 43.6784 7.32041ZM32.1957 10.7848C32.0308 11.8017 31.256 12.4843 30.2678 12.4843C29.7715 12.4843 29.375 12.3186 29.1204 12.0044C28.8678 11.6924 28.7718 11.2484 28.8522 10.7532C29.0061 9.74556 29.794 9.04063 30.7671 9.04063C31.2523 9.04063 31.6468 9.20857 31.9066 9.52544C32.167 9.84557 32.2703 10.2923 32.1957 10.7848ZM34.5781 7.32041H32.8688C32.7227 7.32041 32.598 7.43129 32.575 7.58184L32.4994 8.0797L32.3799 7.89925C32.01 7.33997 31.185 7.15301 30.3622 7.15301C28.4734 7.15301 26.8606 8.64278 26.547 10.732C26.3837 11.775 26.6153 12.7718 27.183 13.467C27.7038 14.1056 28.4494 14.3725 29.3353 14.3725C30.8568 14.3725 31.7005 13.3534 31.7005 13.3534L31.6244 13.848C31.5988 14.0165 31.7089 14.1757 31.8712 14.2029C31.8863 14.2051 31.9025 14.2067 31.9176 14.2067H33.4568C33.701 14.2067 33.9092 14.0214 33.9473 13.7703L34.8703 7.67804C34.8964 7.50955 34.7863 7.35139 34.6246 7.32421C34.6094 7.3215 34.5938 7.32041 34.5781 7.32041ZM24.3227 7.36335C24.1275 8.69713 23.1492 8.69713 22.2032 8.69713H21.6648L22.0425 6.20621C22.0655 6.05565 22.1902 5.94478 22.3363 5.94478H22.5831C23.2275 5.94478 23.8353 5.94478 24.1494 6.32741C24.3368 6.55569 24.3947 6.89484 24.3227 7.36335ZM23.911 3.88214H20.3426C20.0989 3.8816 19.8907 4.06694 19.8526 4.31804L18.4094 13.8496C18.3839 14.0187 18.495 14.1768 18.6573 14.2035C18.6729 14.2062 18.688 14.2073 18.7037 14.2073H20.4073C20.6515 14.2073 20.8597 14.0219 20.8972 13.7708L21.2865 11.2C21.3246 10.9489 21.5322 10.7636 21.7759 10.7636H22.9055C25.2561 10.7636 26.6127 9.57871 26.967 7.23073C27.1267 6.20349 26.9738 5.39637 26.512 4.83112C26.0049 4.21043 25.1053 3.88214 23.911 3.88214Z" fill="#253B80"/>
</g>
<mask id="mask1_196_1217" style="mask-type:alpha" maskUnits="userSpaceOnUse" x="43" y="3" width="21" height="12">
<path d="M43.3789 3.88623H64.0001V14.5385H43.3789V3.88623Z" fill="white"/>
</mask>
<g mask="url(#mask1_196_1217)">
<path fill-rule="evenodd" clip-rule="evenodd" d="M61.7397 4.15223L60.261 14.0076C60.2352 14.1787 60.3463 14.3393 60.5101 14.3669C60.5254 14.3696 60.5417 14.3708 60.557 14.3708H62.0436C62.2907 14.3708 62.5004 14.1831 62.5383 13.9276L63.9964 4.24992C64.0222 4.07828 63.9106 3.91714 63.7473 3.89009C63.7315 3.88789 63.7162 3.88623 63.7004 3.88623H62.0357C61.8882 3.88678 61.7628 3.99936 61.7397 4.15223ZM57.3009 10.8956C57.1355 11.9282 56.3522 12.6213 55.3545 12.6213C54.8545 12.6213 54.4531 12.4535 54.196 12.134C53.9411 11.8172 53.8452 11.3663 53.9253 10.8641C54.0817 9.84041 54.8761 9.12463 55.8586 9.12463C56.3485 9.12463 56.7468 9.29516 57.0096 9.6169C57.273 9.94196 57.3773 10.3956 57.3009 10.8956ZM59.7057 7.37794H57.9816C57.8341 7.37739 57.7081 7.49053 57.6855 7.6434L57.6091 8.14891L57.4879 7.96569C57.1145 7.39781 56.2821 7.20797 55.4509 7.20797C53.5444 7.20797 51.9171 8.72066 51.5995 10.8426C51.4351 11.9017 51.6685 12.9132 52.2417 13.6191C52.7684 14.2681 53.5196 14.5385 54.4147 14.5385C55.9508 14.5385 56.8026 13.5038 56.8026 13.5038L56.7257 14.006C56.6999 14.1776 56.8116 14.3387 56.9749 14.3663C56.9907 14.3685 57.007 14.3702 57.0228 14.3702H58.5763C58.8228 14.3702 59.032 14.182 59.0704 13.927L60.0034 7.74108C60.0287 7.56889 59.9159 7.4083 59.7521 7.38181C59.7363 7.37905 59.721 7.37794 59.7057 7.37794ZM49.3527 7.42154C49.1562 8.77584 48.1685 8.77584 47.2129 8.77584H46.6703L47.0517 6.2466C47.0744 6.09373 47.1997 5.9806 47.3478 5.98115H47.5969C48.247 5.98115 48.8612 5.98115 49.1784 6.36967C49.3675 6.60146 49.4249 6.94583 49.3527 7.42154ZM48.9371 3.88678H45.3339C45.0878 3.88678 44.8782 4.07442 44.8397 4.32939L43.3826 14.0076C43.3568 14.1787 43.468 14.3393 43.6318 14.3669C43.6471 14.3696 43.6634 14.3708 43.6787 14.3708H45.5277C45.7 14.3702 45.8464 14.2389 45.8733 14.0606L46.2868 11.3172C46.3247 11.0623 46.5349 10.8741 46.7809 10.8741H47.9214C50.2946 10.8741 51.6638 9.67098 52.022 7.28688C52.1837 6.24384 52.0283 5.42431 51.5621 4.85036C51.0506 4.22011 50.1429 3.88678 48.9371 3.88678Z" fill="#179BD7"/>
</g>
<path fill-rule="evenodd" clip-rule="evenodd" d="M4.18412 15.6125L4.45221 13.835L3.85503 13.82H1.00342L2.98514 0.704742C2.99744 0.621809 3.06562 0.560812 3.1461 0.561344H7.95432C9.55056 0.561344 10.6521 0.908064 11.2273 1.5924C11.4969 1.9129 11.6686 2.24891 11.7517 2.6181C11.8388 3.00548 11.8404 3.46831 11.7553 4.03279L11.7491 4.07399V4.43569L12.0187 4.59514C12.2248 4.70375 12.4093 4.85089 12.5647 5.0296C12.7953 5.30409 12.9445 5.65294 13.0076 6.06654C13.0727 6.49191 13.0511 6.99808 12.9445 7.57112C12.8215 8.23031 12.6226 8.80443 12.354 9.27367C12.1172 9.69476 11.7983 10.0591 11.4185 10.3438C11.0617 10.6081 10.6378 10.8087 10.1585 10.9377C9.69409 11.064 9.16457 11.1276 8.58379 11.1276H8.20959C7.94201 11.1276 7.68212 11.2282 7.47811 11.4085C7.27409 11.5905 7.13928 11.8425 7.09673 12.1191L7.06854 12.2791L6.59489 15.4118L6.57336 15.5269C6.56772 15.5627 6.55799 15.5809 6.54363 15.5938C6.52979 15.6055 6.51236 15.6119 6.49442 15.6125H4.18412Z" fill="#253B80"/>
<path fill-rule="evenodd" clip-rule="evenodd" d="M11.7358 4.5752C11.7213 4.67094 11.7048 4.76883 11.6861 4.8694C11.0459 8.26664 8.85573 9.44024 6.05844 9.44024H4.63418C4.29209 9.44024 4.00382 9.697 3.95051 10.0458L3.2213 14.8257L3.0148 16.1807C2.98323 16.3861 3.11935 16.5787 3.31756 16.6113C3.33671 16.6145 3.35586 16.6161 3.37449 16.6161H5.90059C6.19973 16.6161 6.45384 16.3914 6.50093 16.0865L6.52578 15.9539L7.00139 12.8343L7.03193 12.6631C7.07851 12.3571 7.33313 12.1325 7.63227 12.1325H8.01007C10.4575 12.1325 12.3734 11.1054 12.9334 8.13344C13.1673 6.89191 13.0462 5.85524 12.4273 5.12616C12.2311 4.90042 11.9967 4.71374 11.7358 4.5752Z" fill="#179BD7"/>
<path fill-rule="evenodd" clip-rule="evenodd" d="M11.3504 3.81069C11.1397 3.74934 10.9251 3.70145 10.7085 3.667C10.2805 3.60081 9.84723 3.56906 9.41393 3.57175H5.49074C5.1823 3.57175 4.91976 3.79831 4.87227 4.1056L4.03768 9.43706L4.01367 9.59205C4.06757 9.24118 4.36693 8.98286 4.71859 8.98286H6.18711C9.07134 8.98286 11.3296 7.80162 11.9897 4.38436C12.0095 4.28319 12.026 4.18471 12.0409 4.08838C11.867 3.99635 11.685 3.9194 11.4983 3.85751C11.4492 3.84137 11.4001 3.82576 11.3504 3.81069Z" fill="#222D65"/>
<mask id="mask2_196_1217" style="mask-type:alpha" maskUnits="userSpaceOnUse" x="0" y="0" width="12" height="15">
<path d="M0 0H11.6315V14.4222H0V0Z" fill="white"/>
</mask>
<g mask="url(#mask2_196_1217)">
<path fill-rule="evenodd" clip-rule="evenodd" d="M4.82334 4.13853C4.86749 3.83105 5.11483 3.60475 5.40481 3.60582H9.09335C9.53033 3.60582 9.93822 3.63646 10.3105 3.70097C10.5623 3.74343 10.8112 3.80686 11.0535 3.89072C11.2366 3.95576 11.4067 4.03263 11.5637 4.12132C11.7484 2.85972 11.5622 2.00073 10.9256 1.2229C10.2237 0.366603 8.95688 0 7.33587 0H2.62988C2.29876 0 2.0163 0.258019 1.96513 0.609033L0.0049663 13.9212C-0.0296513 14.1577 0.120357 14.3797 0.341107 14.4168C0.361677 14.4201 0.38275 14.4222 0.403822 14.4222H3.30919L4.03867 9.4634L4.82334 4.13853Z" fill="#253B80"/>
</g>
</svg>
