<svg width="52" height="22" viewBox="0 0 52 22" fill="none" xmlns="http://www.w3.org/2000/svg">
<path d="M9.92426 3.03182C9.33044 3.73881 8.38033 4.29644 7.43022 4.21678C7.31146 3.26085 7.77662 2.24517 8.32095 1.61784C8.91477 0.890939 9.95395 0.373143 10.7952 0.333313C10.8942 1.32907 10.5082 2.30492 9.92426 3.03182ZM10.7853 4.40597C9.40962 4.32631 8.23188 5.19262 7.57868 5.19262C6.91558 5.19262 5.91599 4.4458 4.82732 4.46572C3.41206 4.48563 2.09576 5.2922 1.37328 6.57673C-0.111265 9.14579 0.987299 12.9496 2.42236 15.0407C3.12504 16.0763 3.96629 17.2114 5.07475 17.1716C6.12383 17.1318 6.5395 16.4845 7.80631 16.4845C9.08302 16.4845 9.44921 17.1716 10.5577 17.1517C11.7057 17.1318 12.4282 16.1161 13.1309 15.0805C13.9325 13.9055 14.2591 12.7604 14.2789 12.7007C14.2591 12.6807 12.062 11.8343 12.0422 9.2852C12.0224 7.15427 13.7742 6.13859 13.8534 6.07885C12.8637 4.60512 11.3197 4.4458 10.7853 4.40597ZM18.7326 1.51827V17.0422H21.1276V11.7348H24.4431C27.4716 11.7348 29.5994 9.64367 29.5994 6.61656C29.5994 3.58945 27.5112 1.51827 24.5223 1.51827H18.7326ZM21.1276 3.54962H23.8889C25.9672 3.54962 27.1549 4.66487 27.1549 6.62652C27.1549 8.58816 25.9672 9.71337 23.879 9.71337H21.1276V3.54962ZM33.9739 17.1617C35.4782 17.1617 36.8737 16.3949 37.5071 15.1801H37.5566V17.0422H39.7735V9.31507C39.7735 7.07461 37.9921 5.63076 35.2506 5.63076C32.7071 5.63076 30.8267 7.09452 30.7574 9.10596H32.9149C33.0931 8.15003 33.9739 7.5227 35.1813 7.5227C36.6461 7.5227 37.4675 8.20977 37.4675 9.47439V10.3307L34.4786 10.51C31.6976 10.6793 30.1933 11.8244 30.1933 13.8159C30.1933 15.8273 31.7471 17.1617 33.9739 17.1617ZM34.6172 15.3195C33.3405 15.3195 32.5289 14.7021 32.5289 13.7562C32.5289 12.7803 33.3108 12.2127 34.8052 12.1231L37.4675 11.9538V12.8301C37.4675 14.2839 36.2403 15.3195 34.6172 15.3195ZM42.7327 21.2642C45.0684 21.2642 46.167 20.368 47.127 17.6496L51.3332 5.78012H48.8985L46.0779 14.9511H46.0284L43.2078 5.78012H40.7038L44.7616 17.082L44.5439 17.7691C44.1777 18.9341 43.5838 19.3822 42.5249 19.3822C42.3368 19.3822 41.9706 19.3623 41.8222 19.3424V21.2044C41.9607 21.2443 42.5546 21.2642 42.7327 21.2642Z" fill="black"/>
</svg>
