<svg width="51" height="16" viewBox="0 0 51 16" fill="none" xmlns="http://www.w3.org/2000/svg">
<path d="M19.2405 0.260971L12.5968 15.5079H8.26355L4.97458 3.33725C4.94595 3.05305 4.84163 2.78075 4.67167 2.54664C4.50171 2.31253 4.27187 2.12452 4.00433 2.00077C2.72888 1.42007 1.384 0.992453 0 0.72755L0.106889 0.284695H7.07952C7.5397 0.285932 7.98404 0.44643 8.33129 0.736848C8.67855 1.02727 8.90551 1.4282 8.97069 1.86633L10.6892 10.6365L14.9566 0.260971H19.2405ZM36.2198 10.5416C36.2198 6.51633 30.4641 6.30281 30.4641 4.49975C30.4641 3.95408 31.015 3.36888 32.1991 3.22654C33.5868 3.09462 34.9856 3.32978 36.2445 3.90663L36.9599 0.672193C35.7338 0.232845 34.4366 0.00528396 33.1282 0C29.0745 0 26.2214 2.07194 26.1967 5.0375C26.1967 7.22807 28.2359 8.45383 29.7899 9.18929C31.3439 9.92475 31.9195 10.4071 31.9113 11.0793C31.9113 12.1074 30.6368 12.5503 29.4446 12.574C27.9785 12.6049 26.5287 12.2726 25.2347 11.6092L24.4864 14.9464C25.9429 15.4819 27.4907 15.7501 29.0499 15.7373C33.3584 15.7373 36.1787 13.689 36.187 10.5179L36.2198 10.5416ZM46.8761 15.5H50.6667L47.3777 0.253061H43.9078C43.5338 0.250577 43.1674 0.355313 42.8555 0.553907C42.5435 0.752502 42.3002 1.03595 42.1564 1.36811L36.0061 15.5H40.29L41.1122 13.2225H46.3746L46.8761 15.5ZM42.2962 10.0987L44.4587 4.37322L45.7003 10.0987H42.2962ZM25.0291 0.253061L21.6415 15.5H17.5302L20.9261 0.253061H25.0291Z" fill="#1A1F71"/>
</svg>
