<svg width="62" height="22" viewBox="0 0 62 22" fill="none" xmlns="http://www.w3.org/2000/svg">
<path d="M9.32974 19.0192H7.59843L6.65005 16.0392H3.35362L2.45022 19.0192H0.764648L4.03059 8.87378H6.04779L9.32974 19.0192ZM6.36417 14.7889L5.50652 12.1397C5.4158 11.8691 5.24579 11.2318 4.99497 10.2285H4.96448C4.86461 10.66 4.70375 11.2973 4.48267 12.1397L3.64026 14.7889H6.36417Z" fill="white"/>
<path d="M17.7285 15.2715C17.7285 16.5157 17.3923 17.4991 16.7199 18.2211C16.1177 18.8637 15.3698 19.1847 14.4771 19.1847C13.5135 19.1847 12.8212 18.8386 12.3997 18.1463H12.3692V22.0001H10.7438V14.1119C10.7438 13.3298 10.7232 12.527 10.6836 11.7037H12.113L12.2037 12.8632H12.2342C12.7763 11.9895 13.5989 11.5535 14.7027 11.5535C15.5657 11.5535 16.2862 11.8942 16.8625 12.5766C17.4404 13.2596 17.7285 14.1577 17.7285 15.2715ZM16.0727 15.331C16.0727 14.6189 15.9126 14.0319 15.5909 13.5699C15.2394 13.0881 14.7675 12.8472 14.176 12.8472C13.775 12.8472 13.4105 12.9814 13.085 13.2459C12.7587 13.5127 12.5453 13.8611 12.4454 14.2926C12.3951 14.4939 12.3699 14.6586 12.3699 14.7882V16.0079C12.3699 16.5401 12.5331 16.9891 12.8594 17.3558C13.1857 17.7225 13.6095 17.9054 14.131 17.9054C14.7431 17.9054 15.2196 17.6691 15.5604 17.198C15.9019 16.7261 16.0727 16.104 16.0727 15.331Z" fill="white"/>
<path d="M26.1428 15.2715C26.1428 16.5157 25.8066 17.4991 25.1335 18.2211C24.532 18.8637 23.7841 19.1847 22.8914 19.1847C21.9277 19.1847 21.2355 18.8386 20.8147 18.1463H20.7842V22.0001H19.1589V14.1119C19.1589 13.3298 19.1383 12.527 19.0986 11.7037H20.5281L20.6188 12.8632H20.6493C21.1905 11.9895 22.0131 11.5535 23.1178 11.5535C23.98 11.5535 24.7004 11.8942 25.2783 12.5766C25.8539 13.2596 26.1428 14.1577 26.1428 15.2715ZM24.487 15.331C24.487 14.6189 24.3261 14.0319 24.0044 13.5699C23.653 13.0881 23.1826 12.8472 22.5902 12.8472C22.1885 12.8472 21.8248 12.9814 21.4985 13.2459C21.1722 13.5127 20.9595 13.8611 20.8597 14.2926C20.8101 14.4939 20.7842 14.6586 20.7842 14.7882V16.0079C20.7842 16.5401 20.9473 16.9891 21.2721 17.3558C21.5984 17.7217 22.0223 17.9054 22.5453 17.9054C23.1574 17.9054 23.6339 17.6691 23.9747 17.198C24.3162 16.7261 24.487 16.104 24.487 15.331Z" fill="white"/>
<path d="M35.5499 16.1741C35.5499 17.0371 35.2503 17.7392 34.6488 18.2813C33.9878 18.8736 33.0677 19.1694 31.8852 19.1694C30.7935 19.1694 29.9183 18.959 29.2559 18.5374L29.6325 17.1827C30.346 17.6142 31.129 17.8307 31.9821 17.8307C32.5942 17.8307 33.0707 17.6919 33.413 17.416C33.7538 17.14 33.9238 16.7695 33.9238 16.3075C33.9238 15.8958 33.7835 15.549 33.5022 15.2677C33.2224 14.9863 32.7551 14.7249 32.1025 14.4832C30.3262 13.8207 29.4388 12.8502 29.4388 11.574C29.4388 10.74 29.7499 10.0562 30.3727 9.52405C30.9933 8.99116 31.8212 8.7251 32.8565 8.7251C33.7797 8.7251 34.5466 8.88596 35.1588 9.20691L34.7525 10.5319C34.1807 10.2208 33.5342 10.0653 32.8107 10.0653C32.239 10.0653 31.7922 10.2064 31.472 10.4869C31.2014 10.7377 31.0657 11.0434 31.0657 11.4055C31.0657 11.8065 31.2205 12.1382 31.5315 12.3989C31.8021 12.6398 32.2939 12.9005 33.0074 13.1818C33.8803 13.5333 34.5215 13.9442 34.9339 14.4153C35.3448 14.8849 35.5499 15.4727 35.5499 16.1741Z" fill="white"/>
<path d="M40.924 12.9234H39.1324V16.4753C39.1324 17.3786 39.448 17.83 40.0808 17.83C40.3713 17.83 40.6122 17.8048 40.8028 17.7545L40.8477 18.9887C40.5275 19.1084 40.106 19.1687 39.5837 19.1687C38.9418 19.1687 38.4402 18.9727 38.0781 18.5816C37.7175 18.1898 37.536 17.5326 37.536 16.6094V12.9219H36.4688V11.7021H37.536V10.3627L39.1324 9.88086V11.7021H40.924V12.9234Z" fill="white"/>
<path d="M49.0072 15.3013C49.0072 16.4258 48.6855 17.349 48.0436 18.071C47.3704 18.8143 46.4769 19.1848 45.3631 19.1848C44.2897 19.1848 43.4351 18.8287 42.7978 18.1167C42.1605 17.4047 41.8418 16.5058 41.8418 15.4225C41.8418 14.2889 42.1696 13.3603 42.8275 12.6384C43.4839 11.9157 44.3698 11.5543 45.4836 11.5543C46.557 11.5543 47.4207 11.9103 48.0725 12.6231C48.6962 13.3146 49.0072 14.2073 49.0072 15.3013ZM47.3209 15.3539C47.3209 14.6792 47.1768 14.1006 46.8848 13.618C46.544 13.0341 46.0569 12.7428 45.4256 12.7428C44.7723 12.7428 44.276 13.0348 43.9352 13.618C43.6433 14.1014 43.4992 14.6891 43.4992 15.3844C43.4992 16.0591 43.6433 16.6377 43.9352 17.1195C44.2867 17.7035 44.7776 17.9947 45.4112 17.9947C46.0317 17.9947 46.5189 17.6974 46.8703 17.1043C47.1699 16.6126 47.3209 16.0278 47.3209 15.3539Z" fill="white"/>
<path d="M54.2909 13.1331C54.13 13.1033 53.9585 13.0881 53.7786 13.0881C53.2068 13.0881 52.7647 13.3038 52.4536 13.7361C52.183 14.1173 52.0473 14.5991 52.0473 15.1808V19.0192H50.4227L50.4379 14.0075C50.4379 13.1643 50.4174 12.3966 50.377 11.7044H51.7927L51.8521 13.1041H51.8971C52.0686 12.6231 52.3393 12.2358 52.7098 11.9453C53.0719 11.6838 53.463 11.5535 53.8846 11.5535C54.0347 11.5535 54.1704 11.5641 54.2909 11.5832V13.1331Z" fill="white"/>
<path d="M61.559 15.0154C61.559 15.3066 61.54 15.5521 61.4995 15.7526H56.6235C56.6426 16.4753 56.8781 17.028 57.331 17.4092C57.7419 17.75 58.2732 17.9207 58.9258 17.9207C59.6478 17.9207 60.3065 17.8056 60.8988 17.5746L61.1534 18.7029C60.4612 19.0048 59.644 19.155 58.7009 19.155C57.5665 19.155 56.6761 18.8211 56.0281 18.154C55.3816 17.4869 55.0576 16.5912 55.0576 15.4675C55.0576 14.3643 55.3588 13.4457 55.9618 12.7131C56.593 11.9309 57.4461 11.5398 58.5195 11.5398C59.5738 11.5398 60.372 11.9309 60.9141 12.7131C61.3433 13.3344 61.559 14.1028 61.559 15.0154ZM60.0091 14.5938C60.0198 14.112 59.9138 13.6957 59.6935 13.3443C59.4122 12.8922 58.98 12.6666 58.3983 12.6666C57.8669 12.6666 57.4347 12.8869 57.1046 13.329C56.8339 13.6805 56.6731 14.1021 56.6235 14.593H60.0091V14.5938Z" fill="white"/>
<path d="M5.8264 2.63253C5.8264 3.52982 5.55729 4.20527 5.01983 4.65888C4.52201 5.07741 3.81454 5.28706 2.89819 5.28706C2.44382 5.28706 2.05502 5.26724 1.72949 5.2276V0.324872C2.15413 0.25626 2.61154 0.221191 3.10555 0.221191C3.97845 0.221191 4.63636 0.411018 5.08006 0.790672C5.57711 1.21988 5.8264 1.83358 5.8264 2.63253ZM4.984 2.65464C4.984 2.07296 4.83 1.62698 4.52201 1.31594C4.21402 1.00566 3.76423 0.850136 3.17188 0.850136C2.9203 0.850136 2.70607 0.866908 2.52844 0.901977V4.62914C2.62679 4.64439 2.8067 4.65125 3.06819 4.65125C3.6796 4.65125 4.15151 4.48125 4.48389 4.14124C4.81628 3.80122 4.984 3.30569 4.984 2.65464Z" fill="white"/>
<path d="M10.2932 3.41614C10.2932 3.96885 10.1354 4.42169 9.81982 4.77695C9.48896 5.14212 9.0506 5.32432 8.50323 5.32432C7.97568 5.32432 7.55562 5.14974 7.24229 4.79905C6.92972 4.44913 6.77344 4.00773 6.77344 3.4756C6.77344 2.91908 6.93429 2.46243 7.25753 2.10793C7.58077 1.75344 8.01532 1.57581 8.56269 1.57581C9.09024 1.57581 9.51411 1.75039 9.83507 2.10031C10.14 2.44032 10.2932 2.87944 10.2932 3.41614ZM9.46456 3.44206C9.46456 3.11043 9.3929 2.82607 9.25034 2.58898C9.08262 2.30233 8.844 2.15901 8.53372 2.15901C8.21277 2.15901 7.96881 2.30233 7.8011 2.58898C7.65777 2.82607 7.58687 3.11501 7.58687 3.45654C7.58687 3.78817 7.65854 4.07253 7.8011 4.30962C7.97415 4.59627 8.21506 4.73959 8.5261 4.73959C8.83104 4.73959 9.07042 4.59398 9.24271 4.302C9.39061 4.06033 9.46456 3.77368 9.46456 3.44206Z" fill="white"/>
<path d="M16.2831 1.64893L15.1586 5.24268H14.4267L13.9609 3.68213C13.8428 3.29257 13.7467 2.90529 13.672 2.52106H13.6575C13.5881 2.91597 13.4921 3.30248 13.3686 3.68213L12.8738 5.24268H12.1336L11.0762 1.64893H11.8972L12.3036 3.35737C12.4019 3.76142 12.4827 4.14641 12.5475 4.51082H12.562C12.6215 4.21045 12.7198 3.82775 12.8586 3.36499L13.3686 1.64969H14.0196L14.5083 3.3284C14.6265 3.73779 14.7225 4.13193 14.7965 4.51158H14.8186C14.8727 4.14184 14.9543 3.7477 15.0625 3.3284L15.4986 1.64969H16.2831V1.64893Z" fill="white"/>
<path d="M20.4245 5.24271H19.6255V3.18435C19.6255 2.55007 19.3846 2.23293 18.9013 2.23293C18.6642 2.23293 18.4728 2.31983 18.3242 2.49441C18.177 2.66899 18.1023 2.87483 18.1023 3.1104V5.24195H17.3034V2.67586C17.3034 2.36024 17.2935 2.01794 17.2744 1.64744H17.9765L18.0139 2.20929H18.036C18.129 2.03471 18.2678 1.89063 18.45 1.77551C18.6665 1.64134 18.9089 1.57349 19.1742 1.57349C19.5096 1.57349 19.7887 1.68174 20.0105 1.89901C20.2865 2.16508 20.4245 2.56226 20.4245 3.08982V5.24271Z" fill="white"/>
<path d="M22.6273 5.24274H21.8291V0H22.6273V5.24274Z" fill="white"/>
<path d="M27.3313 3.41614C27.3313 3.96885 27.1735 4.42169 26.8579 4.77695C26.527 5.14212 26.0879 5.32432 25.5413 5.32432C25.013 5.32432 24.5929 5.14974 24.2804 4.79905C23.9678 4.44913 23.8115 4.00773 23.8115 3.4756C23.8115 2.91908 23.9724 2.46243 24.2956 2.10793C24.6189 1.75344 25.0534 1.57581 25.6 1.57581C26.1283 1.57581 26.5514 1.75039 26.8731 2.10031C27.1781 2.44032 27.3313 2.87944 27.3313 3.41614ZM26.5019 3.44206C26.5019 3.11043 26.4302 2.82607 26.2877 2.58898C26.1207 2.30233 25.8813 2.15901 25.5718 2.15901C25.2501 2.15901 25.0061 2.30233 24.8392 2.58898C24.6959 2.82607 24.625 3.11501 24.625 3.45654C24.625 3.78817 24.6966 4.07253 24.8392 4.30962C25.0122 4.59627 25.2531 4.73959 25.5642 4.73959C25.8691 4.73959 26.1077 4.59398 26.28 4.302C26.4287 4.06033 26.5019 3.77368 26.5019 3.44206Z" fill="white"/>
<path d="M31.1984 5.24275H30.481L30.4215 4.82879H30.3994C30.1539 5.15889 29.804 5.32432 29.3497 5.32432C29.0104 5.32432 28.736 5.2153 28.5294 4.99879C28.3418 4.8021 28.248 4.55739 28.248 4.26693C28.248 3.82781 28.431 3.49314 28.7992 3.26138C29.1667 3.02962 29.6836 2.91603 30.3491 2.92137V2.85428C30.3491 2.38086 30.1006 2.14452 29.6028 2.14452C29.2483 2.14452 28.9357 2.23372 28.6658 2.41059L28.5034 1.88609C28.8373 1.67949 29.2498 1.57581 29.7362 1.57581C30.6754 1.57581 31.1465 2.07134 31.1465 3.0624V4.38586C31.1465 4.74493 31.1641 5.03081 31.1984 5.24275ZM30.3689 4.00773V3.45349C29.4876 3.43825 29.047 3.67991 29.047 4.17773C29.047 4.36527 29.0973 4.50555 29.2002 4.59932C29.3032 4.69309 29.4343 4.73959 29.5906 4.73959C29.7659 4.73959 29.9298 4.68394 30.0792 4.5734C30.2294 4.46209 30.3217 4.32106 30.356 4.148C30.3644 4.10912 30.3689 4.06185 30.3689 4.00773Z" fill="white"/>
<path d="M35.7382 5.24274H35.0292L34.9919 4.66563H34.9698C34.7433 5.10475 34.3576 5.32431 33.8156 5.32431C33.3825 5.32431 33.0219 5.1543 32.7361 4.81429C32.4502 4.47428 32.3076 4.03287 32.3076 3.49084C32.3076 2.90916 32.4624 2.43802 32.7734 2.07819C33.0745 1.74275 33.4435 1.57503 33.8826 1.57503C34.3652 1.57503 34.7029 1.73741 34.8951 2.06294H34.9103V0H35.71V4.27454C35.71 4.62446 35.7192 4.94694 35.7382 5.24274ZM34.9103 3.72717V3.12796C34.9103 3.02427 34.9027 2.94042 34.8882 2.87638C34.8432 2.68426 34.7464 2.52264 34.5993 2.39228C34.4506 2.26192 34.2714 2.19635 34.0648 2.19635C33.7668 2.19635 33.5335 2.31452 33.362 2.55161C33.1919 2.78871 33.1058 3.09136 33.1058 3.46111C33.1058 3.81636 33.1874 4.10454 33.3513 4.32638C33.5243 4.56271 33.7576 4.68088 34.0496 4.68088C34.3119 4.68088 34.5215 4.58253 34.6808 4.38508C34.8348 4.20288 34.9103 3.98332 34.9103 3.72717Z" fill="white"/>
<path d="M42.5706 3.41614C42.5706 3.96885 42.4128 4.42169 42.0972 4.77695C41.7663 5.14212 41.3287 5.32432 40.7806 5.32432C40.2538 5.32432 39.8337 5.14974 39.5196 4.79905C39.2071 4.44913 39.0508 4.00773 39.0508 3.4756C39.0508 2.91908 39.2116 2.46243 39.5349 2.10793C39.8581 1.75344 40.2927 1.57581 40.8408 1.57581C41.3676 1.57581 41.7922 1.75039 42.1124 2.10031C42.4174 2.44032 42.5706 2.87944 42.5706 3.41614ZM41.7427 3.44206C41.7427 3.11043 41.671 2.82607 41.5284 2.58898C41.36 2.30233 41.1221 2.15901 40.8111 2.15901C40.4909 2.15901 40.2469 2.30233 40.0784 2.58898C39.9351 2.82607 39.8642 3.11501 39.8642 3.45654C39.8642 3.78817 39.9359 4.07253 40.0784 4.30962C40.2515 4.59627 40.4924 4.73959 40.8034 4.73959C41.1084 4.73959 41.3485 4.59398 41.5208 4.302C41.668 4.06033 41.7427 3.77368 41.7427 3.44206Z" fill="white"/>
<path d="M46.8661 5.24271H46.0679V3.18435C46.0679 2.55007 45.827 2.23293 45.3429 2.23293C45.1058 2.23293 44.9145 2.31983 44.7666 2.49441C44.6187 2.66899 44.5447 2.87483 44.5447 3.1104V5.24195H43.745V2.67586C43.745 2.36024 43.7359 2.01794 43.7168 1.64744H44.4182L44.4555 2.20929H44.4776C44.5714 2.03471 44.7101 1.89063 44.8916 1.77551C45.1089 1.64134 45.3505 1.57349 45.6166 1.57349C45.9513 1.57349 46.2303 1.68174 46.4521 1.89901C46.7289 2.16508 46.8661 2.56226 46.8661 3.08982V5.24271Z" fill="white"/>
<path d="M52.2434 2.24749H51.3637V3.99329C51.3637 4.43698 51.5199 4.65883 51.8295 4.65883C51.9728 4.65883 52.0917 4.64663 52.1855 4.62147L52.2061 5.22755C52.0483 5.28701 51.8409 5.31674 51.5855 5.31674C51.2699 5.31674 51.0244 5.22069 50.8468 5.02857C50.6684 4.83646 50.5799 4.51322 50.5799 4.05961V2.24749H50.0547V1.64904H50.5799V0.990359L51.3629 0.754028V1.64827H52.2427V2.24749H52.2434Z" fill="white"/>
<path d="M56.4736 5.24274H55.6739V3.19962C55.6739 2.55542 55.433 2.23295 54.9504 2.23295C54.5799 2.23295 54.3268 2.41972 54.1881 2.79328C54.1645 2.8718 54.1507 2.96786 54.1507 3.08069V5.24197H53.3525V0H54.1507V2.16586H54.166C54.4176 1.77172 54.7782 1.57503 55.2455 1.57503C55.5763 1.57503 55.85 1.68329 56.0673 1.90056C56.3379 2.1712 56.4736 2.57372 56.4736 3.10585V5.24274Z" fill="white"/>
<path d="M60.8366 3.27589C60.8366 3.41921 60.826 3.53966 60.8069 3.63801H58.4108C58.4215 3.99327 58.5359 4.26391 58.7577 4.45145C58.9605 4.61916 59.222 4.70302 59.5422 4.70302C59.8967 4.70302 60.2199 4.64661 60.5111 4.53302L60.6361 5.08801C60.2954 5.23591 59.8944 5.30986 59.4301 5.30986C58.8736 5.30986 58.4352 5.14595 58.1181 4.81814C57.7994 4.49033 57.6416 4.05044 57.6416 3.4985C57.6416 2.95646 57.7887 2.50514 58.0853 2.14531C58.3948 1.76108 58.8133 1.56897 59.3417 1.56897C59.8585 1.56897 60.2512 1.76108 60.5165 2.14531C60.7307 2.45026 60.8366 2.82762 60.8366 3.27589ZM60.0743 3.06929C60.0804 2.8322 60.0278 2.62788 59.9195 2.45559C59.7808 2.23375 59.5696 2.12244 59.2837 2.12244C59.023 2.12244 58.8103 2.2307 58.6479 2.44797C58.5153 2.62102 58.4367 2.82762 58.4108 3.06929H60.0743Z" fill="white"/>
</svg>
