<svg width="19" height="22" viewBox="0 0 19 22" fill="none" xmlns="http://www.w3.org/2000/svg">
<path d="M0.519304 1.03208C0.258556 1.34496 0.126946 1.74551 0.151303 2.15208V19.8481C0.126946 20.2546 0.258556 20.6552 0.519304 20.9681L0.575304 21.0241L10.4873 11.1201V10.8881L0.575304 0.976074L0.519304 1.03208Z" fill="url(#paint0_linear_471_281)"/>
<path d="M13.7673 14.424L10.4873 11.1201V10.8881L13.7673 7.57605L13.8393 7.61605L17.7673 9.84805C18.8873 10.4801 18.8873 11.5201 17.7673 12.1601L13.8553 14.384L13.7673 14.424Z" fill="url(#paint1_linear_471_281)"/>
<path d="M13.8635 14.376L10.4875 11L0.519531 20.968C0.747821 21.1687 1.03904 21.2833 1.34287 21.2921C1.6467 21.3008 1.94405 21.2032 2.18353 21.016L13.8715 14.376" fill="url(#paint2_linear_471_281)"/>
<path d="M13.8637 7.62401L2.17572 0.984014C1.93624 0.796825 1.63889 0.699176 1.33506 0.70794C1.03123 0.716704 0.740009 0.831333 0.511719 1.03202L10.4877 11L13.8637 7.62401Z" fill="url(#paint3_linear_471_281)"/>
<path opacity="0.2" d="M13.7675 14.304L2.17553 20.904C1.94456 21.0766 1.66392 21.17 1.37553 21.17C1.08714 21.17 0.806499 21.0766 0.575531 20.904L0.519531 20.96L0.575531 21.016C0.805975 21.1899 1.08682 21.284 1.37553 21.284C1.66424 21.284 1.94509 21.1899 2.17553 21.016L13.8635 14.376L13.7675 14.304Z" fill="black"/>
<path opacity="0.12" d="M0.519304 20.856C0.258556 20.5431 0.126946 20.1426 0.151303 19.736V19.856C0.126946 20.2626 0.258556 20.6631 0.519304 20.976L0.575304 20.92L0.519304 20.856ZM17.7673 12.04L13.7673 14.304L13.8393 14.376L17.7673 12.152C17.9902 12.0473 18.1815 11.8857 18.322 11.6834C18.4624 11.4811 18.547 11.2454 18.5673 11C18.5223 11.223 18.4268 11.4326 18.2881 11.6129C18.1494 11.7932 17.9713 11.9393 17.7673 12.04Z" fill="black"/>
<path opacity="0.25" d="M2.17556 1.09571L17.7676 9.95971C17.9715 10.0604 18.1497 10.2065 18.2884 10.3868C18.4271 10.5671 18.5226 10.7767 18.5676 10.9997C18.5473 10.7543 18.4627 10.5186 18.3222 10.3163C18.1818 10.114 17.9904 9.95241 17.7676 9.84771L2.17556 0.983706C1.05556 0.351706 0.143555 0.879706 0.143555 2.15971V2.27971C0.167555 0.991706 1.06356 0.463707 2.17556 1.09571Z" fill="white"/>
<defs>
<linearGradient id="paint0_linear_471_281" x1="9.6073" y1="1.96807" x2="-3.8167" y2="15.3921" gradientUnits="userSpaceOnUse">
<stop stop-color="#00A0FF"/>
<stop offset="0.01" stop-color="#00A1FF"/>
<stop offset="0.26" stop-color="#00BEFF"/>
<stop offset="0.51" stop-color="#00D2FF"/>
<stop offset="0.76" stop-color="#00DFFF"/>
<stop offset="1" stop-color="#00E3FF"/>
</linearGradient>
<linearGradient id="paint1_linear_471_281" x1="19.2313" y1="11" x2="-0.120694" y2="11" gradientUnits="userSpaceOnUse">
<stop stop-color="#FFE000"/>
<stop offset="0.41" stop-color="#FFBD00"/>
<stop offset="0.78" stop-color="#FFA500"/>
<stop offset="1" stop-color="#FF9C00"/>
</linearGradient>
<linearGradient id="paint2_linear_471_281" x1="12.0315" y1="12.84" x2="-6.17647" y2="31.04" gradientUnits="userSpaceOnUse">
<stop stop-color="#FF3A44"/>
<stop offset="1" stop-color="#C31162"/>
</linearGradient>
<linearGradient id="paint3_linear_471_281" x1="-1.99228" y1="-4.85599" x2="6.13572" y2="3.27201" gradientUnits="userSpaceOnUse">
<stop stop-color="#32A071"/>
<stop offset="0.07" stop-color="#2DA771"/>
<stop offset="0.48" stop-color="#15CF74"/>
<stop offset="0.8" stop-color="#06E775"/>
<stop offset="1" stop-color="#00F076"/>
</linearGradient>
</defs>
</svg>
