<svg width="70" height="22" viewBox="0 0 70 22" fill="none" xmlns="http://www.w3.org/2000/svg">
<path d="M22.675 12.0858C21.9954 12.089 21.332 12.2935 20.7685 12.6734C20.205 13.0532 19.7667 13.5915 19.5088 14.2203C19.251 14.8491 19.1852 15.5402 19.3197 16.2063C19.4542 16.8725 19.7831 17.4838 20.2648 17.9632C20.7464 18.4427 21.3593 18.7686 22.0261 18.9001C22.6929 19.0315 23.3836 18.9624 24.0112 18.7016C24.6388 18.4408 25.175 17.9999 25.5522 17.4347C25.9295 16.8694 26.1308 16.205 26.1308 15.5254C26.1374 15.0705 26.0524 14.619 25.8809 14.1976C25.7093 13.7763 25.4547 13.3937 25.1323 13.0728C24.8099 12.7519 24.4261 12.4991 24.004 12.3295C23.5818 12.16 23.1299 12.0771 22.675 12.0858ZM22.675 17.6135C22.2571 17.6427 21.84 17.5455 21.478 17.3345C21.116 17.1236 20.8259 16.8086 20.6453 16.4306C20.4647 16.0525 20.402 15.6289 20.4653 15.2148C20.5287 14.8006 20.7152 14.4151 21.0005 14.1083C21.2859 13.8016 21.6569 13.5878 22.0654 13.4947C22.4739 13.4016 22.901 13.4335 23.2911 13.5864C23.6812 13.7392 24.0163 14.0059 24.2528 14.3517C24.4893 14.6975 24.6164 15.1065 24.6174 15.5254C24.6304 15.7909 24.5902 16.0563 24.499 16.3059C24.4078 16.5556 24.2676 16.7845 24.0866 16.9791C23.9056 17.1737 23.6874 17.3301 23.445 17.439C23.2025 17.548 22.9407 17.6073 22.675 17.6135ZM15.1403 12.0858C14.4604 12.0874 13.7962 12.2905 13.2316 12.6694C12.667 13.0484 12.2274 13.5861 11.9683 14.2147C11.7092 14.8434 11.6423 15.5347 11.7759 16.2014C11.9095 16.8681 12.2378 17.4802 12.7191 17.9604C13.2005 18.4406 13.8134 18.7674 14.4803 18.8995C15.1473 19.0316 15.8385 18.963 16.4665 18.7024C17.0946 18.4418 17.6313 18.001 18.0089 17.4355C18.3865 16.87 18.588 16.2054 18.588 15.5254C18.5946 15.0705 18.5096 14.619 18.3381 14.1976C18.1665 13.7763 17.9119 13.3937 17.5895 13.0728C17.2671 12.7519 16.8833 12.4991 16.4612 12.3295C16.039 12.16 15.5871 12.0771 15.1322 12.0858H15.1403ZM15.1403 17.6135C14.7222 17.6443 14.3044 17.5486 13.9414 17.3387C13.5784 17.1289 13.287 16.8146 13.1052 16.4368C12.9233 16.059 12.8594 15.6352 12.9217 15.2206C12.9841 14.8059 13.1698 14.4197 13.4548 14.1121C13.7397 13.8045 14.1106 13.5898 14.5193 13.496C14.928 13.4022 15.3554 13.4336 15.746 13.5861C16.1365 13.7385 16.4722 14.0051 16.7091 14.351C16.9461 14.6969 17.0734 15.1061 17.0746 15.5254C17.0876 15.7909 17.0474 16.0563 16.9562 16.3059C16.865 16.5556 16.7248 16.7845 16.5438 16.9791C16.3627 17.1737 16.1446 17.3301 15.9022 17.439C15.6597 17.548 15.3979 17.6073 15.1322 17.6135H15.1403ZM6.16502 13.146V14.6028H9.66126C9.60644 15.2889 9.32122 15.9364 8.85194 16.4399C8.50216 16.7962 8.08166 17.0754 7.61751 17.2593C7.15335 17.4433 6.65582 17.5281 6.15693 17.5082C5.12664 17.5082 4.13855 17.099 3.41003 16.3704C2.6815 15.6419 2.27222 14.6538 2.27222 13.6235C2.27222 12.5932 2.6815 11.6052 3.41003 10.8766C4.13855 10.1481 5.12664 9.73883 6.15693 9.73883C7.14251 9.72275 8.09423 10.0982 8.80338 10.7828L9.83121 9.75501C9.35249 9.27025 8.78133 8.88652 8.15158 8.62656C7.52182 8.3666 6.8463 8.23569 6.16502 8.2416C5.44554 8.2136 4.72781 8.33113 4.05483 8.58715C3.38186 8.84317 2.7675 9.23241 2.24856 9.73155C1.72961 10.2307 1.31677 10.8295 1.03478 11.492C0.752778 12.1545 0.607422 12.8671 0.607422 13.5871C0.607422 14.3071 0.752778 15.0198 1.03478 15.6823C1.31677 16.3448 1.72961 16.9435 2.24856 17.4427C2.7675 17.9418 3.38186 18.3311 4.05483 18.5871C4.72781 18.8431 5.44554 18.9606 6.16502 18.9326C6.85776 18.9639 7.54916 18.8465 8.19271 18.5882C8.83626 18.33 9.41704 17.9369 9.89596 17.4354C10.7439 16.5038 11.1966 15.2792 11.1585 14.0201C11.1611 13.7134 11.134 13.4071 11.0776 13.1056L6.16502 13.146ZM42.835 14.2791C42.624 13.6581 42.2293 13.1159 41.7032 12.7243C41.1771 12.3326 40.5445 12.11 39.8891 12.0858C39.4464 12.085 39.0083 12.1749 38.6017 12.3501C38.1951 12.5253 37.8288 12.782 37.5254 13.1044C37.222 13.4268 36.9879 13.8079 36.8377 14.2244C36.6874 14.6408 36.6242 15.0836 36.6519 15.5254C36.642 15.9778 36.7235 16.4274 36.8913 16.8476C37.0592 17.2677 37.31 17.6498 37.6288 17.9708C37.9475 18.2919 38.3278 18.5454 38.7467 18.7162C39.1657 18.887 39.6148 18.9716 40.0672 18.965C40.6333 18.9681 41.1913 18.8307 41.6913 18.5651C42.1913 18.2996 42.6176 17.9142 42.9321 17.4435L41.7586 16.6342C41.5835 16.9262 41.3355 17.1677 41.039 17.3351C40.7425 17.5025 40.4077 17.59 40.0672 17.5892C39.7166 17.6025 39.3701 17.5101 39.0728 17.3239C38.7755 17.1377 38.541 16.8664 38.4 16.5452L43.005 14.6433L42.835 14.2791ZM38.141 15.4283C38.1246 15.178 38.1583 14.9269 38.2402 14.6898C38.322 14.4526 38.4503 14.2342 38.6177 14.0473C38.785 13.8604 38.9879 13.7087 39.2146 13.6012C39.4412 13.4937 39.6871 13.4325 39.9377 13.4212C40.1987 13.404 40.4591 13.4639 40.6864 13.5934C40.9138 13.7228 41.098 13.9163 41.2164 14.1496L38.141 15.4283ZM34.402 18.7627H35.9154V8.64625H34.402V18.7627ZM31.9255 12.8547H31.8688C31.6407 12.5997 31.3613 12.3957 31.0489 12.2563C30.7365 12.1168 30.3981 12.0449 30.056 12.0454C29.1715 12.0883 28.3375 12.4698 27.7267 13.1109C27.116 13.752 26.7753 14.6035 26.7753 15.489C26.7753 16.3745 27.116 17.226 27.7267 17.8671C28.3375 18.5082 29.1715 18.8897 30.056 18.9326C30.3989 18.9384 30.739 18.8689 31.0522 18.7291C31.3654 18.5893 31.6441 18.3825 31.8688 18.1233H31.9174V18.617C31.9174 19.9362 31.2133 20.6403 30.0802 20.6403C29.7029 20.6315 29.3367 20.5105 29.0282 20.2929C28.7198 20.0753 28.4831 19.7708 28.3483 19.4182L27.0291 19.9686C27.2775 20.5726 27.7006 21.0887 28.2442 21.4506C28.7878 21.8125 29.4272 22.0038 30.0802 21.9999C31.8526 21.9999 33.3175 20.9559 33.3175 18.4147V12.2882H31.9255V12.8547ZM30.1935 17.6135C29.6715 17.5674 29.1856 17.3275 28.8317 16.941C28.4778 16.5546 28.2814 16.0495 28.2814 15.5254C28.2814 15.0013 28.4778 14.4963 28.8317 14.1098C29.1856 13.7233 29.6715 13.4834 30.1935 13.4374C30.4524 13.4507 30.7059 13.5156 30.9393 13.6284C31.1726 13.7412 31.3811 13.8996 31.5523 14.0941C31.7235 14.2887 31.854 14.5156 31.9362 14.7614C32.0183 15.0072 32.0505 15.267 32.0307 15.5254C32.0528 15.785 32.022 16.0463 31.9402 16.2936C31.8584 16.5409 31.7273 16.769 31.5548 16.9642C31.3823 17.1594 31.172 17.3176 30.9367 17.4292C30.7013 17.5407 30.4457 17.6034 30.1855 17.6135H30.1935ZM49.9246 8.64625H46.307V18.7627H47.8204V14.9265H49.9327C50.364 14.9575 50.7971 14.8993 51.205 14.7555C51.6128 14.6118 51.9867 14.3855 52.3032 14.0909C52.6197 13.7963 52.8722 13.4396 53.0448 13.0431C53.2174 12.6466 53.3065 12.2188 53.3065 11.7864C53.3065 11.354 53.2174 10.9262 53.0448 10.5297C52.8722 10.1332 52.6197 9.7765 52.3032 9.48187C51.9867 9.18725 51.6128 8.96101 51.205 8.81724C50.7971 8.67347 50.364 8.61527 49.9327 8.64625H49.9246ZM49.9246 13.5021H47.8123V10.0545H49.957C50.4174 10.0545 50.859 10.2374 51.1845 10.5629C51.5101 10.8885 51.693 11.33 51.693 11.7904C51.693 12.2508 51.5101 12.6924 51.1845 13.018C50.859 13.3435 50.4174 13.5264 49.957 13.5264L49.9246 13.5021ZM59.256 12.0454C58.705 12.0124 58.1565 12.1412 57.6777 12.4158C57.1989 12.6904 56.8108 13.0989 56.561 13.5912L57.9044 14.1496C58.0369 13.9055 58.2375 13.7051 58.4818 13.5729C58.726 13.4407 59.0035 13.3824 59.2803 13.405C59.4724 13.3826 59.6671 13.3986 59.8529 13.4522C60.0388 13.5058 60.2121 13.5959 60.3628 13.7172C60.5134 13.8385 60.6384 13.9886 60.7305 14.1587C60.8225 14.3288 60.8798 14.5155 60.8989 14.708V14.8132C60.4128 14.5559 59.8708 14.4224 59.3207 14.4248C57.8721 14.4248 56.4072 15.2341 56.4072 16.6989C56.4215 17.0113 56.4983 17.3176 56.633 17.5997C56.7677 17.8819 56.9577 18.1342 57.1916 18.3417C57.4255 18.5492 57.6986 18.7076 57.9948 18.8078C58.291 18.9079 58.6043 18.9476 58.9161 18.9245C59.2972 18.9519 59.6787 18.8762 60.0204 18.7053C60.3622 18.5344 60.6517 18.2747 60.8584 17.9534H60.907V18.7627H62.3638V14.8699C62.3638 13.0975 61.0203 12.0696 59.2965 12.0696L59.256 12.0454ZM59.0699 17.5892C58.5762 17.5892 57.8883 17.3383 57.8883 16.7313C57.8883 15.922 58.7461 15.6549 59.5069 15.6549C59.9877 15.643 60.4628 15.7604 60.8827 15.9948C60.8321 16.433 60.6249 16.8381 60.2992 17.1355C59.9735 17.433 59.5513 17.6027 59.1103 17.6135L59.0699 17.5892ZM67.6729 12.2882L65.9409 16.6746H65.8924L64.0957 12.2882H62.4771L65.1721 18.4228L63.6344 21.83H65.2126L69.3562 12.2882H67.6729ZM54.0683 18.7627H55.5817V8.64625H54.0683V18.7627Z" fill="white"/>
<path d="M5.85521 2.82124C5.86897 3.11809 5.82226 3.41463 5.71792 3.69288C5.61358 3.97112 5.45378 4.22526 5.24823 4.43987C5.01872 4.67829 4.74153 4.86566 4.43475 4.98977C4.12796 5.11387 3.79847 5.17193 3.46774 5.16016C2.96595 5.15623 2.47648 5.0043 2.06066 4.72341C1.64484 4.44252 1.32117 4.04516 1.13019 3.58112C0.939218 3.11707 0.88944 2.60699 0.987094 2.11478C1.08475 1.62257 1.32549 1.17013 1.67916 0.814144C1.9116 0.576839 2.19027 0.389757 2.49791 0.264471C2.80556 0.139185 3.13564 0.0783603 3.46774 0.0857614C3.80988 0.0846215 4.14865 0.153475 4.4632 0.28809C4.75605 0.406212 5.01675 0.592033 5.22395 0.83033L4.79501 1.25927C4.63348 1.06713 4.42948 0.915194 4.19913 0.815468C3.96877 0.715742 3.71838 0.670957 3.46774 0.684653C3.21495 0.683413 2.9645 0.733234 2.73143 0.83113C2.49836 0.929026 2.28745 1.07298 2.11136 1.25436C1.93527 1.43574 1.79762 1.65081 1.70666 1.88668C1.61571 2.12255 1.57332 2.37436 1.58204 2.62701C1.57674 3.00426 1.68328 3.37462 1.88823 3.69139C2.09318 4.00816 2.38735 4.25713 2.73364 4.4069C3.07993 4.55667 3.46281 4.60052 3.83399 4.53293C4.20517 4.46534 4.54803 4.28934 4.81929 4.02712C5.06833 3.75724 5.21196 3.40678 5.22395 3.03976H3.46774V2.45705H5.82284C5.84443 2.57725 5.85526 2.69912 5.85521 2.82124ZM9.56187 0.797957H7.37672V2.33565H9.36763V2.91836H7.37672V4.45606H9.56187V5.05495H6.72927V0.199065H9.56187V0.797957ZM12.2164 5.05495H11.5932V0.797957H10.2336V0.199065H13.6084V0.797957H12.2164V5.05495ZM15.9878 5.05495V0.199065H16.611V5.05495H15.9878ZM19.3788 5.05495H18.7557V0.797957H17.396V0.199065H20.7304V0.797957H19.3788V5.05495ZM27.0511 4.42368C26.578 4.89417 25.9379 5.15827 25.2707 5.15827C24.6034 5.15827 23.9633 4.89417 23.4902 4.42368C23.0303 3.9369 22.7741 3.29262 22.7741 2.62296C22.7741 1.9533 23.0303 1.30902 23.4902 0.822237C23.7234 0.587328 24.0007 0.400888 24.3063 0.27366C24.6119 0.146432 24.9396 0.0809314 25.2707 0.0809314C25.6017 0.0809314 25.9294 0.146432 26.235 0.27366C26.5406 0.400888 26.8179 0.587328 27.0511 0.822237C27.5128 1.30809 27.7703 1.95272 27.7703 2.62296C27.7703 3.2932 27.5128 3.93783 27.0511 4.42368ZM23.9515 4.01903C24.3018 4.36794 24.7762 4.56383 25.2707 4.56383C25.7651 4.56383 26.2395 4.36794 26.5898 4.01903C26.9356 3.63785 27.1271 3.14164 27.1271 2.62701C27.1271 2.11237 26.9356 1.61616 26.5898 1.23499C26.2395 0.886074 25.7651 0.690178 25.2707 0.690178C24.7762 0.690178 24.3018 0.886074 23.9515 1.23499C23.6057 1.61616 23.4142 2.11237 23.4142 2.62701C23.4142 3.14164 23.6057 3.63785 23.9515 4.01903ZM28.6455 5.05495V0.199065H29.4062L31.7694 3.97856V0.199065H32.3926V5.05495H31.7452L29.2768 1.0974V5.05495H28.6455Z" fill="white"/>
<path fill-rule="evenodd" clip-rule="evenodd" d="M25.2707 0.161863C24.9503 0.161863 24.6332 0.225251 24.3374 0.348374C24.042 0.471369 23.7738 0.651547 23.5483 0.878543C23.1031 1.35022 22.855 1.97431 22.855 2.62296C22.855 3.27153 23.103 3.89554 23.5481 4.36719C24.006 4.82204 24.6252 5.07734 25.2707 5.07734C25.9161 5.07734 26.5354 4.82201 26.9933 4.36709C27.4402 3.89638 27.6893 3.27206 27.6893 2.62296C27.6893 1.97378 27.4401 1.34938 26.9931 0.878649C26.7675 0.651603 26.4993 0.471388 26.2039 0.348374C25.9081 0.225251 25.591 0.161863 25.2707 0.161863ZM24.2752 0.198946C24.5907 0.0676136 24.929 0 25.2707 0C25.6123 0 25.9506 0.0676137 26.2661 0.198946C26.5815 0.330278 26.8678 0.522732 27.1086 0.765218L27.1098 0.766474C27.5858 1.26737 27.8512 1.93197 27.8512 2.62296C27.8512 3.31395 27.5858 3.97854 27.1098 4.47943L27.1082 4.48109C26.6199 4.96666 25.9593 5.2392 25.2707 5.2392C24.582 5.2392 23.9214 4.96664 23.4331 4.48107L23.4313 4.47929C22.9572 3.97748 22.6931 3.31329 22.6931 2.62296C22.6931 1.93263 22.9573 1.26847 23.4313 0.766659L23.4327 0.765201C23.6734 0.522715 23.9598 0.330278 24.2752 0.198946ZM3.46594 0.166673C3.14491 0.159518 2.82583 0.218315 2.52844 0.339425C2.23105 0.460535 1.96167 0.641381 1.73697 0.870775L1.73657 0.871185C1.39413 1.21587 1.16103 1.65395 1.06648 2.13053C0.971924 2.60712 1.02012 3.10101 1.20503 3.55032C1.38995 3.99963 1.70335 4.38437 2.10597 4.65635C2.50859 4.92832 2.98252 5.07543 3.46837 5.07923L3.47062 5.07925C3.78998 5.09062 4.10815 5.03458 4.4044 4.91474C4.7006 4.79491 4.96823 4.61401 5.18984 4.38382C5.38778 4.17715 5.54166 3.93241 5.64214 3.66446C5.74264 3.39649 5.78762 3.11088 5.77437 2.82499L5.85521 2.82124L5.77428 2.82121C5.77432 2.72641 5.76753 2.63175 5.75398 2.53798H3.54867V2.95883H5.30757L5.30484 3.0424C5.29221 3.42884 5.14098 3.79785 4.87877 4.082L4.87563 4.0854C4.59287 4.35873 4.2354 4.5421 3.84849 4.61255C3.46158 4.68301 3.06247 4.63729 2.70151 4.48118C2.34055 4.32506 2.03391 4.06554 1.82028 3.73535C1.607 3.40572 1.49596 3.02039 1.50109 2.62783C1.49228 2.36495 1.53651 2.10299 1.63115 1.85756C1.72603 1.61153 1.86961 1.38719 2.05329 1.19799C2.23697 1.00879 2.45697 0.858629 2.70009 0.756513C2.94247 0.654708 3.20286 0.602746 3.46573 0.603713C3.7281 0.589749 3.99014 0.636804 4.23128 0.741198C4.44617 0.83423 4.63922 0.970533 4.79856 1.14126L5.1123 0.827524C4.92231 0.625621 4.69059 0.467074 4.43292 0.363146L4.43135 0.36251C4.12694 0.232238 3.79912 0.165589 3.46801 0.166692L3.46594 0.166673ZM5.93614 2.81938C5.95013 3.12655 5.90167 3.43337 5.7937 3.7213C5.68551 4.00981 5.51981 4.27333 5.30667 4.49585C5.06927 4.74246 4.78242 4.93642 4.4651 5.06479C4.14812 5.19302 3.8077 5.25309 3.46598 5.24108C2.94866 5.23681 2.44407 5.08007 2.01536 4.79048C1.58634 4.50067 1.25239 4.09069 1.05535 3.61192C0.858314 3.13314 0.806956 2.60687 0.90771 2.09903C1.00845 1.59129 1.25676 1.12456 1.62154 0.757305C1.86169 0.512188 2.14958 0.318942 2.46739 0.189516C2.78497 0.0601843 3.12569 -0.00267108 3.46851 0.00482726C3.82105 0.00379367 4.1701 0.0747512 4.49426 0.213353C4.79865 0.336273 5.06962 0.529497 5.28502 0.777227L5.33455 0.834186L4.78985 1.37889L4.73307 1.31135C4.57961 1.12882 4.38581 0.984478 4.16697 0.889738C3.94814 0.794998 3.71027 0.752453 3.47216 0.765464L3.46734 0.765727C3.22544 0.764541 2.9858 0.81207 2.76277 0.905747C2.53974 0.999423 2.33793 1.13717 2.16943 1.31074C2.00093 1.4843 1.86921 1.6901 1.78217 1.9158C1.69514 2.1415 1.65458 2.38246 1.66292 2.62421L1.66306 2.62814C1.65798 2.98941 1.75991 3.34408 1.95618 3.64743C2.15244 3.95077 2.43415 4.18919 2.76577 4.33262C3.09738 4.47604 3.46404 4.51803 3.81949 4.45331C4.17419 4.38872 4.50187 4.22076 4.76138 3.97054C4.97733 3.73576 5.10924 3.43688 5.13791 3.12069H3.38681V2.37612H5.89053L5.9025 2.44274C5.92483 2.56705 5.93608 2.69309 5.93614 2.81938ZM6.64834 0.118134H9.6428V0.878888H7.45766V2.25472H9.44857V2.99929H7.45766V4.37512H9.6428V5.13588H6.64834V0.118134ZM6.81021 0.279996V4.97402H9.48094V4.53699H7.29579V2.83743H9.2867V2.41658H7.29579V0.717026H9.48094V0.279996H6.81021ZM10.1527 0.118134H13.6894V0.878888H12.2973V5.13588H11.5123V0.878888H10.1527V0.118134ZM10.3145 0.279996V0.717026H11.6742V4.97402H12.1355V0.717026H13.5275V0.279996H10.3145ZM15.9069 0.118134H16.6919V5.13588H15.9069V0.118134ZM16.0688 0.279996V4.97402H16.5301V0.279996H16.0688ZM17.3151 0.118134H20.8113V0.878888H19.4598V5.13588H18.6747V0.878888H17.3151V0.118134ZM17.477 0.279996V0.717026H18.8366V4.97402H19.2979V0.717026H20.6495V0.279996H17.477ZM28.5646 0.118134H29.4511L31.6885 3.69647V0.118134H32.4735V5.13588H31.7003L29.3577 1.38008V5.13588H28.5646V0.118134ZM28.7264 0.279996V4.97402H29.1958V0.814722L31.7901 4.97402H32.3117V0.279996H31.8504V4.26065L29.3614 0.279996H28.7264ZM23.8944 1.17764C24.2599 0.813622 24.7548 0.609247 25.2707 0.609247C25.7865 0.609247 26.2814 0.813623 26.6469 1.17764L26.6499 1.18054C27.0091 1.5766 27.2081 2.09227 27.2081 2.62701C27.2081 3.16174 27.009 3.67734 26.6498 4.0734L26.647 4.07645C26.2815 4.44046 25.7865 4.64477 25.2707 4.64477C24.7548 4.64477 24.2599 4.44039 23.8944 4.07637L23.9515 4.01903L23.8915 4.0734C23.5322 3.67734 23.3332 3.16174 23.3332 2.62701C23.3332 2.09227 23.5322 1.57667 23.8915 1.18061L23.8944 1.17764ZM24.01 3.96313C24.3451 4.29603 24.7983 4.4829 25.2707 4.4829C25.743 4.4829 26.1962 4.29603 26.5313 3.96313C26.8627 3.59705 27.0462 3.12086 27.0462 2.62701C27.0462 2.13316 26.8627 1.65696 26.5313 1.29088C26.1962 0.95798 25.743 0.77111 25.2707 0.77111C24.7983 0.77111 24.3451 0.95798 24.01 1.29088C23.6786 1.65696 23.4951 2.13316 23.4951 2.62701C23.4951 3.12086 23.6786 3.59705 24.01 3.96313Z" fill="white"/>
</svg>
