<svg width="17" height="20" viewBox="0 0 17 20" fill="none" xmlns="http://www.w3.org/2000/svg">
<path d="M14.1567 10.6185C14.1346 8.1614 16.1686 6.96602 16.2616 6.91037C15.1097 5.2309 13.3242 5.00143 12.6968 4.98313C11.1973 4.82532 9.74269 5.88042 8.9788 5.88042C8.19967 5.88042 7.02336 4.99838 5.75555 5.0243C4.12411 5.04945 2.59787 5.99402 1.7608 7.46079C0.0332966 10.4515 1.32168 14.8465 2.97676 17.264C3.80468 18.4479 4.77211 19.7698 6.03839 19.7233C7.27722 19.6722 7.73997 18.9335 9.23496 18.9335C10.7162 18.9335 11.1508 19.7233 12.4422 19.6936C13.7717 19.6722 14.6088 18.5043 15.4078 17.3097C16.3645 15.9527 16.7488 14.6163 16.764 14.5477C16.7327 14.537 14.1819 13.5635 14.1567 10.6185Z" fill="white"/>
<path d="M11.7171 3.39279C12.3834 2.55954 12.8393 1.42591 12.7128 0.275513C11.7484 0.318205 10.5423 0.942576 9.84783 1.75754C9.23337 2.47568 8.68447 3.65276 8.82627 4.7597C9.90958 4.84051 11.0219 4.21309 11.7171 3.39279Z" fill="white"/>
</svg>
