<?xml version="1.0" standalone="no"?>
<!DOCTYPE svg PUBLIC "-//W3C//DTD SVG 20010904//EN"
 "http://www.w3.org/TR/2001/REC-SVG-20010904/DTD/svg10.dtd">
<svg version="1.0" xmlns="http://www.w3.org/2000/svg"
 width="1024.000000pt" height="1024.000000pt" viewBox="0 0 1024.000000 1024.000000"
 preserveAspectRatio="xMidYMid meet">

<g transform="translate(0.000000,1024.000000) scale(0.100000,-0.100000)"
fill="#000000" stroke="none">
<path d="M0 5120 l0 -5120 5120 0 5120 0 0 5120 0 5120 -5120 0 -5120 0 0
-5120z m4623 3420 c38 -42 37 -92 -2 -131 -22 -21 -39 -29 -66 -29 -52 0 -95
44 -95 97 0 96 98 134 163 63z m1254 10 c44 -16 68 -71 52 -119 -12 -35 -67
-64 -103 -55 -77 19 -93 138 -22 172 28 14 37 14 73 2z m-338 -242 c186 -128
444 -305 572 -393 128 -88 311 -214 406 -280 94 -66 263 -182 375 -258 112
-76 253 -173 314 -215 61 -42 199 -138 307 -212 108 -74 196 -138 197 -141 0
-3 -37 -32 -82 -64 -73 -51 -84 -56 -103 -45 -25 16 -604 412 -775 530 -69 48
-215 149 -325 226 -110 76 -245 169 -300 208 -55 38 -156 107 -225 154 -69 47
-251 171 -405 277 -154 105 -286 195 -293 199 -8 5 -74 -36 -180 -112 -288
-205 -1140 -805 -1424 -1003 -260 -181 -586 -412 -605 -427 l-22 -17 -2 -922
c-2 -895 -3 -923 -21 -929 -10 -3 -52 -2 -93 1 l-75 7 2 981 3 980 357 251
c197 138 424 297 505 353 82 56 175 122 208 146 33 24 321 227 640 452 319
224 603 425 630 446 28 21 56 38 63 38 8 1 166 -104 351 -231z m1236 167 c29
-28 34 -88 10 -123 -14 -18 -16 -72 -15 -372 0 -192 -3 -350 -6 -350 -15 0
-105 63 -113 79 -5 9 -7 153 -5 320 2 252 0 308 -12 325 -21 30 -18 89 7 120
29 36 99 37 134 1z m-3361 -7 c9 -12 16 -30 16 -40 0 -24 -35 -58 -60 -58 -26
0 -60 34 -60 62 0 53 74 79 104 36z m728 -161 c21 -33 1 -80 -39 -92 -17 -4
-29 1 -48 19 -31 31 -32 50 -1 81 22 22 29 23 53 14 15 -5 31 -16 35 -22z
m3766 8 c8 -3 12 -26 12 -69 l0 -64 33 -6 c17 -3 56 -17 85 -31 l54 -25 58 44
58 44 49 -51 c95 -101 92 -89 39 -148 -31 -35 -45 -57 -40 -68 3 -9 15 -41 26
-72 21 -62 34 -69 119 -69 l39 0 0 -100 0 -100 -64 0 c-39 0 -67 -5 -73 -12
-5 -7 -19 -42 -31 -77 l-21 -65 44 -47 c25 -27 45 -52 45 -57 0 -6 -29 -41
-64 -78 l-63 -69 -63 49 -62 49 -52 -25 c-28 -14 -65 -28 -83 -32 l-32 -7 -3
-77 -3 -77 -101 -3 -101 -3 -7 38 c-3 21 -6 56 -6 79 0 39 -1 41 -42 53 -24 7
-57 22 -75 32 l-31 20 -68 -52 -69 -52 -48 54 c-27 30 -57 66 -68 81 l-19 26
54 49 c50 46 53 51 41 74 -7 13 -21 48 -30 77 l-17 52 -74 0 -74 0 0 100 0
100 69 0 c78 0 81 3 105 76 9 28 23 59 30 69 12 16 7 24 -41 69 l-53 51 61 68
c33 37 65 67 70 67 6 0 36 -18 67 -41 l58 -40 64 30 c36 17 70 31 76 31 15 0
24 33 24 91 0 25 2 48 5 51 5 5 173 -1 193 -7z m-1623 -19 c13 -19 14 -28 4
-50 -23 -49 -92 -43 -105 10 -14 56 69 89 101 40z m-2868 -54 c43 -57 -35
-124 -89 -75 -10 9 -18 29 -18 44 0 54 73 75 107 31z m-600 -135 l-5 -53 42
-12 c95 -25 185 -115 223 -223 l18 -49 52 0 53 0 0 -75 0 -75 -52 0 -53 0 -29
-61 c-15 -35 -49 -82 -75 -107 -45 -44 -129 -92 -163 -92 -15 0 -16 -7 -11
-50 l6 -50 -88 0 -87 0 7 50 c6 43 4 50 -10 50 -34 0 -131 55 -175 99 -27 27
-56 70 -70 104 l-24 57 -53 0 -53 0 0 76 0 76 50 -4 49 -3 21 57 c38 105 118
187 212 219 53 18 53 18 54 61 1 24 2 46 2 51 1 4 39 7 83 7 l82 0 -6 -53z
m910 -11 c22 -19 28 -32 28 -64 0 -87 -94 -125 -156 -63 -37 37 -38 79 -3 120
33 40 89 43 131 7z m1807 -265 c440 -299 491 -335 491 -349 0 -6 -34 -36 -75
-66 -63 -46 -78 -53 -92 -43 -9 7 -126 86 -260 176 -134 90 -280 191 -326 224
-45 32 -88 57 -95 54 -7 -3 -84 -58 -172 -121 -88 -64 -162 -116 -165 -116 -3
0 -24 37 -47 83 l-41 83 42 24 c22 14 46 25 51 25 6 0 15 9 20 19 14 28 317
237 334 231 7 -3 158 -103 335 -224z m-1977 -159 c13 -8 28 -32 35 -54 10 -34
9 -44 -6 -73 -23 -42 -76 -69 -116 -60 -41 9 -80 58 -80 102 0 87 92 134 167
85z m1079 -146 c20 -37 34 -69 32 -71 -6 -5 -409 -291 -535 -380 -242 -169
-468 -328 -537 -377 -38 -27 -74 -52 -81 -54 -14 -6 -145 112 -145 130 0 6 17
22 37 36 76 51 930 650 1103 773 75 53 69 56 126 -57z m974 -406 c124 -84 232
-159 241 -166 8 -8 19 -14 22 -14 4 0 7 60 7 134 l0 134 33 5 c24 4 399 2 510
-2 16 -1 17 -25 17 -360 l0 -358 58 -38 c31 -21 187 -128 347 -239 l289 -201
-347 -3 -347 -2 0 -620 0 -620 226 0 227 0 -7 38 c-3 20 -6 85 -6 145 0 83 -3
107 -13 107 -32 0 -99 62 -123 113 -55 120 -10 247 111 309 102 53 241 4 296
-104 58 -114 14 -255 -96 -308 l-46 -22 2 -139 2 -139 178 0 179 0 0 745 0
744 73 54 c66 49 109 77 119 77 2 0 5 -102 7 -227 1 -126 3 -228 4 -228 1 0
46 1 99 3 l98 3 2 408 3 408 93 -61 92 -60 0 -126 c0 -178 -5 -169 99 -172
l86 -3 3 -72 3 -72 -93 -3 -93 -3 0 -125 0 -125 207 0 c205 0 207 0 232 -24
37 -35 35 -81 -5 -115 -32 -27 -56 -30 -127 -17 -23 5 -45 5 -48 0 -3 -5 -63
-9 -135 -9 l-129 0 0 -600 0 -600 -95 0 -95 0 0 600 0 600 -100 0 -100 0 -2
-327 c-2 -181 -3 -449 -3 -598 l0 -270 -1245 0 -1245 0 -52 22 c-28 12 -84 43
-125 68 -103 64 -190 90 -308 90 -117 0 -206 -26 -304 -89 l-69 -44 -76 54
-76 54 -3 -81 c-2 -69 1 -89 20 -128 29 -59 80 -94 123 -85 16 3 66 26 110 49
117 63 179 78 295 73 108 -5 166 -27 289 -107 36 -23 93 -50 129 -61 62 -19
95 -20 1303 -20 l1239 0 0 -105 0 -105 100 0 100 0 0 105 0 105 95 0 95 0 0
-185 0 -185 -176 0 -177 0 7 -41 c25 -155 -143 -270 -283 -193 -132 71 -140
247 -14 339 43 31 57 50 47 66 -3 5 -463 9 -1123 9 -697 0 -1139 4 -1172 10
-50 9 -92 28 -279 127 -140 73 -277 66 -455 -22 -93 -47 -118 -55 -165 -55
-137 0 -260 118 -290 279 -6 33 -10 329 -10 772 l0 719 -329 2 -329 3 121 85
c122 86 557 398 842 605 170 123 657 471 695 497 14 9 88 62 165 116 l140 100
105 -73 c58 -39 206 -141 330 -225z m-3354 41 c62 -28 89 -73 89 -148 0 -52
-4 -66 -25 -88 -55 -59 -132 -72 -200 -34 -48 27 -70 66 -70 124 0 72 40 130
105 153 43 15 55 14 101 -7z m4993 -517 l150 -101 -22 -20 c-12 -11 -51 -41
-86 -67 l-63 -46 -94 65 c-51 36 -135 93 -186 127 -51 33 -119 81 -150 105
l-58 44 0 120 0 119 180 -122 c99 -68 247 -169 329 -224z m-4659 -1371 l1
-1458 92 -64 c51 -36 149 -107 219 -158 l128 -94 64 45 c35 25 67 46 70 46 4
0 44 -31 89 -68 147 -123 262 -190 412 -243 93 -32 218 -59 272 -59 21 0 62
-3 92 -7 l53 -6 -98 -64 c-55 -35 -108 -66 -120 -69 -24 -6 -152 25 -256 62
-107 39 -233 104 -322 168 l-78 57 -68 -56 c-38 -30 -74 -55 -79 -55 -10 0
-200 130 -508 348 l-163 114 0 1439 0 1439 23 20 c31 27 160 118 170 119 4 1
7 -655 7 -1456z m5814 1414 c13 -36 -2 -61 -38 -65 -35 -4 -56 13 -56 47 0 36
19 53 55 49 22 -2 32 -10 39 -31z m-6258 -25 c39 -26 33 -87 -11 -98 -29 -7
-65 18 -65 45 0 42 46 74 76 53z m1170 -126 c47 -47 46 -86 -1 -133 -31 -31
-40 -35 -72 -30 -123 20 -109 193 16 196 13 1 37 -13 57 -33z m5172 -113 c101
-74 97 -216 -7 -277 -45 -26 -117 -26 -162 0 -39 22 -79 93 -79 139 0 50 40
117 85 143 49 28 122 26 163 -5z m-6258 -103 c11 -11 20 -29 20 -40 0 -23 -33
-60 -53 -60 -27 0 -50 27 -50 60 0 54 46 77 83 40z m-204 -15 c15 -23 15 -27
0 -51 -23 -34 -41 -39 -71 -20 -27 18 -34 63 -13 84 21 21 66 14 84 -13z m-36
-415 c11 -11 20 -26 20 -33 0 -24 -31 -57 -55 -57 -49 0 -72 55 -38 92 21 24
48 23 73 -2z m1462 -286 c119 -83 123 -258 9 -342 l-31 -23 0 -200 0 -201 -22
6 c-13 3 -53 22 -90 41 l-68 36 0 162 -1 162 -32 20 c-19 12 -44 43 -60 75
-24 46 -28 63 -24 107 8 74 42 129 102 165 44 25 58 29 112 26 50 -3 71 -10
105 -34z m-1332 -86 l23 -22 -6 -240 c-6 -230 -6 -241 14 -282 26 -51 20 -105
-14 -129 -57 -40 -147 5 -147 74 0 20 7 47 16 59 13 18 15 64 16 274 2 229 3
253 20 270 24 24 49 23 78 -4z m6248 -124 c25 -29 29 -79 8 -109 -20 -29 -28
-273 -10 -306 55 -100 -49 -198 -127 -120 -32 33 -36 62 -14 105 21 40 21 302
0 330 -30 40 -9 107 39 126 32 13 78 2 104 -26z m-4752 -751 l73 -38 -6 -80
c-13 -192 89 -376 254 -457 61 -30 76 -33 158 -33 88 0 93 1 200 52 139 65
180 76 285 76 110 0 176 -21 288 -88 169 -102 97 -95 1000 -95 l789 0 7 -67
c4 -38 9 -83 12 -101 l6 -33 -808 3 c-922 3 -832 -5 -1009 98 -112 66 -188 90
-285 90 -95 -1 -142 -14 -270 -78 l-115 -57 -105 1 c-120 1 -196 22 -292 80
-122 74 -235 217 -281 356 -28 86 -29 256 -3 346 10 34 21 62 24 62 3 0 38
-17 78 -37z m-679 0 c-2 -16 -12 -71 -22 -123 -37 -203 -5 -449 84 -652 23
-51 40 -92 38 -93 -17 -14 -89 -55 -95 -55 -15 0 -99 189 -125 280 -49 168
-60 425 -26 608 l11 62 70 0 70 0 -5 -27z m282 -126 l73 -32 2 -145 c2 -119 7
-155 24 -203 57 -155 152 -288 270 -375 141 -104 267 -147 432 -146 116 1 162
14 315 92 97 50 181 67 280 59 90 -8 149 -31 257 -98 153 -97 28 -89 1449 -89
l1249 0 0 -95 0 -95 -742 -2 c-1003 -4 -1022 -4 -1433 3 -403 6 -411 8 -525
79 -210 132 -325 139 -537 33 -126 -62 -202 -82 -314 -83 -334 -1 -675 211
-827 515 -74 149 -109 330 -91 482 12 109 18 133 33 133 6 0 44 -15 85 -33z
m-1150 -21 c14 -17 28 -386 14 -395 -6 -4 -4 -40 5 -94 17 -101 10 -131 -35
-148 -34 -13 -65 0 -89 36 -15 23 -16 33 -6 76 7 30 12 141 12 276 0 197 2
229 17 245 19 21 66 24 82 4z m6393 -102 c110 -77 136 -205 64 -312 -63 -93
-177 -121 -286 -71 -140 65 -168 252 -53 361 46 44 90 59 165 55 56 -2 74 -8
110 -33z m-1422 -479 c10 -33 25 -75 34 -92 9 -18 16 -35 16 -38 0 -3 -46 -4
-102 -3 l-103 3 -17 65 c-9 36 -17 80 -17 98 l-1 33 87 -3 86 -3 17 -60z m920
-326 c0 -120 -2 -219 -5 -219 -2 0 -45 30 -95 66 l-90 66 0 151 0 152 95 2 95
1 0 -219z m440 161 c24 -24 25 -47 3 -72 -18 -21 -53 -24 -71 -6 -18 18 -15
75 6 87 25 15 40 13 62 -9z m-6252 -216 c47 -53 9 -138 -61 -138 -66 0 -107
60 -82 120 24 59 98 69 143 18z m6167 -100 c21 -8 45 -56 45 -89 0 -16 -12
-38 -29 -56 -37 -37 -79 -38 -120 -3 -25 21 -31 33 -31 67 0 55 30 87 81 87
21 0 45 -3 54 -6z m-3666 -64 c47 -24 85 -67 101 -116 11 -32 11 -53 -2 -139
-2 -15 39 -48 201 -157 113 -76 211 -138 218 -138 7 0 44 22 81 49 37 26 156
110 266 185 l199 136 664 -2 664 -3 -1 -487 0 -488 30 -41 c50 -69 40 -159
-24 -219 -37 -34 -136 -40 -182 -12 -76 48 -93 163 -33 238 l29 37 0 393 0
394 -538 0 -538 0 -100 -68 c-54 -38 -190 -132 -301 -210 -111 -78 -205 -142
-208 -142 -8 0 -488 319 -567 377 -26 18 -70 41 -98 49 -179 53 -201 280 -35
367 42 23 127 21 174 -3z m-1882 -171 c34 -11 88 -37 120 -58 157 -102 240
-266 231 -454 -6 -109 -25 -168 -83 -259 -105 -162 -306 -250 -503 -220 -321
50 -520 379 -408 675 33 87 62 132 133 198 140 133 331 177 510 118z m5046
-14 c26 -4 82 -24 125 -45 311 -156 363 -562 103 -803 -94 -88 -232 -135 -362
-123 -126 11 -226 59 -314 152 -248 258 -134 694 209 804 49 16 133 28 166 24
14 -2 46 -6 73 -9z m-2484 -2 c0 -9 -139 -110 -163 -119 -9 -3 -42 13 -83 42
-133 94 -141 84 66 84 99 0 181 -3 180 -7z m-1939 -217 l75 -44 3 -356 2 -357
26 -39 c87 -130 -15 -286 -163 -248 -118 29 -158 175 -72 260 l29 30 0 399 c0
313 3 399 13 398 6 0 46 -20 87 -43z m1091 -157 c156 -105 377 -254 492 -331
l207 -139 38 29 c35 27 715 501 738 515 7 4 32 -24 63 -71 28 -43 51 -81 51
-84 0 -3 -87 -67 -192 -140 -106 -74 -233 -163 -283 -198 -49 -35 -150 -106
-224 -157 -73 -52 -146 -103 -161 -114 l-27 -21 -169 114 c-93 63 -275 186
-404 273 -129 87 -298 201 -375 254 -77 52 -157 106 -177 120 -21 13 -38 27
-38 30 1 9 152 111 165 111 6 0 139 -86 296 -191z m1992 57 c74 -30 112 -115
86 -190 -54 -151 -272 -119 -286 43 -6 63 20 109 77 139 51 25 78 27 123 8z
m-2640 -63 c3 -27 4 -110 2 -185 -2 -108 1 -142 12 -158 8 -12 15 -37 15 -56
0 -73 -77 -109 -136 -63 -21 16 -26 29 -26 63 0 23 7 51 15 62 11 15 14 55 15
182 l0 163 43 19 c23 11 45 20 48 20 4 0 9 -21 12 -47z m2299 -314 c29 -15 50
-72 39 -103 -19 -47 -84 -71 -130 -46 -25 13 -45 64 -37 95 14 54 77 81 128
54z m-1910 -46 c20 -18 24 -63 6 -81 -16 -16 -63 -15 -75 1 -21 26 -21 46 -2
71 24 30 45 33 71 9z m2365 -70 c41 -50 28 -120 -27 -148 -44 -23 -78 -19
-111 14 -31 31 -39 83 -19 121 29 55 118 62 157 13z m-2459 -291 c6 -9 12 -24
12 -34 0 -22 -34 -58 -55 -58 -23 0 -55 37 -55 64 0 49 66 68 98 28z m212 6
c25 -28 26 -52 0 -78 -24 -24 -47 -25 -72 -3 -22 20 -23 61 -1 85 22 24 48 23
73 -4z m215 -2 c27 -27 25 -54 -7 -83 -18 -16 -22 -16 -46 -2 -37 20 -42 71
-10 93 30 21 35 20 63 -8z m1291 0 c26 -22 27 -25 15 -54 -16 -39 -44 -49 -76
-28 -33 21 -34 69 -3 90 29 21 32 20 64 -8z m232 -4 c18 -23 15 -49 -8 -72
-24 -24 -38 -25 -68 -4 -28 19 -28 58 -1 85 22 22 55 19 77 -9z"/>
<path d="M7724 8046 c-69 -17 -134 -56 -183 -112 -57 -65 -81 -135 -81 -237 0
-70 4 -91 29 -144 36 -75 98 -137 171 -172 47 -22 68 -26 150 -26 88 0 101 3
163 33 80 40 134 92 173 170 25 50 29 68 29 142 0 76 -4 93 -32 150 -84 168
-237 240 -419 196z m248 -96 c25 -26 29 -36 24 -63 -8 -41 -39 -67 -80 -67
-51 1 -94 49 -80 93 21 69 86 87 136 37z m80 -187 c36 -32 13 -93 -36 -93 -31
0 -46 18 -46 55 0 53 43 73 82 38z"/>
<path d="M2669 7966 c-97 -21 -176 -102 -198 -206 -34 -156 87 -308 254 -318
205 -13 350 223 243 396 -24 38 -28 35 -43 -32 -10 -48 -57 -86 -105 -86 -128
0 -183 138 -92 233 29 30 25 31 -59 13z"/>
<path d="M4700 5790 l0 -200 200 0 200 0 0 200 0 200 -200 0 -200 0 0 -200z"/>
<path d="M5240 5790 l0 -200 200 0 200 0 0 200 0 200 -200 0 -200 0 0 -200z"/>
<path d="M4700 5243 l0 -203 200 0 200 0 0 200 0 200 -27 2 c-16 0 -106 2
-200 2 l-173 1 0 -202z"/>
<path d="M5240 5246 l0 -206 200 0 200 0 0 200 0 200 -184 0 c-101 0 -191 3
-200 6 -14 5 -16 -16 -16 -200z"/>
<path d="M6904 5386 c-78 -34 -99 -126 -43 -190 36 -41 84 -55 129 -36 105 44
107 183 4 226 -41 17 -50 17 -90 0z"/>
<path d="M2145 7070 c-28 -31 -24 -79 9 -107 36 -31 61 -29 97 6 34 35 36 59
8 95 -26 33 -86 37 -114 6z"/>
<path d="M8380 6363 c-31 -11 -60 -47 -60 -74 0 -41 40 -82 78 -82 84 0 114
111 41 148 -30 16 -35 17 -59 8z"/>
<path d="M8303 4323 c-12 -2 -36 -20 -53 -39 -58 -67 -30 -166 55 -194 29 -9
41 -8 79 8 24 11 52 32 61 46 36 55 10 142 -51 171 -32 15 -48 16 -91 8z"/>
<path d="M6891 2124 c-26 -34 -27 -74 -1 -101 39 -42 94 -37 126 11 49 76 -69
161 -125 90z"/>
<path d="M2780 3023 c102 -132 131 -241 88 -328 -79 -157 -338 -157 -476 0
-82 94 -77 206 15 316 l28 33 -33 -20 c-125 -72 -203 -257 -172 -403 15 -71
68 -160 121 -205 19 -16 63 -43 99 -60 58 -27 75 -31 155 -31 108 1 180 25
258 89 197 160 174 454 -49 606 -53 37 -62 38 -34 3z m-301 -517 c107 -49 245
-43 336 15 25 16 48 29 51 29 3 0 -7 -16 -22 -35 -15 -21 -53 -48 -92 -67 -55
-27 -76 -32 -136 -32 -108 0 -209 55 -252 136 -25 47 -15 53 24 16 20 -20 61
-48 91 -62z"/>
<path d="M7640 3017 c-97 -27 -196 -118 -225 -208 -22 -64 -17 -188 9 -241 30
-62 93 -125 154 -155 48 -24 69 -28 138 -28 73 0 88 4 150 35 233 119 233 461
0 575 -63 31 -161 40 -226 22z m212 -94 c20 -18 24 -63 6 -81 -30 -30 -98 -1
-98 41 0 48 56 73 92 40z m86 -137 c-4 -25 -36 -34 -44 -12 -8 21 13 46 32 39
8 -3 14 -15 12 -27z"/>
<path d="M3350 2153 c-8 -3 -25 -15 -37 -26 -64 -58 18 -163 95 -123 33 17 42
34 42 75 0 26 -31 71 -50 71 -4 0 -14 2 -22 4 -7 3 -20 2 -28 -1z"/>
</g>
</svg>
