<svg width="135" height="40" viewBox="0 0 135 40" fill="none" xmlns="http://www.w3.org/2000/svg">
<path d="M13.9685 8.60976H18.492C21.0196 8.60976 22.3503 7.94634 22.3503 6.62244C22.3503 6.09268 22.0849 5.69561 21.5523 5.43024C21.0196 5.16585 20.3543 4.90049 19.4237 4.90049C18.0931 4.90049 16.8961 5.29756 15.6991 6.09268C14.6338 6.75512 13.9695 7.54927 13.9695 8.60976H13.9685ZM16.0971 13.1122L17.8267 15.2322L18.891 16.4234C20.7543 18.8078 21.8186 21.1922 21.8186 23.841C21.8186 26.358 20.887 28.6098 19.1574 30.4634C16.8961 33.1122 13.8359 34.4371 9.97865 34.4371C7.05011 34.4371 4.65618 33.5102 2.7939 31.7883C0.931629 30.0663 0 27.8146 0 25.0332C0 21.722 1.46427 18.8088 4.38986 16.5561C5.9868 15.3639 7.31741 14.7024 8.64705 14.7024C9.31236 14.7024 9.845 14.8341 10.244 15.2322C10.643 15.6293 10.9093 16.159 10.9093 16.6888C10.9093 17.4839 10.3767 18.1454 9.44503 18.8078L7.98272 19.7346C7.05109 20.2654 6.38579 21.0595 5.85413 21.9863C5.32149 22.9132 4.9225 23.841 5.05517 24.7678C5.05517 26.2254 5.58781 27.4176 6.51944 28.4771C7.58275 29.4039 8.77972 29.9337 10.3767 29.9337C12.1063 29.9337 13.5705 29.2712 14.9002 28.08C16.2308 26.8878 16.7624 25.2976 16.7624 23.7093C16.7665 22.6422 16.4915 21.5924 15.9645 20.6624C15.4328 19.7356 14.3685 18.4107 12.6389 16.5561C11.441 15.2322 10.643 14.1717 10.1113 13.1122H5.05517C3.32556 13.1122 2.39492 12.5824 2.39492 11.3902C2.39492 10.5961 2.66025 9.93366 3.32556 9.4039C3.8582 9.00683 4.78983 8.74146 5.85413 8.74146H9.04702C9.31236 6.35805 10.3767 4.23805 12.5062 2.64878C14.5002 1.05951 16.8951 0.265366 19.8217 0.265366C21.9503 0.265366 23.6799 0.795122 25.0105 1.98634C26.3401 3.17854 27.0054 4.6361 27.0054 6.48976C27.0054 8.87415 25.9411 10.7288 23.8126 12.0527C22.6156 12.7161 20.7533 13.1122 18.0931 13.1122H16.0971ZM32.3279 11.7883H32.8606C34.4565 11.7883 35.2555 12.318 35.2555 13.5102C35.2555 14.3044 34.9892 14.8341 34.4565 15.2322C33.9249 15.6293 33.1259 15.8937 32.0616 15.8937H30.732L28.2044 22.119H30.333C31.9289 22.119 32.7269 22.6488 32.7269 23.841C32.7269 24.6361 32.4616 25.1659 31.9289 25.5629C31.3973 25.96 30.5983 26.2254 29.6677 26.2254H26.3411C25.4105 26.2254 24.6115 25.96 24.0799 25.5629C23.5472 25.1659 23.2819 24.5034 23.2819 23.7093C23.2819 23.3112 23.4145 22.7815 23.6809 22.119L24.0799 21.3249L26.2085 15.8937H25.9431C24.6115 15.8937 23.8135 15.3639 23.8135 14.3044C23.8135 13.5102 24.0799 12.9805 24.6115 12.4507C25.1442 12.0527 25.9421 11.7873 26.8738 11.7873H27.6717L28.6034 9.27122L28.736 8.74146C29.2687 7.28488 30.2003 6.62244 31.5299 6.62244C32.0616 6.62244 32.4616 6.75512 32.8606 7.15219C33.2595 7.54927 33.3922 7.94732 33.3922 8.34439C33.3922 8.87415 33.2595 9.4039 32.8606 10.198L32.3279 11.7883ZM47.4954 21.9863H49.624C50.422 21.9863 51.0882 22.119 51.4863 22.3844C51.8852 22.6488 52.0189 23.0468 52.0189 23.7083C52.0189 24.5034 51.7536 25.0332 51.2209 25.5629C50.6883 25.96 49.8903 26.2254 48.826 26.2254H45.4995C44.4352 26.2254 43.7699 25.8283 43.3709 25.0332C43.0645 25.405 42.679 25.7049 42.2419 25.911C41.8048 26.1172 41.3272 26.2245 40.8433 26.2254H38.183C37.1187 26.2254 36.1881 25.8283 35.5218 25.1659C34.7238 24.5024 34.4575 23.5756 34.4575 22.5161C34.4575 21.8546 34.5911 21.1922 34.9901 20.3971L37.5177 14.04C38.183 12.318 39.2473 11.3902 40.4443 11.3902C40.9769 11.3902 41.5086 11.5229 41.7749 11.921C42.1739 12.318 42.3066 12.7151 42.3066 13.1122C42.3066 13.5102 42.1739 13.9073 42.0412 14.4371L41.9076 14.9668L39.9126 19.8673L39.6463 20.3971C39.5136 20.6624 39.5136 20.9268 39.5136 21.0605C39.5136 21.5893 39.9126 21.9873 40.5779 21.9873C42.1739 21.9873 43.1055 21.3239 43.6372 20.1327L46.0321 14.3044C46.6974 12.5824 47.7617 11.6556 48.9587 11.6556C49.4913 11.6556 49.8903 11.7883 50.2893 12.1854C50.6883 12.5824 50.8209 12.9805 50.8209 13.5102C50.8209 13.9073 50.6883 14.4371 50.2893 15.3639L47.4954 21.9863ZM58.1384 22.3844H58.8037C59.6017 22.3844 60.2679 22.119 60.5333 21.4576L61.8639 18.1454C61.9966 17.7483 62.1292 17.4839 62.1292 17.2185C62.1292 16.8215 61.9966 16.5561 61.5976 16.2917C61.3322 16.0263 60.9323 15.8937 60.3996 15.8937C59.469 15.8937 58.5374 16.4234 57.7394 17.4839C56.9414 18.5434 56.5424 19.6029 56.5424 20.7951C56.6751 21.8546 57.0741 22.3844 58.1384 22.3844ZM65.1895 21.9863H67.4507C69.0477 21.9863 69.8456 22.5161 69.8456 23.7083C69.8456 24.5034 69.5803 25.0332 68.915 25.4302C68.3823 25.8283 67.5844 26.0927 66.5201 26.0927H63.9925C62.9282 26.0927 62.2629 25.6956 61.7302 24.9005C60.9323 25.6956 60.0006 26.0927 59.07 26.0927H56.6741C55.2098 26.0927 54.1465 25.5629 53.2149 24.6361C52.2842 23.7093 51.8843 22.3844 51.8843 20.7951C51.8843 18.4107 52.6832 16.159 54.4128 14.3044C56.1424 12.318 58.0047 11.3902 60.1323 11.3902C61.7293 11.3902 62.9272 11.921 63.8579 12.9805L68.115 2.64878C68.914 0.926829 69.8447 0 71.1753 0C71.7069 0 72.2396 0.132683 72.6386 0.529756C73.0375 0.926829 73.1712 1.32488 73.1712 1.85463C73.1712 2.25171 73.0375 2.64878 72.9049 3.17854L72.6386 3.70829L65.1885 21.9863H65.1895ZM74.2365 30.7278H71.7079C69.0477 30.7278 67.718 31.5229 67.718 33.3776C67.718 34.04 67.8507 34.4371 68.2487 34.8341C68.6487 35.2322 69.1803 35.3639 69.713 35.3639C70.5109 35.3639 71.3089 34.9668 71.9742 34.3044C72.7722 33.642 73.4385 32.4507 74.2365 30.7288V30.7278ZM81.0212 27.1522H83.2825C84.8795 27.1522 85.6774 27.682 85.6774 28.7424C85.6774 29.5366 85.4121 30.0663 84.8795 30.4634C84.3468 30.8605 83.5488 31.1259 82.4845 31.1259H79.4243C79.0253 32.1854 78.36 33.6429 77.4294 35.3639C75.6988 38.4107 73.3039 40 70.111 40C68.116 40 66.5191 39.3376 65.1885 38.278C63.8579 37.0859 63.1935 35.6293 63.1935 33.9073C63.1935 32.7151 63.5915 31.5229 64.2568 30.4634C64.9222 29.4039 65.9865 28.6098 67.0507 28.079C68.3814 27.4176 70.3773 27.1522 73.0375 27.1522H76.0978L76.6294 25.8283C75.8302 26.1683 74.9713 26.3483 74.1018 26.358C72.7712 26.358 71.5743 25.96 70.7763 25.2976C69.9783 24.6361 69.4457 23.841 69.4457 22.6488C69.4457 21.9863 69.711 21.0595 70.2436 19.7346L72.3722 14.7024L72.6386 14.1717C73.3039 12.7151 74.2355 12.0527 75.4325 12.0527C75.9641 12.0527 76.4968 12.1854 76.8958 12.5824C77.2947 12.9805 77.4284 13.3776 77.4284 13.9073C77.4284 14.3044 77.2947 14.8341 76.8958 15.6293L75.0335 20C74.7672 20.6624 74.6345 21.1922 74.6345 21.3249C74.6345 21.9863 75.0335 22.2517 75.8315 22.2517C76.3641 22.2517 77.0284 22.119 77.5611 21.722C78.2264 21.3249 78.6254 21.0595 78.758 20.5298L81.2856 14.4371L81.4193 13.9073C81.9509 12.4507 83.0152 11.7883 84.3458 11.7883C84.8785 11.7883 85.4101 11.921 85.6764 12.318C86.0754 12.7151 86.2081 13.1122 86.2081 13.642C86.2081 14.04 86.0754 14.4371 85.9428 14.8341L85.6764 15.3639L81.0203 27.1522H81.0212ZM89.1366 20.3971C89.3525 20.726 89.6486 20.9956 89.9973 21.1808C90.346 21.366 90.7361 21.4608 91.1316 21.4566C91.6642 21.4566 92.1959 21.3249 92.5959 20.9268C93.1265 20.5298 93.6592 19.8673 94.0582 19.0732C94.4581 18.278 94.7235 17.4829 94.7235 16.8215C94.7235 16.2917 94.5908 15.8946 94.3245 15.4966C94.0591 15.0995 93.6592 14.9668 93.1275 14.9668C92.0632 14.9668 91.1326 15.762 90.4663 17.4839L89.1366 20.3971ZM92.9939 11.6556C93.5265 11.5229 94.0582 11.3902 94.4581 11.3902C95.9214 11.3902 96.9857 11.921 97.9173 12.9805C98.848 14.04 99.247 15.4976 99.247 17.2185C99.247 20.5298 98.05 23.1795 95.5224 25.1659C94.5908 25.8283 93.6592 26.0927 92.7285 26.0927H90.9989C89.801 26.0927 88.7367 25.6956 87.9387 24.7678C87.407 25.6946 86.6081 26.0927 85.5438 26.0927C85.0121 26.0927 84.6131 25.96 84.2141 25.5629C83.8152 25.1659 83.6815 24.7678 83.6815 24.238C83.6815 23.841 83.8152 23.4439 83.9468 22.9141L84.2141 22.3844L91.9286 2.78049L92.1949 2.25073C92.7275 0.795122 93.6592 0.132683 94.8561 0.132683C95.3878 0.132683 95.9204 0.265366 96.1858 0.662439C96.5857 1.05951 96.7184 1.45659 96.7184 1.98634C96.7184 2.38439 96.5857 2.78146 96.4531 3.31122L96.1858 3.84098L92.9929 11.6556H92.9939ZM106.43 22.3844H106.83C107.894 22.3844 108.559 21.9863 108.825 21.1922L110.155 18.1454C110.288 17.7483 110.421 17.3512 110.421 17.0859C110.421 16.8215 110.288 16.5561 110.023 16.2917C109.623 16.0263 109.224 15.8937 108.825 15.8937C107.894 15.8937 107.095 16.4234 106.164 17.3512C105.365 18.4107 104.834 19.4702 104.834 20.5298C104.834 21.8546 105.365 22.3834 106.43 22.3834V22.3844ZM113.348 21.9863H115.477C117.073 21.9863 117.872 22.5161 117.872 23.7083C117.872 24.5034 117.605 25.0332 117.073 25.5629C116.541 25.96 115.743 26.2254 114.679 26.2254H112.151C111.087 26.2254 110.288 25.8283 109.889 24.9005C108.958 25.6956 108.027 26.2254 107.095 26.2254H104.966C103.503 26.2254 102.439 25.6956 101.507 24.7678C100.577 23.841 100.178 22.5161 100.178 20.7951C100.178 18.4107 100.976 16.159 102.705 14.3044C104.435 12.4507 106.297 11.3902 108.426 11.3902C110.023 11.3902 111.22 11.921 112.018 13.1122C112.683 12.1854 113.482 11.6556 114.545 11.6556C115.078 11.6556 115.609 11.7883 116.009 12.1854C116.408 12.5824 116.54 12.9805 116.54 13.5102C116.54 13.9073 116.408 14.3044 116.275 14.8341L116.009 15.3639L113.348 21.9863ZM122.527 30.7278H120C117.339 30.7278 116.008 31.5229 116.008 33.3776C116.008 34.04 116.142 34.4371 116.541 34.8341C116.94 35.2322 117.339 35.3639 118.005 35.3639C118.802 35.3639 119.601 34.9668 120.266 34.3044C120.931 33.642 121.73 32.4507 122.528 30.7288L122.527 30.7278ZM129.313 27.1522H131.574C133.171 27.1522 133.969 27.682 133.969 28.7424C133.969 29.5366 133.703 30.0663 133.171 30.4634C132.638 30.8605 131.84 31.1259 130.776 31.1259H127.716C127.317 32.1854 126.651 33.6429 125.721 35.3639C123.991 38.4107 121.596 40 118.403 40C116.408 40 114.811 39.3376 113.481 38.278C112.151 37.0859 111.486 35.6293 111.486 33.9073C111.486 32.7151 111.885 31.5229 112.55 30.4634C113.216 29.4039 114.28 28.6098 115.344 28.079C116.674 27.4176 118.67 27.1522 121.33 27.1522H124.39L124.923 25.8283C124.123 26.1684 123.264 26.3484 122.394 26.358C121.065 26.358 119.867 25.96 119.069 25.2976C118.271 24.6361 117.738 23.841 117.738 22.6488C117.738 21.9863 118.004 21.0595 118.537 19.7346L120.666 14.7024L120.931 14.1717C121.596 12.7151 122.528 12.0527 123.725 12.0527C124.257 12.0527 124.789 12.1854 125.189 12.5824C125.587 12.9805 125.72 13.3776 125.72 13.9073C125.72 14.3044 125.587 14.8341 125.189 15.6293L123.326 20C123.061 20.6624 122.927 21.1922 122.927 21.3249C122.927 21.9863 123.326 22.2517 124.124 22.2517C124.656 22.2517 125.322 22.119 125.853 21.722C126.519 21.3249 126.918 21.0595 127.051 20.5298L129.579 14.4371L129.844 13.9073C130.377 12.4507 131.441 11.7883 132.638 11.7883C133.171 11.7883 133.703 11.921 134.102 12.318C134.501 12.7151 134.634 13.1122 134.634 13.642C134.634 14.04 134.501 14.4371 134.369 14.8341L134.101 15.3639L129.313 27.1522Z" fill="white"/>
</svg>
