<svg width="19" height="18" viewBox="0 0 19 18" fill="none" xmlns="http://www.w3.org/2000/svg">
<path fill-rule="evenodd" clip-rule="evenodd" d="M3.85152 8.0562C1.96256 9.8991 1.96256 12.8871 3.85152 14.7301C5.74048 16.5731 8.8031 16.5731 10.6921 14.7301L16.8485 8.7236C17.2263 8.355 17.8389 8.355 18.2167 8.7236C18.5944 9.0921 18.5944 9.6898 18.2167 10.0583L12.0602 16.0649C9.4156 18.645 5.12796 18.645 2.48341 16.0649C-0.161138 13.4848 -0.161138 9.3015 2.48341 6.72137L7.9558 1.38222C9.8448 -0.46074 12.9074 -0.46074 14.7964 1.38222C16.6853 3.22518 16.6853 6.2132 14.7964 8.0562L9.324 13.3953C8.1906 14.5011 6.35301 14.5011 5.21963 13.3953C4.08625 12.2895 4.08625 10.4967 5.21963 9.391L10.6921 4.0518C11.0699 3.6832 11.6824 3.6832 12.0602 4.0518C12.438 4.42039 12.438 5.01799 12.0602 5.38658L6.58774 10.7257C6.20994 11.0943 6.20994 11.6919 6.58774 12.0605C6.96553 12.4291 7.5781 12.4291 7.9558 12.0605L13.4283 6.72137C14.5617 5.6156 14.5617 3.82278 13.4283 2.71701C12.2949 1.61123 10.4573 1.61123 9.324 2.71701L3.85152 8.0562Z" fill="white"/>
</svg>
