<svg width="185" height="33" viewBox="0 0 185 33" fill="none" xmlns="http://www.w3.org/2000/svg">
<path fill-rule="evenodd" clip-rule="evenodd" d="M0 7.15245V0.511719H38.3709V27.0746H11.5135V20.4339H30.6786V17.1214H11.5135V10.4806H30.6786V7.15245H0ZM7.66966 10.4767H0V27.0746H7.66966V10.4767Z" fill="#EA4C14"/>
<path fill-rule="evenodd" clip-rule="evenodd" d="M46.7617 26.895V0.511719H52.708V6.29697H73.5243V26.895H46.7617ZM67.5781 21.7464V11.4494H52.6899V21.7464H67.5781Z" fill="#1A1A1A"/>
<path fill-rule="evenodd" clip-rule="evenodd" d="M76.4961 5.00789V0.511719H82.4423V5.00789H76.4961ZM76.4961 26.8832V6.29697H82.4423V26.895L76.4961 26.8832Z" fill="#1A1A1A"/>
<path fill-rule="evenodd" clip-rule="evenodd" d="M85.4141 26.8949V6.29688H112.181V26.8949H106.23V11.4454H101.773V26.8949H95.8222V11.4454H91.3648V26.8949H85.4141Z" fill="#1A1A1A"/>
<path fill-rule="evenodd" clip-rule="evenodd" d="M115.156 32.6801V6.29688H141.919V26.8949H121.102V32.6801H115.156ZM135.968 21.7424V11.4493H121.102V21.7463L135.968 21.7424Z" fill="#1A1A1A"/>
<path fill-rule="evenodd" clip-rule="evenodd" d="M150.837 11.4454V26.8949H144.891V6.29688H155.29V11.4454H150.837Z" fill="#1A1A1A"/>
<path fill-rule="evenodd" clip-rule="evenodd" d="M158.238 26.8949V6.29688H185.001V26.8949H158.238ZM179.073 21.7463V11.4493H164.185V21.7463H179.073Z" fill="#1A1A1A"/>
</svg>
