<svg width="32" height="32" viewBox="0 0 32 32" fill="none" xmlns="http://www.w3.org/2000/svg">
<path fill-rule="evenodd" clip-rule="evenodd" d="M17.23 2.85718H18.7441C21.3573 2.85718 23.4757 4.97558 23.4757 7.58876V11.9418H27.7477C29.4649 11.9418 30.857 13.3339 30.857 15.0511V22.5946C30.857 23.7146 29.9491 24.6224 28.8292 24.6224H28.7751V24.9199C28.7751 26.6371 27.383 28.0292 25.6658 28.0292H15.04C13.3228 28.0292 11.9307 26.6371 11.9307 24.9199V12.0449L12.2984 11.7608C12.5859 11.5386 12.9653 11.2653 13.3824 10.9737C15.7589 9.31197 17.23 6.65764 17.23 3.80349V2.85718ZM26.8825 24.6224H24.8006C24.2779 24.6224 23.8542 24.1988 23.8542 23.6761C23.8542 23.1535 24.2779 22.7298 24.8006 22.7298H28.8292C28.9038 22.7298 28.9643 22.6693 28.9643 22.5946V21.0264H24.8006C24.2779 21.0264 23.8542 20.6028 23.8542 20.0801C23.8542 19.5575 24.2779 19.1338 24.8006 19.1338H28.9643V17.4304H24.8006C24.2779 17.4304 23.8542 17.0068 23.8542 16.4841C23.8542 15.9615 24.2779 15.5378 24.8006 15.5378H28.9643V15.0511C28.9643 14.3792 28.4196 13.8344 27.7477 13.8344H19.1227C18.6 13.8344 18.1763 13.4108 18.1763 12.8881C18.1763 12.3655 18.6 11.9418 19.1227 11.9418H21.5831V7.58876C21.5831 6.13345 20.488 4.9339 19.077 4.76911C18.7795 7.90374 17.0492 10.7192 14.4669 12.5248C14.2302 12.6903 14.013 12.8448 13.8233 12.9833V24.9199C13.8233 25.5918 14.368 26.1365 15.04 26.1365H25.6658C26.3377 26.1365 26.8825 25.5918 26.8825 24.9199V24.6224Z" fill="white"/>
<path d="M6.06398 25.0008C6.9002 25.0008 7.57808 24.323 7.57808 23.4867C7.57808 22.6505 6.9002 21.9726 6.06398 21.9726C5.22776 21.9726 4.54987 22.6505 4.54987 23.4867C4.54987 24.323 5.22776 25.0008 6.06398 25.0008Z" fill="white"/>
<path fill-rule="evenodd" clip-rule="evenodd" d="M1.14307 12.9025C1.14307 11.6402 2.16642 10.6168 3.42878 10.6168H6.03479C8.55952 10.6168 10.6062 12.6635 10.6062 15.1882V24.2147C10.6062 26.7394 8.55952 28.7861 6.03479 28.7861H3.42878C2.16642 28.7861 1.14307 27.7627 1.14307 26.5004V12.9025ZM3.42878 12.6168H6.03479C7.45495 12.6168 8.60622 13.7681 8.60622 15.1882V24.2147C8.60622 25.6348 7.45495 26.7861 6.03479 26.7861H3.42878C3.27099 26.7861 3.14307 26.6582 3.14307 26.5004V12.9025C3.14307 12.7447 3.27099 12.6168 3.42878 12.6168Z" fill="white"/>
</svg>
