<svg width="140" height="40" viewBox="0 0 140 40" fill="none" xmlns="http://www.w3.org/2000/svg">
<rect width="140" height="40" rx="4" fill="black"/>
<path d="M40.9072 20.6185C40.8851 18.1614 42.9191 16.966 43.0121 16.9104C41.8602 15.2309 40.0747 15.0014 39.4473 14.9831C37.9478 14.8253 36.4932 15.8804 35.7293 15.8804C34.9502 15.8804 33.7738 14.9984 32.506 15.0243C30.8746 15.0495 29.3484 15.994 28.5113 17.4608C26.7838 20.4515 28.0722 24.8465 29.7272 27.264C30.5552 28.4479 31.5226 29.7698 32.7889 29.7233C34.0277 29.6722 34.4905 28.9335 35.9854 28.9335C37.4667 28.9335 37.9012 29.7233 39.1927 29.6936C40.5222 29.6722 41.3593 28.5043 42.1583 27.3097C43.115 25.9527 43.4992 24.6163 43.5145 24.5477C43.4832 24.537 40.9324 23.5635 40.9072 20.6185Z" fill="white"/>
<path d="M38.4676 13.3928C39.1339 12.5595 39.5898 11.4259 39.4633 10.2755C38.4989 10.3182 37.2928 10.9426 36.5983 11.7575C35.9839 12.4757 35.435 13.6528 35.5768 14.7597C36.6601 14.8405 37.7724 14.2131 38.4676 13.3928Z" fill="white"/>
<path d="M60.0797 28.0192H58.3484L57.4001 25.0392H54.1036L53.2002 28.0192H51.5146L54.7806 17.8738H56.7978L60.0797 28.0192ZM57.1142 23.7889L56.2565 21.1397C56.1658 20.8691 55.9958 20.2318 55.745 19.2285H55.7145C55.6146 19.66 55.4538 20.2973 55.2327 21.1397L54.3903 23.7889H57.1142Z" fill="white"/>
<path d="M68.4785 24.2715C68.4785 25.5157 68.1423 26.4991 67.4699 27.2211C66.8677 27.8637 66.1198 28.1847 65.2271 28.1847C64.2635 28.1847 63.5712 27.8386 63.1497 27.1463H63.1192V31.0001H61.4938V23.1119C61.4938 22.3298 61.4732 21.527 61.4336 20.7037H62.863L62.9537 21.8632H62.9842C63.5263 20.9895 64.3489 20.5535 65.4527 20.5535C66.3157 20.5535 67.0362 20.8942 67.6125 21.5766C68.1904 22.2596 68.4785 23.1577 68.4785 24.2715ZM66.8227 24.331C66.8227 23.6189 66.6626 23.0319 66.3409 22.5699C65.9894 22.0881 65.5175 21.8472 64.926 21.8472C64.525 21.8472 64.1605 21.9814 63.835 22.2459C63.5087 22.5127 63.2953 22.8611 63.1954 23.2926C63.1451 23.4939 63.1199 23.6586 63.1199 23.7882V25.0079C63.1199 25.5401 63.2831 25.9891 63.6094 26.3558C63.9357 26.7225 64.3595 26.9054 64.881 26.9054C65.4931 26.9054 65.9696 26.6691 66.3104 26.198C66.6519 25.7261 66.8227 25.104 66.8227 24.331Z" fill="white"/>
<path d="M76.8928 24.2715C76.8928 25.5157 76.5566 26.4991 75.8835 27.2211C75.282 27.8637 74.5341 28.1847 73.6414 28.1847C72.6777 28.1847 71.9855 27.8386 71.5647 27.1463H71.5342V31.0001H69.9089V23.1119C69.9089 22.3298 69.8883 21.527 69.8486 20.7037H71.2781L71.3688 21.8632H71.3993C71.9405 20.9895 72.7631 20.5535 73.8678 20.5535C74.73 20.5535 75.4504 20.8942 76.0283 21.5766C76.6039 22.2596 76.8928 23.1577 76.8928 24.2715ZM75.237 24.331C75.237 23.6189 75.0761 23.0319 74.7544 22.5699C74.403 22.0881 73.9326 21.8472 73.3402 21.8472C72.9385 21.8472 72.5748 21.9814 72.2485 22.2459C71.9222 22.5127 71.7095 22.8611 71.6097 23.2926C71.5601 23.4939 71.5342 23.6586 71.5342 23.7882V25.0079C71.5342 25.5401 71.6973 25.9891 72.0221 26.3558C72.3484 26.7217 72.7723 26.9054 73.2953 26.9054C73.9074 26.9054 74.3839 26.6691 74.7247 26.198C75.0662 25.7261 75.237 25.104 75.237 24.331Z" fill="white"/>
<path d="M86.3004 25.1741C86.3004 26.0371 86.0008 26.7392 85.3993 27.2813C84.7383 27.8736 83.8181 28.1694 82.6357 28.1694C81.544 28.1694 80.6688 27.959 80.0063 27.5374L80.383 26.1827C81.0965 26.6142 81.8795 26.8307 82.7325 26.8307C83.3447 26.8307 83.8212 26.6919 84.1635 26.416C84.5043 26.14 84.6743 25.7695 84.6743 25.3075C84.6743 24.8958 84.534 24.549 84.2527 24.2677C83.9729 23.9863 83.5056 23.7249 82.853 23.4832C81.0767 22.8207 80.1893 21.8502 80.1893 20.574C80.1893 19.74 80.5004 19.0562 81.1232 18.524C81.7438 17.9912 82.5717 17.7251 83.607 17.7251C84.5302 17.7251 85.2971 17.886 85.9093 18.2069L85.5029 19.5319C84.9312 19.2208 84.2847 19.0653 83.5612 19.0653C82.9895 19.0653 82.5427 19.2064 82.2225 19.4869C81.9519 19.7377 81.8162 20.0434 81.8162 20.4055C81.8162 20.8065 81.9709 21.1382 82.282 21.3989C82.5526 21.6398 83.0443 21.9005 83.7579 22.1818C84.6308 22.5333 85.272 22.9442 85.6844 23.4153C86.0953 23.8849 86.3004 24.4727 86.3004 25.1741Z" fill="white"/>
<path d="M91.674 21.9234H89.8824V25.4753C89.8824 26.3786 90.198 26.83 90.8308 26.83C91.1213 26.83 91.3622 26.8048 91.5528 26.7545L91.5977 27.9887C91.2775 28.1084 90.856 28.1687 90.3337 28.1687C89.6918 28.1687 89.1902 27.9727 88.8281 27.5816C88.4675 27.1898 88.286 26.5326 88.286 25.6094V21.9219H87.2188V20.7021H88.286V19.3627L89.8824 18.8809V20.7021H91.674V21.9234Z" fill="white"/>
<path d="M99.7572 24.3013C99.7572 25.4258 99.4355 26.349 98.7936 27.071C98.1204 27.8143 97.2269 28.1848 96.1131 28.1848C95.0397 28.1848 94.1851 27.8287 93.5478 27.1167C92.9105 26.4047 92.5918 25.5058 92.5918 24.4225C92.5918 23.2889 92.9196 22.3603 93.5775 21.6384C94.2339 20.9157 95.1198 20.5543 96.2336 20.5543C97.307 20.5543 98.1707 20.9103 98.8225 21.6231C99.4462 22.3146 99.7572 23.2073 99.7572 24.3013ZM98.0709 24.3539C98.0709 23.6792 97.9268 23.1006 97.6348 22.618C97.294 22.0341 96.8069 21.7428 96.1756 21.7428C95.5223 21.7428 95.026 22.0348 94.6852 22.618C94.3933 23.1014 94.2492 23.6891 94.2492 24.3844C94.2492 25.0591 94.3933 25.6377 94.6852 26.1195C95.0367 26.7035 95.5276 26.9947 96.1612 26.9947C96.7817 26.9947 97.2689 26.6974 97.6203 26.1043C97.9199 25.6126 98.0709 25.0278 98.0709 24.3539Z" fill="white"/>
<path d="M105.04 22.1331C104.88 22.1033 104.708 22.0881 104.528 22.0881C103.956 22.0881 103.514 22.3038 103.203 22.7361C102.932 23.1173 102.797 23.5991 102.797 24.1808V28.0192H101.172L101.187 23.0075C101.187 22.1643 101.167 21.3966 101.126 20.7044H102.542L102.602 22.1041H102.647C102.818 21.6231 103.089 21.2358 103.459 20.9453C103.821 20.6838 104.212 20.5535 104.634 20.5535C104.784 20.5535 104.92 20.5641 105.04 20.5832V22.1331Z" fill="white"/>
<path d="M112.309 24.0154C112.309 24.3066 112.29 24.5521 112.25 24.7526H107.374C107.393 25.4753 107.629 26.028 108.081 26.4092C108.492 26.75 109.024 26.9207 109.676 26.9207C110.398 26.9207 111.057 26.8056 111.649 26.5746L111.904 27.7029C111.212 28.0048 110.394 28.155 109.451 28.155C108.317 28.155 107.427 27.8211 106.779 27.154C106.132 26.4869 105.808 25.5912 105.808 24.4675C105.808 23.3643 106.109 22.4457 106.712 21.7131C107.343 20.9309 108.197 20.5398 109.27 20.5398C110.324 20.5398 111.123 20.9309 111.665 21.7131C112.094 22.3344 112.309 23.1028 112.309 24.0154ZM110.76 23.5938C110.77 23.112 110.664 22.6957 110.444 22.3443C110.163 21.8922 109.73 21.6666 109.149 21.6666C108.617 21.6666 108.185 21.8869 107.855 22.329C107.584 22.6805 107.424 23.1021 107.374 23.593H110.76V23.5938Z" fill="white"/>
<path d="M56.5764 11.6325C56.5764 12.5298 56.3073 13.2053 55.7698 13.6589C55.272 14.0774 54.5645 14.2871 53.6482 14.2871C53.1938 14.2871 52.805 14.2672 52.4795 14.2276V9.32487C52.9041 9.25626 53.3615 9.22119 53.8555 9.22119C54.7284 9.22119 55.3864 9.41102 55.8301 9.79067C56.3271 10.2199 56.5764 10.8336 56.5764 11.6325ZM55.734 11.6546C55.734 11.073 55.58 10.627 55.272 10.3159C54.964 10.0057 54.5142 9.85014 53.9219 9.85014C53.6703 9.85014 53.4561 9.86691 53.2784 9.90198V13.6291C53.3768 13.6444 53.5567 13.6513 53.8182 13.6513C54.4296 13.6513 54.9015 13.4812 55.2339 13.1412C55.5663 12.8012 55.734 12.3057 55.734 11.6546Z" fill="white"/>
<path d="M61.0432 12.4161C61.0432 12.9688 60.8854 13.4217 60.5698 13.7769C60.239 14.1421 59.8006 14.3243 59.2532 14.3243C58.7257 14.3243 58.3056 14.1497 57.9923 13.7991C57.6797 13.4491 57.5234 13.0077 57.5234 12.4756C57.5234 11.9191 57.6843 11.4624 58.0075 11.1079C58.3308 10.7534 58.7653 10.5758 59.3127 10.5758C59.8402 10.5758 60.2641 10.7504 60.5851 11.1003C60.89 11.4403 61.0432 11.8794 61.0432 12.4161ZM60.2146 12.4421C60.2146 12.1104 60.1429 11.8261 60.0003 11.589C59.8326 11.3023 59.594 11.159 59.2837 11.159C58.9628 11.159 58.7188 11.3023 58.5511 11.589C58.4078 11.8261 58.3369 12.115 58.3369 12.4565C58.3369 12.7882 58.4085 13.0725 58.5511 13.3096C58.7242 13.5963 58.9651 13.7396 59.2761 13.7396C59.581 13.7396 59.8204 13.594 59.9927 13.302C60.1406 13.0603 60.2146 12.7737 60.2146 12.4421Z" fill="white"/>
<path d="M67.0326 10.6489L65.9081 14.2427H65.1762L64.7104 12.6821C64.5923 12.2926 64.4962 11.9053 64.4215 11.5211H64.407C64.3377 11.916 64.2416 12.3025 64.1181 12.6821L63.6233 14.2427H62.8831L61.8257 10.6489H62.6467L63.0531 12.3574C63.1514 12.7614 63.2322 13.1464 63.297 13.5108H63.3115C63.371 13.2104 63.4693 12.8277 63.6081 12.365L64.1181 10.6497H64.7691L65.2578 12.3284C65.376 12.7378 65.472 13.1319 65.546 13.5116H65.5681C65.6222 13.1418 65.7038 12.7477 65.8121 12.3284L66.2481 10.6497H67.0326V10.6489Z" fill="white"/>
<path d="M71.1745 14.2427H70.3755V12.1843C70.3755 11.5501 70.1346 11.2329 69.6513 11.2329C69.4142 11.2329 69.2228 11.3198 69.0742 11.4944C68.927 11.669 68.8523 11.8748 68.8523 12.1104V14.242H68.0534V11.6759C68.0534 11.3602 68.0435 11.0179 68.0244 10.6474H68.7265L68.7639 11.2093H68.786C68.879 11.0347 69.0178 10.8906 69.2 10.7755C69.4165 10.6413 69.6589 10.5735 69.9242 10.5735C70.2596 10.5735 70.5387 10.6817 70.7605 10.899C71.0365 11.1651 71.1745 11.5623 71.1745 12.0898V14.2427Z" fill="white"/>
<path d="M73.3773 14.2427H72.5791V9H73.3773V14.2427Z" fill="white"/>
<path d="M78.0818 12.4161C78.0818 12.9688 77.924 13.4217 77.6084 13.7769C77.2775 14.1421 76.8384 14.3243 76.2918 14.3243C75.7635 14.3243 75.3434 14.1497 75.0309 13.7991C74.7183 13.4491 74.562 13.0077 74.562 12.4756C74.562 11.9191 74.7229 11.4624 75.0461 11.1079C75.3693 10.7534 75.8039 10.5758 76.3505 10.5758C76.8788 10.5758 77.3019 10.7504 77.6236 11.1003C77.9286 11.4403 78.0818 11.8794 78.0818 12.4161ZM77.2524 12.4421C77.2524 12.1104 77.1807 11.8261 77.0381 11.589C76.8712 11.3023 76.6318 11.159 76.3223 11.159C76.0006 11.159 75.7566 11.3023 75.5897 11.589C75.4463 11.8261 75.3754 12.115 75.3754 12.4565C75.3754 12.7882 75.4471 13.0725 75.5897 13.3096C75.7627 13.5963 76.0036 13.7396 76.3147 13.7396C76.6196 13.7396 76.8582 13.594 77.0305 13.302C77.1792 13.0603 77.2524 12.7737 77.2524 12.4421Z" fill="white"/>
<path d="M81.9479 14.2427H81.2305L81.171 13.8288H81.1489C80.9035 14.1589 80.5535 14.3243 80.0992 14.3243C79.7599 14.3243 79.4855 14.2153 79.2789 13.9988C79.0913 13.8021 78.9976 13.5574 78.9976 13.2669C78.9976 12.8278 79.1805 12.4931 79.5487 12.2614C79.9162 12.0296 80.4331 11.916 81.0986 11.9214V11.8543C81.0986 11.3809 80.8501 11.1445 80.3523 11.1445C79.9978 11.1445 79.6852 11.2337 79.4153 11.4106L79.2529 10.8861C79.5869 10.6795 79.9993 10.5758 80.4857 10.5758C81.4249 10.5758 81.896 11.0713 81.896 12.0624V13.3859C81.896 13.7449 81.9136 14.0308 81.9479 14.2427ZM81.1184 13.0077V12.4535C80.2372 12.4382 79.7965 12.6799 79.7965 13.1777C79.7965 13.3653 79.8468 13.5055 79.9497 13.5993C80.0527 13.6931 80.1838 13.7396 80.3401 13.7396C80.5154 13.7396 80.6793 13.6839 80.8287 13.5734C80.9789 13.4621 81.0712 13.3211 81.1055 13.148C81.1139 13.1091 81.1184 13.0619 81.1184 13.0077Z" fill="white"/>
<path d="M86.4877 14.2427H85.7787L85.7414 13.6656H85.7193C85.4929 14.1047 85.1071 14.3243 84.5651 14.3243C84.1321 14.3243 83.7715 14.1543 83.4856 13.8143C83.1997 13.4743 83.0571 13.0329 83.0571 12.4908C83.0571 11.9092 83.2119 11.438 83.5229 11.0782C83.8241 10.7428 84.193 10.575 84.6322 10.575C85.1147 10.575 85.4525 10.7374 85.6446 11.0629H85.6598V9H86.4595V13.2745C86.4595 13.6245 86.4687 13.9469 86.4877 14.2427ZM85.6598 12.7272V12.128C85.6598 12.0243 85.6522 11.9404 85.6377 11.8764C85.5927 11.6843 85.4959 11.5226 85.3488 11.3923C85.2001 11.2619 85.021 11.1964 84.8144 11.1964C84.5163 11.1964 84.283 11.3145 84.1115 11.5516C83.9415 11.7887 83.8553 12.0914 83.8553 12.4611C83.8553 12.8164 83.9369 13.1045 84.1008 13.3264C84.2738 13.5627 84.5071 13.6809 84.7991 13.6809C85.0614 13.6809 85.271 13.5825 85.4303 13.3851C85.5843 13.2029 85.6598 12.9833 85.6598 12.7272Z" fill="white"/>
<path d="M93.3206 12.4161C93.3206 12.9688 93.1628 13.4217 92.8472 13.7769C92.5163 14.1421 92.0787 14.3243 91.5306 14.3243C91.0038 14.3243 90.5837 14.1497 90.2696 13.7991C89.9571 13.4491 89.8008 13.0077 89.8008 12.4756C89.8008 11.9191 89.9616 11.4624 90.2849 11.1079C90.6081 10.7534 91.0427 10.5758 91.5908 10.5758C92.1176 10.5758 92.5422 10.7504 92.8624 11.1003C93.1674 11.4403 93.3206 11.8794 93.3206 12.4161ZM92.4927 12.4421C92.4927 12.1104 92.421 11.8261 92.2784 11.589C92.11 11.3023 91.8721 11.159 91.5611 11.159C91.2409 11.159 90.9969 11.3023 90.8284 11.589C90.6851 11.8261 90.6142 12.115 90.6142 12.4565C90.6142 12.7882 90.6859 13.0725 90.8284 13.3096C91.0015 13.5963 91.2424 13.7396 91.5534 13.7396C91.8584 13.7396 92.0985 13.594 92.2708 13.302C92.418 13.0603 92.4927 12.7737 92.4927 12.4421Z" fill="white"/>
<path d="M97.6166 14.2427H96.8184V12.1843C96.8184 11.5501 96.5775 11.2329 96.0934 11.2329C95.8563 11.2329 95.6649 11.3198 95.5171 11.4944C95.3692 11.669 95.2952 11.8748 95.2952 12.1104V14.242H94.4955V11.6759C94.4955 11.3602 94.4863 11.0179 94.4673 10.6474H95.1687L95.206 11.2093H95.2281C95.3219 11.0347 95.4606 10.8906 95.6421 10.7755C95.8593 10.6413 96.101 10.5735 96.3671 10.5735C96.7018 10.5735 96.9808 10.6817 97.2026 10.899C97.4794 11.1651 97.6166 11.5623 97.6166 12.0898V14.2427Z" fill="white"/>
<path d="M102.993 11.2475H102.114V12.9933C102.114 13.437 102.27 13.6588 102.579 13.6588C102.723 13.6588 102.842 13.6466 102.935 13.6215L102.956 14.2275C102.798 14.287 102.591 14.3167 102.335 14.3167C102.02 14.3167 101.774 14.2207 101.597 14.0286C101.418 13.8365 101.33 13.5132 101.33 13.0596V11.2475H100.805V10.649H101.33V9.99036L102.113 9.75403V10.6483H102.993V11.2475H102.993Z" fill="white"/>
<path d="M107.224 14.2427H106.424V12.1996C106.424 11.5554 106.183 11.2329 105.7 11.2329C105.33 11.2329 105.077 11.4197 104.938 11.7933C104.914 11.8718 104.901 11.9679 104.901 12.0807V14.242H104.103V9H104.901V11.1659H104.916C105.168 10.7717 105.528 10.575 105.995 10.575C106.326 10.575 106.6 10.6833 106.817 10.9006C107.088 11.1712 107.224 11.5737 107.224 12.1058V14.2427Z" fill="white"/>
<path d="M111.586 12.2759C111.586 12.4192 111.575 12.5397 111.556 12.638H109.16C109.171 12.9933 109.285 13.2639 109.507 13.4514C109.71 13.6192 109.971 13.703 110.292 13.703C110.646 13.703 110.969 13.6466 111.261 13.533L111.386 14.088C111.045 14.2359 110.644 14.3099 110.18 14.3099C109.623 14.3099 109.185 14.146 108.868 13.8181C108.549 13.4903 108.391 13.0504 108.391 12.4985C108.391 11.9565 108.538 11.5051 108.835 11.1453C109.144 10.7611 109.563 10.569 110.091 10.569C110.608 10.569 111.001 10.7611 111.266 11.1453C111.48 11.4503 111.586 11.8276 111.586 12.2759ZM110.824 12.0693C110.83 11.8322 110.777 11.6279 110.669 11.4556C110.53 11.2337 110.319 11.1224 110.033 11.1224C109.773 11.1224 109.56 11.2307 109.397 11.448C109.265 11.621 109.186 11.8276 109.16 12.0693H110.824Z" fill="white"/>
</svg>
