<svg width="95" height="40" viewBox="0 0 95 40" fill="none" xmlns="http://www.w3.org/2000/svg">
<rect width="94.5" height="40" rx="4" fill="black"/>
<path d="M18.1567 20.6185C18.1346 18.1614 20.1686 16.966 20.2616 16.9104C19.1097 15.2309 17.3242 15.0014 16.6968 14.9831C15.1973 14.8253 13.7427 15.8804 12.9788 15.8804C12.1997 15.8804 11.0234 14.9984 9.75555 15.0243C8.12411 15.0495 6.59787 15.994 5.7608 17.4608C4.0333 20.4515 5.32168 24.8465 6.97676 27.264C7.80468 28.4479 8.77211 29.7698 10.0384 29.7233C11.2772 29.6722 11.74 28.9335 13.235 28.9335C14.7162 28.9335 15.1508 29.7233 16.4422 29.6936C17.7717 29.6722 18.6088 28.5043 19.4078 27.3097C20.3645 25.9527 20.7488 24.6163 20.764 24.5477C20.7327 24.537 18.1819 23.5635 18.1567 20.6185Z" fill="white"/>
<path d="M15.7171 13.3928C16.3834 12.5595 16.8393 11.4259 16.7128 10.2755C15.7484 10.3182 14.5423 10.9426 13.8478 11.7575C13.2334 12.4757 12.6845 13.6528 12.8263 14.7597C13.9096 14.8405 15.0219 14.2131 15.7171 13.3928Z" fill="white"/>
<path d="M37.3297 28.0192H35.5984L34.6501 25.0392H31.3536L30.4502 28.0192H28.7646L32.0306 17.8738H34.0478L37.3297 28.0192ZM34.3642 23.7889L33.5065 21.1397C33.4158 20.8691 33.2458 20.2318 32.995 19.2285H32.9645C32.8646 19.66 32.7038 20.2973 32.4827 21.1397L31.6403 23.7889H34.3642Z" fill="white"/>
<path d="M45.7285 24.2715C45.7285 25.5157 45.3923 26.4991 44.7199 27.2211C44.1177 27.8637 43.3698 28.1847 42.4771 28.1847C41.5135 28.1847 40.8212 27.8386 40.3997 27.1463H40.3692V31.0001H38.7438V23.1119C38.7438 22.3298 38.7232 21.527 38.6836 20.7037H40.113L40.2037 21.8632H40.2342C40.7763 20.9895 41.5989 20.5535 42.7027 20.5535C43.5657 20.5535 44.2862 20.8942 44.8625 21.5766C45.4404 22.2596 45.7285 23.1577 45.7285 24.2715ZM44.0727 24.331C44.0727 23.6189 43.9126 23.0319 43.5909 22.5699C43.2394 22.0881 42.7675 21.8472 42.176 21.8472C41.775 21.8472 41.4105 21.9814 41.085 22.2459C40.7587 22.5127 40.5453 22.8611 40.4454 23.2926C40.3951 23.4939 40.3699 23.6586 40.3699 23.7882V25.0079C40.3699 25.5401 40.5331 25.9891 40.8594 26.3558C41.1857 26.7225 41.6095 26.9054 42.131 26.9054C42.7431 26.9054 43.2196 26.6691 43.5604 26.198C43.9019 25.7261 44.0727 25.104 44.0727 24.331Z" fill="white"/>
<path d="M54.1428 24.2715C54.1428 25.5157 53.8066 26.4991 53.1335 27.2211C52.532 27.8637 51.7841 28.1847 50.8914 28.1847C49.9277 28.1847 49.2355 27.8386 48.8147 27.1463H48.7842V31.0001H47.1589V23.1119C47.1589 22.3298 47.1383 21.527 47.0986 20.7037H48.5281L48.6188 21.8632H48.6493C49.1905 20.9895 50.0131 20.5535 51.1178 20.5535C51.98 20.5535 52.7004 20.8942 53.2783 21.5766C53.8539 22.2596 54.1428 23.1577 54.1428 24.2715ZM52.487 24.331C52.487 23.6189 52.3261 23.0319 52.0044 22.5699C51.653 22.0881 51.1826 21.8472 50.5902 21.8472C50.1885 21.8472 49.8248 21.9814 49.4985 22.2459C49.1722 22.5127 48.9595 22.8611 48.8597 23.2926C48.8101 23.4939 48.7842 23.6586 48.7842 23.7882V25.0079C48.7842 25.5401 48.9473 25.9891 49.2721 26.3558C49.5984 26.7217 50.0223 26.9054 50.5453 26.9054C51.1574 26.9054 51.6339 26.6691 51.9747 26.198C52.3162 25.7261 52.487 25.104 52.487 24.331Z" fill="white"/>
<path d="M63.5499 25.1741C63.5499 26.0371 63.2503 26.7392 62.6488 27.2813C61.9878 27.8736 61.0677 28.1694 59.8852 28.1694C58.7935 28.1694 57.9183 27.959 57.2559 27.5374L57.6325 26.1827C58.346 26.6142 59.129 26.8307 59.9821 26.8307C60.5942 26.8307 61.0707 26.6919 61.413 26.416C61.7538 26.14 61.9238 25.7695 61.9238 25.3075C61.9238 24.8958 61.7835 24.549 61.5022 24.2677C61.2224 23.9863 60.7551 23.7249 60.1025 23.4832C58.3262 22.8207 57.4388 21.8502 57.4388 20.574C57.4388 19.74 57.7499 19.0562 58.3727 18.524C58.9933 17.9912 59.8212 17.7251 60.8565 17.7251C61.7797 17.7251 62.5466 17.886 63.1588 18.2069L62.7525 19.5319C62.1807 19.2208 61.5342 19.0653 60.8107 19.0653C60.239 19.0653 59.7922 19.2064 59.472 19.4869C59.2014 19.7377 59.0657 20.0434 59.0657 20.4055C59.0657 20.8065 59.2205 21.1382 59.5315 21.3989C59.8021 21.6398 60.2939 21.9005 61.0074 22.1818C61.8803 22.5333 62.5215 22.9442 62.9339 23.4153C63.3448 23.8849 63.5499 24.4727 63.5499 25.1741Z" fill="white"/>
<path d="M68.924 21.9234H67.1324V25.4753C67.1324 26.3786 67.448 26.83 68.0808 26.83C68.3713 26.83 68.6122 26.8048 68.8028 26.7545L68.8477 27.9887C68.5275 28.1084 68.106 28.1687 67.5837 28.1687C66.9418 28.1687 66.4402 27.9727 66.0781 27.5816C65.7175 27.1898 65.536 26.5326 65.536 25.6094V21.9219H64.4688V20.7021H65.536V19.3627L67.1324 18.8809V20.7021H68.924V21.9234Z" fill="white"/>
<path d="M77.0072 24.3013C77.0072 25.4258 76.6855 26.349 76.0436 27.071C75.3704 27.8143 74.4769 28.1848 73.3631 28.1848C72.2897 28.1848 71.4351 27.8287 70.7978 27.1167C70.1605 26.4047 69.8418 25.5058 69.8418 24.4225C69.8418 23.2889 70.1696 22.3603 70.8275 21.6384C71.4839 20.9157 72.3698 20.5543 73.4836 20.5543C74.557 20.5543 75.4207 20.9103 76.0725 21.6231C76.6962 22.3146 77.0072 23.2073 77.0072 24.3013ZM75.3209 24.3539C75.3209 23.6792 75.1768 23.1006 74.8848 22.618C74.544 22.0341 74.0569 21.7428 73.4256 21.7428C72.7723 21.7428 72.276 22.0348 71.9352 22.618C71.6433 23.1014 71.4992 23.6891 71.4992 24.3844C71.4992 25.0591 71.6433 25.6377 71.9352 26.1195C72.2867 26.7035 72.7776 26.9947 73.4112 26.9947C74.0317 26.9947 74.5189 26.6974 74.8703 26.1043C75.1699 25.6126 75.3209 25.0278 75.3209 24.3539Z" fill="white"/>
<path d="M82.2909 22.1331C82.13 22.1033 81.9585 22.0881 81.7786 22.0881C81.2068 22.0881 80.7647 22.3038 80.4536 22.7361C80.183 23.1173 80.0473 23.5991 80.0473 24.1808V28.0192H78.4227L78.4379 23.0075C78.4379 22.1643 78.4174 21.3966 78.377 20.7044H79.7927L79.8521 22.1041H79.8971C80.0686 21.6231 80.3393 21.2358 80.7098 20.9453C81.0719 20.6838 81.463 20.5535 81.8846 20.5535C82.0347 20.5535 82.1704 20.5641 82.2909 20.5832V22.1331Z" fill="white"/>
<path d="M89.559 24.0154C89.559 24.3066 89.54 24.5521 89.4995 24.7526H84.6235C84.6426 25.4753 84.8781 26.028 85.331 26.4092C85.7419 26.75 86.2732 26.9207 86.9258 26.9207C87.6478 26.9207 88.3065 26.8056 88.8988 26.5746L89.1534 27.7029C88.4612 28.0048 87.644 28.155 86.7009 28.155C85.5665 28.155 84.6761 27.8211 84.0281 27.154C83.3816 26.4869 83.0576 25.5912 83.0576 24.4675C83.0576 23.3643 83.3588 22.4457 83.9618 21.7131C84.593 20.9309 85.4461 20.5398 86.5195 20.5398C87.5738 20.5398 88.372 20.9309 88.9141 21.7131C89.3433 22.3344 89.559 23.1028 89.559 24.0154ZM88.0091 23.5938C88.0198 23.112 87.9138 22.6957 87.6935 22.3443C87.4122 21.8922 86.98 21.6666 86.3983 21.6666C85.8669 21.6666 85.4347 21.8869 85.1046 22.329C84.8339 22.6805 84.6731 23.1021 84.6235 23.593H88.0091V23.5938Z" fill="white"/>
<path d="M33.8264 11.6325C33.8264 12.5298 33.5573 13.2053 33.0198 13.6589C32.522 14.0774 31.8145 14.2871 30.8982 14.2871C30.4438 14.2871 30.055 14.2672 29.7295 14.2276V9.32487C30.1541 9.25626 30.6115 9.22119 31.1055 9.22119C31.9784 9.22119 32.6364 9.41102 33.0801 9.79067C33.5771 10.2199 33.8264 10.8336 33.8264 11.6325ZM32.984 11.6546C32.984 11.073 32.83 10.627 32.522 10.3159C32.214 10.0057 31.7642 9.85014 31.1719 9.85014C30.9203 9.85014 30.7061 9.86691 30.5284 9.90198V13.6291C30.6268 13.6444 30.8067 13.6513 31.0682 13.6513C31.6796 13.6513 32.1515 13.4812 32.4839 13.1412C32.8163 12.8012 32.984 12.3057 32.984 11.6546Z" fill="white"/>
<path d="M38.2932 12.4161C38.2932 12.9688 38.1354 13.4217 37.8198 13.7769C37.489 14.1421 37.0506 14.3243 36.5032 14.3243C35.9757 14.3243 35.5556 14.1497 35.2423 13.7991C34.9297 13.4491 34.7734 13.0077 34.7734 12.4756C34.7734 11.9191 34.9343 11.4624 35.2575 11.1079C35.5808 10.7534 36.0153 10.5758 36.5627 10.5758C37.0902 10.5758 37.5141 10.7504 37.8351 11.1003C38.14 11.4403 38.2932 11.8794 38.2932 12.4161ZM37.4646 12.4421C37.4646 12.1104 37.3929 11.8261 37.2503 11.589C37.0826 11.3023 36.844 11.159 36.5337 11.159C36.2128 11.159 35.9688 11.3023 35.8011 11.589C35.6578 11.8261 35.5869 12.115 35.5869 12.4565C35.5869 12.7882 35.6585 13.0725 35.8011 13.3096C35.9742 13.5963 36.2151 13.7396 36.5261 13.7396C36.831 13.7396 37.0704 13.594 37.2427 13.302C37.3906 13.0603 37.4646 12.7737 37.4646 12.4421Z" fill="white"/>
<path d="M44.2831 10.6489L43.1586 14.2427H42.4267L41.9609 12.6821C41.8428 12.2926 41.7467 11.9053 41.672 11.5211H41.6575C41.5881 11.916 41.4921 12.3025 41.3686 12.6821L40.8738 14.2427H40.1336L39.0762 10.6489H39.8972L40.3036 12.3574C40.4019 12.7614 40.4827 13.1464 40.5475 13.5108H40.562C40.6215 13.2104 40.7198 12.8277 40.8586 12.365L41.3686 10.6497H42.0196L42.5083 12.3284C42.6265 12.7378 42.7225 13.1319 42.7965 13.5116H42.8186C42.8727 13.1418 42.9543 12.7477 43.0625 12.3284L43.4986 10.6497H44.2831V10.6489Z" fill="white"/>
<path d="M48.4245 14.2427H47.6255V12.1843C47.6255 11.5501 47.3846 11.2329 46.9013 11.2329C46.6642 11.2329 46.4728 11.3198 46.3242 11.4944C46.177 11.669 46.1023 11.8748 46.1023 12.1104V14.242H45.3034V11.6759C45.3034 11.3602 45.2935 11.0179 45.2744 10.6474H45.9765L46.0139 11.2093H46.036C46.129 11.0347 46.2678 10.8906 46.45 10.7755C46.6665 10.6413 46.9089 10.5735 47.1742 10.5735C47.5096 10.5735 47.7887 10.6817 48.0105 10.899C48.2865 11.1651 48.4245 11.5623 48.4245 12.0898V14.2427Z" fill="white"/>
<path d="M50.6273 14.2427H49.8291V9H50.6273V14.2427Z" fill="white"/>
<path d="M55.3313 12.4161C55.3313 12.9688 55.1735 13.4217 54.8579 13.7769C54.527 14.1421 54.0879 14.3243 53.5413 14.3243C53.013 14.3243 52.5929 14.1497 52.2804 13.7991C51.9678 13.4491 51.8115 13.0077 51.8115 12.4756C51.8115 11.9191 51.9724 11.4624 52.2956 11.1079C52.6189 10.7534 53.0534 10.5758 53.6 10.5758C54.1283 10.5758 54.5514 10.7504 54.8731 11.1003C55.1781 11.4403 55.3313 11.8794 55.3313 12.4161ZM54.5019 12.4421C54.5019 12.1104 54.4302 11.8261 54.2877 11.589C54.1207 11.3023 53.8813 11.159 53.5718 11.159C53.2501 11.159 53.0061 11.3023 52.8392 11.589C52.6959 11.8261 52.625 12.115 52.625 12.4565C52.625 12.7882 52.6966 13.0725 52.8392 13.3096C53.0122 13.5963 53.2531 13.7396 53.5642 13.7396C53.8691 13.7396 54.1077 13.594 54.28 13.302C54.4287 13.0603 54.5019 12.7737 54.5019 12.4421Z" fill="white"/>
<path d="M59.1984 14.2427H58.481L58.4215 13.8288H58.3994C58.1539 14.1589 57.804 14.3243 57.3497 14.3243C57.0104 14.3243 56.736 14.2153 56.5294 13.9988C56.3418 13.8021 56.248 13.5574 56.248 13.2669C56.248 12.8278 56.431 12.4931 56.7992 12.2614C57.1667 12.0296 57.6836 11.916 58.3491 11.9214V11.8543C58.3491 11.3809 58.1006 11.1445 57.6028 11.1445C57.2483 11.1445 56.9357 11.2337 56.6658 11.4106L56.5034 10.8861C56.8373 10.6795 57.2498 10.5758 57.7362 10.5758C58.6754 10.5758 59.1465 11.0713 59.1465 12.0624V13.3859C59.1465 13.7449 59.1641 14.0308 59.1984 14.2427ZM58.3689 13.0077V12.4535C57.4876 12.4382 57.047 12.6799 57.047 13.1777C57.047 13.3653 57.0973 13.5055 57.2002 13.5993C57.3032 13.6931 57.4343 13.7396 57.5906 13.7396C57.7659 13.7396 57.9298 13.6839 58.0792 13.5734C58.2294 13.4621 58.3217 13.3211 58.356 13.148C58.3644 13.1091 58.3689 13.0619 58.3689 13.0077Z" fill="white"/>
<path d="M63.7382 14.2427H63.0292L62.9919 13.6656H62.9698C62.7433 14.1047 62.3576 14.3243 61.8156 14.3243C61.3825 14.3243 61.0219 14.1543 60.7361 13.8143C60.4502 13.4743 60.3076 13.0329 60.3076 12.4908C60.3076 11.9092 60.4624 11.438 60.7734 11.0782C61.0745 10.7428 61.4435 10.575 61.8826 10.575C62.3652 10.575 62.7029 10.7374 62.8951 11.0629H62.9103V9H63.71V13.2745C63.71 13.6245 63.7192 13.9469 63.7382 14.2427ZM62.9103 12.7272V12.128C62.9103 12.0243 62.9027 11.9404 62.8882 11.8764C62.8432 11.6843 62.7464 11.5226 62.5993 11.3923C62.4506 11.2619 62.2714 11.1964 62.0648 11.1964C61.7668 11.1964 61.5335 11.3145 61.362 11.5516C61.1919 11.7887 61.1058 12.0914 61.1058 12.4611C61.1058 12.8164 61.1874 13.1045 61.3513 13.3264C61.5243 13.5627 61.7576 13.6809 62.0496 13.6809C62.3119 13.6809 62.5215 13.5825 62.6808 13.3851C62.8348 13.2029 62.9103 12.9833 62.9103 12.7272Z" fill="white"/>
<path d="M70.5706 12.4161C70.5706 12.9688 70.4128 13.4217 70.0972 13.7769C69.7663 14.1421 69.3287 14.3243 68.7806 14.3243C68.2538 14.3243 67.8337 14.1497 67.5196 13.7991C67.2071 13.4491 67.0508 13.0077 67.0508 12.4756C67.0508 11.9191 67.2116 11.4624 67.5349 11.1079C67.8581 10.7534 68.2927 10.5758 68.8408 10.5758C69.3676 10.5758 69.7922 10.7504 70.1124 11.1003C70.4174 11.4403 70.5706 11.8794 70.5706 12.4161ZM69.7427 12.4421C69.7427 12.1104 69.671 11.8261 69.5284 11.589C69.36 11.3023 69.1221 11.159 68.8111 11.159C68.4909 11.159 68.2469 11.3023 68.0784 11.589C67.9351 11.8261 67.8642 12.115 67.8642 12.4565C67.8642 12.7882 67.9359 13.0725 68.0784 13.3096C68.2515 13.5963 68.4924 13.7396 68.8034 13.7396C69.1084 13.7396 69.3485 13.594 69.5208 13.302C69.668 13.0603 69.7427 12.7737 69.7427 12.4421Z" fill="white"/>
<path d="M74.8661 14.2427H74.0679V12.1843C74.0679 11.5501 73.827 11.2329 73.3429 11.2329C73.1058 11.2329 72.9145 11.3198 72.7666 11.4944C72.6187 11.669 72.5447 11.8748 72.5447 12.1104V14.242H71.745V11.6759C71.745 11.3602 71.7359 11.0179 71.7168 10.6474H72.4182L72.4555 11.2093H72.4776C72.5714 11.0347 72.7101 10.8906 72.8916 10.7755C73.1089 10.6413 73.3505 10.5735 73.6166 10.5735C73.9513 10.5735 74.2303 10.6817 74.4521 10.899C74.7289 11.1651 74.8661 11.5623 74.8661 12.0898V14.2427Z" fill="white"/>
<path d="M80.2434 11.2475H79.3637V12.9933C79.3637 13.437 79.5199 13.6588 79.8295 13.6588C79.9728 13.6588 80.0917 13.6466 80.1855 13.6215L80.2061 14.2275C80.0483 14.287 79.8409 14.3167 79.5855 14.3167C79.2699 14.3167 79.0244 14.2207 78.8468 14.0286C78.6684 13.8365 78.5799 13.5132 78.5799 13.0596V11.2475H78.0547V10.649H78.5799V9.99036L79.3629 9.75403V10.6483H80.2427V11.2475H80.2434Z" fill="white"/>
<path d="M84.4736 14.2427H83.6739V12.1996C83.6739 11.5554 83.433 11.2329 82.9504 11.2329C82.5799 11.2329 82.3268 11.4197 82.1881 11.7933C82.1645 11.8718 82.1507 11.9679 82.1507 12.0807V14.242H81.3525V9H82.1507V11.1659H82.166C82.4176 10.7717 82.7782 10.575 83.2455 10.575C83.5763 10.575 83.85 10.6833 84.0673 10.9006C84.3379 11.1712 84.4736 11.5737 84.4736 12.1058V14.2427Z" fill="white"/>
<path d="M88.8366 12.2759C88.8366 12.4192 88.826 12.5397 88.8069 12.638H86.4108C86.4215 12.9933 86.5359 13.2639 86.7577 13.4514C86.9605 13.6192 87.222 13.703 87.5422 13.703C87.8967 13.703 88.2199 13.6466 88.5111 13.533L88.6361 14.088C88.2954 14.2359 87.8944 14.3099 87.4301 14.3099C86.8736 14.3099 86.4352 14.146 86.1181 13.8181C85.7994 13.4903 85.6416 13.0504 85.6416 12.4985C85.6416 11.9565 85.7887 11.5051 86.0853 11.1453C86.3948 10.7611 86.8133 10.569 87.3417 10.569C87.8585 10.569 88.2512 10.7611 88.5165 11.1453C88.7307 11.4503 88.8366 11.8276 88.8366 12.2759ZM88.0743 12.0693C88.0804 11.8322 88.0278 11.6279 87.9195 11.4556C87.7808 11.2337 87.5696 11.1224 87.2837 11.1224C87.023 11.1224 86.8103 11.2307 86.6479 11.448C86.5153 11.621 86.4367 11.8276 86.4108 12.0693H88.0743Z" fill="white"/>
</svg>
