<svg width="133" height="40" viewBox="0 0 133 40" fill="none" xmlns="http://www.w3.org/2000/svg">
<rect x="0.5" width="132.5" height="40" rx="4" fill="black"/>
<path d="M19.5193 10.0321C19.2586 10.345 19.1269 10.7455 19.1513 11.1521V28.8481C19.1269 29.2546 19.2586 29.6552 19.5193 29.9681L19.5753 30.0241L29.4873 20.1201V19.8881L19.5753 9.97607L19.5193 10.0321Z" fill="url(#paint0_linear_451_280)"/>
<path d="M32.7673 23.424L29.4873 20.1201V19.8881L32.7673 16.576L32.8393 16.6161L36.7673 18.848C37.8873 19.4801 37.8873 20.5201 36.7673 21.1601L32.8553 23.384L32.7673 23.424Z" fill="url(#paint1_linear_451_280)"/>
<path d="M32.8635 23.376L29.4875 20L19.5195 29.968C19.7478 30.1687 20.039 30.2833 20.3429 30.2921C20.6467 30.3008 20.9441 30.2032 21.1835 30.016L32.8715 23.376" fill="url(#paint2_linear_451_280)"/>
<path d="M32.8637 16.624L21.1757 9.98401C20.9362 9.79683 20.6389 9.69918 20.3351 9.70794C20.0312 9.7167 19.74 9.83133 19.5117 10.032L29.4877 20L32.8637 16.624Z" fill="url(#paint3_linear_451_280)"/>
<path opacity="0.2" d="M32.7675 23.304L21.1755 29.904C20.9446 30.0766 20.6639 30.17 20.3755 30.17C20.0871 30.17 19.8065 30.0766 19.5755 29.904L19.5195 29.96L19.5755 30.016C19.806 30.1899 20.0868 30.284 20.3755 30.284C20.6642 30.284 20.9451 30.1899 21.1755 30.016L32.8635 23.376L32.7675 23.304Z" fill="black"/>
<path opacity="0.12" d="M19.5193 29.856C19.2586 29.5431 19.1269 29.1426 19.1513 28.736V28.856C19.1269 29.2626 19.2586 29.6631 19.5193 29.976L19.5753 29.92L19.5193 29.856ZM36.7673 21.04L32.7673 23.304L32.8393 23.376L36.7673 21.152C36.9902 21.0473 37.1815 20.8857 37.322 20.6834C37.4624 20.4811 37.547 20.2454 37.5673 20C37.5223 20.223 37.4268 20.4326 37.2881 20.6129C37.1494 20.7932 36.9713 20.9393 36.7673 21.04Z" fill="black"/>
<path opacity="0.25" d="M21.1756 10.0957L36.7676 18.9597C36.9715 19.0604 37.1497 19.2065 37.2884 19.3868C37.4271 19.5671 37.5226 19.7767 37.5676 19.9997C37.5473 19.7543 37.4627 19.5186 37.3222 19.3163C37.1818 19.114 36.9904 18.9524 36.7676 18.8477L21.1756 9.98371C20.0556 9.35171 19.1436 9.87971 19.1436 11.1597V11.2797C19.1676 9.99171 20.0636 9.46371 21.1756 10.0957Z" fill="white"/>
<path d="M67.675 21.0858C66.9954 21.089 66.332 21.2935 65.7685 21.6734C65.205 22.0532 64.7667 22.5915 64.5088 23.2203C64.251 23.8491 64.1852 24.5402 64.3197 25.2063C64.4542 25.8725 64.7831 26.4838 65.2648 26.9632C65.7464 27.4427 66.3593 27.7686 67.0261 27.9001C67.6929 28.0315 68.3836 27.9624 69.0112 27.7016C69.6388 27.4408 70.175 26.9999 70.5522 26.4347C70.9295 25.8694 71.1308 25.205 71.1308 24.5254C71.1374 24.0705 71.0524 23.619 70.8809 23.1976C70.7093 22.7763 70.4547 22.3937 70.1323 22.0728C69.8099 21.7519 69.4261 21.4991 69.004 21.3295C68.5818 21.16 68.1299 21.0771 67.675 21.0858ZM67.675 26.6135C67.2571 26.6427 66.84 26.5455 66.478 26.3345C66.116 26.1236 65.8259 25.8086 65.6453 25.4306C65.4647 25.0525 65.402 24.6289 65.4653 24.2148C65.5287 23.8006 65.7152 23.4151 66.0005 23.1083C66.2859 22.8016 66.6569 22.5878 67.0654 22.4947C67.4739 22.4016 67.901 22.4335 68.2911 22.5864C68.6812 22.7392 69.0163 23.0059 69.2528 23.3517C69.4893 23.6975 69.6164 24.1065 69.6174 24.5254C69.6304 24.7909 69.5902 25.0563 69.499 25.3059C69.4078 25.5556 69.2676 25.7845 69.0866 25.9791C68.9056 26.1737 68.6874 26.3301 68.445 26.439C68.2025 26.548 67.9407 26.6073 67.675 26.6135ZM60.1403 21.0858C59.4604 21.0874 58.7962 21.2905 58.2316 21.6694C57.667 22.0484 57.2274 22.5861 56.9683 23.2147C56.7092 23.8434 56.6423 24.5347 56.7759 25.2014C56.9095 25.8681 57.2378 26.4802 57.7191 26.9604C58.2005 27.4406 58.8134 27.7674 59.4803 27.8995C60.1473 28.0316 60.8385 27.963 61.4665 27.7024C62.0946 27.4418 62.6313 27.001 63.0089 26.4355C63.3865 25.87 63.588 25.2054 63.588 24.5254C63.5946 24.0705 63.5096 23.619 63.3381 23.1976C63.1665 22.7763 62.9119 22.3937 62.5895 22.0728C62.2671 21.7519 61.8833 21.4991 61.4612 21.3295C61.039 21.16 60.5871 21.0771 60.1322 21.0858H60.1403ZM60.1403 26.6135C59.7222 26.6443 59.3044 26.5486 58.9414 26.3387C58.5784 26.1289 58.287 25.8146 58.1052 25.4368C57.9233 25.059 57.8594 24.6352 57.9217 24.2206C57.9841 23.8059 58.1698 23.4197 58.4548 23.1121C58.7397 22.8045 59.1106 22.5898 59.5193 22.496C59.928 22.4022 60.3554 22.4336 60.746 22.5861C61.1365 22.7385 61.4722 23.0051 61.7091 23.351C61.9461 23.6969 62.0734 24.1061 62.0746 24.5254C62.0876 24.7909 62.0474 25.0563 61.9562 25.3059C61.865 25.5556 61.7248 25.7845 61.5438 25.9791C61.3627 26.1737 61.1446 26.3301 60.9022 26.439C60.6597 26.548 60.3979 26.6073 60.1322 26.6135H60.1403ZM51.165 22.146V23.6028H54.6613C54.6064 24.2889 54.3212 24.9364 53.8519 25.4399C53.5022 25.7962 53.0817 26.0754 52.6175 26.2593C52.1534 26.4433 51.6558 26.5281 51.1569 26.5082C50.1266 26.5082 49.1386 26.099 48.41 25.3704C47.6815 24.6419 47.2722 23.6538 47.2722 22.6235C47.2722 21.5932 47.6815 20.6052 48.41 19.8766C49.1386 19.1481 50.1266 18.7388 51.1569 18.7388C52.1425 18.7228 53.0942 19.0982 53.8034 19.7828L54.8312 18.755C54.3525 18.2703 53.7813 17.8865 53.1516 17.6266C52.5218 17.3666 51.8463 17.2357 51.165 17.2416C50.4455 17.2136 49.7278 17.3311 49.0548 17.5871C48.3819 17.8432 47.7675 18.2324 47.2486 18.7315C46.7296 19.2307 46.3168 19.8295 46.0348 20.492C45.7528 21.1545 45.6074 21.8671 45.6074 22.5871C45.6074 23.3071 45.7528 24.0198 46.0348 24.6823C46.3168 25.3448 46.7296 25.9435 47.2486 26.4427C47.7675 26.9418 48.3819 27.3311 49.0548 27.5871C49.7278 27.8431 50.4455 27.9606 51.165 27.9326C51.8578 27.9639 52.5492 27.8465 53.1927 27.5882C53.8363 27.33 54.417 26.9369 54.896 26.4354C55.7439 25.5038 56.1966 24.2792 56.1585 23.0201C56.1611 22.7134 56.134 22.4071 56.0776 22.1056L51.165 22.146ZM87.835 23.2791C87.624 22.6581 87.2293 22.1159 86.7032 21.7243C86.1771 21.3326 85.5445 21.11 84.8891 21.0858C84.4464 21.085 84.0083 21.1749 83.6017 21.3501C83.1951 21.5253 82.8288 21.782 82.5254 22.1044C82.222 22.4268 81.9879 22.8079 81.8377 23.2244C81.6874 23.6408 81.6242 24.0836 81.6519 24.5254C81.642 24.9778 81.7235 25.4274 81.8913 25.8476C82.0592 26.2677 82.31 26.6498 82.6288 26.9708C82.9475 27.2919 83.3278 27.5454 83.7467 27.7162C84.1657 27.887 84.6148 27.9716 85.0672 27.965C85.6333 27.9681 86.1913 27.8307 86.6913 27.5651C87.1913 27.2996 87.6176 26.9142 87.9321 26.4435L86.7586 25.6342C86.5835 25.9262 86.3355 26.1677 86.039 26.3351C85.7425 26.5025 85.4077 26.59 85.0672 26.5892C84.7166 26.6025 84.3701 26.5101 84.0728 26.3239C83.7755 26.1377 83.541 25.8664 83.4 25.5452L88.005 23.6433L87.835 23.2791ZM83.141 24.4283C83.1246 24.178 83.1583 23.9269 83.2402 23.6898C83.322 23.4526 83.4503 23.2342 83.6177 23.0473C83.785 22.8604 83.9879 22.7087 84.2146 22.6012C84.4412 22.4937 84.6871 22.4325 84.9377 22.4212C85.1987 22.404 85.4591 22.4639 85.6864 22.5934C85.9138 22.7228 86.098 22.9163 86.2164 23.1496L83.141 24.4283ZM79.402 27.7627H80.9154V17.6463H79.402V27.7627ZM76.9255 21.8547H76.8688C76.6407 21.5997 76.3613 21.3957 76.0489 21.2563C75.7365 21.1168 75.3981 21.0449 75.056 21.0454C74.1715 21.0883 73.3375 21.4698 72.7267 22.1109C72.116 22.752 71.7753 23.6035 71.7753 24.489C71.7753 25.3745 72.116 26.226 72.7267 26.8671C73.3375 27.5082 74.1715 27.8897 75.056 27.9326C75.3989 27.9384 75.739 27.8689 76.0522 27.7291C76.3654 27.5893 76.6441 27.3825 76.8688 27.1233H76.9174V27.617C76.9174 28.9362 76.2133 29.6403 75.0802 29.6403C74.7029 29.6315 74.3367 29.5105 74.0282 29.2929C73.7198 29.0753 73.4831 28.7708 73.3483 28.4182L72.0291 28.9686C72.2775 29.5726 72.7006 30.0887 73.2442 30.4506C73.7878 30.8125 74.4272 31.0038 75.0802 30.9999C76.8526 30.9999 78.3175 29.9559 78.3175 27.4147V21.2882H76.9255V21.8547ZM75.1935 26.6135C74.6715 26.5674 74.1856 26.3275 73.8317 25.941C73.4778 25.5546 73.2814 25.0495 73.2814 24.5254C73.2814 24.0013 73.4778 23.4963 73.8317 23.1098C74.1856 22.7233 74.6715 22.4834 75.1935 22.4374C75.4524 22.4507 75.7059 22.5156 75.9393 22.6284C76.1726 22.7412 76.3811 22.8996 76.5523 23.0941C76.7235 23.2887 76.854 23.5156 76.9362 23.7614C77.0183 24.0072 77.0505 24.267 77.0307 24.5254C77.0528 24.785 77.022 25.0463 76.9402 25.2936C76.8584 25.5409 76.7273 25.769 76.5548 25.9642C76.3823 26.1594 76.172 26.3176 75.9367 26.4292C75.7013 26.5407 75.4457 26.6034 75.1855 26.6135H75.1935ZM94.9246 17.6463H91.307V27.7627H92.8204V23.9265H94.9327C95.364 23.9575 95.7971 23.8993 96.205 23.7555C96.6128 23.6118 96.9867 23.3855 97.3032 23.0909C97.6197 22.7963 97.8722 22.4396 98.0448 22.0431C98.2174 21.6466 98.3065 21.2188 98.3065 20.7864C98.3065 20.354 98.2174 19.9262 98.0448 19.5297C97.8722 19.1332 97.6197 18.7765 97.3032 18.4819C96.9867 18.1873 96.6128 17.961 96.205 17.8172C95.7971 17.6735 95.364 17.6153 94.9327 17.6463H94.9246ZM94.9246 22.5021H92.8123V19.0545H94.957C95.4174 19.0545 95.859 19.2374 96.1845 19.5629C96.5101 19.8885 96.693 20.33 96.693 20.7904C96.693 21.2508 96.5101 21.6924 96.1845 22.018C95.859 22.3435 95.4174 22.5264 94.957 22.5264L94.9246 22.5021ZM104.256 21.0454C103.705 21.0124 103.156 21.1412 102.678 21.4158C102.199 21.6904 101.811 22.0989 101.561 22.5912L102.904 23.1496C103.037 22.9055 103.237 22.7051 103.482 22.5729C103.726 22.4407 104.003 22.3824 104.28 22.405C104.472 22.3826 104.667 22.3986 104.853 22.4522C105.039 22.5058 105.212 22.5959 105.363 22.7172C105.513 22.8385 105.638 22.9886 105.73 23.1587C105.823 23.3288 105.88 23.5155 105.899 23.708V23.8132C105.413 23.5559 104.871 23.4224 104.321 23.4248C102.872 23.4248 101.407 24.2341 101.407 25.6989C101.422 26.0113 101.498 26.3176 101.633 26.5997C101.768 26.8819 101.958 27.1342 102.192 27.3417C102.425 27.5492 102.699 27.7076 102.995 27.8078C103.291 27.9079 103.604 27.9476 103.916 27.9245C104.297 27.9519 104.679 27.8762 105.02 27.7053C105.362 27.5344 105.652 27.2747 105.858 26.9534H105.907V27.7627H107.364V23.8699C107.364 22.0975 106.02 21.0696 104.296 21.0696L104.256 21.0454ZM104.07 26.5892C103.576 26.5892 102.888 26.3383 102.888 25.7313C102.888 24.922 103.746 24.6549 104.507 24.6549C104.988 24.643 105.463 24.7604 105.883 24.9948C105.832 25.433 105.625 25.8381 105.299 26.1355C104.973 26.433 104.551 26.6027 104.11 26.6135L104.07 26.5892ZM112.673 21.2882L110.941 25.6746H110.892L109.096 21.2882H107.477L110.172 27.4228L108.634 30.83H110.213L114.356 21.2882H112.673ZM99.0683 27.7627H100.582V17.6463H99.0683V27.7627Z" fill="white"/>
<path d="M50.8552 11.8212C50.869 12.1181 50.8223 12.4146 50.7179 12.6929C50.6136 12.9711 50.4538 13.2253 50.2482 13.4399C50.0187 13.6783 49.7415 13.8657 49.4347 13.9898C49.128 14.1139 48.7985 14.1719 48.4677 14.1602C47.966 14.1562 47.4765 14.0043 47.0607 13.7234C46.6448 13.4425 46.3212 13.0452 46.1302 12.5811C45.9392 12.1171 45.8894 11.607 45.9871 11.1148C46.0847 10.6226 46.3255 10.1701 46.6792 9.81414C46.9116 9.57684 47.1903 9.38976 47.4979 9.26447C47.8056 9.13918 48.1356 9.07836 48.4677 9.08576C48.8099 9.08462 49.1486 9.15348 49.4632 9.28809C49.7561 9.40621 50.0168 9.59203 50.2239 9.83033L49.795 10.2593C49.6335 10.0671 49.4295 9.91519 49.1991 9.81547C48.9688 9.71574 48.7184 9.67096 48.4677 9.68465C48.2149 9.68341 47.9645 9.73323 47.7314 9.83113C47.4984 9.92903 47.2875 10.073 47.1114 10.2544C46.9353 10.4357 46.7976 10.6508 46.7067 10.8867C46.6157 11.1226 46.5733 11.3744 46.582 11.627C46.5767 12.0043 46.6833 12.3746 46.8882 12.6914C47.0932 13.0082 47.3874 13.2571 47.7336 13.4069C48.0799 13.5567 48.4628 13.6005 48.834 13.5329C49.2052 13.4653 49.548 13.2893 49.8193 13.0271C50.0683 12.7572 50.212 12.4068 50.2239 12.0398H48.4677V11.4571H50.8228C50.8444 11.5772 50.8553 11.6991 50.8552 11.8212ZM54.5619 9.79796H52.3767V11.3357H54.3676V11.9184H52.3767V13.4561H54.5619V14.0549H51.7293V9.19906H54.5619V9.79796ZM57.2164 14.0549H56.5932V9.79796H55.2336V9.19906H58.6084V9.79796H57.2164V14.0549ZM60.9878 14.0549V9.19906H61.611V14.0549H60.9878ZM64.3788 14.0549H63.7557V9.79796H62.396V9.19906H65.7304V9.79796H64.3788V14.0549ZM72.0511 13.4237C71.578 13.8942 70.9379 14.1583 70.2707 14.1583C69.6034 14.1583 68.9633 13.8942 68.4902 13.4237C68.0303 12.9369 67.7741 12.2926 67.7741 11.623C67.7741 10.9533 68.0303 10.309 68.4902 9.82224C68.7234 9.58733 69.0007 9.40089 69.3063 9.27366C69.6119 9.14643 69.9396 9.08093 70.2707 9.08093C70.6017 9.08093 70.9294 9.14643 71.235 9.27366C71.5406 9.40089 71.8179 9.58733 72.0511 9.82224C72.5128 10.3081 72.7703 10.9527 72.7703 11.623C72.7703 12.2932 72.5128 12.9378 72.0511 13.4237ZM68.9515 13.019C69.3018 13.3679 69.7762 13.5638 70.2707 13.5638C70.7651 13.5638 71.2395 13.3679 71.5898 13.019C71.9356 12.6379 72.1271 12.1416 72.1271 11.627C72.1271 11.1124 71.9356 10.6162 71.5898 10.235C71.2395 9.88607 70.7651 9.69018 70.2707 9.69018C69.7762 9.69018 69.3018 9.88607 68.9515 10.235C68.6057 10.6162 68.4142 11.1124 68.4142 11.627C68.4142 12.1416 68.6057 12.6379 68.9515 13.019ZM73.6455 14.0549V9.19906H74.4062L76.7694 12.9786V9.19906H77.3926V14.0549H76.7452L74.2768 10.0974V14.0549H73.6455Z" fill="white"/>
<path fill-rule="evenodd" clip-rule="evenodd" d="M70.2707 9.16186C69.9503 9.16186 69.6332 9.22525 69.3374 9.34837C69.042 9.47137 68.7738 9.65155 68.5483 9.87854C68.1031 10.3502 67.855 10.9743 67.855 11.623C67.855 12.2715 68.103 12.8955 68.5481 13.3672C69.006 13.822 69.6252 14.0773 70.2707 14.0773C70.9161 14.0773 71.5354 13.822 71.9933 13.3671C72.4402 12.8964 72.6893 12.2721 72.6893 11.623C72.6893 10.9738 72.4401 10.3494 71.9931 9.87865C71.7675 9.6516 71.4993 9.47139 71.2039 9.34837C70.9081 9.22525 70.591 9.16186 70.2707 9.16186ZM69.2752 9.19895C69.5907 9.06761 69.929 9 70.2707 9C70.6123 9 70.9506 9.06761 71.2661 9.19895C71.5815 9.33028 71.8678 9.52273 72.1086 9.76522L72.1098 9.76647C72.5858 10.2674 72.8512 10.932 72.8512 11.623C72.8512 12.3139 72.5858 12.9785 72.1098 13.4794L72.1082 13.4811C71.6199 13.9667 70.9593 14.2392 70.2707 14.2392C69.582 14.2392 68.9214 13.9666 68.4331 13.4811L68.4313 13.4793C67.9572 12.9775 67.6931 12.3133 67.6931 11.623C67.6931 10.9326 67.9573 10.2685 68.4313 9.76666L68.4327 9.7652C68.6734 9.52271 68.9598 9.33028 69.2752 9.19895ZM48.4659 9.16667C48.1449 9.15952 47.8258 9.21832 47.5284 9.33942C47.231 9.46053 46.9617 9.64138 46.737 9.87078L46.7366 9.87118C46.3941 10.2159 46.161 10.6539 46.0665 11.1305C45.9719 11.6071 46.0201 12.101 46.205 12.5503C46.3899 12.9996 46.7033 13.3844 47.106 13.6563C47.5086 13.9283 47.9825 14.0754 48.4684 14.0792L48.4706 14.0792C48.79 14.0906 49.1082 14.0346 49.4044 13.9147C49.7006 13.7949 49.9682 13.614 50.1898 13.3838C50.3878 13.1772 50.5417 12.9324 50.6421 12.6645C50.7426 12.3965 50.7876 12.1109 50.7744 11.825L50.8552 11.8212L50.7743 11.8212C50.7743 11.7264 50.7675 11.6318 50.754 11.538H48.5487V11.9588H50.3076L50.3048 12.0424C50.2922 12.4288 50.141 12.7978 49.8788 13.082L49.8756 13.0854C49.5929 13.3587 49.2354 13.5421 48.8485 13.6126C48.4616 13.683 48.0625 13.6373 47.7015 13.4812C47.3406 13.3251 47.0339 13.0655 46.8203 12.7354C46.607 12.4057 46.496 12.0204 46.5011 11.6278C46.4923 11.365 46.5365 11.103 46.6312 10.8576C46.726 10.6115 46.8696 10.3872 47.0533 10.198C47.237 10.0088 47.457 9.85863 47.7001 9.75651C47.9425 9.65471 48.2029 9.60275 48.4657 9.60371C48.7281 9.58975 48.9901 9.6368 49.2313 9.7412C49.4462 9.83423 49.6392 9.97053 49.7986 10.1413L50.1123 9.82752C49.9223 9.62562 49.6906 9.46707 49.4329 9.36315L49.4313 9.36251C49.1269 9.23224 48.7991 9.16559 48.468 9.16669L48.4659 9.16667ZM50.9361 11.8194C50.9501 12.1266 50.9017 12.4334 50.7937 12.7213C50.6855 13.0098 50.5198 13.2733 50.3067 13.4958C50.0693 13.7425 49.7824 13.9364 49.4651 14.0648C49.1481 14.193 48.8077 14.2531 48.466 14.2411C47.9487 14.2368 47.4441 14.0801 47.0154 13.7905C46.5863 13.5007 46.2524 13.0907 46.0554 12.6119C45.8583 12.1331 45.807 11.6069 45.9077 11.099C46.0084 10.5913 46.2568 10.1246 46.6215 9.7573C46.8617 9.51219 47.1496 9.31894 47.4674 9.18952C47.785 9.06018 48.1257 8.99733 48.4685 9.00483C48.8211 9.00379 49.1701 9.07475 49.4943 9.21335C49.7986 9.33627 50.0696 9.5295 50.285 9.77723L50.3345 9.83419L49.7898 10.3789L49.7331 10.3113C49.5796 10.1288 49.3858 9.98448 49.167 9.88974C48.9481 9.795 48.7103 9.75245 48.4722 9.76546L48.4673 9.76573C48.2254 9.76454 47.9858 9.81207 47.7628 9.90575C47.5397 9.99942 47.3379 10.1372 47.1694 10.3107C47.0009 10.4843 46.8692 10.6901 46.7822 10.9158C46.6951 11.1415 46.6546 11.3825 46.6629 11.6242L46.6631 11.6281C46.658 11.9894 46.7599 12.3441 46.9562 12.6474C47.1524 12.9508 47.4342 13.1892 47.7658 13.3326C48.0974 13.476 48.464 13.518 48.8195 13.4533C49.1742 13.3887 49.5019 13.2208 49.7614 12.9705C49.9773 12.7358 50.1092 12.4369 50.1379 12.1207H48.3868V11.3761H50.8905L50.9025 11.4427C50.9248 11.5671 50.9361 11.6931 50.9361 11.8194ZM51.6483 9.11813H54.6428V9.87889H52.4577V11.2547H54.4486V11.9993H52.4577V13.3751H54.6428V14.1359H51.6483V9.11813ZM51.8102 9.28V13.974H54.4809V13.537H52.2958V11.8374H54.2867V11.4166H52.2958V9.71703H54.4809V9.28H51.8102ZM55.1527 9.11813H58.6894V9.87889H57.2973V14.1359H56.5123V9.87889H55.1527V9.11813ZM55.3145 9.28V9.71703H56.6742V13.974H57.1355V9.71703H58.5275V9.28H55.3145ZM60.9069 9.11813H61.6919V14.1359H60.9069V9.11813ZM61.0688 9.28V13.974H61.5301V9.28H61.0688ZM62.3151 9.11813H65.8113V9.87889H64.4598V14.1359H63.6747V9.87889H62.3151V9.11813ZM62.477 9.28V9.71703H63.8366V13.974H64.2979V9.71703H65.6495V9.28H62.477ZM73.5646 9.11813H74.4511L76.6885 12.6965V9.11813H77.4735V14.1359H76.7003L74.3577 10.3801V14.1359H73.5646V9.11813ZM73.7264 9.28V13.974H74.1958V9.81472L76.7901 13.974H77.3117V9.28H76.8504V13.2606L74.3614 9.28H73.7264ZM68.8944 10.1776C69.2599 9.81362 69.7548 9.60925 70.2707 9.60925C70.7865 9.60925 71.2814 9.81362 71.6469 10.1776L71.6499 10.1805C72.0091 10.5766 72.2081 11.0923 72.2081 11.627C72.2081 12.1617 72.009 12.6773 71.6498 13.0734L71.647 13.0764C71.2815 13.4405 70.7865 13.6448 70.2707 13.6448C69.7548 13.6448 69.2599 13.4404 68.8944 13.0764L68.9515 13.019L68.8915 13.0734C68.5322 12.6773 68.3332 12.1617 68.3332 11.627C68.3332 11.0923 68.5322 10.5767 68.8915 10.1806L68.8944 10.1776ZM69.01 12.9631C69.3451 13.296 69.7983 13.4829 70.2707 13.4829C70.743 13.4829 71.1962 13.296 71.5313 12.9631C71.8627 12.5971 72.0462 12.1209 72.0462 11.627C72.0462 11.1332 71.8627 10.657 71.5313 10.2909C71.1962 9.95798 70.743 9.77111 70.2707 9.77111C69.7983 9.77111 69.3451 9.95798 69.01 10.2909C68.6786 10.657 68.4951 11.1332 68.4951 11.627C68.4951 12.1209 68.6786 12.5971 69.01 12.9631Z" fill="white"/>
<defs>
<linearGradient id="paint0_linear_451_280" x1="28.6073" y1="10.9681" x2="15.1833" y2="24.3921" gradientUnits="userSpaceOnUse">
<stop stop-color="#00A0FF"/>
<stop offset="0.01" stop-color="#00A1FF"/>
<stop offset="0.26" stop-color="#00BEFF"/>
<stop offset="0.51" stop-color="#00D2FF"/>
<stop offset="0.76" stop-color="#00DFFF"/>
<stop offset="1" stop-color="#00E3FF"/>
</linearGradient>
<linearGradient id="paint1_linear_451_280" x1="38.2313" y1="20" x2="18.8793" y2="20" gradientUnits="userSpaceOnUse">
<stop stop-color="#FFE000"/>
<stop offset="0.41" stop-color="#FFBD00"/>
<stop offset="0.78" stop-color="#FFA500"/>
<stop offset="1" stop-color="#FF9C00"/>
</linearGradient>
<linearGradient id="paint2_linear_451_280" x1="31.0315" y1="21.84" x2="12.8235" y2="40.04" gradientUnits="userSpaceOnUse">
<stop stop-color="#FF3A44"/>
<stop offset="1" stop-color="#C31162"/>
</linearGradient>
<linearGradient id="paint3_linear_451_280" x1="17.0077" y1="4.14401" x2="25.1357" y2="12.272" gradientUnits="userSpaceOnUse">
<stop stop-color="#32A071"/>
<stop offset="0.07" stop-color="#2DA771"/>
<stop offset="0.48" stop-color="#15CF74"/>
<stop offset="0.8" stop-color="#06E775"/>
<stop offset="1" stop-color="#00F076"/>
</linearGradient>
</defs>
</svg>
