<svg width="155" height="104" viewBox="0 0 155 104" fill="none" xmlns="http://www.w3.org/2000/svg">
<path d="M123.761 68.499V82.1304M123.761 68.499L136.325 61.5382M123.761 68.499L111.197 61.5382M107.309 59.508L123.761 49.937L140.214 59.508V78.07L123.761 87.0609L107.309 78.07V59.508Z" stroke="#EA4C14" stroke-width="2" stroke-linecap="round" stroke-linejoin="round"/>
<path d="M56.6859 88.3265V87.3265V88.3265ZM1.84457 88.3265L0.844574 88.3265L0.844583 89.3265H1.84457V88.3265ZM1.84375 1L1.84375 0H0.843741L0.84375 1.00001L1.84375 1ZM131.777 1H132.777V0H131.777V1ZM130.777 48.6715C130.777 49.2238 131.225 49.6715 131.777 49.6715C132.33 49.6715 132.777 49.2238 132.777 48.6715H130.777ZM66.8106 91.7014L66.0579 92.3598C66.2564 92.5868 66.5468 92.712 66.8481 92.7007C67.1494 92.6894 67.4295 92.5428 67.6105 92.3016L66.8106 91.7014ZM77.3571 88.3265V89.3265V88.3265ZM92.9669 89.3265C93.5191 89.3265 93.9669 88.8788 93.9669 88.3265C93.9669 87.7743 93.5191 87.3265 92.9669 87.3265V89.3265ZM56.6859 87.3265C56.643 87.3265 56.6001 87.3265 56.5572 87.3265C56.5143 87.3265 56.4713 87.3265 56.4283 87.3265C56.3853 87.3265 56.3422 87.3265 56.2991 87.3265C56.2561 87.3265 56.2129 87.3265 56.1698 87.3265C56.1266 87.3265 56.0834 87.3265 56.0401 87.3265C55.9969 87.3265 55.9536 87.3265 55.9102 87.3265C55.8669 87.3265 55.8235 87.3265 55.7801 87.3265C55.7367 87.3265 55.6932 87.3265 55.6497 87.3265C55.6063 87.3265 55.5627 87.3265 55.5192 87.3265C55.4756 87.3265 55.432 87.3265 55.3883 87.3265C55.3447 87.3265 55.301 87.3265 55.2573 87.3265C55.2135 87.3265 55.1698 87.3265 55.126 87.3265C55.0822 87.3265 55.0383 87.3265 54.9945 87.3265C54.9506 87.3265 54.9067 87.3265 54.8627 87.3265C54.8188 87.3265 54.7748 87.3265 54.7308 87.3265C54.6867 87.3265 54.6427 87.3265 54.5986 87.3265C54.5545 87.3265 54.5103 87.3265 54.4662 87.3265C54.422 87.3265 54.3778 87.3265 54.3335 87.3265C54.2893 87.3265 54.245 87.3265 54.2007 87.3265C54.1564 87.3265 54.112 87.3265 54.0676 87.3265C53.8305 87.3265 53.7715 87.3265 53.5333 87.3265C53.2951 87.3265 53.235 87.3265 52.9957 87.3265C52.9508 87.3265 52.9058 87.3265 52.8609 87.3265C52.8159 87.3265 52.7708 87.3265 52.7258 87.3265C52.6807 87.3265 52.6356 87.3265 52.5905 87.3265C52.5454 87.3265 52.5002 87.3265 52.455 87.3265C52.4098 87.3265 52.3646 87.3265 52.3194 87.3265C52.2741 87.3265 52.2288 87.3265 52.1835 87.3265C52.1382 87.3265 52.0929 87.3265 52.0475 87.3265C52.0021 87.3265 51.9567 87.3265 51.9113 87.3265C51.6687 87.3265 51.6082 87.3265 51.3647 87.3265C51.1211 87.3265 51.0598 87.3265 50.8153 87.3265C50.7694 87.3265 50.7235 87.3265 50.6775 87.3265C50.6316 87.3265 50.5856 87.3265 50.5396 87.3265C50.4936 87.3265 50.4476 87.3265 50.4015 87.3265C50.3555 87.3265 50.3094 87.3265 50.2633 87.3265C50.2172 87.3265 50.171 87.3265 50.1249 87.3265C50.0787 87.3265 50.0325 87.3265 49.9863 87.3265C49.9401 87.3265 49.8939 87.3265 49.8476 87.3265C49.8014 87.3265 49.7551 87.3265 49.7088 87.3265C49.6624 87.3265 49.6161 87.3265 49.5697 87.3265C49.5234 87.3265 49.477 87.3265 49.4306 87.3265C49.3842 87.3265 49.3377 87.3265 49.2913 87.3265C49.2448 87.3265 49.1983 87.3265 49.1518 87.3265C49.1053 87.3265 49.0588 87.3265 49.0123 87.3265C48.9657 87.3265 48.9191 87.3265 48.8725 87.3265C48.8259 87.3265 48.7793 87.3265 48.7327 87.3265C48.686 87.3265 48.6394 87.3265 48.5927 87.3265C48.546 87.3265 48.4993 87.3265 48.4525 87.3265C48.4058 87.3265 48.3591 87.3265 48.3123 87.3265C48.2655 87.3265 48.2187 87.3265 48.1719 87.3265C48.1251 87.3265 48.0782 87.3265 48.0314 87.3265C47.9845 87.3265 47.9376 87.3265 47.8907 87.3265C47.8438 87.3265 47.7969 87.3265 47.75 87.3265C47.703 87.3265 47.656 87.3265 47.6091 87.3265C47.5621 87.3265 47.5151 87.3265 47.4681 87.3265C47.421 87.3265 47.374 87.3265 47.3269 87.3265C47.2799 87.3265 47.2328 87.3265 47.1857 87.3265C47.1386 87.3265 47.0915 87.3265 47.0443 87.3265C46.9972 87.3265 46.95 87.3265 46.9029 87.3265C46.8557 87.3265 46.8085 87.3265 46.7613 87.3265C46.7141 87.3265 46.6668 87.3265 46.6196 87.3265C46.5723 87.3265 46.5251 87.3265 46.4778 87.3265C46.4305 87.3265 46.3832 87.3265 46.3359 87.3265C46.2886 87.3265 46.2412 87.3265 46.1939 87.3265C46.1465 87.3265 46.0992 87.3265 46.0518 87.3265C46.0044 87.3265 45.957 87.3265 45.9096 87.3265C45.8622 87.3265 45.8148 87.3265 45.7673 87.3265C45.7199 87.3265 45.6724 87.3265 45.6249 87.3265C45.5774 87.3265 45.53 87.3265 45.4824 87.3265C45.4349 87.3265 45.3874 87.3265 45.3399 87.3265C45.2923 87.3265 45.2448 87.3265 45.1972 87.3265C45.1497 87.3265 45.1021 87.3265 45.0545 87.3265C45.0069 87.3265 44.9593 87.3265 44.9116 87.3265C44.864 87.3265 44.8164 87.3265 44.7687 87.3265C44.7211 87.3265 44.6734 87.3265 44.6257 87.3265C44.5781 87.3265 44.5304 87.3265 44.4827 87.3265C44.435 87.3265 44.3873 87.3265 44.3395 87.3265C44.2918 87.3265 44.2441 87.3265 44.1963 87.3265C44.1486 87.3265 44.1008 87.3265 44.053 87.3265C44.0052 87.3265 43.9574 87.3265 43.9096 87.3265C43.8618 87.3265 43.814 87.3265 43.7662 87.3265C43.7184 87.3265 43.6706 87.3265 43.6227 87.3265C43.5749 87.3265 43.527 87.3265 43.4792 87.3265C43.4313 87.3265 43.3834 87.3265 43.3355 87.3265C43.2876 87.3265 43.2397 87.3265 43.1918 87.3265C43.1439 87.3265 43.096 87.3265 43.0481 87.3265C43.0002 87.3265 42.9522 87.3265 42.9043 87.3265C42.8563 87.3265 42.8084 87.3265 42.7604 87.3265C42.7125 87.3265 42.6645 87.3265 42.6165 87.3265C42.5685 87.3265 42.5205 87.3265 42.4726 87.3265C42.4246 87.3265 42.3766 87.3265 42.3285 87.3265C42.2805 87.3265 42.2325 87.3265 42.1845 87.3265C42.1365 87.3265 42.0884 87.3265 42.0404 87.3265C41.9923 87.3265 41.9443 87.3265 41.8962 87.3265C41.8482 87.3265 41.8001 87.3265 41.752 87.3265C41.704 87.3265 41.6559 87.3265 41.6078 87.3265C41.5597 87.3265 41.5117 87.3265 41.4636 87.3265C41.4155 87.3265 41.3674 87.3265 41.3193 87.3265C41.2711 87.3265 41.223 87.3265 41.1749 87.3265C41.1268 87.3265 41.0787 87.3265 41.0306 87.3265C40.9824 87.3265 40.9343 87.3265 40.8862 87.3265C40.838 87.3265 40.7899 87.3265 40.7417 87.3265C40.6936 87.3265 40.6454 87.3265 40.5973 87.3265C40.5491 87.3265 40.501 87.3265 40.4528 87.3265C40.4047 87.3265 40.3565 87.3265 40.3083 87.3265C40.2602 87.3265 40.212 87.3265 40.1638 87.3265C40.1156 87.3265 40.0675 87.3265 40.0193 87.3265C39.9711 87.3265 39.9229 87.3265 39.8747 87.3265C39.8266 87.3265 39.7784 87.3265 39.7302 87.3265C39.682 87.3265 39.6338 87.3265 39.5856 87.3265C39.5374 87.3265 39.4892 87.3265 39.441 87.3265C39.3928 87.3265 39.3446 87.3265 39.2964 87.3265C39.2482 87.3265 39.2001 87.3265 39.1519 87.3265C39.1037 87.3265 39.0555 87.3265 39.0073 87.3265C38.9591 87.3265 38.9109 87.3265 38.8627 87.3265C38.8145 87.3265 38.7663 87.3265 38.7181 87.3265C38.6699 87.3265 38.6217 87.3265 38.5735 87.3265C38.5253 87.3265 38.4771 87.3265 38.4289 87.3265C38.3807 87.3265 38.3325 87.3265 38.2843 87.3265C38.2361 87.3265 38.1879 87.3265 38.1397 87.3265C38.0915 87.3265 38.0433 87.3265 37.9951 87.3265C37.9469 87.3265 37.8987 87.3265 37.8506 87.3265C37.8024 87.3265 37.7542 87.3265 37.706 87.3265C37.6578 87.3265 37.6097 87.3265 37.5615 87.3265C37.5133 87.3265 37.4651 87.3265 37.417 87.3265C37.3688 87.3265 37.3206 87.3265 37.2725 87.3265C37.2243 87.3265 37.1762 87.3265 37.128 87.3265C37.0799 87.3265 37.0317 87.3265 36.9836 87.3265C36.9354 87.3265 36.8873 87.3265 36.8391 87.3265C36.791 87.3265 36.7429 87.3265 36.6947 87.3265C36.6466 87.3265 36.5985 87.3265 36.5504 87.3265C36.5023 87.3265 36.4542 87.3265 36.406 87.3265C36.3579 87.3265 36.3098 87.3265 36.2617 87.3265C36.2137 87.3265 36.1656 87.3265 36.1175 87.3265C36.0694 87.3265 36.0213 87.3265 35.9733 87.3265C35.9252 87.3265 35.8771 87.3265 35.8291 87.3265C35.781 87.3265 35.733 87.3265 35.6849 87.3265C35.6369 87.3265 35.5888 87.3265 35.5408 87.3265C35.4928 87.3265 35.4448 87.3265 35.3968 87.3265C35.3487 87.3265 35.3007 87.3265 35.2527 87.3265C35.2048 87.3265 35.1568 87.3265 35.1088 87.3265C35.0608 87.3265 35.0128 87.3265 34.9649 87.3265C34.9169 87.3265 34.869 87.3265 34.821 87.3265C34.7731 87.3265 34.7251 87.3265 34.6772 87.3265C34.6293 87.3265 34.5814 87.3265 34.5335 87.3265C34.4856 87.3265 34.4377 87.3265 34.3898 87.3265C34.3419 87.3265 34.294 87.3265 34.2461 87.3265C34.1983 87.3265 34.1504 87.3265 34.1026 87.3265C34.0547 87.3265 34.0069 87.3265 33.9591 87.3265C33.9113 87.3265 33.8634 87.3265 33.8156 87.3265C33.7678 87.3265 33.7201 87.3265 33.6723 87.3265C33.6245 87.3265 33.5767 87.3265 33.529 87.3265C33.4812 87.3265 33.4335 87.3265 33.3858 87.3265C33.338 87.3265 33.2903 87.3265 33.2426 87.3265C33.1949 87.3265 33.1472 87.3265 33.0995 87.3265C33.0519 87.3265 33.0042 87.3265 32.9566 87.3265C32.9089 87.3265 32.8613 87.3265 32.8136 87.3265C32.766 87.3265 32.7184 87.3265 32.6708 87.3265C32.6232 87.3265 32.5756 87.3265 32.5281 87.3265C32.4805 87.3265 32.4329 87.3265 32.3854 87.3265C32.3379 87.3265 32.2903 87.3265 32.2428 87.3265C32.1953 87.3265 32.1478 87.3265 32.1004 87.3265C32.0529 87.3265 32.0054 87.3265 31.958 87.3265C31.9105 87.3265 31.8631 87.3265 31.8157 87.3265C31.7683 87.3265 31.7209 87.3265 31.6735 87.3265C31.6261 87.3265 31.5787 87.3265 31.5314 87.3265C31.484 87.3265 31.4367 87.3265 31.3894 87.3265C31.3421 87.3265 31.2948 87.3265 31.2475 87.3265C31.2002 87.3265 31.1529 87.3265 31.1057 87.3265C31.0584 87.3265 31.0112 87.3265 30.964 87.3265C30.9168 87.3265 30.8696 87.3265 30.8224 87.3265C30.7752 87.3265 30.7281 87.3265 30.6809 87.3265C30.6338 87.3265 30.5867 87.3265 30.5396 87.3265C30.4925 87.3265 30.4454 87.3265 30.3983 87.3265C30.3513 87.3265 30.3042 87.3265 30.2572 87.3265C30.0066 87.3265 29.9438 87.3265 29.6939 87.3265C28.1943 87.3265 26.7162 87.3265 25.2702 87.3265C25.0291 87.3265 24.9694 87.3265 24.7294 87.3265C24.6845 87.3265 24.6396 87.3265 24.5947 87.3265C24.5499 87.3265 24.505 87.3265 24.4602 87.3265C24.4154 87.3265 24.3707 87.3265 24.3259 87.3265C24.2812 87.3265 24.2365 87.3265 24.1918 87.3265C24.1472 87.3265 24.1025 87.3265 24.0579 87.3265C24.0133 87.3265 23.9688 87.3265 23.9243 87.3265C23.8797 87.3265 23.8352 87.3265 23.7908 87.3265C23.7463 87.3265 23.7019 87.3265 23.6575 87.3265C23.6131 87.3265 23.5688 87.3265 23.5244 87.3265C23.4801 87.3265 23.4358 87.3265 23.3916 87.3265C23.3474 87.3265 23.3031 87.3265 23.259 87.3265C23.2148 87.3265 23.1707 87.3265 23.1266 87.3265C23.0825 87.3265 23.0384 87.3265 22.9944 87.3265C22.9503 87.3265 22.9064 87.3265 22.8624 87.3265C22.8185 87.3265 22.7745 87.3265 22.7307 87.3265C22.6868 87.3265 22.6429 87.3265 22.5991 87.3265C22.5553 87.3265 22.5116 87.3265 22.4678 87.3265C22.4241 87.3265 22.3804 87.3265 22.3368 87.3265C22.2931 87.3265 22.2495 87.3265 22.206 87.3265C22.1624 87.3265 22.1189 87.3265 22.0754 87.3265C22.0319 87.3265 21.9884 87.3265 21.945 87.3265C21.9016 87.3265 21.8582 87.3265 21.8149 87.3265C21.7715 87.3265 21.7282 87.3265 21.685 87.3265C21.6417 87.3265 21.5985 87.3265 21.5553 87.3265C21.5122 87.3265 21.469 87.3265 21.4259 87.3265C21.3828 87.3265 21.3398 87.3265 21.2968 87.3265C21.2538 87.3265 21.2108 87.3265 21.1679 87.3265C21.1249 87.3265 21.0821 87.3265 21.0392 87.3265C15.5551 87.3265 10.7564 87.3265 7.32877 87.3265C6.47187 87.3265 5.70065 87.3265 5.02584 87.3265C5.00475 87.3265 4.98376 87.3265 4.96286 87.3265C4.94196 87.3265 4.92115 87.3265 4.90044 87.3265C4.87973 87.3265 4.85912 87.3265 4.8386 87.3265C4.81808 87.3265 4.79765 87.3265 4.77732 87.3265C4.75699 87.3265 4.73676 87.3265 4.71662 87.3265C4.69648 87.3265 4.67644 87.3265 4.6565 87.3265C4.63655 87.3265 4.6167 87.3265 4.59694 87.3265C4.57719 87.3265 4.55753 87.3265 4.53797 87.3265C4.51841 87.3265 4.49895 87.3265 4.47958 87.3265C4.46021 87.3265 4.44094 87.3265 4.42177 87.3265C4.31952 87.3265 4.40938 87.3265 4.30791 87.3265C4.28913 87.3265 4.27044 87.3265 4.25186 87.3265C4.23327 87.3265 4.21479 87.3265 4.1964 87.3265C4.17801 87.3265 4.15972 87.3265 4.14153 87.3265C4.12334 87.3265 4.10525 87.3265 4.08726 87.3265C3.72084 87.3265 3.61552 87.3265 3.30132 87.3265C2.98712 87.3265 2.93535 87.3265 2.67604 87.3265C2.66474 87.3265 2.65356 87.3265 2.64248 87.3265C2.6314 87.3265 2.62044 87.3265 2.60958 87.3265C2.59872 87.3265 2.58798 87.3265 2.57734 87.3265C2.56671 87.3265 2.55618 87.3265 2.54577 87.3265C2.49172 87.3265 2.53779 87.3265 2.48463 87.3265C2.47466 87.3265 2.4648 87.3265 2.45506 87.3265C2.44532 87.3265 2.43569 87.3265 2.42617 87.3265C2.41665 87.3265 2.40724 87.3265 2.39795 87.3265C2.38865 87.3265 2.37947 87.3265 2.37041 87.3265C2.36134 87.3265 2.35238 87.3265 2.34354 87.3265C2.3347 87.3265 2.32597 87.3265 2.31736 87.3265C2.30874 87.3265 2.30024 87.3265 2.29186 87.3265C2.28347 87.3265 2.2752 87.3265 2.26704 87.3265C2.25888 87.3265 2.25084 87.3265 2.24291 87.3265C2.23498 87.3265 2.22717 87.3265 2.21947 87.3265C2.21177 87.3265 2.20419 87.3265 2.19672 87.3265C2.18925 87.3265 2.1819 87.3265 2.17466 87.3265C2.16742 87.3265 2.1603 87.3265 2.1533 87.3265C2.14629 87.3265 2.1394 87.3265 2.13263 87.3265C2.12586 87.3265 2.1192 87.3265 2.11266 87.3265C2.10612 87.3265 2.0997 87.3265 2.09339 87.3265C2.08708 87.3265 2.08089 87.3265 2.07482 87.3265C2.06875 87.3265 2.0628 87.3265 2.05696 87.3265C2.05112 87.3265 2.0454 87.3265 2.0398 87.3265C2.0342 87.3265 2.02872 87.3265 2.02335 87.3265C2.01799 87.3265 2.01274 87.3265 2.00761 87.3265C2.00249 87.3265 1.99748 87.3265 1.99259 87.3265C1.9877 87.3265 1.98293 87.3265 1.97827 87.3265C1.97362 87.3265 1.96909 87.3265 1.96468 87.3265C1.96026 87.3265 1.95597 87.3265 1.9518 87.3265C1.94762 87.3265 1.94357 87.3265 1.93964 87.3265C1.9357 87.3265 1.93189 87.3265 1.9282 87.3265C1.92451 87.3265 1.92094 87.3265 1.91748 87.3265C1.91403 87.3265 1.9107 87.3265 1.9075 87.3265C1.90429 87.3265 1.9012 87.3265 1.89824 87.3265C1.89527 87.3265 1.89243 87.3265 1.8897 87.3265C1.88698 87.3265 1.88438 87.3265 1.8819 87.3265C1.87943 87.3265 1.87707 87.3265 1.87484 87.3265C1.8726 87.3265 1.87049 87.3265 1.86851 87.3265C1.86652 87.3265 1.86466 87.3265 1.86291 87.3265C1.86117 87.3265 1.85955 87.3265 1.85806 87.3265C1.85657 87.3265 1.85519 87.3265 1.85395 87.3265C1.8527 87.3265 1.85158 87.3265 1.85058 87.3265C1.84958 87.3265 1.8487 87.3265 1.84795 87.3265C1.8472 87.3265 1.84658 87.3265 1.84608 87.3265C1.84558 87.3265 1.8452 87.3265 1.84495 87.3265C1.8447 87.3265 1.84457 87.3265 1.84457 88.3265C1.84457 89.3265 1.8447 89.3265 1.84495 89.3265C1.8452 89.3265 1.84558 89.3265 1.84608 89.3265C1.84658 89.3265 1.8472 89.3265 1.84795 89.3265C1.8487 89.3265 1.84958 89.3265 1.85058 89.3265C1.85158 89.3265 1.8527 89.3265 1.85395 89.3265C1.85519 89.3265 1.85657 89.3265 1.85806 89.3265C1.85955 89.3265 1.86117 89.3265 1.86291 89.3265C1.86466 89.3265 1.86652 89.3265 1.86851 89.3265C1.87049 89.3265 1.8726 89.3265 1.87484 89.3265C1.87707 89.3265 1.87943 89.3265 1.8819 89.3265C1.88438 89.3265 1.88698 89.3265 1.8897 89.3265C1.89243 89.3265 1.89527 89.3265 1.89824 89.3265C1.9012 89.3265 1.90429 89.3265 1.9075 89.3265C1.9107 89.3265 1.91403 89.3265 1.91748 89.3265C1.92094 89.3265 1.92451 89.3265 1.9282 89.3265C1.93189 89.3265 1.9357 89.3265 1.93964 89.3265C1.94357 89.3265 1.94762 89.3265 1.9518 89.3265C1.95597 89.3265 1.96026 89.3265 1.96468 89.3265C1.96909 89.3265 1.97362 89.3265 1.97827 89.3265C1.98293 89.3265 1.9877 89.3265 1.99259 89.3265C1.99748 89.3265 2.00249 89.3265 2.00761 89.3265C2.01274 89.3265 2.01799 89.3265 2.02335 89.3265C2.02872 89.3265 2.0342 89.3265 2.0398 89.3265C2.0454 89.3265 2.05112 89.3265 2.05696 89.3265C2.0628 89.3265 2.06875 89.3265 2.07482 89.3265C2.08089 89.3265 2.08708 89.3265 2.09339 89.3265C2.0997 89.3265 2.10612 89.3265 2.11266 89.3265C2.1192 89.3265 2.12586 89.3265 2.13263 89.3265C2.1394 89.3265 2.14629 89.3265 2.1533 89.3265C2.1603 89.3265 2.16742 89.3265 2.17466 89.3265C2.1819 89.3265 2.18925 89.3265 2.19672 89.3265C2.20419 89.3265 2.21177 89.3265 2.21947 89.3265C2.22717 89.3265 2.23498 89.3265 2.24291 89.3265C2.25084 89.3265 2.25888 89.3265 2.26704 89.3265C2.2752 89.3265 2.28347 89.3265 2.29186 89.3265C2.30024 89.3265 2.30874 89.3265 2.31736 89.3265C2.32597 89.3265 2.3347 89.3265 2.34354 89.3265C2.35238 89.3265 2.36134 89.3265 2.37041 89.3265C2.37947 89.3265 2.38865 89.3265 2.39795 89.3265C2.40724 89.3265 2.41665 89.3265 2.42617 89.3265C2.53366 89.3265 2.4347 89.3265 2.54577 89.3265C2.55618 89.3265 2.56671 89.3265 2.57734 89.3265C2.58798 89.3265 2.59872 89.3265 2.60958 89.3265C2.62044 89.3265 2.6314 89.3265 2.64248 89.3265C2.65356 89.3265 2.66474 89.3265 2.67604 89.3265C2.93535 89.3265 2.98712 89.3265 3.30132 89.3265C3.61552 89.3265 3.72084 89.3265 4.08726 89.3265C4.10525 89.3265 4.12334 89.3265 4.14153 89.3265C4.15972 89.3265 4.17801 89.3265 4.1964 89.3265C4.21479 89.3265 4.23327 89.3265 4.25186 89.3265C4.27044 89.3265 4.28913 89.3265 4.30791 89.3265C4.32669 89.3265 4.34557 89.3265 4.36455 89.3265C4.38352 89.3265 4.4026 89.3265 4.42177 89.3265C4.44094 89.3265 4.46021 89.3265 4.47958 89.3265C4.49895 89.3265 4.51841 89.3265 4.53797 89.3265C4.55753 89.3265 4.57719 89.3265 4.59694 89.3265C4.6167 89.3265 4.63655 89.3265 4.6565 89.3265C4.67644 89.3265 4.69648 89.3265 4.71662 89.3265C4.73676 89.3265 4.75699 89.3265 4.77732 89.3265C4.79765 89.3265 4.81808 89.3265 4.8386 89.3265C4.85912 89.3265 4.87973 89.3265 4.90044 89.3265C4.92115 89.3265 4.94196 89.3265 4.96286 89.3265C4.98376 89.3265 5.00475 89.3265 5.02584 89.3265C5.04693 89.3265 5.06811 89.3265 5.08939 89.3265C5.11066 89.3265 5.13203 89.3265 5.15349 89.3265C5.17496 89.3265 5.19651 89.3265 5.21816 89.3265C5.23981 89.3265 5.26156 89.3265 5.28339 89.3265C5.30523 89.3265 5.32716 89.3265 5.34918 89.3265C5.3712 89.3265 5.39331 89.3265 5.41552 89.3265C5.43772 89.3265 5.46002 89.3265 5.48241 89.3265C5.5048 89.3265 5.52728 89.3265 5.54986 89.3265C5.79449 89.3265 5.85284 89.3265 6.10902 89.3265C6.3652 89.3265 6.43494 89.3265 6.70233 89.3265C6.72775 89.3265 6.75325 89.3265 6.77884 89.3265C6.80443 89.3265 6.83011 89.3265 6.85587 89.3265C6.88163 89.3265 6.90748 89.3265 6.93342 89.3265C6.95935 89.3265 6.98537 89.3265 7.01147 89.3265C7.03757 89.3265 7.06376 89.3265 7.09004 89.3265C7.11631 89.3265 7.14267 89.3265 7.16911 89.3265C7.19555 89.3265 7.22208 89.3265 7.24869 89.3265C7.2753 89.3265 7.30199 89.3265 7.32877 89.3265C10.7564 89.3265 15.5551 89.3265 21.0392 89.3265C21.0821 89.3265 21.1249 89.3265 21.1679 89.3265C21.2108 89.3265 21.2538 89.3265 21.2968 89.3265C21.3398 89.3265 21.3828 89.3265 21.4259 89.3265C21.469 89.3265 21.5122 89.3265 21.5553 89.3265C21.5985 89.3265 21.6417 89.3265 21.685 89.3265C21.7282 89.3265 21.7715 89.3265 21.8149 89.3265C21.8582 89.3265 21.9016 89.3265 21.945 89.3265C21.9884 89.3265 22.0319 89.3265 22.0754 89.3265C22.1189 89.3265 22.1624 89.3265 22.206 89.3265C22.2495 89.3265 22.2931 89.3265 22.3368 89.3265C22.3804 89.3265 22.4241 89.3265 22.4678 89.3265C22.5116 89.3265 22.5553 89.3265 22.5991 89.3265C22.6429 89.3265 22.6868 89.3265 22.7307 89.3265C22.7745 89.3265 22.8185 89.3265 22.8624 89.3265C22.9064 89.3265 22.9503 89.3265 22.9944 89.3265C23.0384 89.3265 23.0825 89.3265 23.1266 89.3265C23.1707 89.3265 23.2148 89.3265 23.259 89.3265C23.3031 89.3265 23.3474 89.3265 23.3916 89.3265C23.4358 89.3265 23.4801 89.3265 23.5244 89.3265C23.5688 89.3265 23.6131 89.3265 23.6575 89.3265C23.7019 89.3265 23.7463 89.3265 23.7908 89.3265C23.8352 89.3265 23.8797 89.3265 23.9243 89.3265C23.9688 89.3265 24.0133 89.3265 24.0579 89.3265C24.1025 89.3265 24.1472 89.3265 24.1918 89.3265C24.2365 89.3265 24.2812 89.3265 24.3259 89.3265C24.3707 89.3265 24.4154 89.3265 24.4602 89.3265C24.505 89.3265 24.5499 89.3265 24.5947 89.3265C24.6396 89.3265 24.6845 89.3265 24.7294 89.3265C24.9694 89.3265 25.0291 89.3265 25.2702 89.3265C25.5112 89.3265 25.5719 89.3265 25.8139 89.3265C25.8593 89.3265 25.9048 89.3265 25.9503 89.3265C25.9958 89.3265 26.0413 89.3265 26.0869 89.3265C26.1324 89.3265 26.178 89.3265 26.2236 89.3265C26.2692 89.3265 26.3149 89.3265 26.3605 89.3265C26.4062 89.3265 26.4519 89.3265 26.4976 89.3265C26.5433 89.3265 26.5891 89.3265 26.6349 89.3265C26.6807 89.3265 26.7265 89.3265 26.7723 89.3265C26.8181 89.3265 26.864 89.3265 26.9099 89.3265C26.9558 89.3265 27.0017 89.3265 27.0477 89.3265C27.0936 89.3265 27.1396 89.3265 27.1856 89.3265C27.2316 89.3265 27.2776 89.3265 27.3237 89.3265C27.3697 89.3265 27.4158 89.3265 27.4619 89.3265C27.508 89.3265 27.5542 89.3265 27.6003 89.3265C27.6465 89.3265 27.6927 89.3265 27.7389 89.3265C27.7851 89.3265 27.8313 89.3265 27.8776 89.3265C27.9239 89.3265 27.9702 89.3265 28.0165 89.3265C28.0628 89.3265 28.1091 89.3265 28.1555 89.3265C28.2018 89.3265 28.2482 89.3265 28.2946 89.3265C28.3411 89.3265 28.3875 89.3265 28.4339 89.3265C28.4804 89.3265 28.5269 89.3265 28.5734 89.3265C28.6199 89.3265 28.6664 89.3265 28.713 89.3265C28.7595 89.3265 28.8061 89.3265 28.8527 89.3265C28.8993 89.3265 28.9459 89.3265 28.9926 89.3265C29.0392 89.3265 29.0859 89.3265 29.1326 89.3265C29.1793 89.3265 29.226 89.3265 29.2727 89.3265C29.3194 89.3265 29.3662 89.3265 29.413 89.3265C29.4597 89.3265 29.5065 89.3265 29.5534 89.3265C29.6002 89.3265 29.647 89.3265 29.6939 89.3265C29.7407 89.3265 29.7876 89.3265 29.8345 89.3265C29.8814 89.3265 29.9284 89.3265 29.9753 89.3265C30.0222 89.3265 30.0692 89.3265 30.1162 89.3265C30.1632 89.3265 30.2102 89.3265 30.2572 89.3265C30.3042 89.3265 30.3513 89.3265 30.3983 89.3265C30.4454 89.3265 30.4925 89.3265 30.5396 89.3265C30.5867 89.3265 30.6338 89.3265 30.6809 89.3265C30.7281 89.3265 30.7752 89.3265 30.8224 89.3265C30.8696 89.3265 30.9168 89.3265 30.964 89.3265C31.0112 89.3265 31.0584 89.3265 31.1057 89.3265C31.1529 89.3265 31.2002 89.3265 31.2475 89.3265C31.2948 89.3265 31.3421 89.3265 31.3894 89.3265C31.4367 89.3265 31.484 89.3265 31.5314 89.3265C31.5787 89.3265 31.6261 89.3265 31.6735 89.3265C31.7209 89.3265 31.7683 89.3265 31.8157 89.3265C31.8631 89.3265 31.9105 89.3265 31.958 89.3265C32.0054 89.3265 32.0529 89.3265 32.1004 89.3265C32.1478 89.3265 32.1953 89.3265 32.2428 89.3265C32.2903 89.3265 32.3379 89.3265 32.3854 89.3265C32.4329 89.3265 32.4805 89.3265 32.5281 89.3265C32.5756 89.3265 32.6232 89.3265 32.6708 89.3265C32.7184 89.3265 32.766 89.3265 32.8136 89.3265C32.8613 89.3265 32.9089 89.3265 32.9566 89.3265C33.0042 89.3265 33.0519 89.3265 33.0995 89.3265C33.1472 89.3265 33.1949 89.3265 33.2426 89.3265C33.2903 89.3265 33.338 89.3265 33.3858 89.3265C33.4335 89.3265 33.4812 89.3265 33.529 89.3265C33.5767 89.3265 33.6245 89.3265 33.6723 89.3265C33.7201 89.3265 33.7678 89.3265 33.8156 89.3265C33.8634 89.3265 33.9113 89.3265 33.9591 89.3265C34.0069 89.3265 34.0547 89.3265 34.1026 89.3265C34.1504 89.3265 34.1983 89.3265 34.2461 89.3265C34.294 89.3265 34.3419 89.3265 34.3898 89.3265C34.4377 89.3265 34.4856 89.3265 34.5335 89.3265C34.5814 89.3265 34.6293 89.3265 34.6772 89.3265C34.7251 89.3265 34.7731 89.3265 34.821 89.3265C34.869 89.3265 34.9169 89.3265 34.9649 89.3265C35.0128 89.3265 35.0608 89.3265 35.1088 89.3265C35.1568 89.3265 35.2048 89.3265 35.2527 89.3265C35.3007 89.3265 35.3487 89.3265 35.3968 89.3265C35.4448 89.3265 35.4928 89.3265 35.5408 89.3265C35.5888 89.3265 35.6369 89.3265 35.6849 89.3265C35.733 89.3265 35.781 89.3265 35.8291 89.3265C35.8771 89.3265 35.9252 89.3265 35.9733 89.3265C36.0213 89.3265 36.0694 89.3265 36.1175 89.3265C36.1656 89.3265 36.2137 89.3265 36.2617 89.3265C36.3098 89.3265 36.3579 89.3265 36.406 89.3265C36.4542 89.3265 36.5023 89.3265 36.5504 89.3265C36.5985 89.3265 36.6466 89.3265 36.6947 89.3265C36.7429 89.3265 36.791 89.3265 36.8391 89.3265C36.8873 89.3265 36.9354 89.3265 36.9836 89.3265C37.0317 89.3265 37.0799 89.3265 37.128 89.3265C37.1762 89.3265 37.2243 89.3265 37.2725 89.3265C37.3206 89.3265 37.3688 89.3265 37.417 89.3265C37.4651 89.3265 37.5133 89.3265 37.5615 89.3265C37.6097 89.3265 37.6578 89.3265 37.706 89.3265C37.7542 89.3265 37.8024 89.3265 37.8506 89.3265C37.8987 89.3265 37.9469 89.3265 37.9951 89.3265C38.0433 89.3265 38.0915 89.3265 38.1397 89.3265C38.1879 89.3265 38.2361 89.3265 38.2843 89.3265C38.3325 89.3265 38.3807 89.3265 38.4289 89.3265C38.4771 89.3265 38.5253 89.3265 38.5735 89.3265C38.6217 89.3265 38.6699 89.3265 38.7181 89.3265C38.7663 89.3265 38.8145 89.3265 38.8627 89.3265C38.9109 89.3265 38.9591 89.3265 39.0073 89.3265C39.0555 89.3265 39.1037 89.3265 39.1519 89.3265C39.2001 89.3265 39.2482 89.3265 39.2964 89.3265C39.3446 89.3265 39.3928 89.3265 39.441 89.3265C39.4892 89.3265 39.5374 89.3265 39.5856 89.3265C39.6338 89.3265 39.682 89.3265 39.7302 89.3265C39.7784 89.3265 39.8266 89.3265 39.8747 89.3265C39.9229 89.3265 39.9711 89.3265 40.0193 89.3265C40.0675 89.3265 40.1156 89.3265 40.1638 89.3265C40.212 89.3265 40.2602 89.3265 40.3083 89.3265C40.3565 89.3265 40.4047 89.3265 40.4528 89.3265C40.501 89.3265 40.5491 89.3265 40.5973 89.3265C40.6454 89.3265 40.6936 89.3265 40.7417 89.3265C40.7899 89.3265 40.838 89.3265 40.8862 89.3265C40.9343 89.3265 40.9824 89.3265 41.0306 89.3265C41.0787 89.3265 41.1268 89.3265 41.1749 89.3265C41.223 89.3265 41.2711 89.3265 41.3193 89.3265C41.3674 89.3265 41.4155 89.3265 41.4636 89.3265C41.5117 89.3265 41.5597 89.3265 41.6078 89.3265C41.6559 89.3265 41.704 89.3265 41.752 89.3265C41.8001 89.3265 41.8482 89.3265 41.8962 89.3265C41.9443 89.3265 41.9923 89.3265 42.0404 89.3265C42.0884 89.3265 42.1365 89.3265 42.1845 89.3265C42.2325 89.3265 42.2805 89.3265 42.3285 89.3265C42.3766 89.3265 42.4246 89.3265 42.4726 89.3265C42.5205 89.3265 42.5685 89.3265 42.6165 89.3265C42.6645 89.3265 42.7125 89.3265 42.7604 89.3265C42.8084 89.3265 42.8563 89.3265 42.9043 89.3265C42.9522 89.3265 43.0002 89.3265 43.0481 89.3265C43.096 89.3265 43.1439 89.3265 43.1918 89.3265C43.2397 89.3265 43.2876 89.3265 43.3355 89.3265C43.3834 89.3265 43.4313 89.3265 43.4792 89.3265C43.527 89.3265 43.5749 89.3265 43.6227 89.3265C43.6706 89.3265 43.7184 89.3265 43.7662 89.3265C43.814 89.3265 43.8618 89.3265 43.9096 89.3265C43.9574 89.3265 44.0052 89.3265 44.053 89.3265C44.1008 89.3265 44.1486 89.3265 44.1963 89.3265C44.2441 89.3265 44.2918 89.3265 44.3395 89.3265C44.3873 89.3265 44.435 89.3265 44.4827 89.3265C44.5304 89.3265 44.5781 89.3265 44.6257 89.3265C44.6734 89.3265 44.7211 89.3265 44.7687 89.3265C44.8164 89.3265 44.864 89.3265 44.9116 89.3265C44.9593 89.3265 45.0069 89.3265 45.0545 89.3265C45.1021 89.3265 45.1497 89.3265 45.1972 89.3265C45.2448 89.3265 45.2923 89.3265 45.3399 89.3265C45.3874 89.3265 45.4349 89.3265 45.4824 89.3265C45.53 89.3265 45.5774 89.3265 45.6249 89.3265C45.6724 89.3265 45.7199 89.3265 45.7673 89.3265C45.8148 89.3265 45.8622 89.3265 45.9096 89.3265C45.957 89.3265 46.0044 89.3265 46.0518 89.3265C46.0992 89.3265 46.1465 89.3265 46.1939 89.3265C46.2412 89.3265 46.2886 89.3265 46.3359 89.3265C46.3832 89.3265 46.4305 89.3265 46.4778 89.3265C46.5251 89.3265 46.5723 89.3265 46.6196 89.3265C46.6668 89.3265 46.7141 89.3265 46.7613 89.3265C46.8085 89.3265 46.8557 89.3265 46.9029 89.3265C46.95 89.3265 46.9972 89.3265 47.0443 89.3265C47.0915 89.3265 47.1386 89.3265 47.1857 89.3265C47.2328 89.3265 47.2799 89.3265 47.3269 89.3265C47.374 89.3265 47.421 89.3265 47.4681 89.3265C47.5151 89.3265 47.5621 89.3265 47.6091 89.3265C47.656 89.3265 47.703 89.3265 47.75 89.3265C47.7969 89.3265 47.8438 89.3265 47.8907 89.3265C47.9376 89.3265 47.9845 89.3265 48.0314 89.3265C48.0782 89.3265 48.1251 89.3265 48.1719 89.3265C48.2187 89.3265 48.2655 89.3265 48.3123 89.3265C48.3591 89.3265 48.4058 89.3265 48.4525 89.3265C48.4993 89.3265 48.546 89.3265 48.5927 89.3265C48.6394 89.3265 48.686 89.3265 48.7327 89.3265C48.7793 89.3265 48.8259 89.3265 48.8725 89.3265C48.9191 89.3265 48.9657 89.3265 49.0123 89.3265C49.0588 89.3265 49.1053 89.3265 49.1518 89.3265C49.1983 89.3265 49.2448 89.3265 49.2913 89.3265C49.3377 89.3265 49.3842 89.3265 49.4306 89.3265C49.477 89.3265 49.5234 89.3265 49.5697 89.3265C49.6161 89.3265 49.6624 89.3265 49.7088 89.3265C49.7551 89.3265 49.8014 89.3265 49.8476 89.3265C49.8939 89.3265 49.9401 89.3265 49.9863 89.3265C50.0325 89.3265 50.0787 89.3265 50.1249 89.3265C50.171 89.3265 50.2172 89.3265 50.2633 89.3265C50.3094 89.3265 50.3555 89.3265 50.4015 89.3265C50.4476 89.3265 50.4936 89.3265 50.5396 89.3265C50.5856 89.3265 50.6316 89.3265 50.6775 89.3265C50.7235 89.3265 50.7694 89.3265 50.8153 89.3265C51.0598 89.3265 51.1211 89.3265 51.3647 89.3265C51.6082 89.3265 51.6687 89.3265 51.9113 89.3265C51.9567 89.3265 52.0021 89.3265 52.0475 89.3265C52.0929 89.3265 52.1382 89.3265 52.1835 89.3265C52.2288 89.3265 52.2741 89.3265 52.3194 89.3265C52.3646 89.3265 52.4098 89.3265 52.455 89.3265C53.178 89.3265 53.893 89.3265 54.5986 89.3265C54.6427 89.3265 54.6867 89.3265 54.7308 89.3265C54.7748 89.3265 54.8188 89.3265 54.8627 89.3265C54.9067 89.3265 54.9506 89.3265 54.9945 89.3265C55.0383 89.3265 55.0822 89.3265 55.126 89.3265C55.1698 89.3265 55.2135 89.3265 55.2573 89.3265C55.301 89.3265 55.3447 89.3265 55.3883 89.3265C55.432 89.3265 55.4756 89.3265 55.5192 89.3265C55.5627 89.3265 55.6063 89.3265 55.6497 89.3265C55.6932 89.3265 55.7367 89.3265 55.7801 89.3265C55.8235 89.3265 55.8669 89.3265 55.9102 89.3265C55.9536 89.3265 55.9969 89.3265 56.0401 89.3265C56.0834 89.3265 56.1266 89.3265 56.1698 89.3265C56.2129 89.3265 56.2561 89.3265 56.2991 89.3265C56.3422 89.3265 56.3853 89.3265 56.4283 89.3265C56.4713 89.3265 56.5143 89.3265 56.5572 89.3265C56.6001 89.3265 56.643 89.3265 56.6859 89.3265V87.3265ZM2.84457 88.3265L2.84375 0.999991L0.84375 1.00001L0.844574 88.3265L2.84457 88.3265ZM130.777 1V48.6715H132.777V1H130.777ZM65.8106 5.21965V91.7014H67.8106V5.21965H65.8106ZM1.84375 1C1.84375 2 1.84389 2 1.84416 2C1.84443 2 1.84484 2 1.84539 2C1.84593 2 1.84662 2 1.84743 2C1.84825 2 1.8492 2 1.85029 2C1.85138 2 1.8526 2 1.85396 2C1.85532 2 1.85681 2 1.85844 2C1.86007 2 1.86183 2 1.86372 2C1.86562 2 1.86765 2 1.86981 2C1.87198 2 1.87427 2 1.8767 2C1.87913 2 1.8817 2 1.88439 2C1.88709 2 1.88992 2 1.89288 2C1.89584 2 1.89894 2 1.90216 2C1.90539 2 1.90875 2 1.91224 2C1.91573 2 1.91935 2 1.9231 2C1.92686 2 1.93074 2 1.93476 2C1.93877 2 1.94292 2 1.94719 2C1.95147 2 1.95588 2 1.96042 2C1.96495 2 1.96962 2 1.97442 2C1.97921 2 1.98414 2 1.9892 2C1.99425 2 1.99944 2 2.00475 2C2.01007 2 2.01551 2 2.02108 2C2.02665 2 2.03235 2 2.03818 2C2.04401 2 2.04997 2 2.05605 2C2.06214 2 2.06835 2 2.07469 2C2.08103 2 2.0875 2 2.09409 2C2.10068 2 2.1074 2 2.11425 2C2.1211 2 2.12807 2 2.13517 2C2.14227 2 2.1495 2 2.15685 2C2.1642 2 2.17168 2 2.17929 2C2.18689 2 2.19462 2 2.20247 2C2.21032 2 2.2183 2 2.22641 2C2.23451 2 2.24274 2 2.25109 2C2.25944 2 2.26792 2 2.27652 2C2.28512 2 2.29384 2 2.30269 2C2.31154 2 2.32051 2 2.3296 2C2.3387 2 2.34791 2 2.35725 2C2.36659 2 2.37606 2 2.38564 2C2.39522 2 2.40493 2 2.41476 2C2.42459 2 2.43454 2 2.44461 2C2.45468 2 2.46488 2 2.47519 2C2.4855 2 2.49594 2 2.5065 2C2.51705 2 2.52773 2 2.53853 2C2.54932 2 2.56024 2 2.57128 2C2.58232 2 2.59347 2 2.60475 2C2.61603 2 2.62742 2 2.63894 2C2.65045 2 2.66209 2 2.67384 2C2.68559 2 2.69747 2 2.70946 2C2.72145 2 2.73356 2 2.74578 2C2.75801 2 2.77035 2 2.78282 2C2.79528 2 2.80786 2 2.82055 2C2.83325 2 2.84606 2 2.85899 2C2.87192 2 2.88497 2 2.89814 2C2.9113 2 2.92458 2 2.93798 2C2.95137 2 2.96488 2 2.97851 2C2.99214 2 3.00588 2 3.01974 2C3.0336 2 3.04757 2 3.06166 2C3.07575 2 3.08995 2 3.10427 2C3.11859 2 3.13302 2 3.14756 2C3.16211 2 3.17677 2 3.19154 2C3.20632 2 3.2212 2 3.2362 2C3.2512 2 3.26632 2 3.28154 2C3.29677 2 3.31211 2 3.32756 2C3.34301 2 3.35857 2 3.37425 2C3.38993 2 3.40571 2 3.42161 2C3.43751 2 3.45353 2 3.46965 2C3.48577 2 3.502 2 3.51835 2C3.53469 2 3.55115 2 3.56772 2C3.58428 2 3.60096 2 3.61774 2C3.63453 2 3.65143 2 3.66843 2C3.68544 2 3.70256 2 3.71978 2C3.73701 2 3.75434 2 3.77178 2C3.78923 2 3.80678 2 3.82444 2C3.8421 2 3.85987 2 3.87775 2C3.89563 2 3.91361 2 3.9317 2C3.9498 2 3.968 2 3.98631 2C4.00462 2 4.02303 2 4.04155 2C4.06008 2 4.07871 2 4.09744 2C4.11618 2 4.13502 2 4.15397 2C4.17292 2 4.19197 2 4.21113 2C4.23029 2 4.24956 2 4.26893 2C4.2883 2 4.30778 2 4.32736 2C4.34694 2 4.36663 2 4.38642 2C4.40621 2 4.42611 2 4.44611 2C4.46611 2 4.48621 2 4.50642 2C4.52663 2 4.54694 2 4.56736 2C4.58777 2 4.60829 2 4.62892 2C4.64954 2 4.67026 2 4.69109 2C4.71192 2 4.73285 2 4.75388 2C4.77491 2 4.79605 2 4.81728 2C4.83852 2 4.85986 2 4.8813 2C4.90274 2 4.92428 2 4.94592 2C4.96756 2 4.9893 2 5.01115 2C5.03299 2 5.05493 2 5.07698 2C5.09902 2 5.12117 2 5.14341 2C5.16566 2 5.188 2 5.21045 2C5.23289 2 5.25543 2 5.27808 2C5.30072 2 5.32346 2 5.3463 2C5.36914 2 5.39208 2 5.41512 2C5.43815 2 5.46129 2 5.48452 2C5.50776 2 5.53109 2 5.55452 2C5.57795 2 5.60147 2 5.6251 2C5.64872 2 5.67244 2 5.69626 2C5.72007 2 5.74399 2 5.768 2C5.79201 2 5.81612 2 5.84032 2C5.86452 2 5.88882 2 5.91321 2C5.93761 2 5.9621 2 5.98668 2C6.01127 2 6.03595 2 6.06072 2C6.08549 2 6.11036 2 6.13533 2C6.16029 2 6.18535 2 6.2105 2C6.23565 2 6.2609 2 6.28624 2C6.31158 2 6.33701 2 6.36254 2C6.38806 2 6.41368 2 6.4394 2C6.46511 2 6.49091 2 6.51681 2C6.54271 2 6.5687 2 6.59478 2C6.62086 2 6.64704 2 6.6733 2C6.69957 2 6.72592 2 6.75237 2C6.77882 2 6.80536 2 6.83199 2C6.85862 2 6.88534 2 6.91215 2C6.93896 2 6.96587 2 6.99286 2C7.01985 2 7.04693 2 7.0741 2C7.10127 2 7.12854 2 7.15589 2C7.18324 2 7.21068 2 7.23821 2C7.26573 2 7.29335 2 7.32106 2C7.34876 2 7.37656 2 7.40444 2C7.43232 2 7.46029 2 7.48835 2C7.51641 2 7.54456 2 7.57279 2C7.60102 2 7.62934 2 7.65775 2C7.68616 2 7.71465 2 7.74323 2C9.6392 2 11.6891 2 14.1906 2C15.4219 2 16.6744 2 18.0184 2C18.06 2 18.1016 2 18.1433 2C18.1849 2 18.2266 2 18.2684 2C18.3102 2 18.352 2 18.3938 2C18.4357 2 18.4776 2 18.5195 2C18.6537 2 18.6373 2 18.7718 2C18.8139 2 18.8561 2 18.8984 2C18.9406 2 18.9829 2 19.0252 2C19.0675 2 19.1099 2 19.1523 2C19.1947 2 19.2372 2 19.2797 2C19.4028 2 19.4118 2 19.5352 2C19.7704 2 19.8129 2 20.0495 2C20.1621 2 20.1953 2 20.3082 2C20.3514 2 20.3946 2 20.4379 2C20.4812 2 20.5245 2 20.5679 2C20.7759 2 20.8808 2 21.0901 2C21.1894 2 21.2531 2 21.3527 2C21.3965 2 21.4404 2 21.4843 2C21.5282 2 21.5722 2 21.6162 2C21.7988 2 21.9621 2 22.1459 2C33.4703 2 47.2071 2 56.6859 2V0C47.1906 0 33.4868 0 22.1459 0C21.7647 0 21.4665 0 21.0901 0C21.0465 0 21.0028 0 20.9592 0C20.9156 0 20.872 0 20.8285 0C20.7224 0 20.6737 0 20.5679 0C20.5245 0 20.4812 0 20.4379 0C20.3946 0 20.3514 0 20.3082 0C20.1953 0 20.1621 0 20.0495 0C20.0065 0 19.9635 0 19.9205 0C19.8776 0 19.8347 0 19.7919 0C19.672 0 19.6548 0 19.5352 0C19.4926 0 19.4499 0 19.4073 0C19.3647 0 19.3222 0 19.2797 0C19.2372 0 19.1947 0 19.1523 0C19.1099 0 19.0675 0 19.0252 0C18.8944 0 18.9022 0 18.7718 0C18.7297 0 18.6876 0 18.6455 0C18.6035 0 18.5615 0 18.5195 0C18.4776 0 18.4357 0 18.3938 0C18.352 0 18.3102 0 18.2684 0C18.2266 0 18.1849 0 18.1433 0C18.1016 0 18.06 0 18.0184 0C16.6744 0 15.4219 0 14.1906 0C14.1526 0 14.1146 0 14.0767 0C14.0388 0 14.0009 0 13.9631 0C13.9253 0 13.8876 0 13.8499 0C13.8122 0 13.7746 0 13.7371 0C13.6995 0 13.6621 0 13.6246 0C13.5872 0 13.5499 0 13.5126 0C13.4753 0 13.4381 0 13.4009 0C13.3637 0 13.3266 0 13.2896 0C13.2525 0 13.2156 0 13.1787 0C13.1418 0 13.1049 0 13.0681 0C13.0314 0 12.9947 0 12.958 0C12.9214 0 12.8848 0 12.8483 0C12.8118 0 12.7753 0 12.7389 0C12.7025 0 12.6662 0 12.63 0C12.5937 0 12.5575 0 12.5214 0C12.4853 0 12.4493 0 12.4133 0C12.3773 0 12.3414 0 12.3056 0C12.2697 0 12.2339 0 12.1982 0C12.1625 0 12.1269 0 12.0913 0C12.0557 0 12.0202 0 11.9848 0C11.9494 0 11.914 0 11.8787 0C11.8434 0 11.8082 0 11.7731 0C11.7379 0 11.7028 0 11.6678 0C11.6328 0 11.5978 0 11.563 0C11.5281 0 11.4933 0 11.4586 0C11.4238 0 11.3892 0 11.3546 0C11.32 0 11.2855 0 11.251 0C11.2166 0 11.1822 0 11.1479 0C11.1136 0 11.0794 0 11.0452 0C11.0111 0 10.977 0 10.943 0C10.909 0 10.8751 0 10.8412 0C10.8073 0 10.7736 0 10.7398 0C10.7061 0 10.6725 0 10.6389 0C10.6053 0 10.5719 0 10.5384 0C10.505 0 10.4717 0 10.4384 0C10.4051 0 10.372 0 10.3388 0C10.3057 0 10.2727 0 10.2397 0C10.2067 0 10.1739 0 10.141 0C10.1082 0 10.0755 0 10.0428 0C10.0102 0 9.97759 0 9.94509 0C9.91258 0 9.88015 0 9.8478 0C9.81545 0 9.78317 0 9.75098 0C9.71878 0 9.68666 0 9.65462 0C9.62258 0 9.59062 0 9.55873 0C9.52685 0 9.49505 0 9.46332 0C9.43159 0 9.39995 0 9.36838 0C9.33681 0 9.30532 0 9.27392 0C9.24251 0 9.21118 0 9.17993 0C9.14868 0 9.11751 0 9.08643 0C9.05534 0 9.02433 0 8.99341 0C8.96248 0 8.93164 0 8.90087 0C8.87011 0 8.83943 0 8.80883 0C8.77823 0 8.74771 0 8.71727 0C8.68684 0 8.65648 0 8.62621 0C8.59594 0 8.56575 0 8.53565 0C8.50554 0 8.47552 0 8.44558 0C8.41564 0 8.38578 0 8.35601 0C8.32624 0 8.29655 0 8.26694 0C8.23734 0 8.20782 0 8.17838 0C8.14895 0 8.11959 0 8.09033 0C8.06106 0 8.03188 0 8.00278 0C7.97369 0 7.94468 0 7.91575 0C7.88683 0 7.85799 0 7.82923 0C7.80048 0 7.77181 0 7.74323 0C5.96882 0 4.38444 0 3.42161 0C3.40571 0 3.38993 0 3.37425 0C3.35857 0 3.34301 0 3.32756 0C3.31211 0 3.29677 0 3.28154 0C3.26632 0 3.2512 0 3.2362 0C3.2212 0 3.20632 0 3.19154 0C3.17677 0 3.16211 0 3.14756 0C3.13302 0 3.11859 0 3.10427 0C3.08995 0 3.07575 0 3.06166 0C3.04757 0 3.0336 0 3.01974 0C3.00588 0 2.99214 0 2.97851 0C2.96488 0 2.95137 0 2.93798 0C2.92458 0 2.9113 0 2.89814 0C2.88497 0 2.87192 0 2.85899 0C2.84606 0 2.83325 0 2.82055 0C2.80786 0 2.79528 0 2.78282 0C2.77035 0 2.75801 0 2.74578 0C2.73356 0 2.72145 0 2.70946 0C2.69747 0 2.68559 0 2.67384 0C2.66209 0 2.65045 0 2.63894 0C2.62742 0 2.61603 0 2.60475 0C2.59347 0 2.58232 0 2.57128 0C2.56024 0 2.54932 0 2.53853 0C2.52773 0 2.51705 0 2.5065 0C2.49594 0 2.4855 0 2.47519 0C2.46488 0 2.45468 0 2.44461 0C2.43454 0 2.42459 0 2.41476 0C2.40493 0 2.39522 0 2.38564 0C2.37606 0 2.36659 0 2.35725 0C2.34791 0 2.3387 0 2.3296 0C2.32051 0 2.31154 0 2.30269 0C2.29384 0 2.28512 0 2.27652 0C2.26792 0 2.25944 0 2.25109 0C2.24274 0 2.23451 0 2.22641 0C2.2183 0 2.21032 0 2.20247 0C2.19462 0 2.18689 0 2.17929 0C2.17168 0 2.1642 0 2.15685 0C2.1495 0 2.14227 0 2.13517 0C2.12807 0 2.1211 0 2.11425 0C2.1074 0 2.10068 0 2.09409 0C2.0875 0 2.08103 0 2.07469 0C2.06835 0 2.06214 0 2.05605 0C2.04997 0 2.04401 0 2.03818 0C2.03235 0 2.02665 0 2.02108 0C2.01551 0 2.01007 0 2.00475 0C1.99944 0 1.99425 0 1.9892 0C1.98414 0 1.97921 0 1.97442 0C1.96962 0 1.96495 0 1.96042 0C1.95588 0 1.95147 0 1.94719 0C1.94292 0 1.93877 0 1.93476 0C1.93074 0 1.92686 0 1.9231 0C1.91935 0 1.91573 0 1.91224 0C1.90875 0 1.90539 0 1.90216 0C1.89894 0 1.89584 0 1.89288 0C1.88992 0 1.88709 0 1.88439 0C1.8817 0 1.87913 0 1.8767 0C1.87427 0 1.87198 0 1.86981 0C1.86765 0 1.86562 0 1.86372 0C1.86183 0 1.86007 0 1.85844 0C1.85681 0 1.85532 0 1.85396 0C1.8526 0 1.85138 0 1.85029 0C1.8492 0 1.84825 0 1.84743 0C1.84662 0 1.84593 0 1.84539 0C1.84484 0 1.84443 0 1.84416 0C1.84389 0 1.84375 0 1.84375 1ZM56.6859 2C60.2848 2 62.623 2.99626 64.041 3.94181C64.7549 4.41785 65.2464 4.88837 65.553 5.22921C65.7064 5.39966 65.8134 5.53753 65.8787 5.6271C65.9113 5.67187 65.9334 5.7045 65.9456 5.72301C65.9517 5.73227 65.9553 5.73798 65.9566 5.73991C65.9572 5.74087 65.9572 5.74088 65.9566 5.73992C65.9563 5.73944 65.9558 5.73871 65.9552 5.73774C65.9549 5.73725 65.9546 5.7367 65.9542 5.73608C65.954 5.73578 65.9537 5.73527 65.9537 5.73512C65.9533 5.7346 65.953 5.73406 66.8106 5.21965C67.6681 4.70525 67.6678 4.70468 67.6674 4.70409C67.6673 4.70388 67.6669 4.70327 67.6667 4.70284C67.6661 4.70197 67.6656 4.70103 67.665 4.70003C67.6637 4.69804 67.6624 4.69578 67.6608 4.69327C67.6578 4.68825 67.654 4.68221 67.6496 4.67519C67.6408 4.66115 67.6292 4.64317 67.615 4.62152C67.5864 4.57822 67.5467 4.52019 67.4953 4.44958C67.3924 4.30839 67.2424 4.1166 67.0398 3.89146C66.6346 3.44111 66.0187 2.85672 65.1506 2.27784C63.4046 1.11356 60.6804 0 56.6859 0V2ZM66.8106 5.21965C67.6681 5.73406 67.6678 5.73463 67.6674 5.73518C67.6673 5.73534 67.667 5.73588 67.6668 5.73621C67.6664 5.73686 67.6661 5.73745 67.6657 5.73798C67.6651 5.73904 67.6646 5.73985 67.6643 5.74041C67.6636 5.74154 67.6635 5.74169 67.664 5.74088C67.665 5.73928 67.6684 5.73388 67.6743 5.72495C67.6862 5.70707 67.708 5.67504 67.7405 5.63086C67.8056 5.54246 67.9131 5.4056 68.0685 5.23597C68.3792 4.89694 68.8817 4.42672 69.6203 3.95006C71.0884 3.0027 73.5357 2 77.3571 2V0C73.1632 0 70.3372 1.10713 68.5359 2.26959C67.6398 2.84785 67.0084 3.43255 66.5941 3.8847C66.387 4.11066 66.2341 4.30346 66.1294 4.44582C66.0771 4.51702 66.0367 4.57565 66.0076 4.61958C65.993 4.64155 65.9812 4.65985 65.9722 4.67421C65.9676 4.6814 65.9638 4.6876 65.9606 4.69278C65.959 4.69537 65.9576 4.69771 65.9563 4.69979C65.9557 4.70083 65.9551 4.7018 65.9545 4.70271C65.9543 4.70317 65.9539 4.7038 65.9538 4.70403C65.9534 4.70465 65.953 4.70525 66.8106 5.21965ZM77.3571 2C87.68 2 101.311 2 112.319 2C112.497 2 112.657 2 112.834 2C112.876 2 112.919 2 112.962 2C113.004 2 113.047 2 113.09 2C113.185 2 113.249 2 113.344 2C113.544 2 113.653 2 113.851 2C113.893 2 113.935 2 113.977 2C114.019 2 114.061 2 114.103 2C114.21 2 114.247 2 114.354 2C114.576 2 114.631 2 114.852 2C114.967 2 114.984 2 115.099 2C115.141 2 115.182 2 115.223 2C115.264 2 115.305 2 115.346 2C115.387 2 115.428 2 115.468 2C115.509 2 115.55 2 115.591 2C115.716 2 115.711 2 115.835 2C115.875 2 115.916 2 115.956 2C115.997 2 116.037 2 116.078 2C116.118 2 116.158 2 116.199 2C116.239 2 116.279 2 116.319 2C116.36 2 116.4 2 116.44 2C116.48 2 116.52 2 116.56 2C116.6 2 116.64 2 116.68 2C116.719 2 116.759 2 116.799 2C116.94 2 116.896 2 117.037 2C117.076 2 117.116 2 117.155 2C117.195 2 117.234 2 117.274 2C117.421 2 117.361 2 117.509 2C117.548 2 117.587 2 117.626 2C117.665 2 117.704 2 117.743 2C117.898 2 117.821 2 117.976 2C118.014 2 118.053 2 118.092 2C118.13 2 118.169 2 118.207 2C118.246 2 118.284 2 118.322 2C118.361 2 118.399 2 118.437 2C118.476 2 118.514 2 118.552 2C118.59 2 118.628 2 118.666 2C118.704 2 118.742 2 118.78 2C118.818 2 118.856 2 118.893 2C118.931 2 118.969 2 119.007 2C119.044 2 119.082 2 119.119 2C119.157 2 119.194 2 119.232 2C119.269 2 119.307 2 119.344 2C119.381 2 119.418 2 119.456 2C119.493 2 119.53 2 119.567 2C119.604 2 119.641 2 119.678 2C119.715 2 119.752 2 119.789 2C119.826 2 119.862 2 119.899 2C119.936 2 119.972 2 120.009 2C122.406 2 124.381 2 126.181 2C126.208 2 126.235 2 126.263 2C126.29 2 126.317 2 126.344 2C126.37 2 126.397 2 126.424 2C126.451 2 126.477 2 126.504 2C126.531 2 126.557 2 126.583 2C126.61 2 126.636 2 126.662 2C126.689 2 126.715 2 126.741 2C126.767 2 126.793 2 126.819 2C126.844 2 126.87 2 126.896 2C126.922 2 126.947 2 126.973 2C126.998 2 127.024 2 127.049 2C127.074 2 127.1 2 127.125 2C127.15 2 127.175 2 127.2 2C127.225 2 127.25 2 127.275 2C127.3 2 127.324 2 127.349 2C127.374 2 127.398 2 127.423 2C127.447 2 127.472 2 127.496 2C127.52 2 127.544 2 127.568 2C127.592 2 127.617 2 127.64 2C127.664 2 127.688 2 127.712 2C127.736 2 127.759 2 127.783 2C127.806 2 127.83 2 127.853 2C127.877 2 127.9 2 127.923 2C127.946 2 127.969 2 127.992 2C128.015 2 128.038 2 128.061 2C128.084 2 128.107 2 128.129 2C128.152 2 128.174 2 128.197 2C128.219 2 128.242 2 128.264 2C128.286 2 128.308 2 128.33 2C128.353 2 128.375 2 128.396 2C128.418 2 128.44 2 128.462 2C128.483 2 128.505 2 128.527 2C128.548 2 128.569 2 128.591 2C128.612 2 128.633 2 128.654 2C128.676 2 128.697 2 128.718 2C128.738 2 128.759 2 128.78 2C128.801 2 128.821 2 128.842 2C128.862 2 128.883 2 128.903 2C128.924 2 128.944 2 128.964 2C128.984 2 129.004 2 129.024 2C129.044 2 129.064 2 129.084 2C129.104 2 129.123 2 129.143 2C129.162 2 129.182 2 129.201 2C129.221 2 129.24 2 129.259 2C129.278 2 129.297 2 129.316 2C129.335 2 129.354 2 129.373 2C129.392 2 129.41 2 129.429 2C129.447 2 129.466 2 129.484 2C129.503 2 129.521 2 129.539 2C129.557 2 129.575 2 129.593 2C129.611 2 129.629 2 129.647 2C129.664 2 129.682 2 129.7 2C129.717 2 129.735 2 129.752 2C129.769 2 129.787 2 129.804 2C129.821 2 129.838 2 129.855 2C129.872 2 129.889 2 129.905 2C129.922 2 129.939 2 129.955 2C129.972 2 129.988 2 130.005 2C130.021 2 130.037 2 130.053 2C130.069 2 130.085 2 130.101 2C130.117 2 130.133 2 130.149 2C130.164 2 130.18 2 130.195 2C130.211 2 130.226 2 130.241 2C130.257 2 130.272 2 130.287 2C130.302 2 130.317 2 130.332 2C130.347 2 130.361 2 130.376 2C130.39 2 130.405 2 130.419 2C130.434 2 130.448 2 130.462 2C130.477 2 130.491 2 130.505 2C130.519 2 130.532 2 130.546 2C130.56 2 130.574 2 130.587 2C130.601 2 130.614 2 130.627 2C130.641 2 130.654 2 130.667 2C130.68 2 130.693 2 130.706 2C130.719 2 130.732 2 130.744 2C130.757 2 130.77 2 130.782 2C130.795 2 130.807 2 130.819 2C130.831 2 130.843 2 130.855 2C130.867 2 130.879 2 130.891 2C130.903 2 130.915 2 130.926 2C130.938 2 130.949 2 130.96 2C130.972 2 130.983 2 130.994 2C131.005 2 131.016 2 131.027 2C131.038 2 131.049 2 131.059 2C131.07 2 131.081 2 131.091 2C131.101 2 131.112 2 131.122 2C131.132 2 131.142 2 131.152 2C131.162 2 131.172 2 131.182 2C131.191 2 131.201 2 131.211 2C131.22 2 131.23 2 131.239 2C131.248 2 131.257 2 131.266 2C131.275 2 131.284 2 131.293 2C131.302 2 131.311 2 131.319 2C131.328 2 131.336 2 131.345 2C131.353 2 131.361 2 131.369 2C131.377 2 131.385 2 131.393 2C131.401 2 131.409 2 131.417 2C131.424 2 131.432 2 131.439 2C131.447 2 131.454 2 131.461 2C131.468 2 131.475 2 131.482 2C131.489 2 131.496 2 131.503 2C131.509 2 131.516 2 131.522 2C131.529 2 131.535 2 131.541 2C131.548 2 131.554 2 131.56 2C131.566 2 131.572 2 131.577 2C131.583 2 131.589 2 131.594 2C131.6 2 131.605 2 131.61 2C131.616 2 131.621 2 131.626 2C131.631 2 131.636 2 131.64 2C131.645 2 131.65 2 131.654 2C131.659 2 131.663 2 131.667 2C131.672 2 131.676 2 131.68 2C131.684 2 131.688 2 131.692 2C131.695 2 131.699 2 131.703 2C131.706 2 131.71 2 131.713 2C131.716 2 131.719 2 131.722 2C131.725 2 131.728 2 131.731 2C131.734 2 131.737 2 131.739 2C131.742 2 131.744 2 131.746 2C131.749 2 131.751 2 131.753 2C131.755 2 131.757 2 131.759 2C131.76 2 131.762 2 131.764 2C131.765 2 131.766 2 131.768 2C131.769 2 131.77 2 131.771 2C131.772 2 131.773 2 131.774 2C131.775 2 131.775 2 131.776 2C131.776 2 131.777 2 131.777 2C131.777 2 131.777 2 131.777 1C131.777 0 131.777 0 131.777 0C131.777 0 131.776 0 131.776 0C131.775 0 131.775 0 131.774 0C131.773 0 131.772 0 131.771 0C131.77 0 131.769 0 131.768 0C131.766 0 131.765 0 131.764 0C131.762 0 131.76 0 131.759 0C131.757 0 131.755 0 131.753 0C131.751 0 131.749 0 131.746 0C131.744 0 131.742 0 131.739 0C131.737 0 131.734 0 131.731 0C131.728 0 131.725 0 131.722 0C131.719 0 131.716 0 131.713 0C131.71 0 131.706 0 131.703 0C131.699 0 131.695 0 131.692 0C131.688 0 131.684 0 131.68 0C131.676 0 131.672 0 131.667 0C131.663 0 131.659 0 131.654 0C131.65 0 131.645 0 131.64 0C131.636 0 131.631 0 131.626 0C131.621 0 131.616 0 131.61 0C131.605 0 131.6 0 131.594 0C131.589 0 131.583 0 131.577 0C131.572 0 131.566 0 131.56 0C131.554 0 131.548 0 131.541 0C131.535 0 131.529 0 131.522 0C131.516 0 131.509 0 131.503 0C131.496 0 131.489 0 131.482 0C131.475 0 131.468 0 131.461 0C131.454 0 131.447 0 131.439 0C131.432 0 131.424 0 131.417 0C131.409 0 131.401 0 131.393 0C131.385 0 131.377 0 131.369 0C131.361 0 131.353 0 131.345 0C131.336 0 131.328 0 131.319 0C131.311 0 131.302 0 131.293 0C131.284 0 131.275 0 131.266 0C131.257 0 131.248 0 131.239 0C131.23 0 131.22 0 131.211 0C131.201 0 131.191 0 131.182 0C131.172 0 131.162 0 131.152 0C131.142 0 131.132 0 131.122 0C131.112 0 131.101 0 131.091 0C131.081 0 131.07 0 131.059 0C131.049 0 131.038 0 131.027 0C131.016 0 131.005 0 130.994 0C130.983 0 130.972 0 130.96 0C130.949 0 130.938 0 130.926 0C130.915 0 130.903 0 130.891 0C130.879 0 130.867 0 130.855 0C130.843 0 130.831 0 130.819 0C130.807 0 130.795 0 130.782 0C130.77 0 130.757 0 130.744 0C130.732 0 130.719 0 130.706 0C130.693 0 130.68 0 130.667 0C130.654 0 130.641 0 130.627 0C130.456 0 130.472 0 130.287 0C129.369 0 127.879 0 126.181 0C122.772 0 117.752 0 112.319 0C101.311 0 87.68 0 77.3571 0V2ZM56.6859 89.3265C60.1083 89.3265 62.4826 90.1301 63.9792 90.9026C64.7301 91.2902 65.2659 91.673 65.6061 91.9498C65.7762 92.0882 65.8973 92.2001 65.9719 92.2727C66.0092 92.3091 66.0348 92.3355 66.0491 92.3506C66.0562 92.3581 66.0605 92.3628 66.0619 92.3644C66.0626 92.3652 66.0627 92.3652 66.062 92.3645C66.0617 92.3641 66.0612 92.3635 66.0605 92.3628C66.0601 92.3624 66.0597 92.3619 66.0593 92.3615C66.0591 92.3612 66.0587 92.3608 66.0586 92.3607C66.0583 92.3603 66.0579 92.3598 66.8106 91.7014C67.5632 91.043 67.5628 91.0426 67.5624 91.0421C67.5623 91.0419 67.5618 91.0415 67.5615 91.0411C67.5609 91.0404 67.5603 91.0397 67.5596 91.0389C67.5582 91.0373 67.5566 91.0355 67.5548 91.0335C67.5512 91.0295 67.5469 91.0247 67.5418 91.0191C67.5317 91.0079 67.5185 90.9937 67.5023 90.9765C67.4697 90.9421 67.4249 90.8961 67.3675 90.8401C67.2526 90.7282 67.0871 90.5764 66.8684 90.3985C66.4308 90.0424 65.7803 89.5815 64.8966 89.1254C63.1239 88.2104 60.4359 87.3265 56.6859 87.3265V89.3265ZM66.8106 91.7014C67.6105 92.3016 67.61 92.3021 67.6096 92.3027C67.6095 92.3029 67.6091 92.3034 67.6088 92.3038C67.6083 92.3045 67.6078 92.3051 67.6073 92.3057C67.6065 92.3069 67.6057 92.3079 67.6051 92.3086C67.6039 92.3102 67.6033 92.311 67.6033 92.311C67.6033 92.311 67.6057 92.3079 67.6107 92.3019C67.6205 92.29 67.6404 92.2667 67.671 92.2334C67.7322 92.1669 67.8363 92.0608 67.9889 91.9276C68.2937 91.6616 68.7943 91.2859 69.537 90.9026C71.0177 90.1385 73.4949 89.3265 77.3571 89.3265V87.3265C73.2048 87.3265 70.4087 88.2021 68.6198 89.1254C67.7276 89.5858 67.0944 90.0538 66.674 90.4206C66.464 90.6039 66.3076 90.7614 66.199 90.8794C66.1447 90.9384 66.1024 90.9876 66.0713 91.0251C66.0557 91.0439 66.0429 91.0598 66.0328 91.0726C66.0278 91.0789 66.0234 91.0845 66.0198 91.0893C66.0179 91.0918 66.0162 91.0939 66.0147 91.0959C66.014 91.0969 66.0132 91.0979 66.0126 91.0988C66.0122 91.0992 66.0117 91.0999 66.0116 91.1001C66.0111 91.1007 66.0107 91.1013 66.8106 91.7014ZM77.3571 89.3265C78.7987 89.3265 80.4952 89.3265 82.2289 89.3265C82.5178 89.3265 82.5907 89.3265 82.8803 89.3265C82.8939 89.3265 82.9075 89.3265 82.9211 89.3265C82.9347 89.3265 82.9483 89.3265 82.9619 89.3265C82.9755 89.3265 82.9891 89.3265 83.0027 89.3265C83.0163 89.3265 83.0299 89.3265 83.0435 89.3265C83.0571 89.3265 83.0706 89.3265 83.0842 89.3265C83.0978 89.3265 83.1114 89.3265 83.125 89.3265C83.1386 89.3265 83.1522 89.3265 83.1658 89.3265C83.1794 89.3265 83.193 89.3265 83.2066 89.3265C83.2202 89.3265 83.2338 89.3265 83.2474 89.3265C83.261 89.3265 83.2746 89.3265 83.2882 89.3265C83.3018 89.3265 83.3153 89.3265 83.3289 89.3265C83.3425 89.3265 83.3561 89.3265 83.3697 89.3265C83.3833 89.3265 83.3969 89.3265 83.4105 89.3265C83.4241 89.3265 83.4377 89.3265 83.4512 89.3265C83.4648 89.3265 83.4784 89.3265 83.492 89.3265C83.5056 89.3265 83.5192 89.3265 83.5328 89.3265C83.5463 89.3265 83.5599 89.3265 83.5735 89.3265C83.5871 89.3265 83.6007 89.3265 83.6143 89.3265C83.6278 89.3265 83.6414 89.3265 83.655 89.3265C83.6686 89.3265 83.6821 89.3265 83.6957 89.3265C83.7093 89.3265 83.7229 89.3265 83.7364 89.3265C83.75 89.3265 83.7636 89.3265 83.7771 89.3265C83.7907 89.3265 83.8043 89.3265 83.8178 89.3265C83.8314 89.3265 83.845 89.3265 83.8585 89.3265C83.8721 89.3265 83.8857 89.3265 83.8992 89.3265C83.9128 89.3265 83.9263 89.3265 83.9399 89.3265C83.9534 89.3265 83.967 89.3265 83.9805 89.3265C83.9941 89.3265 84.0076 89.3265 84.0212 89.3265C84.0347 89.3265 84.0482 89.3265 84.0618 89.3265C84.0753 89.3265 84.0889 89.3265 84.1024 89.3265C84.1159 89.3265 84.1295 89.3265 84.143 89.3265C84.1565 89.3265 84.1701 89.3265 84.1836 89.3265C84.1971 89.3265 84.2106 89.3265 84.2241 89.3265C84.2377 89.3265 84.2512 89.3265 84.2647 89.3265C84.2782 89.3265 84.2917 89.3265 84.3052 89.3265C84.3187 89.3265 84.3322 89.3265 84.3457 89.3265C84.3592 89.3265 84.3727 89.3265 84.3862 89.3265C84.3997 89.3265 84.4132 89.3265 84.4267 89.3265C84.4402 89.3265 84.4537 89.3265 84.4672 89.3265C84.4806 89.3265 84.4941 89.3265 84.5076 89.3265C84.5211 89.3265 84.5345 89.3265 84.548 89.3265C84.5615 89.3265 84.5749 89.3265 84.5884 89.3265C84.6019 89.3265 84.6153 89.3265 84.6288 89.3265C84.6422 89.3265 84.6557 89.3265 84.6691 89.3265C84.6825 89.3265 84.696 89.3265 84.7094 89.3265C84.7229 89.3265 84.7363 89.3265 84.7497 89.3265C84.7632 89.3265 84.7766 89.3265 84.79 89.3265C84.8034 89.3265 84.8168 89.3265 84.8302 89.3265C84.8437 89.3265 84.8571 89.3265 84.8705 89.3265C84.8839 89.3265 84.8973 89.3265 84.9107 89.3265C84.924 89.3265 84.9374 89.3265 84.9508 89.3265C84.9642 89.3265 84.9776 89.3265 84.991 89.3265C85.0043 89.3265 85.0177 89.3265 85.0311 89.3265C85.0444 89.3265 85.0578 89.3265 85.0712 89.3265C85.0845 89.3265 85.0979 89.3265 85.1112 89.3265C85.1245 89.3265 85.1379 89.3265 85.1512 89.3265C85.1646 89.3265 85.1779 89.3265 85.1912 89.3265C85.2045 89.3265 85.2178 89.3265 85.2312 89.3265C85.2445 89.3265 85.2578 89.3265 85.2711 89.3265C85.2844 89.3265 85.2977 89.3265 85.311 89.3265C85.3243 89.3265 85.3376 89.3265 85.3508 89.3265C85.3641 89.3265 85.3774 89.3265 85.3907 89.3265C85.4039 89.3265 85.4172 89.3265 85.4305 89.3265C85.4437 89.3265 85.457 89.3265 85.4702 89.3265C85.4835 89.3265 85.4967 89.3265 85.5099 89.3265C85.5232 89.3265 85.5364 89.3265 85.5496 89.3265C85.5628 89.3265 85.576 89.3265 85.5892 89.3265C85.6025 89.3265 85.6157 89.3265 85.6289 89.3265C85.642 89.3265 85.6552 89.3265 85.6684 89.3265C85.6816 89.3265 85.6948 89.3265 85.7079 89.3265C85.7211 89.3265 85.7343 89.3265 85.7474 89.3265C85.7606 89.3265 85.7737 89.3265 85.7869 89.3265C85.8 89.3265 85.8132 89.3265 85.8263 89.3265C85.8394 89.3265 85.8525 89.3265 85.8657 89.3265C85.8788 89.3265 85.8919 89.3265 85.905 89.3265C85.9181 89.3265 85.9312 89.3265 85.9443 89.3265C85.9573 89.3265 85.9704 89.3265 85.9835 89.3265C85.9966 89.3265 86.0096 89.3265 86.0227 89.3265C86.0357 89.3265 86.0488 89.3265 86.0618 89.3265C86.0749 89.3265 86.0879 89.3265 86.1009 89.3265C86.114 89.3265 86.127 89.3265 86.14 89.3265C86.153 89.3265 86.166 89.3265 86.179 89.3265C86.192 89.3265 86.205 89.3265 86.2179 89.3265C86.2309 89.3265 86.2439 89.3265 86.2569 89.3265C86.2698 89.3265 86.2828 89.3265 86.2957 89.3265C86.3087 89.3265 86.3216 89.3265 86.3345 89.3265C86.3475 89.3265 86.3604 89.3265 86.3733 89.3265C86.3862 89.3265 86.3991 89.3265 86.412 89.3265C86.4249 89.3265 86.4378 89.3265 86.4507 89.3265C86.4636 89.3265 86.4764 89.3265 86.4893 89.3265C86.5022 89.3265 86.515 89.3265 86.5279 89.3265C86.5407 89.3265 86.5535 89.3265 86.5664 89.3265C86.5792 89.3265 86.592 89.3265 86.6048 89.3265C86.6176 89.3265 86.6304 89.3265 86.6432 89.3265C86.656 89.3265 86.6688 89.3265 86.6816 89.3265C86.6943 89.3265 86.7071 89.3265 86.7198 89.3265C86.7326 89.3265 86.7453 89.3265 86.7581 89.3265C86.7708 89.3265 86.7835 89.3265 86.7963 89.3265C86.809 89.3265 86.8217 89.3265 86.8344 89.3265C86.8471 89.3265 86.8598 89.3265 86.8724 89.3265C86.8851 89.3265 86.8978 89.3265 86.9104 89.3265C86.9231 89.3265 86.9357 89.3265 86.9484 89.3265C86.961 89.3265 86.9736 89.3265 86.9863 89.3265C86.9989 89.3265 87.0115 89.3265 87.0241 89.3265C87.0367 89.3265 87.0493 89.3265 87.0619 89.3265C87.0744 89.3265 87.087 89.3265 87.0995 89.3265C87.1121 89.3265 87.1246 89.3265 87.1372 89.3265C87.1497 89.3265 87.1622 89.3265 87.1748 89.3265C87.1873 89.3265 87.1998 89.3265 87.2123 89.3265C87.2248 89.3265 87.2373 89.3265 87.2497 89.3265C87.2622 89.3265 87.2747 89.3265 87.2871 89.3265C87.2996 89.3265 87.312 89.3265 87.3244 89.3265C87.3369 89.3265 87.3493 89.3265 87.3617 89.3265C87.3741 89.3265 87.3865 89.3265 87.3989 89.3265C87.4112 89.3265 87.4236 89.3265 87.436 89.3265C87.4483 89.3265 87.4607 89.3265 87.473 89.3265C87.4854 89.3265 87.4977 89.3265 87.51 89.3265C87.5223 89.3265 87.5346 89.3265 87.5469 89.3265C87.5592 89.3265 87.5715 89.3265 87.5838 89.3265C87.596 89.3265 87.6083 89.3265 87.6205 89.3265C87.6328 89.3265 87.645 89.3265 87.6572 89.3265C87.6695 89.3265 87.6817 89.3265 87.6939 89.3265C87.7061 89.3265 87.7182 89.3265 87.7304 89.3265C87.7426 89.3265 87.7548 89.3265 87.7669 89.3265C87.7791 89.3265 87.7912 89.3265 87.8033 89.3265C87.8154 89.3265 87.8276 89.3265 87.8397 89.3265C87.8518 89.3265 87.8638 89.3265 87.8759 89.3265C87.888 89.3265 87.9001 89.3265 87.9121 89.3265C87.9242 89.3265 87.9362 89.3265 87.9482 89.3265C87.9602 89.3265 87.9723 89.3265 87.9843 89.3265C87.9962 89.3265 88.0082 89.3265 88.0202 89.3265C88.0322 89.3265 88.0441 89.3265 88.0561 89.3265C88.068 89.3265 88.08 89.3265 88.0919 89.3265C88.1038 89.3265 88.1157 89.3265 88.1276 89.3265C88.1395 89.3265 88.1514 89.3265 88.1633 89.3265C88.1751 89.3265 88.187 89.3265 88.1988 89.3265C88.2107 89.3265 88.2225 89.3265 88.2343 89.3265C88.2461 89.3265 88.2579 89.3265 88.2697 89.3265C88.2815 89.3265 88.2933 89.3265 88.305 89.3265C88.3168 89.3265 88.3285 89.3265 88.3402 89.3265C88.352 89.3265 88.3637 89.3265 88.3754 89.3265C88.3871 89.3265 88.3988 89.3265 88.4105 89.3265C88.4221 89.3265 88.4338 89.3265 88.4454 89.3265C88.4571 89.3265 88.4687 89.3265 88.4803 89.3265C88.492 89.3265 88.5036 89.3265 88.5152 89.3265C88.5267 89.3265 88.5383 89.3265 88.5499 89.3265C88.5614 89.3265 88.573 89.3265 88.5845 89.3265C88.596 89.3265 88.6076 89.3265 88.6191 89.3265C88.6306 89.3265 88.6421 89.3265 88.6535 89.3265C88.665 89.3265 88.6765 89.3265 88.6879 89.3265C88.6993 89.3265 88.7108 89.3265 88.7222 89.3265C88.7336 89.3265 88.745 89.3265 88.7564 89.3265C88.7678 89.3265 88.7791 89.3265 88.7905 89.3265C88.8018 89.3265 88.8132 89.3265 88.8245 89.3265C88.8358 89.3265 88.8471 89.3265 88.8584 89.3265C88.8697 89.3265 88.881 89.3265 88.8922 89.3265C88.9035 89.3265 88.9147 89.3265 88.926 89.3265C88.9372 89.3265 88.9484 89.3265 88.9596 89.3265C88.9708 89.3265 88.982 89.3265 88.9931 89.3265C89.0043 89.3265 89.0155 89.3265 89.0266 89.3265C89.2612 89.3265 89.3223 89.3265 89.5483 89.3265C89.7743 89.3265 89.8263 89.3265 90.0429 89.3265C90.0529 89.3265 90.0629 89.3265 90.0729 89.3265C90.0828 89.3265 90.0928 89.3265 90.1027 89.3265C90.1126 89.3265 90.1226 89.3265 90.1324 89.3265C90.1423 89.3265 90.1522 89.3265 90.162 89.3265C90.1719 89.3265 90.1817 89.3265 90.1915 89.3265C90.2013 89.3265 90.2111 89.3265 90.2209 89.3265C90.2307 89.3265 90.2404 89.3265 90.2501 89.3265C90.2599 89.3265 90.2696 89.3265 90.2793 89.3265C90.289 89.3265 90.2986 89.3265 90.3083 89.3265C90.3179 89.3265 90.3276 89.3265 90.3372 89.3265C90.3468 89.3265 90.3564 89.3265 90.3659 89.3265C90.3755 89.3265 90.385 89.3265 90.3946 89.3265C90.4041 89.3265 90.4136 89.3265 90.4231 89.3265C90.4326 89.3265 90.442 89.3265 90.4515 89.3265C90.4609 89.3265 90.4704 89.3265 90.4798 89.3265C90.4892 89.3265 90.4985 89.3265 90.5079 89.3265C90.5173 89.3265 90.5266 89.3265 90.5359 89.3265C90.5452 89.3265 90.5545 89.3265 90.5638 89.3265C90.5731 89.3265 90.5823 89.3265 90.5916 89.3265C90.6008 89.3265 90.61 89.3265 90.6192 89.3265C90.6284 89.3265 90.6376 89.3265 90.6467 89.3265C90.6559 89.3265 90.665 89.3265 90.6741 89.3265C90.6832 89.3265 90.6923 89.3265 90.7014 89.3265C90.7104 89.3265 90.7195 89.3265 90.7285 89.3265C90.7375 89.3265 90.7465 89.3265 90.7555 89.3265C90.7644 89.3265 90.7734 89.3265 90.7823 89.3265C90.83 89.3265 90.7882 89.3265 90.8356 89.3265C90.8445 89.3265 90.8533 89.3265 90.8621 89.3265C90.8709 89.3265 90.8797 89.3265 90.8884 89.3265C90.8972 89.3265 90.9059 89.3265 90.9146 89.3265C90.9233 89.3265 90.932 89.3265 90.9407 89.3265C90.9494 89.3265 90.958 89.3265 90.9666 89.3265C90.9752 89.3265 90.9838 89.3265 90.9924 89.3265C91.001 89.3265 91.0095 89.3265 91.0181 89.3265C91.0266 89.3265 91.0351 89.3265 91.0436 89.3265C91.052 89.3265 91.0605 89.3265 91.0689 89.3265C91.0774 89.3265 91.0858 89.3265 91.0942 89.3265C91.1026 89.3265 91.1109 89.3265 91.1193 89.3265C91.1276 89.3265 91.1359 89.3265 91.1442 89.3265C91.1525 89.3265 91.1608 89.3265 91.169 89.3265C91.1773 89.3265 91.1855 89.3265 91.1937 89.3265C91.2019 89.3265 91.2101 89.3265 91.2182 89.3265C91.2264 89.3265 91.2345 89.3265 91.2426 89.3265C91.2507 89.3265 91.2588 89.3265 91.2669 89.3265C91.2749 89.3265 91.283 89.3265 91.291 89.3265C91.299 89.3265 91.307 89.3265 91.3149 89.3265C91.3229 89.3265 91.3308 89.3265 91.3387 89.3265C91.3467 89.3265 91.3546 89.3265 91.3624 89.3265C91.3703 89.3265 91.3781 89.3265 91.3859 89.3265C91.3938 89.3265 91.4015 89.3265 91.4093 89.3265C91.4171 89.3265 91.4248 89.3265 91.4325 89.3265C91.4403 89.3265 91.4479 89.3265 91.4556 89.3265C91.4633 89.3265 91.4709 89.3265 91.4785 89.3265C91.4862 89.3265 91.4938 89.3265 91.5013 89.3265C91.5089 89.3265 91.5164 89.3265 91.524 89.3265C91.5315 89.3265 91.539 89.3265 91.5464 89.3265C91.5539 89.3265 91.5613 89.3265 91.5688 89.3265C91.5762 89.3265 91.5836 89.3265 91.5909 89.3265C91.5983 89.3265 91.6056 89.3265 91.613 89.3265C91.6203 89.3265 91.6276 89.3265 91.6348 89.3265C91.6421 89.3265 91.6493 89.3265 91.6565 89.3265C91.6638 89.3265 91.671 89.3265 91.6781 89.3265C91.6853 89.3265 91.6924 89.3265 91.6995 89.3265C91.7066 89.3265 91.7137 89.3265 91.7208 89.3265C91.7278 89.3265 91.7349 89.3265 91.7419 89.3265C91.7489 89.3265 91.7559 89.3265 91.7628 89.3265C91.7698 89.3265 91.7767 89.3265 91.7836 89.3265C91.7905 89.3265 91.7974 89.3265 91.8042 89.3265C91.8111 89.3265 91.8179 89.3265 91.8247 89.3265C91.8315 89.3265 91.8382 89.3265 91.845 89.3265C91.8517 89.3265 91.8584 89.3265 91.8651 89.3265C91.8718 89.3265 91.8785 89.3265 91.8851 89.3265C91.8917 89.3265 91.8984 89.3265 91.9049 89.3265C91.9115 89.3265 91.9181 89.3265 91.9246 89.3265C91.9311 89.3265 91.9376 89.3265 91.9441 89.3265C91.9506 89.3265 91.957 89.3265 91.9634 89.3265C91.9699 89.3265 91.9762 89.3265 91.9826 89.3265C91.989 89.3265 91.9953 89.3265 92.0016 89.3265C92.0079 89.3265 92.0142 89.3265 92.0205 89.3265C92.0267 89.3265 92.0329 89.3265 92.0391 89.3265C92.0453 89.3265 92.0515 89.3265 92.0576 89.3265C92.0638 89.3265 92.0699 89.3265 92.076 89.3265C92.0821 89.3265 92.0881 89.3265 92.0942 89.3265C92.1002 89.3265 92.1062 89.3265 92.1122 89.3265C92.1182 89.3265 92.1241 89.3265 92.13 89.3265C92.1359 89.3265 92.1418 89.3265 92.1477 89.3265C92.1536 89.3265 92.1594 89.3265 92.1652 89.3265C92.2256 89.3265 92.174 89.3265 92.2335 89.3265C92.2391 89.3265 92.2446 89.3265 92.2501 89.3265C92.2557 89.3265 92.2611 89.3265 92.2666 89.3265C92.2721 89.3265 92.2775 89.3265 92.2829 89.3265C92.2883 89.3265 92.2937 89.3265 92.299 89.3265C92.3044 89.3265 92.3097 89.3265 92.315 89.3265C92.3202 89.3265 92.3255 89.3265 92.3307 89.3265C92.336 89.3265 92.3412 89.3265 92.3463 89.3265C92.3515 89.3265 92.3566 89.3265 92.3617 89.3265C92.3668 89.3265 92.3719 89.3265 92.377 89.3265C92.382 89.3265 92.387 89.3265 92.392 89.3265C92.397 89.3265 92.402 89.3265 92.4069 89.3265C92.4118 89.3265 92.4167 89.3265 92.4216 89.3265C92.4265 89.3265 92.4313 89.3265 92.4361 89.3265C92.4409 89.3265 92.4457 89.3265 92.4505 89.3265C92.4552 89.3265 92.4599 89.3265 92.4646 89.3265C92.4693 89.3265 92.474 89.3265 92.4786 89.3265C92.4832 89.3265 92.4878 89.3265 92.4924 89.3265C92.4969 89.3265 92.5015 89.3265 92.506 89.3265C92.5105 89.3265 92.515 89.3265 92.5194 89.3265C92.5238 89.3265 92.5283 89.3265 92.5326 89.3265C92.537 89.3265 92.5414 89.3265 92.5457 89.3265C92.55 89.3265 92.5543 89.3265 92.5586 89.3265C92.5628 89.3265 92.567 89.3265 92.5712 89.3265C92.5754 89.3265 92.5796 89.3265 92.5837 89.3265C92.5879 89.3265 92.592 89.3265 92.596 89.3265C92.6001 89.3265 92.6041 89.3265 92.6081 89.3265C92.6122 89.3265 92.6161 89.3265 92.6201 89.3265C92.624 89.3265 92.6279 89.3265 92.6318 89.3265C92.6357 89.3265 92.6395 89.3265 92.6434 89.3265C92.6472 89.3265 92.651 89.3265 92.6547 89.3265C92.6585 89.3265 92.6622 89.3265 92.6659 89.3265C92.6696 89.3265 92.6732 89.3265 92.6768 89.3265C92.6805 89.3265 92.6841 89.3265 92.6876 89.3265C92.6912 89.3265 92.6947 89.3265 92.6982 89.3265C92.7017 89.3265 92.7052 89.3265 92.7086 89.3265C92.712 89.3265 92.7154 89.3265 92.7188 89.3265C92.7222 89.3265 92.7255 89.3265 92.7288 89.3265C92.7321 89.3265 92.7354 89.3265 92.7386 89.3265C92.7418 89.3265 92.745 89.3265 92.7482 89.3265C92.7514 89.3265 92.7545 89.3265 92.7576 89.3265C92.7607 89.3265 92.7638 89.3265 92.7668 89.3265C92.7699 89.3265 92.7729 89.3265 92.7758 89.3265C92.7788 89.3265 92.7817 89.3265 92.7846 89.3265C92.7876 89.3265 92.7904 89.3265 92.7933 89.3265C92.7961 89.3265 92.7989 89.3265 92.8017 89.3265C92.8044 89.3265 92.8072 89.3265 92.8099 89.3265C92.8126 89.3265 92.8153 89.3265 92.8179 89.3265C92.8205 89.3265 92.8231 89.3265 92.8257 89.3265C92.8283 89.3265 92.8308 89.3265 92.8333 89.3265C92.8358 89.3265 92.8383 89.3265 92.8407 89.3265C92.8431 89.3265 92.8455 89.3265 92.8479 89.3265C92.8503 89.3265 92.8526 89.3265 92.8549 89.3265C92.8572 89.3265 92.8595 89.3265 92.8617 89.3265C92.8639 89.3265 92.8661 89.3265 92.8683 89.3265C92.8704 89.3265 92.8726 89.3265 92.8746 89.3265C92.8767 89.3265 92.8788 89.3265 92.8808 89.3265C92.8828 89.3265 92.8848 89.3265 92.8868 89.3265C92.8887 89.3265 92.8906 89.3265 92.8925 89.3265C92.8944 89.3265 92.8963 89.3265 92.8981 89.3265C92.8999 89.3265 92.9017 89.3265 92.9034 89.3265C92.9052 89.3265 92.9069 89.3265 92.9085 89.3265C92.9102 89.3265 92.9118 89.3265 92.9134 89.3265C92.915 89.3265 92.9166 89.3265 92.9181 89.3265C92.9197 89.3265 92.9212 89.3265 92.9226 89.3265C92.9241 89.3265 92.9255 89.3265 92.9269 89.3265C92.9283 89.3265 92.9296 89.3265 92.931 89.3265C92.9323 89.3265 92.9336 89.3265 92.9348 89.3265C92.9361 89.3265 92.9373 89.3265 92.9384 89.3265C92.9396 89.3265 92.9408 89.3265 92.9419 89.3265C92.943 89.3265 92.944 89.3265 92.9451 89.3265C92.9461 89.3265 92.9471 89.3265 92.9481 89.3265C92.949 89.3265 92.9499 89.3265 92.9508 89.3265C92.9517 89.3265 92.9526 89.3265 92.9534 89.3265C92.9542 89.3265 92.955 89.3265 92.9557 89.3265C92.9564 89.3265 92.9571 89.3265 92.9578 89.3265C92.9585 89.3265 92.9591 89.3265 92.9597 89.3265C92.9603 89.3265 92.9609 89.3265 92.9614 89.3265C92.9619 89.3265 92.9624 89.3265 92.9628 89.3265C92.9633 89.3265 92.9637 89.3265 92.9641 89.3265C92.9644 89.3265 92.9648 89.3265 92.9651 89.3265C92.9654 89.3265 92.9656 89.3265 92.9658 89.3265C92.9661 89.3265 92.9663 89.3265 92.9664 89.3265C92.9666 89.3265 92.9667 89.3265 92.9667 89.3265C92.9668 89.3265 92.9669 89.3265 92.9669 88.3265C92.9669 87.3265 92.9668 87.3265 92.9667 87.3265C92.9667 87.3265 92.9666 87.3265 92.9664 87.3265C92.9663 87.3265 92.9661 87.3265 92.9658 87.3265C92.9656 87.3265 92.9654 87.3265 92.9651 87.3265C92.9648 87.3265 92.9644 87.3265 92.9641 87.3265C92.9637 87.3265 92.9633 87.3265 92.9628 87.3265C92.9624 87.3265 92.9619 87.3265 92.9614 87.3265C92.9609 87.3265 92.9603 87.3265 92.9597 87.3265C92.9591 87.3265 92.9585 87.3265 92.9578 87.3265C92.9571 87.3265 92.9564 87.3265 92.9557 87.3265C92.955 87.3265 92.9542 87.3265 92.9534 87.3265C92.9526 87.3265 92.9517 87.3265 92.9508 87.3265C92.9499 87.3265 92.949 87.3265 92.9481 87.3265C92.9471 87.3265 92.9461 87.3265 92.9451 87.3265C92.944 87.3265 92.943 87.3265 92.9419 87.3265C92.9408 87.3265 92.9396 87.3265 92.9384 87.3265C92.9373 87.3265 92.9361 87.3265 92.9348 87.3265C92.9336 87.3265 92.9323 87.3265 92.931 87.3265C92.9296 87.3265 92.9283 87.3265 92.9269 87.3265C92.9255 87.3265 92.9241 87.3265 92.9226 87.3265C92.9212 87.3265 92.9197 87.3265 92.9181 87.3265C92.9166 87.3265 92.915 87.3265 92.9134 87.3265C92.9118 87.3265 92.9102 87.3265 92.9085 87.3265C92.9069 87.3265 92.9052 87.3265 92.9034 87.3265C92.9017 87.3265 92.8999 87.3265 92.8981 87.3265C92.8963 87.3265 92.8944 87.3265 92.8925 87.3265C92.8906 87.3265 92.8887 87.3265 92.8868 87.3265C92.8848 87.3265 92.8828 87.3265 92.8808 87.3265C92.8788 87.3265 92.8767 87.3265 92.8746 87.3265C92.8726 87.3265 92.8704 87.3265 92.8683 87.3265C92.8661 87.3265 92.8639 87.3265 92.8617 87.3265C92.8595 87.3265 92.8572 87.3265 92.8549 87.3265C92.8526 87.3265 92.8503 87.3265 92.8479 87.3265C92.8455 87.3265 92.8431 87.3265 92.8407 87.3265C92.8383 87.3265 92.8358 87.3265 92.8333 87.3265C92.8308 87.3265 92.8283 87.3265 92.8257 87.3265C92.8231 87.3265 92.8205 87.3265 92.8179 87.3265C92.8153 87.3265 92.8126 87.3265 92.8099 87.3265C92.8072 87.3265 92.8044 87.3265 92.8017 87.3265C92.7989 87.3265 92.7961 87.3265 92.7933 87.3265C92.7904 87.3265 92.7876 87.3265 92.7846 87.3265C92.7817 87.3265 92.7788 87.3265 92.7758 87.3265C92.7729 87.3265 92.7699 87.3265 92.7668 87.3265C92.7638 87.3265 92.7607 87.3265 92.7576 87.3265C92.7545 87.3265 92.7514 87.3265 92.7482 87.3265C92.745 87.3265 92.7418 87.3265 92.7386 87.3265C92.7354 87.3265 92.7321 87.3265 92.7288 87.3265C92.7255 87.3265 92.7222 87.3265 92.7188 87.3265C92.7154 87.3265 92.712 87.3265 92.7086 87.3265C92.7052 87.3265 92.7017 87.3265 92.6982 87.3265C92.6947 87.3265 92.6912 87.3265 92.6876 87.3265C92.6841 87.3265 92.6805 87.3265 92.6768 87.3265C92.6732 87.3265 92.6696 87.3265 92.6659 87.3265C92.6622 87.3265 92.6585 87.3265 92.6547 87.3265C92.651 87.3265 92.6472 87.3265 92.6434 87.3265C92.6395 87.3265 92.6357 87.3265 92.6318 87.3265C92.6279 87.3265 92.624 87.3265 92.6201 87.3265C92.6161 87.3265 92.6122 87.3265 92.6081 87.3265C92.6041 87.3265 92.6001 87.3265 92.596 87.3265C92.592 87.3265 92.5879 87.3265 92.5837 87.3265C92.5796 87.3265 92.5754 87.3265 92.5712 87.3265C92.567 87.3265 92.5628 87.3265 92.5586 87.3265C92.5543 87.3265 92.55 87.3265 92.5457 87.3265C92.5414 87.3265 92.537 87.3265 92.5326 87.3265C92.5283 87.3265 92.5238 87.3265 92.5194 87.3265C92.515 87.3265 92.5105 87.3265 92.506 87.3265C92.5015 87.3265 92.4969 87.3265 92.4924 87.3265C92.4878 87.3265 92.4832 87.3265 92.4786 87.3265C92.474 87.3265 92.4693 87.3265 92.4646 87.3265C92.4599 87.3265 92.4552 87.3265 92.4505 87.3265C92.4457 87.3265 92.4409 87.3265 92.4361 87.3265C92.4313 87.3265 92.4265 87.3265 92.4216 87.3265C92.4167 87.3265 92.4118 87.3265 92.4069 87.3265C92.402 87.3265 92.397 87.3265 92.392 87.3265C92.387 87.3265 92.382 87.3265 92.377 87.3265C92.3719 87.3265 92.3668 87.3265 92.3617 87.3265C92.3566 87.3265 92.3515 87.3265 92.3463 87.3265C92.3412 87.3265 92.336 87.3265 92.3307 87.3265C92.3255 87.3265 92.3202 87.3265 92.315 87.3265C92.3097 87.3265 92.3044 87.3265 92.299 87.3265C92.1789 87.3265 92.289 87.3265 92.1652 87.3265C92.1594 87.3265 92.1536 87.3265 92.1477 87.3265C92.1418 87.3265 92.1359 87.3265 92.13 87.3265C92.1241 87.3265 92.1182 87.3265 92.1122 87.3265C92.1062 87.3265 92.1002 87.3265 92.0942 87.3265C92.0881 87.3265 92.0821 87.3265 92.076 87.3265C92.0699 87.3265 92.0638 87.3265 92.0576 87.3265C92.0515 87.3265 92.0453 87.3265 92.0391 87.3265C92.0329 87.3265 92.0267 87.3265 92.0205 87.3265C92.0142 87.3265 92.0079 87.3265 92.0016 87.3265C91.9953 87.3265 91.989 87.3265 91.9826 87.3265C91.9762 87.3265 91.9699 87.3265 91.9634 87.3265C91.957 87.3265 91.9506 87.3265 91.9441 87.3265C91.9376 87.3265 91.9311 87.3265 91.9246 87.3265C91.9181 87.3265 91.9115 87.3265 91.9049 87.3265C91.8984 87.3265 91.8917 87.3265 91.8851 87.3265C91.8785 87.3265 91.8718 87.3265 91.8651 87.3265C91.8584 87.3265 91.8517 87.3265 91.845 87.3265C91.8382 87.3265 91.8315 87.3265 91.8247 87.3265C91.8179 87.3265 91.8111 87.3265 91.8042 87.3265C91.7974 87.3265 91.7905 87.3265 91.7836 87.3265C91.7767 87.3265 91.7698 87.3265 91.7628 87.3265C91.7559 87.3265 91.7489 87.3265 91.7419 87.3265C91.7349 87.3265 91.7278 87.3265 91.7208 87.3265C91.7137 87.3265 91.7066 87.3265 91.6995 87.3265C91.6924 87.3265 91.6853 87.3265 91.6781 87.3265C91.671 87.3265 91.6638 87.3265 91.6565 87.3265C91.6493 87.3265 91.6421 87.3265 91.6348 87.3265C91.6276 87.3265 91.6203 87.3265 91.613 87.3265C91.6056 87.3265 91.5983 87.3265 91.5909 87.3265C91.5836 87.3265 91.5762 87.3265 91.5688 87.3265C91.5613 87.3265 91.5539 87.3265 91.5464 87.3265C91.539 87.3265 91.5315 87.3265 91.524 87.3265C91.5164 87.3265 91.5089 87.3265 91.5013 87.3265C91.4938 87.3265 91.4862 87.3265 91.4785 87.3265C91.4709 87.3265 91.4633 87.3265 91.4556 87.3265C91.4479 87.3265 91.4403 87.3265 91.4325 87.3265C91.4248 87.3265 91.4171 87.3265 91.4093 87.3265C91.4015 87.3265 91.3938 87.3265 91.3859 87.3265C91.3781 87.3265 91.3703 87.3265 91.3624 87.3265C91.3546 87.3265 91.3467 87.3265 91.3387 87.3265C90.3258 87.3265 88.9152 87.3265 87.3244 87.3265C87.312 87.3265 87.2996 87.3265 87.2871 87.3265C87.2747 87.3265 87.2622 87.3265 87.2497 87.3265C87.2373 87.3265 87.2248 87.3265 87.2123 87.3265C87.1998 87.3265 87.1873 87.3265 87.1748 87.3265C87.1622 87.3265 87.1497 87.3265 87.1372 87.3265C87.1246 87.3265 87.1121 87.3265 87.0995 87.3265C87.087 87.3265 87.0744 87.3265 87.0619 87.3265C87.0493 87.3265 87.0367 87.3265 87.0241 87.3265C87.0115 87.3265 86.9989 87.3265 86.9863 87.3265C86.9736 87.3265 86.961 87.3265 86.9484 87.3265C86.9357 87.3265 86.9231 87.3265 86.9104 87.3265C86.8978 87.3265 86.8851 87.3265 86.8724 87.3265C86.8598 87.3265 86.8471 87.3265 86.8344 87.3265C86.8217 87.3265 86.809 87.3265 86.7963 87.3265C86.7835 87.3265 86.7708 87.3265 86.7581 87.3265C86.7453 87.3265 86.7326 87.3265 86.7198 87.3265C86.7071 87.3265 86.6943 87.3265 86.6816 87.3265C86.6688 87.3265 86.656 87.3265 86.6432 87.3265C86.6304 87.3265 86.6176 87.3265 86.6048 87.3265C86.592 87.3265 86.5792 87.3265 86.5664 87.3265C86.5535 87.3265 86.5407 87.3265 86.5279 87.3265C86.515 87.3265 86.5022 87.3265 86.4893 87.3265C86.4764 87.3265 86.4636 87.3265 86.4507 87.3265C86.4378 87.3265 86.4249 87.3265 86.412 87.3265C86.3991 87.3265 86.3862 87.3265 86.3733 87.3265C86.3604 87.3265 86.3475 87.3265 86.3345 87.3265C86.3216 87.3265 86.3087 87.3265 86.2957 87.3265C86.2828 87.3265 86.2698 87.3265 86.2569 87.3265C86.2439 87.3265 86.2309 87.3265 86.2179 87.3265C86.205 87.3265 86.192 87.3265 86.179 87.3265C86.166 87.3265 86.153 87.3265 86.14 87.3265C86.127 87.3265 86.114 87.3265 86.1009 87.3265C86.0879 87.3265 86.0749 87.3265 86.0618 87.3265C86.0488 87.3265 86.0357 87.3265 86.0227 87.3265C86.0096 87.3265 85.9966 87.3265 85.9835 87.3265C85.9704 87.3265 85.9573 87.3265 85.9443 87.3265C85.9312 87.3265 85.9181 87.3265 85.905 87.3265C85.8919 87.3265 85.8788 87.3265 85.8657 87.3265C85.8525 87.3265 85.8394 87.3265 85.8263 87.3265C85.8132 87.3265 85.8 87.3265 85.7869 87.3265C85.7737 87.3265 85.7606 87.3265 85.7474 87.3265C85.7343 87.3265 85.7211 87.3265 85.7079 87.3265C85.7079 87.3265 85.6289 87.3265 85.6289 87.3265C85.6157 87.3265 85.6025 87.3265 85.5892 87.3265C85.576 87.3265 85.5628 87.3265 85.5496 87.3265C85.5364 87.3265 85.5232 87.3265 85.5099 87.3265C85.4967 87.3265 85.4835 87.3265 85.4702 87.3265C85.457 87.3265 85.4437 87.3265 85.4305 87.3265C85.4172 87.3265 85.4039 87.3265 85.3907 87.3265C85.3774 87.3265 85.3641 87.3265 85.3508 87.3265C85.3376 87.3265 85.3243 87.3265 85.311 87.3265C85.2977 87.3265 85.2844 87.3265 85.2711 87.3265C85.2578 87.3265 85.2445 87.3265 85.2312 87.3265C85.2178 87.3265 85.2045 87.3265 85.1912 87.3265C85.1779 87.3265 85.1646 87.3265 85.1512 87.3265C85.1379 87.3265 85.1245 87.3265 85.1112 87.3265C85.0979 87.3265 85.0845 87.3265 85.0712 87.3265C85.0578 87.3265 85.0444 87.3265 85.0311 87.3265C85.0177 87.3265 85.0043 87.3265 84.991 87.3265C84.9776 87.3265 84.9642 87.3265 84.9508 87.3265C84.9374 87.3265 84.924 87.3265 84.9107 87.3265C84.8973 87.3265 84.8839 87.3265 84.8705 87.3265C84.8571 87.3265 84.8437 87.3265 84.8302 87.3265C84.8168 87.3265 84.8034 87.3265 84.79 87.3265C84.7766 87.3265 84.7632 87.3265 84.7497 87.3265C84.7363 87.3265 84.7229 87.3265 84.7094 87.3265C84.696 87.3265 84.6825 87.3265 84.6691 87.3265C84.6557 87.3265 84.6422 87.3265 84.6288 87.3265C84.6153 87.3265 84.6019 87.3265 84.5884 87.3265C84.5749 87.3265 84.5615 87.3265 84.548 87.3265C84.5345 87.3265 84.5211 87.3265 84.5076 87.3265C84.4941 87.3265 84.4806 87.3265 84.4672 87.3265C84.4537 87.3265 84.4402 87.3265 84.4267 87.3265C84.4132 87.3265 84.3997 87.3265 84.3862 87.3265C84.3727 87.3265 84.3592 87.3265 84.3457 87.3265C84.3322 87.3265 84.3187 87.3265 84.3052 87.3265C84.2917 87.3265 84.2782 87.3265 84.2647 87.3265C84.2512 87.3265 84.2377 87.3265 84.2241 87.3265C84.2106 87.3265 84.1971 87.3265 84.1836 87.3265C84.1701 87.3265 84.1565 87.3265 84.143 87.3265C84.1295 87.3265 84.1159 87.3265 84.1024 87.3265C84.0889 87.3265 84.0753 87.3265 84.0618 87.3265C84.0482 87.3265 84.0347 87.3265 84.0212 87.3265C84.0076 87.3265 83.9941 87.3265 83.9805 87.3265C83.967 87.3265 83.9534 87.3265 83.9399 87.3265C83.9263 87.3265 83.9128 87.3265 83.8992 87.3265C83.8857 87.3265 83.8721 87.3265 83.8585 87.3265C83.845 87.3265 83.8314 87.3265 83.8178 87.3265C83.8043 87.3265 83.7907 87.3265 83.7771 87.3265C83.7636 87.3265 83.75 87.3265 83.7364 87.3265C83.7229 87.3265 83.7093 87.3265 83.6957 87.3265C83.6821 87.3265 83.6686 87.3265 83.655 87.3265C83.6414 87.3265 83.6278 87.3265 83.6143 87.3265C83.6007 87.3265 83.5871 87.3265 83.5735 87.3265C83.5599 87.3265 83.5463 87.3265 83.5328 87.3265C83.5192 87.3265 83.5056 87.3265 83.492 87.3265C83.4784 87.3265 83.4648 87.3265 83.4512 87.3265C83.4377 87.3265 83.4241 87.3265 83.4105 87.3265C83.3969 87.3265 83.3833 87.3265 83.3697 87.3265C83.3561 87.3265 83.3425 87.3265 83.3289 87.3265C83.3153 87.3265 83.3018 87.3265 83.2882 87.3265C83.2746 87.3265 83.261 87.3265 83.2474 87.3265C83.2338 87.3265 83.2202 87.3265 83.2066 87.3265C83.193 87.3265 83.1794 87.3265 83.1658 87.3265C83.1522 87.3265 83.1386 87.3265 83.125 87.3265C83.1114 87.3265 83.0978 87.3265 83.0842 87.3265C83.0706 87.3265 83.0571 87.3265 83.0435 87.3265C83.0299 87.3265 83.0163 87.3265 83.0027 87.3265C82.9891 87.3265 82.9755 87.3265 82.9619 87.3265C82.9483 87.3265 82.9347 87.3265 82.9211 87.3265C82.9075 87.3265 82.8939 87.3265 82.8803 87.3265C82.5907 87.3265 82.5178 87.3265 82.2289 87.3265C80.4952 87.3265 78.7987 87.3265 77.3571 87.3265V89.3265Z" fill="#888888"/>
<path d="M59.2168 57.5308V81.1551" stroke="#888888" stroke-width="2" stroke-linecap="round"/>
<path d="M2 87.7489V20.5635H16.0308V87.7489H2Z" stroke="#888888" stroke-width="2" stroke-linejoin="round"/>
<path d="M17.0312 74.4053L28.4215 74.4053" stroke="#888888" stroke-width="2" stroke-linecap="round"/>
<path d="M66.81 14.501H49.9355V47.7494M49.9355 67.4125V77.7803M54.8032 57.4022H66.81" stroke="#888888" stroke-width="2" stroke-linejoin="round"/>
<path d="M17.0312 26.313H38.1244V60.4828M38.1244 80.7322V75.248" stroke="#888888" stroke-width="2" stroke-linejoin="round"/>
<rect x="22.0918" y="31.3755" width="9.28097" height="7.59352" stroke="#888888" stroke-width="2" stroke-linejoin="round"/>
<rect x="54.998" y="30.5317" width="11.8121" height="7.59352" stroke="#888888" stroke-width="2" stroke-linejoin="round"/>
<rect x="1.84375" y="36.438" width="10.1247" height="6.7498" stroke="#888888" stroke-width="2" stroke-linejoin="round"/>
<rect x="54.998" y="42.3438" width="11.8121" height="6.7498" stroke="#888888" stroke-width="2" stroke-linejoin="round"/>
<rect x="1.84375" y="47.4062" width="10.1247" height="7.59352" stroke="#888888" stroke-width="2" stroke-linejoin="round"/>
<rect x="1.84375" y="59.2183" width="10.1247" height="7.59352" stroke="#888888" stroke-width="2" stroke-linejoin="round"/>
<rect x="54.998" y="19.5635" width="11.8121" height="6.7498" stroke="#888888" stroke-width="2" stroke-linejoin="round"/>
<rect x="1.84375" y="24.6255" width="10.1247" height="7.59352" stroke="#888888" stroke-width="2" stroke-linejoin="round"/>
<rect x="22.0918" y="41.5" width="9.28097" height="6.7498" stroke="#888888" stroke-width="2" stroke-linejoin="round"/>
<rect x="22.0918" y="50.7812" width="9.28097" height="7.59352" stroke="#888888" stroke-width="2" stroke-linejoin="round"/>
<path d="M30.9509 60.9058L22.0918 60.9058V67.6556H26.7323" stroke="#888888" stroke-width="2" stroke-linejoin="round"/>
<path d="M55.1975 59.1207C55.1975 63.9181 51.4236 67.7587 46.8273 67.7587C42.2309 67.7587 38.457 63.9181 38.457 59.1207C38.457 58.0158 38.9467 56.4111 39.7954 54.5246C40.6287 52.6724 41.751 50.6703 42.8934 48.814C44.034 46.9606 45.1835 45.2707 46.0625 44.0468C46.3307 43.6733 46.5723 43.3452 46.7795 43.0706C46.9801 43.347 47.2146 43.6733 47.4752 44.0414C48.3463 45.2716 49.5061 46.9646 50.6641 48.8195C51.8243 50.6777 52.9714 52.6804 53.8252 54.5328C54.6955 56.4211 55.1975 58.0218 55.1975 59.1207Z" stroke="#888888" stroke-width="2" stroke-linejoin="round"/>
<path d="M46.828 52.9634V63.6722M46.828 76.969V63.6722M43.3477 59.9241L46.828 63.6722M46.828 63.6722L50.5761 59.9241" stroke="#888888" stroke-width="2" stroke-linecap="round" stroke-linejoin="round"/>
<path d="M41.4544 68.4016C41.4544 72.8168 38.0285 76.3256 33.8874 76.3256C29.7463 76.3256 26.3203 72.8168 26.3203 68.4016C26.3203 63.9864 29.7463 60.4775 33.8874 60.4775C38.0285 60.4775 41.4544 63.9864 41.4544 68.4016Z" stroke="#888888" stroke-width="2" stroke-linejoin="round"/>
<path d="M33.9765 66.0815V72.2391M33.9765 81.1541V72.2391M30.4961 68.491L33.9765 72.2391M33.9765 72.2391L37.7246 68.491" stroke="#888888" stroke-width="2" stroke-linecap="round" stroke-linejoin="round"/>
<path d="M41.5 82.8418C41.5001 81.5762 42.0982 78.3243 46.1199 77.4866C51.2602 76.4159 52.5452 80.9669 52.5452 83.3764C53.3484 81.4131 55.8114 78.2362 59.2382 81.2347C62.6651 84.2331 60.6661 86.7676 59.2382 87.66H41.8364" stroke="#888888" stroke-width="2" stroke-linecap="round" stroke-linejoin="round"/>
<path d="M45.3646 83.1713C47.7598 85.1911 46.3626 86.8982 45.3646 87.4993H33.2016C31.3928 87.4993 28.0745 86.9223 29.2721 84.614C30.4697 82.3057 32.3908 83.6522 33.2016 84.614C32.7026 83.5921 32.6028 81.368 36.1956 80.6467C39.7883 79.9253 40.6865 82.991 40.6865 84.614C41.2479 83.2915 42.9695 81.1516 45.3646 83.1713Z" stroke="#888888" stroke-width="2" stroke-linecap="round" stroke-linejoin="round"/>
<path d="M16.1873 71.874L1.84375 71.874" stroke="#888888" stroke-width="2" stroke-linecap="round"/>
<path d="M101.705 69.3428C96.3012 71.6699 92.9668 74.8645 92.9668 78.3896C92.9668 83.5918 98.963 87.7181 109.419 89.7547M101.705 69.3428H94.215M101.705 69.3428L99.6241 75.3566M144.977 69.3428C150.381 71.6699 153.715 74.8645 153.715 78.3896C153.715 83.3071 147.226 87.5814 137.684 89.7547" stroke="#EA4C14" stroke-width="2" stroke-linecap="round" stroke-linejoin="round"/>
<path d="M116.147 99.12C115.587 99.12 115.103 99.052 114.695 98.916C114.287 98.78 113.947 98.604 113.675 98.388C113.411 98.164 113.211 97.924 113.075 97.668C112.939 97.404 112.867 97.144 112.859 96.888C112.859 96.816 112.883 96.76 112.931 96.72C112.987 96.672 113.051 96.648 113.123 96.648H114.203C114.283 96.648 114.351 96.664 114.407 96.696C114.463 96.728 114.511 96.792 114.551 96.888C114.623 97.104 114.739 97.276 114.899 97.404C115.067 97.532 115.259 97.624 115.475 97.68C115.691 97.728 115.919 97.752 116.159 97.752C116.639 97.752 117.019 97.64 117.299 97.416C117.587 97.184 117.731 96.856 117.731 96.432C117.731 96.008 117.599 95.704 117.335 95.52C117.071 95.328 116.703 95.232 116.231 95.232H114.995C114.907 95.232 114.835 95.208 114.779 95.16C114.723 95.104 114.695 95.032 114.695 94.944V94.44C114.695 94.36 114.711 94.292 114.743 94.236C114.783 94.172 114.823 94.12 114.863 94.08L117.011 91.98H113.579C113.491 91.98 113.419 91.952 113.363 91.896C113.315 91.84 113.291 91.772 113.291 91.692V90.9C113.291 90.812 113.315 90.74 113.363 90.684C113.419 90.628 113.491 90.6 113.579 90.6H118.727C118.815 90.6 118.887 90.628 118.943 90.684C118.999 90.74 119.027 90.812 119.027 90.9V91.62C119.027 91.692 119.011 91.756 118.979 91.812C118.947 91.868 118.911 91.916 118.871 91.956L116.795 94.092L116.939 94.104C117.427 94.144 117.859 94.256 118.235 94.44C118.619 94.616 118.915 94.876 119.123 95.22C119.339 95.564 119.447 95.996 119.447 96.516C119.447 97.06 119.303 97.528 119.015 97.92C118.735 98.304 118.347 98.6 117.851 98.808C117.355 99.016 116.787 99.12 116.147 99.12ZM123.922 99.12C123.234 99.12 122.642 98.992 122.146 98.736C121.65 98.472 121.266 98.12 120.994 97.68C120.722 97.232 120.586 96.732 120.586 96.18C120.586 95.932 120.618 95.692 120.682 95.46C120.746 95.228 120.83 95.008 120.934 94.8C121.038 94.592 121.138 94.408 121.234 94.248C121.338 94.08 121.43 93.948 121.51 93.852L123.706 90.84C123.738 90.8 123.786 90.752 123.85 90.696C123.914 90.632 124.002 90.6 124.114 90.6H125.23C125.302 90.6 125.362 90.628 125.41 90.684C125.458 90.732 125.482 90.792 125.482 90.864C125.482 90.896 125.474 90.928 125.458 90.96C125.45 90.984 125.438 91.004 125.422 91.02L123.742 93.348C123.814 93.324 123.898 93.308 123.994 93.3C124.09 93.292 124.178 93.288 124.258 93.288C124.658 93.296 125.038 93.376 125.398 93.528C125.758 93.672 126.074 93.872 126.346 94.128C126.618 94.384 126.83 94.684 126.982 95.028C127.142 95.372 127.222 95.748 127.222 96.156C127.222 96.684 127.09 97.176 126.826 97.632C126.562 98.08 126.182 98.44 125.686 98.712C125.198 98.984 124.61 99.12 123.922 99.12ZM123.91 97.74C124.198 97.74 124.462 97.68 124.702 97.56C124.95 97.44 125.15 97.264 125.302 97.032C125.454 96.8 125.53 96.512 125.53 96.168C125.53 95.832 125.454 95.548 125.302 95.316C125.15 95.084 124.95 94.908 124.702 94.788C124.462 94.668 124.198 94.608 123.91 94.608C123.622 94.608 123.354 94.668 123.106 94.788C122.866 94.908 122.67 95.084 122.518 95.316C122.366 95.548 122.29 95.832 122.29 96.168C122.29 96.512 122.366 96.8 122.518 97.032C122.67 97.264 122.866 97.44 123.106 97.56C123.354 97.68 123.622 97.74 123.91 97.74ZM131.673 99.12C131.105 99.12 130.621 99.036 130.221 98.868C129.821 98.7 129.493 98.468 129.237 98.172C128.981 97.876 128.789 97.536 128.661 97.152C128.533 96.76 128.457 96.344 128.433 95.904C128.425 95.688 128.417 95.452 128.409 95.196C128.409 94.932 128.409 94.668 128.409 94.404C128.417 94.14 128.425 93.896 128.433 93.672C128.449 93.232 128.525 92.82 128.661 92.436C128.797 92.044 128.993 91.704 129.249 91.416C129.513 91.128 129.845 90.9 130.245 90.732C130.645 90.564 131.121 90.48 131.673 90.48C132.233 90.48 132.713 90.564 133.113 90.732C133.513 90.9 133.841 91.128 134.097 91.416C134.361 91.704 134.557 92.044 134.685 92.436C134.821 92.82 134.897 93.232 134.913 93.672C134.929 93.896 134.937 94.14 134.937 94.404C134.937 94.668 134.937 94.932 134.937 95.196C134.937 95.452 134.929 95.688 134.913 95.904C134.897 96.344 134.825 96.76 134.697 97.152C134.569 97.536 134.377 97.876 134.121 98.172C133.865 98.468 133.533 98.7 133.125 98.868C132.725 99.036 132.241 99.12 131.673 99.12ZM131.673 97.74C132.193 97.74 132.573 97.572 132.813 97.236C133.061 96.892 133.189 96.428 133.197 95.844C133.213 95.612 133.221 95.38 133.221 95.148C133.221 94.908 133.221 94.668 133.221 94.428C133.221 94.188 133.213 93.96 133.197 93.744C133.189 93.176 133.061 92.72 132.813 92.376C132.573 92.024 132.193 91.848 131.673 91.848C131.161 91.848 130.781 92.024 130.533 92.376C130.293 92.72 130.165 93.176 130.149 93.744C130.149 93.96 130.145 94.188 130.137 94.428C130.137 94.668 130.137 94.908 130.137 95.148C130.145 95.38 130.149 95.612 130.149 95.844C130.165 96.428 130.297 96.892 130.545 97.236C130.793 97.572 131.169 97.74 131.673 97.74Z" fill="#EA4C14"/>
<path d="M87.9039 78.6234H75.248V55.8429H106.888M123.762 44.0307V10.2817H75.248V51.2024H114.481" stroke="#888888" stroke-width="2" stroke-linecap="round"/>
<path d="M79.8887 46.1401H95.4976" stroke="#888888" stroke-width="2" stroke-linecap="round"/>
<path d="M79.8887 42.3438H95.4976" stroke="#888888" stroke-width="2" stroke-linecap="round"/>
</svg>
