<svg width="139" height="96" viewBox="0 0 139 96" fill="none" xmlns="http://www.w3.org/2000/svg">
<path d="M17.9026 94.4091H1L1 1H138V94.4091H128.214M33.026 94.4091H37.9188" stroke="#888888" stroke-width="2" stroke-linecap="round"/>
<path d="M96.9714 41.3455C96.9714 49.4991 90.6132 56.0445 82.848 56.0445C75.0827 56.0445 68.7246 49.4991 68.7246 41.3455C68.7246 39.4016 69.565 36.6827 70.9402 33.5977C72.3004 30.5467 74.1266 27.2601 75.978 24.224C77.8277 21.1908 79.6913 18.4257 81.1174 16.4216C81.7884 15.4788 82.359 14.7092 82.7831 14.1622C83.1871 14.7174 83.7392 15.4851 84.3924 16.4161C85.8029 18.4266 87.6819 21.1948 89.5593 24.2295C91.4387 27.2675 93.3052 30.5546 94.6987 33.606C96.1083 36.6927 96.9714 39.4076 96.9714 41.3455Z" stroke="#888888" stroke-width="2" stroke-linejoin="round"/>
<path d="M83.08 31.2461V48.6397M83.08 60.0932V48.6397M77.5117 42.5519L83.08 48.6397M83.08 48.6397L89.0767 42.5519M83.08 85.7263V94.4084" stroke="#888888" stroke-width="2" stroke-linecap="round" stroke-linejoin="round"/>
<circle cx="112.204" cy="50.8173" r="13.2338" stroke="#888888" stroke-width="2" stroke-linejoin="round"/>
<path d="M112.435 47.2588V57.3307M112.435 79.7296V57.3307M106.867 51.2L112.435 57.3307M112.435 57.3307L118.432 51.2" stroke="#888888" stroke-width="2" stroke-linecap="round" stroke-linejoin="round"/>
<path d="M97.5273 73.9468C104.644 73.9468 107.847 80.6255 107.847 85.5871C109.007 81.1768 115.576 76.0546 122.194 81.1768C127.892 85.5869 125.255 92.5702 122.194 94.4078H102.283" stroke="#888888" stroke-width="2" stroke-linecap="round" stroke-linejoin="round"/>
<path d="M42.5719 69.8793H96.9043M42.5719 69.8793V65.2414M42.5719 69.8793V74.5172M96.9043 69.8793V65.2414M96.9043 69.8793V74.5172M42.5719 65.2414V60.6035H96.9043V65.2414M42.5719 65.2414H96.9043M42.5719 74.5172V79.1551H96.9043V74.5172M42.5719 74.5172H96.9043M42.5719 85.7513V94.4087H45.0604V85.7513M94.4158 85.7513V94.4087H96.9043V85.7513M39.2539 82.041H100.637V85.7513H39.2539V82.041Z" stroke="#EA4C14" stroke-width="2" stroke-linejoin="round"/>
<path d="M49.9297 94.4092L89.0725 94.4092" stroke="#888888" stroke-width="2" stroke-linecap="round"/>
<path d="M21.4609 25.9092H30.357L29.3306 40.1429H22.4874L21.4609 25.9092Z" stroke="#EA4C14" stroke-width="2" stroke-linejoin="round"/>
<path d="M19.6816 25.9092H32.1362L30.6991 23.2403H21.1187L19.6816 25.9092Z" stroke="#EA4C14" stroke-width="2" stroke-linejoin="round"/>
<path d="M25.9082 41.0327V71.2795" stroke="#EA4C14" stroke-width="2" stroke-linejoin="round"/>
<path d="M42.3683 77.5068C41.4787 76.4689 39.2547 74.8379 36.1411 76.1724C33.1532 77.453 33.0275 80.3239 33.4723 81.9548C32.3523 80.1948 30.6884 78.7979 28.5794 77.9517M13.01 94.4093C10.7848 88.182 11.6768 83.2894 16.125 79.7308C18.2896 77.9992 20.7643 77.1746 23.1867 77.0621" stroke="#888888" stroke-width="2" stroke-linecap="round" stroke-linejoin="round"/>
<rect x="23.2402" y="71.2788" width="5.33766" height="23.1299" stroke="#EA4C14" stroke-width="2" stroke-linejoin="round"/>
</svg>
