<svg width="139" height="96" viewBox="0 0 139 96" fill="none" xmlns="http://www.w3.org/2000/svg">
<path d="M24.5747 94.4091H1L1 70.8344M112.646 94.4091H138V70.8344M24.5747 1H1V24.5747M112.646 1H138V24.5747" stroke="#888888" stroke-width="2" stroke-linecap="round"/>
<path d="M40.5873 47.2599V70.1257M40.5873 47.2599L60.6277 35.5838M40.5873 47.2599L20.5468 35.5838M14.3438 32.1782L40.5873 16.1235L66.8308 32.1782V63.3146L40.5873 78.3963L14.3438 63.3146V32.1782Z" stroke="#EA4C14" stroke-width="2" stroke-linecap="round" stroke-linejoin="round"/>
<rect x="109.533" y="14.3442" width="15.1234" height="15.1234" stroke="#888888" stroke-width="2" stroke-linejoin="round"/>
<path d="M112.201 20.1444L117.151 26.7987L128.214 11.6753" stroke="#EA4C14" stroke-width="2" stroke-linecap="round" stroke-linejoin="round"/>
<line x1="82.0645" y1="50.708" x2="124.545" y2="50.708" stroke="#888888" stroke-width="2" stroke-linecap="round"/>
<line x1="82.0645" y1="69.3896" x2="124.545" y2="69.3896" stroke="#888888" stroke-width="2" stroke-linecap="round"/>
<line x1="82.0645" y1="56.9351" x2="124.545" y2="56.9351" stroke="#888888" stroke-width="2" stroke-linecap="round"/>
<line x1="82.0645" y1="75.6167" x2="124.545" y2="75.6167" stroke="#888888" stroke-width="2" stroke-linecap="round"/>
<line x1="82.0645" y1="63.1621" x2="124.545" y2="63.1621" stroke="#888888" stroke-width="2" stroke-linecap="round"/>
<line x1="82.0645" y1="81.8442" x2="124.545" y2="81.8442" stroke="#888888" stroke-width="2" stroke-linecap="round"/>
</svg>
