<svg width="139" height="96" viewBox="0 0 139 96" fill="none" xmlns="http://www.w3.org/2000/svg">
<path d="M81.9553 70.3897V62.828M65.0527 70.3897V66.8312M81.9553 62.828V59.7144H70.3904M81.9553 62.828H70.3904" stroke="#EA4C14" stroke-width="2" stroke-linejoin="round"/>
<path d="M41.9219 29.4678L122.876 29.4679" stroke="#888888" stroke-width="2" stroke-linecap="round" stroke-linejoin="round"/>
<path d="M41.9219 77.9512H93.0745L109.532 94.409" stroke="#EA4C14" stroke-width="2" stroke-linecap="round"/>
<path d="M37.0292 94.4091H1L1 1H138V94.4091H126.435" stroke="#888888" stroke-width="2" stroke-linecap="round"/>
<path d="M54.377 28.5779V1M111.312 28.5779V14.789V1" stroke="#888888" stroke-width="2" stroke-linecap="round"/>
<rect x="50.709" y="54.2666" width="19.7922" height="12.6753" stroke="#EA4C14" stroke-width="2" stroke-linejoin="round"/>
<path d="M60.1582 67.2764V70.39" stroke="#EA4C14" stroke-width="2" stroke-linecap="round"/>
<path d="M104.195 78.3965H114.871" stroke="#EA4C14" stroke-width="2" stroke-linecap="round"/>
<path d="M104.195 81.0654H114.871" stroke="#EA4C14" stroke-width="2" stroke-linecap="round"/>
<path d="M115.759 70.8349V61.9388M115.759 1.89014V61.9388M93.0742 1.89014V51.2635M93.0742 70.8349V51.2635M93.0742 51.2635L101.97 60.1596M105.529 63.2733L107.753 65.4973M101.97 47.7051L115.759 61.9388M96.6327 42.3674L98.8567 44.5914M93.519 32.5817L100.636 40.1434M108.198 18.3479L115.759 26.3544M103.305 13.0103L105.529 15.2343" stroke="#888888" stroke-width="2" stroke-linecap="round"/>
<path d="M17.0117 88.6265V77.0615H28.5767V88.6265C28.4284 90.1091 27.0643 93.0745 22.7942 93.0745C18.5241 93.0745 17.16 90.1091 17.0117 88.6265Z" stroke="#EA4C14" stroke-width="2" stroke-linecap="round"/>
<path d="M22.7922 76.6168V69.0551M22.7922 43.7012V61.9382M15.2305 52.5973C15.2305 52.5973 17.5348 55.4438 19.0113 57.2677C20.4878 59.0917 22.7922 61.9382 22.7922 61.9382M22.7922 61.9382V69.0551M22.7922 69.0551L33.4675 58.3797" stroke="#EA4C14" stroke-width="2" stroke-linecap="round"/>
<circle cx="33.469" cy="58.3801" r="5.67208" stroke="#EA4C14" stroke-width="2"/>
<circle cx="22.7932" cy="43.2566" r="3.89286" stroke="#EA4C14" stroke-width="2"/>
<circle cx="15.677" cy="53.0422" r="4.78247" stroke="#EA4C14" stroke-width="2"/>
<rect x="41.8105" y="71.1689" width="79.3961" height="23.3506" stroke="#EA4C14" stroke-width="2" stroke-linejoin="round"/>
</svg>
