<svg width="20" height="14" viewBox="0 0 20 14" fill="none" xmlns="http://www.w3.org/2000/svg">
<path fill-rule="evenodd" clip-rule="evenodd" d="M17.6391 0.741156C18.4547 0.960764 19.0979 1.6039 19.3175 2.41959C19.7253 3.90978 19.7096 7.01567 19.7096 7.01567C19.7096 7.01567 19.7096 10.1059 19.3175 11.5961C19.0979 12.4117 18.4547 13.0549 17.6391 13.2745C16.1489 13.6666 10.1881 13.6666 10.1881 13.6666C10.1881 13.6666 4.24297 13.6666 2.73709 13.2588C1.92141 13.0392 1.27827 12.3961 1.05866 11.5804C0.666504 10.1059 0.666504 6.99998 0.666504 6.99998C0.666504 6.99998 0.666504 3.90978 1.05866 2.41959C1.27827 1.6039 1.93709 0.945078 2.73709 0.72547C4.22729 0.333313 10.1881 0.333313 10.1881 0.333313C10.1881 0.333313 16.1489 0.333313 17.6391 0.741156ZM13.2469 6.99986L8.29 9.85476V4.14496L13.2469 6.99986Z" fill="white"/>
</svg>
